<?xml version="1.0" encoding="utf-8" standalone="no"?>
<!DOCTYPE svg PUBLIC "-//W3C//DTD SVG 1.1//EN"
  "http://www.w3.org/Graphics/SVG/1.1/DTD/svg11.dtd">
<!-- Created with matplotlib (https://matplotlib.org/) -->
<svg height="345.6pt" version="1.1" viewBox="0 0 460.8 345.6" width="460.8pt" xmlns="http://www.w3.org/2000/svg" xmlns:xlink="http://www.w3.org/1999/xlink">
 <metadata>
  <rdf:RDF xmlns:cc="http://creativecommons.org/ns#" xmlns:dc="http://purl.org/dc/elements/1.1/" xmlns:rdf="http://www.w3.org/1999/02/22-rdf-syntax-ns#">
   <cc:Work>
    <dc:type rdf:resource="http://purl.org/dc/dcmitype/StillImage"/>
    <dc:date>2022-12-08T00:52:09.543102</dc:date>
    <dc:format>image/svg+xml</dc:format>
    <dc:creator>
     <cc:Agent>
      <dc:title>Matplotlib v3.3.4, https://matplotlib.org/</dc:title>
     </cc:Agent>
    </dc:creator>
   </cc:Work>
  </rdf:RDF>
 </metadata>
 <defs>
  <style type="text/css">*{stroke-linecap:butt;stroke-linejoin:round;}</style>
 </defs>
 <g id="figure_1">
  <g id="patch_1">
   <path d="M 0 345.6 
L 460.8 345.6 
L 460.8 0 
L 0 0 
z
" style="fill:#ffffff;"/>
  </g>
  <g id="axes_1">
   <g id="patch_2">
    <path d="M 81.914754 307.584 
L 390.405246 307.584 
L 390.405246 41.472 
L 81.914754 41.472 
z
" style="fill:#ffffff;"/>
   </g>
   <g id="matplotlib.axis_1">
    <g id="xtick_1">
     <g id="line2d_1">
      <path clip-path="url(#p0c7113464e)" d="M 94.690623 307.584 
L 94.690623 41.472 
" style="fill:none;stroke:#b0b0b0;stroke-linecap:square;stroke-width:0.2;"/>
     </g>
     <g id="line2d_2">
      <defs>
       <path d="M 0 0 
L 0 3.5 
" id="m1a03c461f7" style="stroke:#000000;stroke-width:0.8;"/>
      </defs>
      <g>
       <use style="stroke:#000000;stroke-width:0.8;" x="94.690623" xlink:href="#m1a03c461f7" y="307.584"/>
      </g>
     </g>
     <g id="text_1">
      <!-- −25 -->
      <g transform="translate(84.138279 322.182437)scale(0.1 -0.1)">
       <defs>
        <path d="M 10.59375 35.5 
L 73.1875 35.5 
L 73.1875 27.203125 
L 10.59375 27.203125 
z
" id="DejaVuSans-8722"/>
        <path d="M 19.1875 8.296875 
L 53.609375 8.296875 
L 53.609375 0 
L 7.328125 0 
L 7.328125 8.296875 
Q 12.9375 14.109375 22.625 23.890625 
Q 32.328125 33.6875 34.8125 36.53125 
Q 39.546875 41.84375 41.421875 45.53125 
Q 43.3125 49.21875 43.3125 52.78125 
Q 43.3125 58.59375 39.234375 62.25 
Q 35.15625 65.921875 28.609375 65.921875 
Q 23.96875 65.921875 18.8125 64.3125 
Q 13.671875 62.703125 7.8125 59.421875 
L 7.8125 69.390625 
Q 13.765625 71.78125 18.9375 73 
Q 24.125 74.21875 28.421875 74.21875 
Q 39.75 74.21875 46.484375 68.546875 
Q 53.21875 62.890625 53.21875 53.421875 
Q 53.21875 48.921875 51.53125 44.890625 
Q 49.859375 40.875 45.40625 35.40625 
Q 44.1875 33.984375 37.640625 27.21875 
Q 31.109375 20.453125 19.1875 8.296875 
z
" id="DejaVuSans-50"/>
        <path d="M 10.796875 72.90625 
L 49.515625 72.90625 
L 49.515625 64.59375 
L 19.828125 64.59375 
L 19.828125 46.734375 
Q 21.96875 47.46875 24.109375 47.828125 
Q 26.265625 48.1875 28.421875 48.1875 
Q 40.625 48.1875 47.75 41.5 
Q 54.890625 34.8125 54.890625 23.390625 
Q 54.890625 11.625 47.5625 5.09375 
Q 40.234375 -1.421875 26.90625 -1.421875 
Q 22.3125 -1.421875 17.546875 -0.640625 
Q 12.796875 0.140625 7.71875 1.703125 
L 7.71875 11.625 
Q 12.109375 9.234375 16.796875 8.0625 
Q 21.484375 6.890625 26.703125 6.890625 
Q 35.15625 6.890625 40.078125 11.328125 
Q 45.015625 15.765625 45.015625 23.390625 
Q 45.015625 31 40.078125 35.4375 
Q 35.15625 39.890625 26.703125 39.890625 
Q 22.75 39.890625 18.8125 39.015625 
Q 14.890625 38.140625 10.796875 36.28125 
z
" id="DejaVuSans-53"/>
       </defs>
       <use xlink:href="#DejaVuSans-8722"/>
       <use x="83.789062" xlink:href="#DejaVuSans-50"/>
       <use x="147.412109" xlink:href="#DejaVuSans-53"/>
      </g>
     </g>
    </g>
    <g id="xtick_2">
     <g id="line2d_3">
      <path clip-path="url(#p0c7113464e)" d="M 157.323541 307.584 
L 157.323541 41.472 
" style="fill:none;stroke:#b0b0b0;stroke-linecap:square;stroke-width:0.2;"/>
     </g>
     <g id="line2d_4">
      <g>
       <use style="stroke:#000000;stroke-width:0.8;" x="157.323541" xlink:href="#m1a03c461f7" y="307.584"/>
      </g>
     </g>
     <g id="text_2">
      <!-- −20 -->
      <g transform="translate(146.771197 322.182437)scale(0.1 -0.1)">
       <defs>
        <path d="M 31.78125 66.40625 
Q 24.171875 66.40625 20.328125 58.90625 
Q 16.5 51.421875 16.5 36.375 
Q 16.5 21.390625 20.328125 13.890625 
Q 24.171875 6.390625 31.78125 6.390625 
Q 39.453125 6.390625 43.28125 13.890625 
Q 47.125 21.390625 47.125 36.375 
Q 47.125 51.421875 43.28125 58.90625 
Q 39.453125 66.40625 31.78125 66.40625 
z
M 31.78125 74.21875 
Q 44.046875 74.21875 50.515625 64.515625 
Q 56.984375 54.828125 56.984375 36.375 
Q 56.984375 17.96875 50.515625 8.265625 
Q 44.046875 -1.421875 31.78125 -1.421875 
Q 19.53125 -1.421875 13.0625 8.265625 
Q 6.59375 17.96875 6.59375 36.375 
Q 6.59375 54.828125 13.0625 64.515625 
Q 19.53125 74.21875 31.78125 74.21875 
z
" id="DejaVuSans-48"/>
       </defs>
       <use xlink:href="#DejaVuSans-8722"/>
       <use x="83.789062" xlink:href="#DejaVuSans-50"/>
       <use x="147.412109" xlink:href="#DejaVuSans-48"/>
      </g>
     </g>
    </g>
    <g id="xtick_3">
     <g id="line2d_5">
      <path clip-path="url(#p0c7113464e)" d="M 219.956459 307.584 
L 219.956459 41.472 
" style="fill:none;stroke:#b0b0b0;stroke-linecap:square;stroke-width:0.2;"/>
     </g>
     <g id="line2d_6">
      <g>
       <use style="stroke:#000000;stroke-width:0.8;" x="219.956459" xlink:href="#m1a03c461f7" y="307.584"/>
      </g>
     </g>
     <g id="text_3">
      <!-- −15 -->
      <g transform="translate(209.404115 322.182437)scale(0.1 -0.1)">
       <defs>
        <path d="M 12.40625 8.296875 
L 28.515625 8.296875 
L 28.515625 63.921875 
L 10.984375 60.40625 
L 10.984375 69.390625 
L 28.421875 72.90625 
L 38.28125 72.90625 
L 38.28125 8.296875 
L 54.390625 8.296875 
L 54.390625 0 
L 12.40625 0 
z
" id="DejaVuSans-49"/>
       </defs>
       <use xlink:href="#DejaVuSans-8722"/>
       <use x="83.789062" xlink:href="#DejaVuSans-49"/>
       <use x="147.412109" xlink:href="#DejaVuSans-53"/>
      </g>
     </g>
    </g>
    <g id="xtick_4">
     <g id="line2d_7">
      <path clip-path="url(#p0c7113464e)" d="M 282.589377 307.584 
L 282.589377 41.472 
" style="fill:none;stroke:#b0b0b0;stroke-linecap:square;stroke-width:0.2;"/>
     </g>
     <g id="line2d_8">
      <g>
       <use style="stroke:#000000;stroke-width:0.8;" x="282.589377" xlink:href="#m1a03c461f7" y="307.584"/>
      </g>
     </g>
     <g id="text_4">
      <!-- −10 -->
      <g transform="translate(272.037033 322.182437)scale(0.1 -0.1)">
       <use xlink:href="#DejaVuSans-8722"/>
       <use x="83.789062" xlink:href="#DejaVuSans-49"/>
       <use x="147.412109" xlink:href="#DejaVuSans-48"/>
      </g>
     </g>
    </g>
    <g id="xtick_5">
     <g id="line2d_9">
      <path clip-path="url(#p0c7113464e)" d="M 345.222295 307.584 
L 345.222295 41.472 
" style="fill:none;stroke:#b0b0b0;stroke-linecap:square;stroke-width:0.2;"/>
     </g>
     <g id="line2d_10">
      <g>
       <use style="stroke:#000000;stroke-width:0.8;" x="345.222295" xlink:href="#m1a03c461f7" y="307.584"/>
      </g>
     </g>
     <g id="text_5">
      <!-- −5 -->
      <g transform="translate(337.851201 322.182437)scale(0.1 -0.1)">
       <use xlink:href="#DejaVuSans-8722"/>
       <use x="83.789062" xlink:href="#DejaVuSans-53"/>
      </g>
     </g>
    </g>
    <g id="text_6">
     <!-- X / m -->
     <g transform="translate(217.739063 338.899937)scale(0.14 -0.14)">
      <defs>
       <path d="M 6.296875 72.90625 
L 16.890625 72.90625 
L 35.015625 45.796875 
L 53.21875 72.90625 
L 63.8125 72.90625 
L 40.375 37.890625 
L 65.375 0 
L 54.78125 0 
L 34.28125 31 
L 13.625 0 
L 2.984375 0 
L 29 38.921875 
z
" id="DejaVuSans-88"/>
       <path id="DejaVuSans-32"/>
       <path d="M 25.390625 72.90625 
L 33.6875 72.90625 
L 8.296875 -9.28125 
L 0 -9.28125 
z
" id="DejaVuSans-47"/>
       <path d="M 52 44.1875 
Q 55.375 50.25 60.0625 53.125 
Q 64.75 56 71.09375 56 
Q 79.640625 56 84.28125 50.015625 
Q 88.921875 44.046875 88.921875 33.015625 
L 88.921875 0 
L 79.890625 0 
L 79.890625 32.71875 
Q 79.890625 40.578125 77.09375 44.375 
Q 74.3125 48.1875 68.609375 48.1875 
Q 61.625 48.1875 57.5625 43.546875 
Q 53.515625 38.921875 53.515625 30.90625 
L 53.515625 0 
L 44.484375 0 
L 44.484375 32.71875 
Q 44.484375 40.625 41.703125 44.40625 
Q 38.921875 48.1875 33.109375 48.1875 
Q 26.21875 48.1875 22.15625 43.53125 
Q 18.109375 38.875 18.109375 30.90625 
L 18.109375 0 
L 9.078125 0 
L 9.078125 54.6875 
L 18.109375 54.6875 
L 18.109375 46.1875 
Q 21.1875 51.21875 25.484375 53.609375 
Q 29.78125 56 35.6875 56 
Q 41.65625 56 45.828125 52.96875 
Q 50 49.953125 52 44.1875 
z
" id="DejaVuSans-109"/>
      </defs>
      <use xlink:href="#DejaVuSans-88"/>
      <use x="68.505859" xlink:href="#DejaVuSans-32"/>
      <use x="100.292969" xlink:href="#DejaVuSans-47"/>
      <use x="133.984375" xlink:href="#DejaVuSans-32"/>
      <use x="165.771484" xlink:href="#DejaVuSans-109"/>
     </g>
    </g>
   </g>
   <g id="matplotlib.axis_2">
    <g id="ytick_1">
     <g id="line2d_11">
      <path clip-path="url(#p0c7113464e)" d="M 81.914754 279.383607 
L 390.405246 279.383607 
" style="fill:none;stroke:#b0b0b0;stroke-linecap:square;stroke-width:0.2;"/>
     </g>
     <g id="line2d_12">
      <defs>
       <path d="M 0 0 
L -3.5 0 
" id="mf72246992f" style="stroke:#000000;stroke-width:0.8;"/>
      </defs>
      <g>
       <use style="stroke:#000000;stroke-width:0.8;" x="81.914754" xlink:href="#mf72246992f" y="279.383607"/>
      </g>
     </g>
     <g id="text_7">
      <!-- −22.5 -->
      <g transform="translate(44.269442 283.182825)scale(0.1 -0.1)">
       <defs>
        <path d="M 10.6875 12.40625 
L 21 12.40625 
L 21 0 
L 10.6875 0 
z
" id="DejaVuSans-46"/>
       </defs>
       <use xlink:href="#DejaVuSans-8722"/>
       <use x="83.789062" xlink:href="#DejaVuSans-50"/>
       <use x="147.412109" xlink:href="#DejaVuSans-50"/>
       <use x="211.035156" xlink:href="#DejaVuSans-46"/>
       <use x="242.822266" xlink:href="#DejaVuSans-53"/>
      </g>
     </g>
    </g>
    <g id="ytick_2">
     <g id="line2d_13">
      <path clip-path="url(#p0c7113464e)" d="M 81.914754 248.067148 
L 390.405246 248.067148 
" style="fill:none;stroke:#b0b0b0;stroke-linecap:square;stroke-width:0.2;"/>
     </g>
     <g id="line2d_14">
      <g>
       <use style="stroke:#000000;stroke-width:0.8;" x="81.914754" xlink:href="#mf72246992f" y="248.067148"/>
      </g>
     </g>
     <g id="text_8">
      <!-- −20.0 -->
      <g transform="translate(44.269442 251.866366)scale(0.1 -0.1)">
       <use xlink:href="#DejaVuSans-8722"/>
       <use x="83.789062" xlink:href="#DejaVuSans-50"/>
       <use x="147.412109" xlink:href="#DejaVuSans-48"/>
       <use x="211.035156" xlink:href="#DejaVuSans-46"/>
       <use x="242.822266" xlink:href="#DejaVuSans-48"/>
      </g>
     </g>
    </g>
    <g id="ytick_3">
     <g id="line2d_15">
      <path clip-path="url(#p0c7113464e)" d="M 81.914754 216.750689 
L 390.405246 216.750689 
" style="fill:none;stroke:#b0b0b0;stroke-linecap:square;stroke-width:0.2;"/>
     </g>
     <g id="line2d_16">
      <g>
       <use style="stroke:#000000;stroke-width:0.8;" x="81.914754" xlink:href="#mf72246992f" y="216.750689"/>
      </g>
     </g>
     <g id="text_9">
      <!-- −17.5 -->
      <g transform="translate(44.269442 220.549907)scale(0.1 -0.1)">
       <defs>
        <path d="M 8.203125 72.90625 
L 55.078125 72.90625 
L 55.078125 68.703125 
L 28.609375 0 
L 18.3125 0 
L 43.21875 64.59375 
L 8.203125 64.59375 
z
" id="DejaVuSans-55"/>
       </defs>
       <use xlink:href="#DejaVuSans-8722"/>
       <use x="83.789062" xlink:href="#DejaVuSans-49"/>
       <use x="147.412109" xlink:href="#DejaVuSans-55"/>
       <use x="211.035156" xlink:href="#DejaVuSans-46"/>
       <use x="242.822266" xlink:href="#DejaVuSans-53"/>
      </g>
     </g>
    </g>
    <g id="ytick_4">
     <g id="line2d_17">
      <path clip-path="url(#p0c7113464e)" d="M 81.914754 185.43423 
L 390.405246 185.43423 
" style="fill:none;stroke:#b0b0b0;stroke-linecap:square;stroke-width:0.2;"/>
     </g>
     <g id="line2d_18">
      <g>
       <use style="stroke:#000000;stroke-width:0.8;" x="81.914754" xlink:href="#mf72246992f" y="185.43423"/>
      </g>
     </g>
     <g id="text_10">
      <!-- −15.0 -->
      <g transform="translate(44.269442 189.233448)scale(0.1 -0.1)">
       <use xlink:href="#DejaVuSans-8722"/>
       <use x="83.789062" xlink:href="#DejaVuSans-49"/>
       <use x="147.412109" xlink:href="#DejaVuSans-53"/>
       <use x="211.035156" xlink:href="#DejaVuSans-46"/>
       <use x="242.822266" xlink:href="#DejaVuSans-48"/>
      </g>
     </g>
    </g>
    <g id="ytick_5">
     <g id="line2d_19">
      <path clip-path="url(#p0c7113464e)" d="M 81.914754 154.11777 
L 390.405246 154.11777 
" style="fill:none;stroke:#b0b0b0;stroke-linecap:square;stroke-width:0.2;"/>
     </g>
     <g id="line2d_20">
      <g>
       <use style="stroke:#000000;stroke-width:0.8;" x="81.914754" xlink:href="#mf72246992f" y="154.11777"/>
      </g>
     </g>
     <g id="text_11">
      <!-- −12.5 -->
      <g transform="translate(44.269442 157.916989)scale(0.1 -0.1)">
       <use xlink:href="#DejaVuSans-8722"/>
       <use x="83.789062" xlink:href="#DejaVuSans-49"/>
       <use x="147.412109" xlink:href="#DejaVuSans-50"/>
       <use x="211.035156" xlink:href="#DejaVuSans-46"/>
       <use x="242.822266" xlink:href="#DejaVuSans-53"/>
      </g>
     </g>
    </g>
    <g id="ytick_6">
     <g id="line2d_21">
      <path clip-path="url(#p0c7113464e)" d="M 81.914754 122.801311 
L 390.405246 122.801311 
" style="fill:none;stroke:#b0b0b0;stroke-linecap:square;stroke-width:0.2;"/>
     </g>
     <g id="line2d_22">
      <g>
       <use style="stroke:#000000;stroke-width:0.8;" x="81.914754" xlink:href="#mf72246992f" y="122.801311"/>
      </g>
     </g>
     <g id="text_12">
      <!-- −10.0 -->
      <g transform="translate(44.269442 126.60053)scale(0.1 -0.1)">
       <use xlink:href="#DejaVuSans-8722"/>
       <use x="83.789062" xlink:href="#DejaVuSans-49"/>
       <use x="147.412109" xlink:href="#DejaVuSans-48"/>
       <use x="211.035156" xlink:href="#DejaVuSans-46"/>
       <use x="242.822266" xlink:href="#DejaVuSans-48"/>
      </g>
     </g>
    </g>
    <g id="ytick_7">
     <g id="line2d_23">
      <path clip-path="url(#p0c7113464e)" d="M 81.914754 91.484852 
L 390.405246 91.484852 
" style="fill:none;stroke:#b0b0b0;stroke-linecap:square;stroke-width:0.2;"/>
     </g>
     <g id="line2d_24">
      <g>
       <use style="stroke:#000000;stroke-width:0.8;" x="81.914754" xlink:href="#mf72246992f" y="91.484852"/>
      </g>
     </g>
     <g id="text_13">
      <!-- −7.5 -->
      <g transform="translate(50.631942 95.284071)scale(0.1 -0.1)">
       <use xlink:href="#DejaVuSans-8722"/>
       <use x="83.789062" xlink:href="#DejaVuSans-55"/>
       <use x="147.412109" xlink:href="#DejaVuSans-46"/>
       <use x="179.199219" xlink:href="#DejaVuSans-53"/>
      </g>
     </g>
    </g>
    <g id="ytick_8">
     <g id="line2d_25">
      <path clip-path="url(#p0c7113464e)" d="M 81.914754 60.168393 
L 390.405246 60.168393 
" style="fill:none;stroke:#b0b0b0;stroke-linecap:square;stroke-width:0.2;"/>
     </g>
     <g id="line2d_26">
      <g>
       <use style="stroke:#000000;stroke-width:0.8;" x="81.914754" xlink:href="#mf72246992f" y="60.168393"/>
      </g>
     </g>
     <g id="text_14">
      <!-- −5.0 -->
      <g transform="translate(50.631942 63.967612)scale(0.1 -0.1)">
       <use xlink:href="#DejaVuSans-8722"/>
       <use x="83.789062" xlink:href="#DejaVuSans-53"/>
       <use x="147.412109" xlink:href="#DejaVuSans-46"/>
       <use x="179.199219" xlink:href="#DejaVuSans-48"/>
      </g>
     </g>
    </g>
    <g id="text_15">
     <!-- Y / m -->
     <g transform="translate(37.357879 192.429406)rotate(-90)scale(0.14 -0.14)">
      <defs>
       <path d="M -0.203125 72.90625 
L 10.40625 72.90625 
L 30.609375 42.921875 
L 50.6875 72.90625 
L 61.28125 72.90625 
L 35.5 34.71875 
L 35.5 0 
L 25.59375 0 
L 25.59375 34.71875 
z
" id="DejaVuSans-89"/>
      </defs>
      <use xlink:href="#DejaVuSans-89"/>
      <use x="61.083984" xlink:href="#DejaVuSans-32"/>
      <use x="92.871094" xlink:href="#DejaVuSans-47"/>
      <use x="126.5625" xlink:href="#DejaVuSans-32"/>
      <use x="158.349609" xlink:href="#DejaVuSans-109"/>
     </g>
    </g>
   </g>
   <g id="patch_3">
    <path clip-path="url(#p0c7113464e)" d="M 63.658803 249.579069 
L 238.188923 179.971749 
L 247.20075 202.567582 
L 72.67063 272.174902 
z
" style="opacity:0.5;"/>
   </g>
   <g id="patch_4">
    <path clip-path="url(#p0c7113464e)" d="M 316.017721 148.931524 
L 490.54784 79.324204 
L 499.559668 101.920037 
L 325.029548 171.527357 
z
" style="opacity:0.5;"/>
   </g>
   <g id="patch_5">
    <path clip-path="url(#p0c7113464e)" d="M 73.790297 276.45194 
L 486.434897 110.966489 
L 503.539336 137.905981 
L 82.770128 293.556379 
z
" style="opacity:0.5;"/>
   </g>
   <g id="line2d_27">
    <path clip-path="url(#p0c7113464e)" d="M 198.197514 180.974228 
L 255.759176 169.282015 
L 250.91672 145.442231 
L 193.355057 157.134443 
L 198.197514 180.974228 
" style="fill:none;stroke:#008000;stroke-dasharray:1.48,0.64;stroke-dashoffset:0;stroke-width:0.4;"/>
   </g>
   <g id="line2d_28">
    <path clip-path="url(#p0c7113464e)" d="M 258.836092 197.927094 
L 313.394207 176.167845 
L 304.382379 153.572013 
L 249.824264 175.331261 
L 258.836092 197.927094 
" style="fill:none;stroke:#ff0000;stroke-dasharray:1.48,0.64;stroke-dashoffset:0;stroke-width:0.4;"/>
   </g>
   <g id="line2d_29">
    <path clip-path="url(#p0c7113464e)" d="M 138.353559 324.135291 
L 187.488426 291.951169 
L 174.159024 271.601434 
L 125.024157 303.785555 
L 138.353559 324.135291 
" style="fill:none;stroke:#0000ff;stroke-dasharray:0.555,0.24;stroke-dashoffset:0;stroke-width:0.15;"/>
   </g>
   <g id="line2d_30">
    <path clip-path="url(#p0c7113464e)" d="M 138.353559 324.135291 
L 187.488426 291.951169 
L 174.159024 271.601434 
L 125.024157 303.785555 
L 138.353559 324.135291 
" style="fill:none;stroke:#0000ff;stroke-dasharray:0.555,0.24;stroke-dashoffset:0;stroke-width:0.15;"/>
   </g>
   <g id="line2d_31">
    <path clip-path="url(#p0c7113464e)" d="M 138.772414 323.860989 
L 187.907162 291.676687 
L 174.577686 271.327 
L 125.442937 303.511302 
L 138.772414 323.860989 
" style="fill:none;stroke:#0000ff;stroke-dasharray:0.555,0.24;stroke-dashoffset:0;stroke-width:0.15;"/>
   </g>
   <g id="line2d_32">
    <path clip-path="url(#p0c7113464e)" d="M 139.552496 323.310802 
L 188.777645 291.264936 
L 175.505503 270.877808 
L 126.280354 302.923675 
L 139.552496 323.310802 
" style="fill:none;stroke:#0000ff;stroke-dasharray:0.555,0.24;stroke-dashoffset:0;stroke-width:0.15;"/>
   </g>
   <g id="line2d_33">
    <path clip-path="url(#p0c7113464e)" d="M 140.625497 322.496267 
L 190.115501 290.860965 
L 177.013399 270.364145 
L 127.523395 301.999447 
L 140.625497 322.496267 
" style="fill:none;stroke:#0000ff;stroke-dasharray:0.555,0.24;stroke-dashoffset:0;stroke-width:0.15;"/>
   </g>
   <g id="line2d_34">
    <path clip-path="url(#p0c7113464e)" d="M 141.931136 321.436767 
L 191.92551 290.604716 
L 179.156083 269.899006 
L 129.161708 300.731057 
L 141.931136 321.436767 
" style="fill:none;stroke:#0000ff;stroke-dasharray:0.555,0.24;stroke-dashoffset:0;stroke-width:0.15;"/>
   </g>
   <g id="line2d_35">
    <path clip-path="url(#p0c7113464e)" d="M 143.428381 320.162729 
L 194.187203 290.606091 
L 181.946002 269.583776 
L 131.18718 299.140414 
L 143.428381 320.162729 
" style="fill:none;stroke:#0000ff;stroke-dasharray:0.555,0.24;stroke-dashoffset:0;stroke-width:0.15;"/>
   </g>
   <g id="line2d_36">
    <path clip-path="url(#p0c7113464e)" d="M 145.100002 318.713844 
L 196.85337 290.935402 
L 185.348628 269.501186 
L 133.595261 297.279628 
L 145.100002 318.713844 
" style="fill:none;stroke:#0000ff;stroke-dasharray:0.555,0.24;stroke-dashoffset:0;stroke-width:0.15;"/>
   </g>
   <g id="line2d_37">
    <path clip-path="url(#p0c7113464e)" d="M 146.950152 317.139501 
L 199.851214 291.614405 
L 189.27972 269.704859 
L 136.378658 295.229954 
L 146.950152 317.139501 
" style="fill:none;stroke:#0000ff;stroke-dasharray:0.555,0.24;stroke-dashoffset:0;stroke-width:0.15;"/>
   </g>
   <g id="line2d_38">
    <path clip-path="url(#p0c7113464e)" d="M 148.998866 315.498502 
L 203.092391 292.608692 
L 193.612329 270.205274 
L 139.518804 293.095084 
L 148.998866 315.498502 
" style="fill:none;stroke:#0000ff;stroke-dasharray:0.555,0.24;stroke-dashoffset:0;stroke-width:0.15;"/>
   </g>
   <g id="line2d_39">
    <path clip-path="url(#p0c7113464e)" d="M 151.271682 313.856558 
L 206.490189 293.832342 
L 198.196944 270.963001 
L 142.978436 290.987217 
L 151.271682 313.856558 
" style="fill:none;stroke:#0000ff;stroke-dasharray:0.555,0.24;stroke-dashoffset:0;stroke-width:0.15;"/>
   </g>
   <g id="line2d_40">
    <path clip-path="url(#p0c7113464e)" d="M 153.787036 312.280329 
L 209.975869 295.166945 
L 202.888177 271.895733 
L 146.699344 289.009117 
L 153.787036 312.280329 
" style="fill:none;stroke:#0000ff;stroke-dasharray:0.555,0.24;stroke-dashoffset:0;stroke-width:0.15;"/>
   </g>
   <g id="line2d_41">
    <path clip-path="url(#p0c7113464e)" d="M 156.546719 310.829145 
L 213.50584 296.486506 
L 207.565681 272.89627 
L 150.60656 287.23891 
L 156.546719 310.829145 
" style="fill:none;stroke:#0000ff;stroke-dasharray:0.555,0.24;stroke-dashoffset:0;stroke-width:0.15;"/>
   </g>
   <g id="line2d_42">
    <path clip-path="url(#p0c7113464e)" d="M 159.531999 309.547246 
L 217.057604 297.678899 
L 212.1422 273.854049 
L 154.616595 285.722396 
L 159.531999 309.547246 
" style="fill:none;stroke:#0000ff;stroke-dasharray:0.555,0.24;stroke-dashoffset:0;stroke-width:0.15;"/>
   </g>
   <g id="line2d_43">
    <path clip-path="url(#p0c7113464e)" d="M 162.705343 308.455821 
L 220.62164 298.670351 
L 216.568882 274.683692 
L 158.652585 284.469161 
L 162.705343 308.455821 
" style="fill:none;stroke:#0000ff;stroke-dasharray:0.555,0.24;stroke-dashoffset:0;stroke-width:0.15;"/>
   </g>
   <g id="line2d_44">
    <path clip-path="url(#p0c7113464e)" d="M 166.023754 307.552867 
L 224.196018 299.426332 
L 220.830326 275.333661 
L 162.658062 283.460195 
L 166.023754 307.552867 
" style="fill:none;stroke:#0000ff;stroke-dasharray:0.555,0.24;stroke-dashoffset:0;stroke-width:0.15;"/>
   </g>
   <g id="line2d_45">
    <path clip-path="url(#p0c7113464e)" d="M 169.452544 306.823933 
L 227.782911 299.923126 
L 224.924867 275.764974 
L 166.5945 282.665781 
L 169.452544 306.823933 
" style="fill:none;stroke:#0000ff;stroke-dasharray:0.555,0.24;stroke-dashoffset:0;stroke-width:0.15;"/>
   </g>
   <g id="line2d_46">
    <path clip-path="url(#p0c7113464e)" d="M 172.969753 306.247881 
L 231.388291 300.138273 
L 228.857931 275.943605 
L 170.439393 282.053212 
L 172.969753 306.247881 
" style="fill:none;stroke:#0000ff;stroke-dasharray:0.555,0.24;stroke-dashoffset:0;stroke-width:0.15;"/>
   </g>
   <g id="line2d_47">
    <path clip-path="url(#p0c7113464e)" d="M 176.571271 305.802272 
L 235.024693 300.035965 
L 232.636515 275.826849 
L 174.183093 281.593156 
L 176.571271 305.802272 
" style="fill:none;stroke:#0000ff;stroke-dasharray:0.555,0.24;stroke-dashoffset:0;stroke-width:0.15;"/>
   </g>
   <g id="line2d_48">
    <path clip-path="url(#p0c7113464e)" d="M 180.261345 305.460764 
L 238.703547 299.581835 
L 236.268726 275.377365 
L 177.826523 281.256294 
L 180.261345 305.460764 
" style="fill:none;stroke:#0000ff;stroke-dasharray:0.555,0.24;stroke-dashoffset:0;stroke-width:0.15;"/>
   </g>
   <g id="line2d_49">
    <path clip-path="url(#p0c7113464e)" d="M 184.047631 305.191904 
L 242.430535 298.750687 
L 239.762836 274.570776 
L 181.379931 281.011994 
L 184.047631 305.191904 
" style="fill:none;stroke:#0000ff;stroke-dasharray:0.555,0.24;stroke-dashoffset:0;stroke-width:0.15;"/>
   </g>
   <g id="line2d_50">
    <path clip-path="url(#p0c7113464e)" d="M 187.938973 304.9619 
L 246.202612 297.518707 
L 243.119934 273.388191 
L 184.856294 280.831384 
L 187.938973 304.9619 
" style="fill:none;stroke:#0000ff;stroke-dasharray:0.555,0.24;stroke-dashoffset:0;stroke-width:0.15;"/>
   </g>
   <g id="line2d_51">
    <path clip-path="url(#p0c7113464e)" d="M 191.934755 304.735212 
L 249.998527 295.866657 
L 246.325519 271.818919 
L 188.261747 280.687474 
L 191.934755 304.735212 
" style="fill:none;stroke:#0000ff;stroke-dasharray:0.555,0.24;stroke-dashoffset:0;stroke-width:0.15;"/>
   </g>
   <g id="line2d_52">
    <path clip-path="url(#p0c7113464e)" d="M 196.025773 304.475875 
L 253.780619 293.778649 
L 249.350248 269.858856 
L 191.595402 280.556082 
L 196.025773 304.475875 
" style="fill:none;stroke:#0000ff;stroke-dasharray:0.555,0.24;stroke-dashoffset:0;stroke-width:0.15;"/>
   </g>
   <g id="line2d_53">
    <path clip-path="url(#p0c7113464e)" d="M 200.193967 304.14721 
L 257.497699 291.250115 
L 252.156228 267.517155 
L 194.852495 280.41425 
L 200.193967 304.14721 
" style="fill:none;stroke:#0000ff;stroke-dasharray:0.555,0.24;stroke-dashoffset:0;stroke-width:0.15;"/>
   </g>
   <g id="line2d_54">
    <path clip-path="url(#p0c7113464e)" d="M 204.413382 303.712887 
L 261.090686 288.294195 
L 254.704868 264.820677 
L 198.027564 280.239369 
L 204.413382 303.712887 
" style="fill:none;stroke:#0000ff;stroke-dasharray:0.555,0.24;stroke-dashoffset:0;stroke-width:0.15;"/>
   </g>
   <g id="line2d_55">
    <path clip-path="url(#p0c7113464e)" d="M 208.654247 303.140113 
L 264.4998 284.93772 
L 256.961082 261.808681 
L 201.115529 280.011074 
L 208.654247 303.140113 
" style="fill:none;stroke:#0000ff;stroke-dasharray:0.555,0.24;stroke-dashoffset:0;stroke-width:0.15;"/>
   </g>
   <g id="line2d_56">
    <path clip-path="url(#p0c7113464e)" d="M 212.881788 302.398348 
L 267.674153 281.235893 
L 258.909494 258.543043 
L 204.117128 279.705498 
L 212.881788 302.398348 
" style="fill:none;stroke:#0000ff;stroke-dasharray:0.555,0.24;stroke-dashoffset:0;stroke-width:0.15;"/>
   </g>
   <g id="line2d_57">
    <path clip-path="url(#p0c7113464e)" d="M 217.064322 301.468791 
L 270.569652 277.235911 
L 260.533343 255.0761 
L 207.028013 279.30898 
L 217.064322 301.468791 
" style="fill:none;stroke:#0000ff;stroke-dasharray:0.555,0.24;stroke-dashoffset:0;stroke-width:0.15;"/>
   </g>
   <g id="line2d_58">
    <path clip-path="url(#p0c7113464e)" d="M 221.161356 300.33959 
L 273.153104 273.009918 
L 261.834225 251.476974 
L 209.842477 278.806646 
L 221.161356 300.33959 
" style="fill:none;stroke:#0000ff;stroke-dasharray:0.555,0.24;stroke-dashoffset:0;stroke-width:0.15;"/>
   </g>
   <g id="line2d_59">
    <path clip-path="url(#p0c7113464e)" d="M 225.12215 299.008492 
L 275.412915 268.662291 
L 262.844708 247.833828 
L 212.553944 278.180029 
L 225.12215 299.008492 
" style="fill:none;stroke:#0000ff;stroke-dasharray:0.555,0.24;stroke-dashoffset:0;stroke-width:0.15;"/>
   </g>
   <g id="line2d_60">
    <path clip-path="url(#p0c7113464e)" d="M 228.882836 297.489877 
L 277.364676 264.330201 
L 263.631238 244.250923 
L 215.149398 277.410599 
L 228.882836 297.489877 
" style="fill:none;stroke:#0000ff;stroke-dasharray:0.555,0.24;stroke-dashoffset:0;stroke-width:0.15;"/>
   </g>
   <g id="line2d_61">
    <path clip-path="url(#p0c7113464e)" d="M 232.366077 295.82253 
L 279.053062 260.180163 
L 264.291391 240.844244 
L 217.604406 276.486611 
L 232.366077 295.82253 
" style="fill:none;stroke:#0000ff;stroke-dasharray:0.555,0.24;stroke-dashoffset:0;stroke-width:0.15;"/>
   </g>
   <g id="line2d_62">
    <path clip-path="url(#p0c7113464e)" d="M 235.503939 294.068633 
L 280.544285 256.366907 
L 264.929708 237.712961 
L 219.889362 275.414687 
L 235.503939 294.068633 
" style="fill:none;stroke:#0000ff;stroke-dasharray:0.555,0.24;stroke-dashoffset:0;stroke-width:0.15;"/>
   </g>
   <g id="line2d_63">
    <path clip-path="url(#p0c7113464e)" d="M 238.265652 292.299187 
L 281.902751 252.981806 
L 265.619034 234.90903 
L 221.981934 274.22641 
L 238.265652 292.299187 
" style="fill:none;stroke:#0000ff;stroke-dasharray:0.555,0.24;stroke-dashoffset:0;stroke-width:0.15;"/>
   </g>
   <g id="line2d_64">
    <path clip-path="url(#p0c7113464e)" d="M 240.656841 290.575652 
L 283.179223 250.055287 
L 266.397276 232.444184 
L 223.874894 272.964548 
L 240.656841 290.575652 
" style="fill:none;stroke:#0000ff;stroke-dasharray:0.555,0.24;stroke-dashoffset:0;stroke-width:0.15;"/>
   </g>
   <g id="line2d_65">
    <path clip-path="url(#p0c7113464e)" d="M 242.700832 288.946655 
L 284.402654 247.582287 
L 267.271154 230.311027 
L 225.569333 271.675395 
L 242.700832 288.946655 
" style="fill:none;stroke:#0000ff;stroke-dasharray:0.555,0.24;stroke-dashoffset:0;stroke-width:0.15;"/>
   </g>
   <g id="line2d_66">
    <path clip-path="url(#p0c7113464e)" d="M 244.426933 287.448712 
L 285.580874 245.539214 
L 268.223603 228.494865 
L 227.069662 270.404362 
L 244.426933 287.448712 
" style="fill:none;stroke:#0000ff;stroke-dasharray:0.555,0.24;stroke-dashoffset:0;stroke-width:0.15;"/>
   </g>
   <g id="line2d_67">
    <path clip-path="url(#p0c7113464e)" d="M 245.864319 286.108318 
L 286.704572 243.893076 
L 269.220673 226.978645 
L 228.380421 269.193886 
L 245.864319 286.108318 
" style="fill:none;stroke:#0000ff;stroke-dasharray:0.555,0.24;stroke-dashoffset:0;stroke-width:0.15;"/>
   </g>
   <g id="line2d_68">
    <path clip-path="url(#p0c7113464e)" d="M 247.038763 284.944788 
L 287.751366 242.606428 
L 270.216477 225.744863 
L 229.503874 268.083224 
L 247.038763 284.944788 
" style="fill:none;stroke:#0000ff;stroke-dasharray:0.555,0.24;stroke-dashoffset:0;stroke-width:0.15;"/>
   </g>
   <g id="line2d_69">
    <path clip-path="url(#p0c7113464e)" d="M 247.971515 283.972618 
L 288.689594 241.639522 
L 271.156885 224.77569 
L 230.438807 267.108786 
L 247.971515 283.972618 
" style="fill:none;stroke:#0000ff;stroke-dasharray:0.555,0.24;stroke-dashoffset:0;stroke-width:0.15;"/>
   </g>
   <g id="line2d_70">
    <path clip-path="url(#p0c7113464e)" d="M 248.678728 283.203815 
L 289.481216 240.952071 
L 271.9822 224.05328 
L 231.179712 266.305024 
L 248.678728 283.203815 
" style="fill:none;stroke:#0000ff;stroke-dasharray:0.555,0.24;stroke-dashoffset:0;stroke-width:0.15;"/>
   </g>
   <g id="line2d_71">
    <path clip-path="url(#p0c7113464e)" d="M 249.171996 282.648949 
L 290.08536 240.50456 
L 272.630806 223.559849 
L 231.717442 265.704238 
L 249.171996 282.648949 
" style="fill:none;stroke:#0000ff;stroke-dasharray:0.555,0.24;stroke-dashoffset:0;stroke-width:0.15;"/>
   </g>
   <g id="line2d_72">
    <path clip-path="url(#p0c7113464e)" d="M 249.463035 282.312836 
L 290.467812 240.257383 
L 273.050092 223.274812 
L 232.045315 265.330264 
L 249.463035 282.312836 
" style="fill:none;stroke:#0000ff;stroke-dasharray:0.555,0.24;stroke-dashoffset:0;stroke-width:0.15;"/>
   </g>
   <g id="line2d_73">
    <path clip-path="url(#p0c7113464e)" d="M 249.56231 282.196121 
L 290.604634 240.17731 
L 273.202089 223.179188 
L 232.159766 265.197999 
L 249.56231 282.196121 
" style="fill:none;stroke:#0000ff;stroke-dasharray:0.555,0.24;stroke-dashoffset:0;stroke-width:0.15;"/>
   </g>
   <g id="line2d_74">
    <path clip-path="url(#p0c7113464e)" d="M 249.477511 282.296614 
L 290.485301 240.244099 
L 273.068798 223.26028 
L 232.061008 265.312795 
L 249.477511 282.296614 
" style="fill:none;stroke:#0000ff;stroke-dasharray:0.555,0.24;stroke-dashoffset:0;stroke-width:0.15;"/>
   </g>
   <g id="line2d_75">
    <path clip-path="url(#p0c7113464e)" d="M 249.209032 282.615352 
L 290.106991 240.456014 
L 272.646245 223.517682 
L 231.748287 265.677021 
L 249.209032 282.615352 
" style="fill:none;stroke:#0000ff;stroke-dasharray:0.555,0.24;stroke-dashoffset:0;stroke-width:0.15;"/>
   </g>
   <g id="line2d_76">
    <path clip-path="url(#p0c7113464e)" d="M 248.757146 283.150567 
L 289.479328 240.821419 
L 271.948254 223.955887 
L 231.226072 266.285035 
L 248.757146 283.150567 
" style="fill:none;stroke:#0000ff;stroke-dasharray:0.555,0.24;stroke-dashoffset:0;stroke-width:0.15;"/>
   </g>
   <g id="line2d_77">
    <path clip-path="url(#p0c7113464e)" d="M 248.123539 283.897239 
L 288.622473 241.354447 
L 271.002916 224.581376 
L 230.503982 267.124168 
L 248.123539 283.897239 
" style="fill:none;stroke:#0000ff;stroke-dasharray:0.555,0.24;stroke-dashoffset:0;stroke-width:0.15;"/>
   </g>
   <g id="line2d_78">
    <path clip-path="url(#p0c7113464e)" d="M 247.312567 284.846486 
L 287.564702 242.070108 
L 269.848403 225.399252 
L 229.596268 268.175629 
L 247.312567 284.846486 
" style="fill:none;stroke:#0000ff;stroke-dasharray:0.555,0.24;stroke-dashoffset:0;stroke-width:0.15;"/>
   </g>
   <g id="line2d_79">
    <path clip-path="url(#p0c7113464e)" d="M 246.332558 285.984548 
L 286.339982 242.979213 
L 268.528857 226.409706 
L 228.521434 269.415042 
L 246.332558 285.984548 
" style="fill:none;stroke:#0000ff;stroke-dasharray:0.555,0.24;stroke-dashoffset:0;stroke-width:0.15;"/>
   </g>
   <g id="line2d_80">
    <path clip-path="url(#p0c7113464e)" d="M 245.197235 287.291493 
L 284.985715 244.08351 
L 267.090662 227.604682 
L 227.302182 270.812664 
L 245.197235 287.291493 
" style="fill:none;stroke:#0000ff;stroke-dasharray:0.555,0.24;stroke-dashoffset:0;stroke-width:0.15;"/>
   </g>
   <g id="line2d_81">
    <path clip-path="url(#p0c7113464e)" d="M 243.927198 288.739997 
L 283.540639 245.371481 
L 265.579099 228.965147 
L 225.965659 272.333663 
L 243.927198 288.739997 
" style="fill:none;stroke:#0000ff;stroke-dasharray:0.555,0.24;stroke-dashoffset:0;stroke-width:0.15;"/>
   </g>
   <g id="line2d_82">
    <path clip-path="url(#p0c7113464e)" d="M 242.547687 290.298722 
L 282.03903 246.818994 
L 264.031431 230.463228 
L 224.540088 273.942956 
L 242.547687 290.298722 
" style="fill:none;stroke:#0000ff;stroke-dasharray:0.555,0.24;stroke-dashoffset:0;stroke-width:0.15;"/>
   </g>
   <g id="line2d_83">
    <path clip-path="url(#p0c7113464e)" d="M 241.08924 291.932701 
L 280.509535 248.388548 
L 262.475253 232.062208 
L 223.054959 275.60636 
L 241.08924 291.932701 
" style="fill:none;stroke:#0000ff;stroke-dasharray:0.555,0.24;stroke-dashoffset:0;stroke-width:0.15;"/>
   </g>
   <g id="line2d_84">
    <path clip-path="url(#p0c7113464e)" d="M 239.588596 293.603696 
L 278.975302 250.02916 
L 260.928437 233.71673 
L 221.541731 277.291267 
L 239.588596 293.603696 
" style="fill:none;stroke:#0000ff;stroke-dasharray:0.555,0.24;stroke-dashoffset:0;stroke-width:0.15;"/>
   </g>
   <g id="line2d_85">
    <path clip-path="url(#p0c7113464e)" d="M 238.083423 295.271453 
L 277.463741 251.691143 
L 259.414486 235.381359 
L 220.034167 278.961668 
L 238.083423 295.271453 
" style="fill:none;stroke:#0000ff;stroke-dasharray:0.555,0.24;stroke-dashoffset:0;stroke-width:0.15;"/>
   </g>
   <g id="line2d_86">
    <path clip-path="url(#p0c7113464e)" d="M 236.614051 296.896502 
L 275.996965 253.318538 
L 257.948681 237.007679 
L 218.565767 280.585643 
L 236.614051 296.896502 
" style="fill:none;stroke:#0000ff;stroke-dasharray:0.555,0.24;stroke-dashoffset:0;stroke-width:0.15;"/>
   </g>
   <g id="line2d_87">
    <path clip-path="url(#p0c7113464e)" d="M 235.214125 298.444004 
L 274.600914 254.869543 
L 256.55408 238.557078 
L 217.167291 282.13154 
L 235.214125 298.444004 
" style="fill:none;stroke:#0000ff;stroke-dasharray:0.555,0.24;stroke-dashoffset:0;stroke-width:0.15;"/>
   </g>
   <g id="line2d_88">
    <path clip-path="url(#p0c7113464e)" d="M 233.912332 299.882999 
L 273.30215 256.311276 
L 255.256451 239.997557 
L 215.866632 283.569281 
L 233.912332 299.882999 
" style="fill:none;stroke:#0000ff;stroke-dasharray:0.555,0.24;stroke-dashoffset:0;stroke-width:0.15;"/>
   </g>
   <g id="line2d_89">
    <path clip-path="url(#p0c7113464e)" d="M 232.733741 301.186014 
L 272.125328 257.61589 
L 254.080291 241.301438 
L 214.688703 284.871562 
L 232.733741 301.186014 
" style="fill:none;stroke:#0000ff;stroke-dasharray:0.555,0.24;stroke-dashoffset:0;stroke-width:0.15;"/>
   </g>
   <g id="line2d_90">
    <path clip-path="url(#p0c7113464e)" d="M 231.697784 302.329366 
L 271.095636 258.764906 
L 253.052944 242.447861 
L 213.655093 286.01232 
L 231.697784 302.329366 
" style="fill:none;stroke:#0000ff;stroke-dasharray:0.555,0.24;stroke-dashoffset:0;stroke-width:0.15;"/>
   </g>
   <g id="line2d_91">
    <path clip-path="url(#p0c7113464e)" d="M 230.817007 303.296347 
L 270.232289 259.747657 
L 252.196128 243.423392 
L 212.780847 286.972083 
L 230.817007 303.296347 
" style="fill:none;stroke:#0000ff;stroke-dasharray:0.555,0.24;stroke-dashoffset:0;stroke-width:0.15;"/>
   </g>
   <g id="line2d_92">
    <path clip-path="url(#p0c7113464e)" d="M 230.101131 304.0769 
L 269.542503 260.551838 
L 251.516129 244.216768 
L 212.074757 287.74183 
L 230.101131 304.0769 
" style="fill:none;stroke:#0000ff;stroke-dasharray:0.555,0.24;stroke-dashoffset:0;stroke-width:0.15;"/>
   </g>
   <g id="line2d_93">
    <path clip-path="url(#p0c7113464e)" d="M 229.553757 304.667833 
L 269.028045 261.172621 
L 251.014033 244.823918 
L 211.539745 288.31913 
L 229.553757 304.667833 
" style="fill:none;stroke:#0000ff;stroke-dasharray:0.555,0.24;stroke-dashoffset:0;stroke-width:0.15;"/>
   </g>
   <g id="line2d_94">
    <path clip-path="url(#p0c7113464e)" d="M 229.173755 305.072439 
L 268.68344 261.609379 
L 250.682744 245.246016 
L 211.173059 288.709076 
L 229.173755 305.072439 
" style="fill:none;stroke:#0000ff;stroke-dasharray:0.555,0.24;stroke-dashoffset:0;stroke-width:0.15;"/>
   </g>
   <g id="line2d_95">
    <path clip-path="url(#p0c7113464e)" d="M 228.956583 305.299519 
L 268.495949 261.863458 
L 250.506436 245.487803 
L 210.96707 288.923863 
L 228.956583 305.299519 
" style="fill:none;stroke:#0000ff;stroke-dasharray:0.555,0.24;stroke-dashoffset:0;stroke-width:0.15;"/>
   </g>
   <g id="line2d_96">
    <path clip-path="url(#p0c7113464e)" d="M 228.894917 305.362629 
L 268.445924 261.937167 
L 250.4608 245.556691 
L 210.909793 288.982152 
L 228.894917 305.362629 
" style="fill:none;stroke:#0000ff;stroke-dasharray:0.555,0.24;stroke-dashoffset:0;stroke-width:0.15;"/>
   </g>
   <g id="line2d_97">
    <path clip-path="url(#p0c7113464e)" d="M 228.976174 305.281291 
L 268.507374 261.837798 
L 250.514782 245.465524 
L 210.983582 288.909017 
L 228.976174 305.281291 
" style="fill:none;stroke:#0000ff;stroke-dasharray:0.555,0.24;stroke-dashoffset:0;stroke-width:0.15;"/>
   </g>
   <g id="line2d_98">
    <path clip-path="url(#p0c7113464e)" d="M 229.192041 305.069456 
L 268.659341 261.567904 
L 250.642703 245.222095 
L 211.175403 288.723648 
L 229.192041 305.069456 
" style="fill:none;stroke:#0000ff;stroke-dasharray:0.555,0.24;stroke-dashoffset:0;stroke-width:0.15;"/>
   </g>
   <g id="line2d_99">
    <path clip-path="url(#p0c7113464e)" d="M 229.542766 304.730406 
L 268.890374 261.120561 
L 250.828886 244.824324 
L 211.481278 288.434169 
L 229.542766 304.730406 
" style="fill:none;stroke:#0000ff;stroke-dasharray:0.555,0.24;stroke-dashoffset:0;stroke-width:0.15;"/>
   </g>
   <g id="line2d_100">
    <path clip-path="url(#p0c7113464e)" d="M 230.0225 304.271135 
L 269.187539 260.497255 
L 251.058113 244.276631 
L 211.893075 288.050512 
L 230.0225 304.271135 
" style="fill:none;stroke:#0000ff;stroke-dasharray:0.555,0.24;stroke-dashoffset:0;stroke-width:0.15;"/>
   </g>
   <g id="line2d_101">
    <path clip-path="url(#p0c7113464e)" d="M 230.612367 303.708054 
L 269.534828 259.718341 
L 251.316013 243.598183 
L 212.393552 287.587896 
L 230.612367 303.708054 
" style="fill:none;stroke:#0000ff;stroke-dasharray:0.555,0.24;stroke-dashoffset:0;stroke-width:0.15;"/>
   </g>
   <g id="line2d_102">
    <path clip-path="url(#p0c7113464e)" d="M 231.28079 303.06687 
L 269.915231 258.823985 
L 251.591562 242.823114 
L 212.957122 287.065999 
L 231.28079 303.06687 
" style="fill:none;stroke:#0000ff;stroke-dasharray:0.555,0.24;stroke-dashoffset:0;stroke-width:0.15;"/>
   </g>
   <g id="line2d_103">
    <path clip-path="url(#p0c7113464e)" d="M 231.982654 302.3847 
L 270.311042 257.876414 
L 251.877454 242.002298 
L 213.549066 286.510584 
L 231.982654 302.3847 
" style="fill:none;stroke:#0000ff;stroke-dasharray:0.555,0.24;stroke-dashoffset:0;stroke-width:0.15;"/>
   </g>
   <g id="line2d_104">
    <path clip-path="url(#p0c7113464e)" d="M 232.667149 301.70767 
L 270.699599 256.94624 
L 252.161169 241.19469 
L 214.128719 285.95612 
L 232.667149 301.70767 
" style="fill:none;stroke:#0000ff;stroke-dasharray:0.555,0.24;stroke-dashoffset:0;stroke-width:0.15;"/>
   </g>
   <g id="line2d_105">
    <path clip-path="url(#p0c7113464e)" d="M 233.292846 301.077569 
L 271.059057 256.09128 
L 252.427499 240.449996 
L 214.661289 285.436285 
L 233.292846 301.077569 
" style="fill:none;stroke:#0000ff;stroke-dasharray:0.555,0.24;stroke-dashoffset:0;stroke-width:0.15;"/>
   </g>
   <g id="line2d_106">
    <path clip-path="url(#p0c7113464e)" d="M 233.835243 300.523089 
L 271.372659 255.345714 
L 252.661962 239.799187 
L 215.124545 284.976562 
L 233.835243 300.523089 
" style="fill:none;stroke:#0000ff;stroke-dasharray:0.555,0.24;stroke-dashoffset:0;stroke-width:0.15;"/>
   </g>
   <g id="line2d_107">
    <path clip-path="url(#p0c7113464e)" d="M 234.283655 300.06048 
L 271.629104 254.724288 
L 252.852631 239.257267 
L 215.507181 284.593458 
L 234.283655 300.06048 
" style="fill:none;stroke:#0000ff;stroke-dasharray:0.555,0.24;stroke-dashoffset:0;stroke-width:0.15;"/>
   </g>
   <g id="line2d_108">
    <path clip-path="url(#p0c7113464e)" d="M 234.636984 299.694031 
L 271.827171 254.230388 
L 252.997912 238.82767 
L 215.807725 284.291313 
L 234.636984 299.694031 
" style="fill:none;stroke:#0000ff;stroke-dasharray:0.555,0.24;stroke-dashoffset:0;stroke-width:0.15;"/>
   </g>
   <g id="line2d_109">
    <path clip-path="url(#p0c7113464e)" d="M 234.907125 299.416029 
L 271.967759 253.846716 
L 253.094736 238.497654 
L 216.034102 284.066967 
L 234.907125 299.416029 
" style="fill:none;stroke:#0000ff;stroke-dasharray:0.555,0.24;stroke-dashoffset:0;stroke-width:0.15;"/>
   </g>
   <g id="line2d_110">
    <path clip-path="url(#p0c7113464e)" d="M 235.112501 299.206229 
L 272.067341 253.55108 
L 253.158768 238.245833 
L 216.203928 283.900982 
L 235.112501 299.206229 
" style="fill:none;stroke:#0000ff;stroke-dasharray:0.555,0.24;stroke-dashoffset:0;stroke-width:0.15;"/>
   </g>
   <g id="line2d_111">
    <path clip-path="url(#p0c7113464e)" d="M 235.269784 299.046379 
L 272.139409 253.322386 
L 253.202323 238.052432 
L 216.332699 283.776426 
L 235.269784 299.046379 
" style="fill:none;stroke:#0000ff;stroke-dasharray:0.555,0.24;stroke-dashoffset:0;stroke-width:0.15;"/>
   </g>
   <g id="line2d_112">
    <path clip-path="url(#p0c7113464e)" d="M 235.38539 298.928994 
L 272.190847 253.153333 
L 253.232363 237.909955 
L 216.426906 283.685617 
L 235.38539 298.928994 
" style="fill:none;stroke:#0000ff;stroke-dasharray:0.555,0.24;stroke-dashoffset:0;stroke-width:0.15;"/>
   </g>
   <g id="line2d_113">
    <path clip-path="url(#p0c7113464e)" d="M 235.468891 298.843741 
L 272.228466 253.031226 
L 253.254718 237.806851 
L 216.495143 283.619366 
L 235.468891 298.843741 
" style="fill:none;stroke:#0000ff;stroke-dasharray:0.555,0.24;stroke-dashoffset:0;stroke-width:0.15;"/>
   </g>
   <g id="line2d_114">
    <path clip-path="url(#p0c7113464e)" d="M 235.541271 298.768695 
L 272.263467 252.926214 
L 253.277308 237.717319 
L 216.555112 283.559801 
L 235.541271 298.768695 
" style="fill:none;stroke:#0000ff;stroke-dasharray:0.555,0.24;stroke-dashoffset:0;stroke-width:0.15;"/>
   </g>
   <g id="line2d_115">
    <path clip-path="url(#p0c7113464e)" d="M 235.621705 298.683051 
L 272.307509 252.81144 
L 253.309285 237.617618 
L 216.623482 283.489229 
L 235.621705 298.683051 
" style="fill:none;stroke:#0000ff;stroke-dasharray:0.555,0.24;stroke-dashoffset:0;stroke-width:0.15;"/>
   </g>
   <g id="line2d_116">
    <path clip-path="url(#p0c7113464e)" d="M 235.715538 298.582712 
L 272.359478 252.677652 
L 253.347401 237.501169 
L 216.703462 283.406229 
L 235.715538 298.582712 
" style="fill:none;stroke:#0000ff;stroke-dasharray:0.555,0.24;stroke-dashoffset:0;stroke-width:0.15;"/>
   </g>
   <g id="line2d_117">
    <path clip-path="url(#p0c7113464e)" d="M 235.814155 298.47605 
L 272.416522 252.537835 
L 253.390714 237.37857 
L 216.788347 283.316785 
L 235.814155 298.47605 
" style="fill:none;stroke:#0000ff;stroke-dasharray:0.555,0.24;stroke-dashoffset:0;stroke-width:0.15;"/>
   </g>
   <g id="line2d_118">
    <path clip-path="url(#p0c7113464e)" d="M 235.912241 298.371098 
L 272.469916 252.39731 
L 253.429375 237.256554 
L 216.8717 283.230342 
L 235.912241 298.371098 
" style="fill:none;stroke:#0000ff;stroke-dasharray:0.555,0.24;stroke-dashoffset:0;stroke-width:0.15;"/>
   </g>
   <g id="line2d_119">
    <path clip-path="url(#p0c7113464e)" d="M 236.01698 298.258815 
L 272.526827 252.247035 
L 253.470552 237.126087 
L 216.960704 283.137867 
L 236.01698 298.258815 
" style="fill:none;stroke:#0000ff;stroke-dasharray:0.555,0.24;stroke-dashoffset:0;stroke-width:0.15;"/>
   </g>
   <g id="line2d_120">
    <path clip-path="url(#p0c7113464e)" d="M 236.137428 298.12782 
L 272.596104 252.075482 
L 253.523031 236.975728 
L 217.064355 283.028065 
L 236.137428 298.12782 
" style="fill:none;stroke:#0000ff;stroke-dasharray:0.555,0.24;stroke-dashoffset:0;stroke-width:0.15;"/>
   </g>
   <g id="line2d_121">
    <path clip-path="url(#p0c7113464e)" d="M 236.278269 297.975831 
L 272.673213 251.873109 
L 253.579273 236.79975 
L 217.184329 282.902472 
L 236.278269 297.975831 
" style="fill:none;stroke:#0000ff;stroke-dasharray:0.555,0.24;stroke-dashoffset:0;stroke-width:0.15;"/>
   </g>
   <g id="line2d_122">
    <path clip-path="url(#p0c7113464e)" d="M 236.433406 297.808528 
L 272.756533 251.649203 
L 253.63915 236.605588 
L 217.316023 282.764913 
L 236.433406 297.808528 
" style="fill:none;stroke:#0000ff;stroke-dasharray:0.555,0.24;stroke-dashoffset:0;stroke-width:0.15;"/>
   </g>
   <g id="line2d_123">
    <path clip-path="url(#p0c7113464e)" d="M 236.59668 297.630978 
L 272.846266 251.413877 
L 253.704954 236.400719 
L 217.455368 282.61782 
L 236.59668 297.630978 
" style="fill:none;stroke:#0000ff;stroke-dasharray:0.555,0.24;stroke-dashoffset:0;stroke-width:0.15;"/>
   </g>
   <g id="line2d_124">
    <path clip-path="url(#p0c7113464e)" d="M 236.77551 297.432532 
L 272.952546 251.15862 
L 253.787706 236.17551 
L 217.61067 282.449421 
L 236.77551 297.432532 
" style="fill:none;stroke:#0000ff;stroke-dasharray:0.555,0.24;stroke-dashoffset:0;stroke-width:0.15;"/>
   </g>
   <g id="line2d_125">
    <path clip-path="url(#p0c7113464e)" d="M 236.978018 297.200197 
L 273.0896 250.875187 
L 253.903597 235.919185 
L 217.792015 282.244195 
L 236.978018 297.200197 
" style="fill:none;stroke:#0000ff;stroke-dasharray:0.555,0.24;stroke-dashoffset:0;stroke-width:0.15;"/>
   </g>
   <g id="line2d_126">
    <path clip-path="url(#p0c7113464e)" d="M 237.209783 296.93125 
L 273.251839 250.552127 
L 254.043425 235.62492 
L 218.001369 282.004043 
L 237.209783 296.93125 
" style="fill:none;stroke:#0000ff;stroke-dasharray:0.555,0.24;stroke-dashoffset:0;stroke-width:0.15;"/>
   </g>
   <g id="line2d_127">
    <path clip-path="url(#p0c7113464e)" d="M 237.463033 296.63143 
L 273.441272 250.202783 
L 254.212346 235.302007 
L 218.234108 281.730654 
L 237.463033 296.63143 
" style="fill:none;stroke:#0000ff;stroke-dasharray:0.555,0.24;stroke-dashoffset:0;stroke-width:0.15;"/>
   </g>
   <g id="line2d_128">
    <path clip-path="url(#p0c7113464e)" d="M 237.738949 296.305455 
L 273.643559 249.819846 
L 254.391042 234.949564 
L 218.486432 281.435173 
L 237.738949 296.305455 
" style="fill:none;stroke:#0000ff;stroke-dasharray:0.555,0.24;stroke-dashoffset:0;stroke-width:0.15;"/>
   </g>
   <g id="line2d_129">
    <path clip-path="url(#p0c7113464e)" d="M 238.04355 295.940942 
L 273.875162 249.399042 
L 254.599331 234.558993 
L 218.76772 281.100893 
L 238.04355 295.940942 
" style="fill:none;stroke:#0000ff;stroke-dasharray:0.555,0.24;stroke-dashoffset:0;stroke-width:0.15;"/>
   </g>
   <g id="line2d_130">
    <path clip-path="url(#p0c7113464e)" d="M 238.383739 295.522441 
L 274.158263 248.936646 
L 254.864252 234.120241 
L 219.089729 280.706036 
L 238.383739 295.522441 
" style="fill:none;stroke:#0000ff;stroke-dasharray:0.555,0.24;stroke-dashoffset:0;stroke-width:0.15;"/>
   </g>
   <g id="line2d_131">
    <path clip-path="url(#p0c7113464e)" d="M 238.771867 295.042779 
L 274.483506 248.408761 
L 255.169523 233.6184 
L 219.457884 280.252418 
L 238.771867 295.042779 
" style="fill:none;stroke:#0000ff;stroke-dasharray:0.555,0.24;stroke-dashoffset:0;stroke-width:0.15;"/>
   </g>
   <g id="line2d_132">
    <path clip-path="url(#p0c7113464e)" d="M 239.202199 294.503774 
L 274.857877 247.826955 
L 255.526168 233.05977 
L 219.87049 279.73659 
L 239.202199 294.503774 
" style="fill:none;stroke:#0000ff;stroke-dasharray:0.555,0.24;stroke-dashoffset:0;stroke-width:0.15;"/>
   </g>
   <g id="line2d_133">
    <path clip-path="url(#p0c7113464e)" d="M 239.667479 293.906601 
L 275.294106 247.207604 
L 255.953212 232.452452 
L 220.326585 279.151449 
L 239.667479 293.906601 
" style="fill:none;stroke:#0000ff;stroke-dasharray:0.555,0.24;stroke-dashoffset:0;stroke-width:0.15;"/>
   </g>
   <g id="line2d_134">
    <path clip-path="url(#p0c7113464e)" d="M 240.168741 293.237652 
L 275.824317 246.560754 
L 256.492576 231.793612 
L 220.837 278.47051 
L 240.168741 293.237652 
" style="fill:none;stroke:#0000ff;stroke-dasharray:0.555,0.24;stroke-dashoffset:0;stroke-width:0.15;"/>
   </g>
   <g id="line2d_135">
    <path clip-path="url(#p0c7113464e)" d="M 240.704349 292.48191 
L 276.492466 245.906556 
L 257.20278 231.084521 
L 221.414663 277.659875 
L 240.704349 292.48191 
" style="fill:none;stroke:#0000ff;stroke-dasharray:0.555,0.24;stroke-dashoffset:0;stroke-width:0.15;"/>
   </g>
   <g id="line2d_136">
    <path clip-path="url(#p0c7113464e)" d="M 241.289572 291.633314 
L 277.288912 245.221027 
L 258.066762 230.311511 
L 222.067422 276.723798 
L 241.289572 291.633314 
" style="fill:none;stroke:#0000ff;stroke-dasharray:0.555,0.24;stroke-dashoffset:0;stroke-width:0.15;"/>
   </g>
   <g id="line2d_137">
    <path clip-path="url(#p0c7113464e)" d="M 241.911387 290.698171 
L 278.23489 244.539142 
L 259.11763 229.495371 
L 222.794127 275.6544 
L 241.911387 290.698171 
" style="fill:none;stroke:#0000ff;stroke-dasharray:0.555,0.24;stroke-dashoffset:0;stroke-width:0.15;"/>
   </g>
   <g id="line2d_138">
    <path clip-path="url(#p0c7113464e)" d="M 242.551947 289.689746 
L 279.347876 243.906425 
L 260.386219 228.666994 
L 223.59029 274.450314 
L 242.551947 289.689746 
" style="fill:none;stroke:#0000ff;stroke-dasharray:0.555,0.24;stroke-dashoffset:0;stroke-width:0.15;"/>
   </g>
   <g id="line2d_139">
    <path clip-path="url(#p0c7113464e)" d="M 243.232953 288.612781 
L 280.588425 243.284847 
L 261.815372 227.813675 
L 224.4599 273.141609 
L 243.232953 288.612781 
" style="fill:none;stroke:#0000ff;stroke-dasharray:0.555,0.24;stroke-dashoffset:0;stroke-width:0.15;"/>
   </g>
   <g id="line2d_140">
    <path clip-path="url(#p0c7113464e)" d="M 243.947971 287.460066 
L 281.999559 242.714904 
L 263.467867 226.955428 
L 225.416279 271.70059 
L 243.947971 287.460066 
" style="fill:none;stroke:#0000ff;stroke-dasharray:0.555,0.24;stroke-dashoffset:0;stroke-width:0.15;"/>
   </g>
   <g id="line2d_141">
    <path clip-path="url(#p0c7113464e)" d="M 244.690562 286.224921 
L 283.626812 242.247412 
L 265.413052 226.121543 
L 226.476802 270.099052 
L 244.690562 286.224921 
" style="fill:none;stroke:#0000ff;stroke-dasharray:0.555,0.24;stroke-dashoffset:0;stroke-width:0.15;"/>
   </g>
   <g id="line2d_142">
    <path clip-path="url(#p0c7113464e)" d="M 245.508222 284.913515 
L 285.395886 241.797079 
L 267.538749 225.277172 
L 227.651084 268.393608 
L 245.508222 284.913515 
" style="fill:none;stroke:#0000ff;stroke-dasharray:0.555,0.24;stroke-dashoffset:0;stroke-width:0.15;"/>
   </g>
   <g id="line2d_143">
    <path clip-path="url(#p0c7113464e)" d="M 246.405552 283.543929 
L 287.276125 241.358041 
L 269.804384 224.431052 
L 228.933811 266.61694 
L 246.405552 283.543929 
" style="fill:none;stroke:#0000ff;stroke-dasharray:0.555,0.24;stroke-dashoffset:0;stroke-width:0.15;"/>
   </g>
   <g id="line2d_144">
    <path clip-path="url(#p0c7113464e)" d="M 247.37909 282.138351 
L 289.236621 240.931556 
L 272.170382 223.595808 
L 230.312851 264.802602 
L 247.37909 282.138351 
" style="fill:none;stroke:#0000ff;stroke-dasharray:0.555,0.24;stroke-dashoffset:0;stroke-width:0.15;"/>
   </g>
   <g id="line2d_145">
    <path clip-path="url(#p0c7113464e)" d="M 248.464808 280.711115 
L 291.206707 240.42237 
L 274.520688 222.720351 
L 231.77879 263.009096 
L 248.464808 280.711115 
" style="fill:none;stroke:#0000ff;stroke-dasharray:0.555,0.24;stroke-dashoffset:0;stroke-width:0.15;"/>
   </g>
   <g id="line2d_146">
    <path clip-path="url(#p0c7113464e)" d="M 249.651204 279.256449 
L 293.222126 239.865744 
L 276.90804 221.820376 
L 233.337118 261.211081 
L 249.651204 279.256449 
" style="fill:none;stroke:#0000ff;stroke-dasharray:0.555,0.24;stroke-dashoffset:0;stroke-width:0.15;"/>
   </g>
   <g id="line2d_147">
    <path clip-path="url(#p0c7113464e)" d="M 250.940559 277.765571 
L 295.31026 239.276839 
L 279.369736 220.900648 
L 235.000035 259.38938 
L 250.940559 277.765571 
" style="fill:none;stroke:#0000ff;stroke-dasharray:0.555,0.24;stroke-dashoffset:0;stroke-width:0.15;"/>
   </g>
   <g id="line2d_148">
    <path clip-path="url(#p0c7113464e)" d="M 252.340681 276.237261 
L 297.477106 238.650615 
L 281.91019 219.956877 
L 236.773765 257.543523 
L 252.340681 276.237261 
" style="fill:none;stroke:#0000ff;stroke-dasharray:0.555,0.24;stroke-dashoffset:0;stroke-width:0.15;"/>
   </g>
   <g id="line2d_149">
    <path clip-path="url(#p0c7113464e)" d="M 253.851462 274.678645 
L 299.717527 237.985908 
L 284.520834 218.989982 
L 238.654768 255.682719 
L 253.851462 274.678645 
" style="fill:none;stroke:#0000ff;stroke-dasharray:0.555,0.24;stroke-dashoffset:0;stroke-width:0.15;"/>
   </g>
   <g id="line2d_150">
    <path clip-path="url(#p0c7113464e)" d="M 255.453272 273.100359 
L 302.03383 237.319016 
L 287.2146 218.027175 
L 240.634042 253.808518 
L 255.453272 273.100359 
" style="fill:none;stroke:#0000ff;stroke-dasharray:0.555,0.24;stroke-dashoffset:0;stroke-width:0.15;"/>
   </g>
   <g id="line2d_151">
    <path clip-path="url(#p0c7113464e)" d="M 257.177211 271.514489 
L 304.382562 236.561554 
L 289.906427 217.010948 
L 242.701076 251.963883 
L 257.177211 271.514489 
" style="fill:none;stroke:#0000ff;stroke-dasharray:0.555,0.24;stroke-dashoffset:0;stroke-width:0.15;"/>
   </g>
   <g id="line2d_152">
    <path clip-path="url(#p0c7113464e)" d="M 259.01044 269.908488 
L 306.803748 235.763904 
L 292.662399 215.969789 
L 244.869092 250.114374 
L 259.01044 269.908488 
" style="fill:none;stroke:#0000ff;stroke-dasharray:0.555,0.24;stroke-dashoffset:0;stroke-width:0.15;"/>
   </g>
   <g id="line2d_153">
    <path clip-path="url(#p0c7113464e)" d="M 260.956282 268.268667 
L 309.33316 234.956049 
L 295.536379 214.920242 
L 247.159501 248.23286 
L 260.956282 268.268667 
" style="fill:none;stroke:#0000ff;stroke-dasharray:0.555,0.24;stroke-dashoffset:0;stroke-width:0.15;"/>
   </g>
   <g id="line2d_154">
    <path clip-path="url(#p0c7113464e)" d="M 263.032827 266.59821 
L 311.964963 234.106689 
L 298.508249 213.840917 
L 249.576113 246.332437 
L 263.032827 266.59821 
" style="fill:none;stroke:#0000ff;stroke-dasharray:0.555,0.24;stroke-dashoffset:0;stroke-width:0.15;"/>
   </g>
   <g id="line2d_155">
    <path clip-path="url(#p0c7113464e)" d="M 265.25633 264.905137 
L 314.682554 233.170278 
L 301.53922 212.699873 
L 252.112996 244.434732 
L 265.25633 264.905137 
" style="fill:none;stroke:#0000ff;stroke-dasharray:0.555,0.24;stroke-dashoffset:0;stroke-width:0.15;"/>
   </g>
   <g id="line2d_156">
    <path clip-path="url(#p0c7113464e)" d="M 267.602415 263.190485 
L 317.497434 232.197906 
L 304.661522 211.533345 
L 254.766503 242.525924 
L 267.602415 263.190485 
" style="fill:none;stroke:#0000ff;stroke-dasharray:0.555,0.24;stroke-dashoffset:0;stroke-width:0.15;"/>
   </g>
   <g id="line2d_157">
    <path clip-path="url(#p0c7113464e)" d="M 270.049322 261.464123 
L 320.402201 231.221101 
L 307.876727 210.366912 
L 257.523848 240.609934 
L 270.049322 261.464123 
" style="fill:none;stroke:#0000ff;stroke-dasharray:0.555,0.24;stroke-dashoffset:0;stroke-width:0.15;"/>
   </g>
   <g id="line2d_158">
    <path clip-path="url(#p0c7113464e)" d="M 272.613176 259.741888 
L 323.364968 230.173181 
L 311.118769 209.153778 
L 260.366977 238.722484 
L 272.613176 259.741888 
" style="fill:none;stroke:#0000ff;stroke-dasharray:0.555,0.24;stroke-dashoffset:0;stroke-width:0.15;"/>
   </g>
   <g id="line2d_159">
    <path clip-path="url(#p0c7113464e)" d="M 275.280882 258.013998 
L 326.407209 229.097712 
L 314.431217 207.923192 
L 263.30489 236.839477 
L 275.280882 258.013998 
" style="fill:none;stroke:#0000ff;stroke-dasharray:0.555,0.24;stroke-dashoffset:0;stroke-width:0.15;"/>
   </g>
   <g id="line2d_160">
    <path clip-path="url(#p0c7113464e)" d="M 278.063254 256.276137 
L 329.538647 227.985914 
L 317.821946 206.666824 
L 266.346552 234.957046 
L 278.063254 256.276137 
" style="fill:none;stroke:#0000ff;stroke-dasharray:0.555,0.24;stroke-dashoffset:0;stroke-width:0.15;"/>
   </g>
   <g id="line2d_161">
    <path clip-path="url(#p0c7113464e)" d="M 280.960943 254.529182 
L 332.759911 226.835867 
L 321.290426 205.382765 
L 269.491457 233.07608 
L 280.960943 254.529182 
" style="fill:none;stroke:#0000ff;stroke-dasharray:0.555,0.24;stroke-dashoffset:0;stroke-width:0.15;"/>
   </g>
   <g id="line2d_162">
    <path clip-path="url(#p0c7113464e)" d="M 283.965937 252.778153 
L 336.063304 225.650358 
L 324.828034 204.073671 
L 272.730668 231.201466 
L 283.965937 252.778153 
" style="fill:none;stroke:#0000ff;stroke-dasharray:0.555,0.24;stroke-dashoffset:0;stroke-width:0.15;"/>
   </g>
   <g id="line2d_163">
    <path clip-path="url(#p0c7113464e)" d="M 287.057169 251.034904 
L 339.426648 224.43621 
L 328.410511 202.746824 
L 276.041033 229.345519 
L 287.057169 251.034904 
" style="fill:none;stroke:#0000ff;stroke-dasharray:0.555,0.24;stroke-dashoffset:0;stroke-width:0.15;"/>
   </g>
   <g id="line2d_164">
    <path clip-path="url(#p0c7113464e)" d="M 290.200677 249.316756 
L 342.81441 223.204537 
L 331.999752 201.413991 
L 279.386019 227.52621 
L 290.200677 249.316756 
" style="fill:none;stroke:#0000ff;stroke-dasharray:0.555,0.24;stroke-dashoffset:0;stroke-width:0.15;"/>
   </g>
   <g id="line2d_165">
    <path clip-path="url(#p0c7113464e)" d="M 293.352055 247.639165 
L 346.191011 221.985752 
L 335.566372 200.101928 
L 282.727417 225.755341 
L 293.352055 247.639165 
" style="fill:none;stroke:#0000ff;stroke-dasharray:0.555,0.24;stroke-dashoffset:0;stroke-width:0.15;"/>
   </g>
   <g id="line2d_166">
    <path clip-path="url(#p0c7113464e)" d="M 296.484227 246.023516 
L 349.509392 220.757238 
L 339.04509 198.796294 
L 286.019925 224.062572 
L 296.484227 246.023516 
" style="fill:none;stroke:#0000ff;stroke-dasharray:0.555,0.24;stroke-dashoffset:0;stroke-width:0.15;"/>
   </g>
   <g id="line2d_167">
    <path clip-path="url(#p0c7113464e)" d="M 299.523379 244.46349 
L 352.764872 219.656308 
L 342.490709 197.605768 
L 289.249216 222.412951 
L 299.523379 244.46349 
" style="fill:none;stroke:#0000ff;stroke-dasharray:0.555,0.24;stroke-dashoffset:0;stroke-width:0.15;"/>
   </g>
   <g id="line2d_168">
    <path clip-path="url(#p0c7113464e)" d="M 302.313185 242.927555 
L 355.997676 219.094212 
L 346.12684 196.8602 
L 292.442349 220.693543 
L 302.313185 242.927555 
" style="fill:none;stroke:#0000ff;stroke-dasharray:0.555,0.24;stroke-dashoffset:0;stroke-width:0.15;"/>
   </g>
   <g id="line2d_169">
    <path clip-path="url(#p0c7113464e)" d="M 304.847483 241.451734 
L 359.159469 219.085219 
L 349.896136 196.591323 
L 295.584149 218.957838 
L 304.847483 241.451734 
" style="fill:none;stroke:#0000ff;stroke-dasharray:0.555,0.24;stroke-dashoffset:0;stroke-width:0.15;"/>
   </g>
   <g id="line2d_170">
    <path clip-path="url(#p0c7113464e)" d="M 307.096824 240.076947 
L 362.158247 219.624745 
L 353.687746 196.820462 
L 298.626323 217.272664 
L 307.096824 240.076947 
" style="fill:none;stroke:#0000ff;stroke-dasharray:0.555,0.24;stroke-dashoffset:0;stroke-width:0.15;"/>
   </g>
   <g id="line2d_171">
    <path clip-path="url(#p0c7113464e)" d="M 308.994067 238.860054 
L 364.83688 220.649259 
L 357.294683 197.521355 
L 301.45187 215.73215 
L 308.994067 238.860054 
" style="fill:none;stroke:#0000ff;stroke-dasharray:0.555,0.24;stroke-dashoffset:0;stroke-width:0.15;"/>
   </g>
   <g id="line2d_172">
    <path clip-path="url(#p0c7113464e)" d="M 310.449536 237.869035 
L 366.996731 221.979807 
L 360.416035 198.560175 
L 303.86884 214.449403 
L 310.449536 237.869035 
" style="fill:none;stroke:#0000ff;stroke-dasharray:0.555,0.24;stroke-dashoffset:0;stroke-width:0.15;"/>
   </g>
   <g id="line2d_173">
    <path clip-path="url(#p0c7113464e)" d="M 311.669798 237.194274 
L 368.626426 222.841737 
L 362.682168 199.252534 
L 305.725539 213.605071 
L 311.669798 237.194274 
" style="fill:none;stroke:#0000ff;stroke-dasharray:0.555,0.24;stroke-dashoffset:0;stroke-width:0.15;"/>
   </g>
   <g id="line2d_174">
    <path clip-path="url(#p0c7113464e)" d="M 312.599611 236.78105 
L 369.762343 223.272721 
L 364.167722 199.598158 
L 307.00499 213.106488 
L 312.599611 236.78105 
" style="fill:none;stroke:#0000ff;stroke-dasharray:0.555,0.24;stroke-dashoffset:0;stroke-width:0.15;"/>
   </g>
   <g id="line2d_175">
    <path clip-path="url(#p0c7113464e)" d="M 313.17039 236.570632 
L 370.417039 223.422475 
L 364.971588 199.713157 
L 307.724939 212.861314 
L 313.17039 236.570632 
" style="fill:none;stroke:#0000ff;stroke-dasharray:0.555,0.24;stroke-dashoffset:0;stroke-width:0.15;"/>
   </g>
   <g id="line2d_176">
    <path clip-path="url(#p0c7113464e)" d="M 313.328973 236.520951 
L 370.590178 223.436332 
L 365.171042 199.720986 
L 307.909837 212.805605 
L 313.328973 236.520951 
" style="fill:none;stroke:#0000ff;stroke-dasharray:0.555,0.24;stroke-dashoffset:0;stroke-width:0.15;"/>
   </g>
   <g id="line2d_177">
    <path clip-path="url(#p0c7113464e)" d="M 313.030358 236.601715 
L 370.277792 223.456976 
L 364.833757 199.747333 
L 307.586322 212.892071 
L 313.030358 236.601715 
" style="fill:none;stroke:#0000ff;stroke-dasharray:0.555,0.24;stroke-dashoffset:0;stroke-width:0.15;"/>
   </g>
   <g id="line2d_178">
    <path clip-path="url(#p0c7113464e)" d="M 312.233022 236.788694 
L 369.476157 223.625248 
L 364.024374 199.917385 
L 306.781239 213.080832 
L 312.233022 236.788694 
" style="fill:none;stroke:#0000ff;stroke-dasharray:0.555,0.24;stroke-dashoffset:0;stroke-width:0.15;"/>
   </g>
   <g id="line2d_179">
    <path clip-path="url(#p0c7113464e)" d="M 310.895662 237.057274 
L 368.181364 224.080327 
L 362.806822 200.354835 
L 305.521119 213.331781 
L 310.895662 237.057274 
" style="fill:none;stroke:#0000ff;stroke-dasharray:0.555,0.24;stroke-dashoffset:0;stroke-width:0.15;"/>
   </g>
   <g id="line2d_180">
    <path clip-path="url(#p0c7113464e)" d="M 308.974894 237.375019 
L 366.384849 224.959305 
L 361.242747 201.182352 
L 303.832792 213.598066 
L 308.974894 237.375019 
" style="fill:none;stroke:#0000ff;stroke-dasharray:0.555,0.24;stroke-dashoffset:0;stroke-width:0.15;"/>
   </g>
   <g id="line2d_181">
    <path clip-path="url(#p0c7113464e)" d="M 306.600317 237.804191 
L 364.096492 225.794083 
L 359.122376 201.981421 
L 301.626201 213.991529 
L 306.600317 237.804191 
" style="fill:none;stroke:#0000ff;stroke-dasharray:0.555,0.24;stroke-dashoffset:0;stroke-width:0.15;"/>
   </g>
   <g id="line2d_182">
    <path clip-path="url(#p0c7113464e)" d="M 303.826002 238.377894 
L 361.328039 226.395879 
L 356.365557 202.580789 
L 298.863521 214.562805 
L 303.826002 238.377894 
" style="fill:none;stroke:#0000ff;stroke-dasharray:0.555,0.24;stroke-dashoffset:0;stroke-width:0.15;"/>
   </g>
   <g id="line2d_183">
    <path clip-path="url(#p0c7113464e)" d="M 300.695984 239.135878 
L 358.088614 226.640324 
L 352.913445 202.870546 
L 295.520815 215.3661 
L 300.695984 239.135878 
" style="fill:none;stroke:#0000ff;stroke-dasharray:0.555,0.24;stroke-dashoffset:0;stroke-width:0.15;"/>
   </g>
   <g id="line2d_184">
    <path clip-path="url(#p0c7113464e)" d="M 297.264552 240.135439 
L 354.376104 226.412342 
L 348.692535 202.758975 
L 291.580982 216.482073 
L 297.264552 240.135439 
" style="fill:none;stroke:#0000ff;stroke-dasharray:0.555,0.24;stroke-dashoffset:0;stroke-width:0.15;"/>
   </g>
   <g id="line2d_185">
    <path clip-path="url(#p0c7113464e)" d="M 293.603761 241.453465 
L 350.162772 225.606347 
L 343.599517 202.181822 
L 287.040506 218.02894 
L 293.603761 241.453465 
" style="fill:none;stroke:#0000ff;stroke-dasharray:0.555,0.24;stroke-dashoffset:0;stroke-width:0.15;"/>
   </g>
   <g id="line2d_186">
    <path clip-path="url(#p0c7113464e)" d="M 289.46818 243.020908 
L 345.447895 225.235398 
L 338.081834 202.050794 
L 282.102119 219.836305 
L 289.46818 243.020908 
" style="fill:none;stroke:#0000ff;stroke-dasharray:0.555,0.24;stroke-dashoffset:0;stroke-width:0.15;"/>
   </g>
   <g id="line2d_187">
    <path clip-path="url(#p0c7113464e)" d="M 284.724114 244.796158 
L 340.295082 225.771953 
L 332.416002 202.756637 
L 276.845034 221.780842 
L 284.724114 244.796158 
" style="fill:none;stroke:#0000ff;stroke-dasharray:0.555,0.24;stroke-dashoffset:0;stroke-width:0.15;"/>
   </g>
   <g id="line2d_188">
    <path clip-path="url(#p0c7113464e)" d="M 279.424388 246.759383 
L 334.759439 227.059511 
L 326.600524 204.141901 
L 271.265473 223.841774 
L 279.424388 246.759383 
" style="fill:none;stroke:#0000ff;stroke-dasharray:0.555,0.24;stroke-dashoffset:0;stroke-width:0.15;"/>
   </g>
   <g id="line2d_189">
    <path clip-path="url(#p0c7113464e)" d="M 273.756135 248.857701 
L 328.961412 228.797036 
L 320.653071 205.933175 
L 265.447794 225.99384 
L 273.756135 248.857701 
" style="fill:none;stroke:#0000ff;stroke-dasharray:0.555,0.24;stroke-dashoffset:0;stroke-width:0.15;"/>
   </g>
   <g id="line2d_190">
    <path clip-path="url(#p0c7113464e)" d="M 267.917577 251.017832 
L 323.060112 230.785339 
L 314.680606 207.947463 
L 259.538072 228.179956 
L 267.917577 251.017832 
" style="fill:none;stroke:#0000ff;stroke-dasharray:0.555,0.24;stroke-dashoffset:0;stroke-width:0.15;"/>
   </g>
   <g id="line2d_191">
    <path clip-path="url(#p0c7113464e)" d="M 262.059651 253.18486 
L 317.173249 232.873677 
L 308.761153 210.047785 
L 253.647555 230.358968 
L 262.059651 253.18486 
" style="fill:none;stroke:#0000ff;stroke-dasharray:0.555,0.24;stroke-dashoffset:0;stroke-width:0.15;"/>
   </g>
   <g id="line2d_192">
    <path clip-path="url(#p0c7113464e)" d="M 256.192924 255.355087 
L 311.293168 235.007705 
L 302.866079 212.187343 
L 247.765835 232.534726 
L 256.192924 255.355087 
" style="fill:none;stroke:#0000ff;stroke-dasharray:0.555,0.24;stroke-dashoffset:0;stroke-width:0.15;"/>
   </g>
   <g id="line2d_193">
    <path clip-path="url(#p0c7113464e)" d="M 250.322152 257.526799 
L 305.41623 237.162729 
L 296.982231 214.344921 
L 241.888152 234.708991 
L 250.322152 257.526799 
" style="fill:none;stroke:#0000ff;stroke-dasharray:0.555,0.24;stroke-dashoffset:0;stroke-width:0.15;"/>
   </g>
   <g id="line2d_194">
    <path clip-path="url(#p0c7113464e)" d="M 244.449845 259.699075 
L 299.541077 239.327306 
L 291.103889 216.510677 
L 236.012656 236.882446 
L 244.449845 259.699075 
" style="fill:none;stroke:#0000ff;stroke-dasharray:0.555,0.24;stroke-dashoffset:0;stroke-width:0.15;"/>
   </g>
   <g id="line2d_195">
    <path clip-path="url(#p0c7113464e)" d="M 238.805292 261.787101 
L 293.895261 241.411916 
L 285.456658 218.59581 
L 230.366689 238.970995 
L 238.805292 261.787101 
" style="fill:none;stroke:#0000ff;stroke-dasharray:0.555,0.24;stroke-dashoffset:0;stroke-width:0.15;"/>
   </g>
   <g id="line2d_196">
    <path clip-path="url(#p0c7113464e)" d="M 233.629197 263.701835 
L 288.718607 243.325138 
L 280.279377 220.509264 
L 225.189968 240.885961 
L 233.629197 263.701835 
" style="fill:none;stroke:#0000ff;stroke-dasharray:0.555,0.24;stroke-dashoffset:0;stroke-width:0.15;"/>
   </g>
   <g id="line2d_197">
    <path clip-path="url(#p0c7113464e)" d="M 228.92285 265.442801 
L 284.011993 245.065381 
L 275.572464 222.249618 
L 220.483322 242.627038 
L 228.92285 265.442801 
" style="fill:none;stroke:#0000ff;stroke-dasharray:0.555,0.24;stroke-dashoffset:0;stroke-width:0.15;"/>
   </g>
   <g id="line2d_198">
    <path clip-path="url(#p0c7113464e)" d="M 224.686356 267.00996 
L 279.775361 246.632169 
L 271.335679 223.816463 
L 216.246674 244.194253 
L 224.686356 267.00996 
" style="fill:none;stroke:#0000ff;stroke-dasharray:0.555,0.24;stroke-dashoffset:0;stroke-width:0.15;"/>
   </g>
   <g id="line2d_199">
    <path clip-path="url(#p0c7113464e)" d="M 220.919756 268.403295 
L 276.008687 248.025304 
L 267.568922 225.209628 
L 212.479991 245.587619 
L 220.919756 268.403295 
" style="fill:none;stroke:#0000ff;stroke-dasharray:0.555,0.24;stroke-dashoffset:0;stroke-width:0.15;"/>
   </g>
   <g id="line2d_200">
    <path clip-path="url(#p0c7113464e)" d="M 217.623071 269.622801 
L 272.71196 249.244694 
L 264.272147 226.429036 
L 209.183258 246.807142 
L 217.623071 269.622801 
" style="fill:none;stroke:#0000ff;stroke-dasharray:0.555,0.24;stroke-dashoffset:0;stroke-width:0.15;"/>
   </g>
   <g id="line2d_201">
    <path clip-path="url(#p0c7113464e)" d="M 214.79631 270.668472 
L 269.885173 250.290296 
L 261.445332 227.474649 
L 206.356469 247.852825 
L 214.79631 270.668472 
" style="fill:none;stroke:#0000ff;stroke-dasharray:0.555,0.24;stroke-dashoffset:0;stroke-width:0.15;"/>
   </g>
   <g id="line2d_202">
    <path clip-path="url(#p0c7113464e)" d="M 212.439479 271.540309 
L 267.528326 251.16209 
L 259.088466 228.346449 
L 203.999619 248.724667 
L 212.439479 271.540309 
" style="fill:none;stroke:#0000ff;stroke-dasharray:0.555,0.24;stroke-dashoffset:0;stroke-width:0.15;"/>
   </g>
   <g id="line2d_203">
    <path clip-path="url(#p0c7113464e)" d="M 210.552579 272.238308 
L 265.641416 251.860063 
L 257.201545 229.044426 
L 202.112708 249.422671 
L 210.552579 272.238308 
" style="fill:none;stroke:#0000ff;stroke-dasharray:0.555,0.24;stroke-dashoffset:0;stroke-width:0.15;"/>
   </g>
   <g id="line2d_204">
    <path clip-path="url(#p0c7113464e)" d="M 209.135612 272.76247 
L 264.224443 252.384208 
L 255.784566 229.568574 
L 200.695735 249.946836 
L 209.135612 272.76247 
" style="fill:none;stroke:#0000ff;stroke-dasharray:0.555,0.24;stroke-dashoffset:0;stroke-width:0.15;"/>
   </g>
   <g id="line2d_205">
    <path clip-path="url(#p0c7113464e)" d="M 208.188581 273.112795 
L 263.277408 252.734524 
L 254.837527 229.918891 
L 199.748699 250.297162 
L 208.188581 273.112795 
" style="fill:none;stroke:#0000ff;stroke-dasharray:0.555,0.24;stroke-dashoffset:0;stroke-width:0.15;"/>
   </g>
   <g id="line2d_206">
    <path clip-path="url(#p0c7113464e)" d="M 207.711486 273.289283 
L 262.800309 252.911001 
L 254.360424 230.095369 
L 199.2716 250.473652 
L 207.711486 273.289283 
" style="fill:none;stroke:#0000ff;stroke-dasharray:0.555,0.24;stroke-dashoffset:0;stroke-width:0.15;"/>
   </g>
   <g id="line2d_207">
    <path clip-path="url(#p0c7113464e)" d="M 207.704357 273.291946 
L 262.793138 252.913548 
L 254.353205 230.097935 
L 199.264424 250.476332 
L 207.704357 273.291946 
" style="fill:none;stroke:#0000ff;stroke-dasharray:0.555,0.24;stroke-dashoffset:0;stroke-width:0.15;"/>
   </g>
   <g id="line2d_208">
    <path clip-path="url(#p0c7113464e)" d="M 208.167133 273.120756 
L 263.255914 252.742359 
L 254.815981 229.926745 
L 199.7272 250.305142 
L 208.167133 273.120756 
" style="fill:none;stroke:#0000ff;stroke-dasharray:0.555,0.24;stroke-dashoffset:0;stroke-width:0.15;"/>
   </g>
   <g id="line2d_209">
    <path clip-path="url(#p0c7113464e)" d="M 209.099845 272.775728 
L 264.188626 252.397331 
L 255.748693 229.581717 
L 200.659912 249.960114 
L 209.099845 272.775728 
" style="fill:none;stroke:#0000ff;stroke-dasharray:0.555,0.24;stroke-dashoffset:0;stroke-width:0.15;"/>
   </g>
   <g id="line2d_210">
    <path clip-path="url(#p0c7113464e)" d="M 210.502493 272.256861 
L 265.591274 251.878465 
L 257.151342 229.062852 
L 202.06256 249.441247 
L 210.502493 272.256861 
" style="fill:none;stroke:#0000ff;stroke-dasharray:0.555,0.24;stroke-dashoffset:0;stroke-width:0.15;"/>
   </g>
   <g id="line2d_211">
    <path clip-path="url(#p0c7113464e)" d="M 212.375075 271.564157 
L 267.463857 251.185762 
L 259.023925 228.370148 
L 203.935143 248.748543 
L 212.375075 271.564157 
" style="fill:none;stroke:#0000ff;stroke-dasharray:0.555,0.24;stroke-dashoffset:0;stroke-width:0.15;"/>
   </g>
   <g id="line2d_212">
    <path clip-path="url(#p0c7113464e)" d="M 214.717591 270.697615 
L 269.806373 250.319222 
L 261.366441 227.503607 
L 206.277659 247.882001 
L 214.717591 270.697615 
" style="fill:none;stroke:#0000ff;stroke-dasharray:0.555,0.24;stroke-dashoffset:0;stroke-width:0.15;"/>
   </g>
   <g id="line2d_213">
    <path clip-path="url(#p0c7113464e)" d="M 217.530037 269.657237 
L 272.61882 249.278845 
L 264.178889 226.46323 
L 209.090106 246.841623 
L 217.530037 269.657237 
" style="fill:none;stroke:#0000ff;stroke-dasharray:0.555,0.24;stroke-dashoffset:0;stroke-width:0.15;"/>
   </g>
   <g id="line2d_214">
    <path clip-path="url(#p0c7113464e)" d="M 220.812411 268.443024 
L 275.901194 248.064633 
L 267.461263 225.249019 
L 212.37248 245.62741 
L 220.812411 268.443024 
" style="fill:none;stroke:#0000ff;stroke-dasharray:0.555,0.24;stroke-dashoffset:0;stroke-width:0.15;"/>
   </g>
   <g id="line2d_215">
    <path clip-path="url(#p0c7113464e)" d="M 224.564699 267.054981 
L 279.653483 246.676592 
L 271.213552 223.860977 
L 216.124769 244.239366 
L 224.564699 267.054981 
" style="fill:none;stroke:#0000ff;stroke-dasharray:0.555,0.24;stroke-dashoffset:0;stroke-width:0.15;"/>
   </g>
   <g id="line2d_216">
    <path clip-path="url(#p0c7113464e)" d="M 228.78669 265.493186 
L 283.875474 245.114798 
L 275.435545 222.299183 
L 220.34676 242.677571 
L 228.78669 265.493186 
" style="fill:none;stroke:#0000ff;stroke-dasharray:0.555,0.24;stroke-dashoffset:0;stroke-width:0.15;"/>
   </g>
   <g id="line2d_217">
    <path clip-path="url(#p0c7113464e)" d="M 233.27186 263.834036 
L 288.360645 243.455649 
L 279.920716 220.640034 
L 224.831931 241.018421 
L 233.27186 263.834036 
" style="fill:none;stroke:#0000ff;stroke-dasharray:0.555,0.24;stroke-dashoffset:0;stroke-width:0.15;"/>
   </g>
   <g id="line2d_218">
    <path clip-path="url(#p0c7113464e)" d="M 237.767958 262.170844 
L 292.856743 241.792459 
L 284.416815 218.976843 
L 229.32803 239.355228 
L 237.767958 262.170844 
" style="fill:none;stroke:#0000ff;stroke-dasharray:0.555,0.24;stroke-dashoffset:0;stroke-width:0.15;"/>
   </g>
   <g id="line2d_219">
    <path clip-path="url(#p0c7113464e)" d="M 241.997311 260.606326 
L 297.086097 240.227942 
L 288.646169 217.412326 
L 233.557383 237.79071 
L 241.997311 260.606326 
" style="fill:none;stroke:#0000ff;stroke-dasharray:0.555,0.24;stroke-dashoffset:0;stroke-width:0.15;"/>
   </g>
   <g id="line2d_220">
    <path clip-path="url(#p0c7113464e)" d="M 245.756784 259.215625 
L 300.84557 238.837242 
L 292.405642 216.021626 
L 237.316856 236.40001 
L 245.756784 259.215625 
" style="fill:none;stroke:#0000ff;stroke-dasharray:0.555,0.24;stroke-dashoffset:0;stroke-width:0.15;"/>
   </g>
   <g id="line2d_221">
    <path clip-path="url(#p0c7113464e)" d="M 249.04633 257.99876 
L 304.135116 237.620378 
L 295.695189 214.804762 
L 240.606403 235.183144 
L 249.04633 257.99876 
" style="fill:none;stroke:#0000ff;stroke-dasharray:0.555,0.24;stroke-dashoffset:0;stroke-width:0.15;"/>
   </g>
   <g id="line2d_222">
    <path clip-path="url(#p0c7113464e)" d="M 251.865943 256.955732 
L 306.95473 236.57735 
L 298.514803 213.761734 
L 243.426016 234.140116 
L 251.865943 256.955732 
" style="fill:none;stroke:#0000ff;stroke-dasharray:0.555,0.24;stroke-dashoffset:0;stroke-width:0.15;"/>
   </g>
   <g id="line2d_223">
    <path clip-path="url(#p0c7113464e)" d="M 254.215621 256.086541 
L 309.304408 235.70816 
L 300.864481 212.892544 
L 245.775694 233.270925 
L 254.215621 256.086541 
" style="fill:none;stroke:#0000ff;stroke-dasharray:0.555,0.24;stroke-dashoffset:0;stroke-width:0.15;"/>
   </g>
   <g id="line2d_224">
    <path clip-path="url(#p0c7113464e)" d="M 256.095362 255.39119 
L 311.184148 235.012809 
L 302.744222 212.197193 
L 247.655435 232.575574 
L 256.095362 255.39119 
" style="fill:none;stroke:#0000ff;stroke-dasharray:0.555,0.24;stroke-dashoffset:0;stroke-width:0.15;"/>
   </g>
   <g id="line2d_225">
    <path clip-path="url(#p0c7113464e)" d="M 257.505165 254.869677 
L 312.593952 234.491296 
L 304.154025 211.67568 
L 249.065238 232.054061 
L 257.505165 254.869677 
" style="fill:none;stroke:#0000ff;stroke-dasharray:0.555,0.24;stroke-dashoffset:0;stroke-width:0.15;"/>
   </g>
   <g id="line2d_226">
    <path clip-path="url(#p0c7113464e)" d="M 258.44503 254.522003 
L 313.533817 234.143623 
L 305.09389 211.328006 
L 250.005103 231.706387 
L 258.44503 254.522003 
" style="fill:none;stroke:#0000ff;stroke-dasharray:0.555,0.24;stroke-dashoffset:0;stroke-width:0.15;"/>
   </g>
   <g id="line2d_227">
    <path clip-path="url(#p0c7113464e)" d="M 258.914955 254.348169 
L 314.003743 233.969789 
L 305.563817 211.154173 
L 250.475029 231.532552 
L 258.914955 254.348169 
" style="fill:none;stroke:#0000ff;stroke-dasharray:0.555,0.24;stroke-dashoffset:0;stroke-width:0.15;"/>
   </g>
   <g id="line2d_228">
    <path clip-path="url(#p0c7113464e)" d="M 258.914943 254.348173 
L 314.00373 233.969793 
L 305.563804 211.154176 
L 250.475017 231.532557 
L 258.914943 254.348173 
" style="fill:none;stroke:#0000ff;stroke-dasharray:0.555,0.24;stroke-dashoffset:0;stroke-width:0.15;"/>
   </g>
   <g id="line2d_229">
    <path clip-path="url(#p0c7113464e)" d="M 258.796543 197.97827 
L 313.409643 176.357397 
L 304.455125 153.738791 
L 249.842025 175.359664 
L 258.796543 197.97827 
" style="fill:none;stroke:#0000ff;stroke-dasharray:0.555,0.24;stroke-dashoffset:0;stroke-width:0.15;"/>
   </g>
   <g id="line2d_230">
    <path clip-path="url(#p0c7113464e)" d="M 141.423619 307.584 
L 141.423619 307.584 
L 147.364284 303.795714 
L 152.145336 301.127612 
L 154.976021 299.761789 
L 158.06513 298.454625 
L 161.375505 297.254164 
L 164.861567 296.192417 
L 168.471458 295.283425 
L 172.15353 294.523762 
L 179.580125 293.377647 
L 186.958165 292.555275 
L 197.941016 291.421972 
L 205.253166 290.396609 
L 208.876434 289.725515 
L 212.449566 288.921327 
L 215.949192 287.969276 
L 219.355101 286.859148 
L 222.646818 285.587788 
L 225.802692 284.158474 
L 228.801817 282.581972 
L 231.621498 280.880535 
L 234.23502 279.092988 
L 236.620191 277.272071 
L 240.690541 273.742073 
L 245.213774 269.287281 
L 248.992477 265.372156 
L 242.794773 271.944518 
L 227.73833 288.568796 
L 232.813187 282.713157 
L 236.190182 278.408315 
L 242.22103 270.71527 
L 244.482327 268.111192 
L 247.138921 265.306452 
L 250.126575 262.42955 
L 253.499799 259.443603 
L 257.27235 256.365322 
L 261.408732 253.246594 
L 265.999064 250.027997 
L 271.069823 246.717854 
L 276.545187 243.373937 
L 282.403376 240.01164 
L 288.670003 236.615162 
L 298.508363 231.614715 
L 308.013914 227.088609 
L 313.770523 224.622748 
L 318.362503 223.011193 
L 321.964182 222.07091 
L 319.558021 222.623493 
L 312.737253 224.096434 
L 305.737894 225.589891 
L 301.52779 226.60152 
L 296.876033 227.904883 
L 291.794476 229.519362 
L 280.539415 233.451286 
L 257.020571 242.083299 
L 214.39876 257.846704 
L 265.609363 238.902929 
L 265.60935 238.902934 
L 265.13941 182.385369 
L 265.13941 182.385369 
" style="fill:none;stroke:#ff0000;stroke-linecap:square;stroke-width:0.1;"/>
   </g>
   <g id="patch_6">
    <path d="M 81.914754 307.584 
L 81.914754 41.472 
" style="fill:none;stroke:#000000;stroke-linecap:square;stroke-linejoin:miter;stroke-width:0.8;"/>
   </g>
   <g id="patch_7">
    <path d="M 390.405246 307.584 
L 390.405246 41.472 
" style="fill:none;stroke:#000000;stroke-linecap:square;stroke-linejoin:miter;stroke-width:0.8;"/>
   </g>
   <g id="patch_8">
    <path d="M 81.914754 307.584 
L 390.405246 307.584 
" style="fill:none;stroke:#000000;stroke-linecap:square;stroke-linejoin:miter;stroke-width:0.8;"/>
   </g>
   <g id="patch_9">
    <path d="M 81.914754 41.472 
L 390.405246 41.472 
" style="fill:none;stroke:#000000;stroke-linecap:square;stroke-linejoin:miter;stroke-width:0.8;"/>
   </g>
   <g id="text_16">
    <!-- Case 1 -->
    <g transform="translate(215.751563 35.472)scale(0.12 -0.12)">
     <defs>
      <path d="M 64.40625 67.28125 
L 64.40625 56.890625 
Q 59.421875 61.53125 53.78125 63.8125 
Q 48.140625 66.109375 41.796875 66.109375 
Q 29.296875 66.109375 22.65625 58.46875 
Q 16.015625 50.828125 16.015625 36.375 
Q 16.015625 21.96875 22.65625 14.328125 
Q 29.296875 6.6875 41.796875 6.6875 
Q 48.140625 6.6875 53.78125 8.984375 
Q 59.421875 11.28125 64.40625 15.921875 
L 64.40625 5.609375 
Q 59.234375 2.09375 53.4375 0.328125 
Q 47.65625 -1.421875 41.21875 -1.421875 
Q 24.65625 -1.421875 15.125 8.703125 
Q 5.609375 18.84375 5.609375 36.375 
Q 5.609375 53.953125 15.125 64.078125 
Q 24.65625 74.21875 41.21875 74.21875 
Q 47.75 74.21875 53.53125 72.484375 
Q 59.328125 70.75 64.40625 67.28125 
z
" id="DejaVuSans-67"/>
      <path d="M 34.28125 27.484375 
Q 23.390625 27.484375 19.1875 25 
Q 14.984375 22.515625 14.984375 16.5 
Q 14.984375 11.71875 18.140625 8.90625 
Q 21.296875 6.109375 26.703125 6.109375 
Q 34.1875 6.109375 38.703125 11.40625 
Q 43.21875 16.703125 43.21875 25.484375 
L 43.21875 27.484375 
z
M 52.203125 31.203125 
L 52.203125 0 
L 43.21875 0 
L 43.21875 8.296875 
Q 40.140625 3.328125 35.546875 0.953125 
Q 30.953125 -1.421875 24.3125 -1.421875 
Q 15.921875 -1.421875 10.953125 3.296875 
Q 6 8.015625 6 15.921875 
Q 6 25.140625 12.171875 29.828125 
Q 18.359375 34.515625 30.609375 34.515625 
L 43.21875 34.515625 
L 43.21875 35.40625 
Q 43.21875 41.609375 39.140625 45 
Q 35.0625 48.390625 27.6875 48.390625 
Q 23 48.390625 18.546875 47.265625 
Q 14.109375 46.140625 10.015625 43.890625 
L 10.015625 52.203125 
Q 14.9375 54.109375 19.578125 55.046875 
Q 24.21875 56 28.609375 56 
Q 40.484375 56 46.34375 49.84375 
Q 52.203125 43.703125 52.203125 31.203125 
z
" id="DejaVuSans-97"/>
      <path d="M 44.28125 53.078125 
L 44.28125 44.578125 
Q 40.484375 46.53125 36.375 47.5 
Q 32.28125 48.484375 27.875 48.484375 
Q 21.1875 48.484375 17.84375 46.4375 
Q 14.5 44.390625 14.5 40.28125 
Q 14.5 37.15625 16.890625 35.375 
Q 19.28125 33.59375 26.515625 31.984375 
L 29.59375 31.296875 
Q 39.15625 29.25 43.1875 25.515625 
Q 47.21875 21.78125 47.21875 15.09375 
Q 47.21875 7.46875 41.1875 3.015625 
Q 35.15625 -1.421875 24.609375 -1.421875 
Q 20.21875 -1.421875 15.453125 -0.5625 
Q 10.6875 0.296875 5.421875 2 
L 5.421875 11.28125 
Q 10.40625 8.6875 15.234375 7.390625 
Q 20.0625 6.109375 24.8125 6.109375 
Q 31.15625 6.109375 34.5625 8.28125 
Q 37.984375 10.453125 37.984375 14.40625 
Q 37.984375 18.0625 35.515625 20.015625 
Q 33.0625 21.96875 24.703125 23.78125 
L 21.578125 24.515625 
Q 13.234375 26.265625 9.515625 29.90625 
Q 5.8125 33.546875 5.8125 39.890625 
Q 5.8125 47.609375 11.28125 51.796875 
Q 16.75 56 26.8125 56 
Q 31.78125 56 36.171875 55.265625 
Q 40.578125 54.546875 44.28125 53.078125 
z
" id="DejaVuSans-115"/>
      <path d="M 56.203125 29.59375 
L 56.203125 25.203125 
L 14.890625 25.203125 
Q 15.484375 15.921875 20.484375 11.0625 
Q 25.484375 6.203125 34.421875 6.203125 
Q 39.59375 6.203125 44.453125 7.46875 
Q 49.3125 8.734375 54.109375 11.28125 
L 54.109375 2.78125 
Q 49.265625 0.734375 44.1875 -0.34375 
Q 39.109375 -1.421875 33.890625 -1.421875 
Q 20.796875 -1.421875 13.15625 6.1875 
Q 5.515625 13.8125 5.515625 26.8125 
Q 5.515625 40.234375 12.765625 48.109375 
Q 20.015625 56 32.328125 56 
Q 43.359375 56 49.78125 48.890625 
Q 56.203125 41.796875 56.203125 29.59375 
z
M 47.21875 32.234375 
Q 47.125 39.59375 43.09375 43.984375 
Q 39.0625 48.390625 32.421875 48.390625 
Q 24.90625 48.390625 20.390625 44.140625 
Q 15.875 39.890625 15.1875 32.171875 
z
" id="DejaVuSans-101"/>
     </defs>
     <use xlink:href="#DejaVuSans-67"/>
     <use x="69.824219" xlink:href="#DejaVuSans-97"/>
     <use x="131.103516" xlink:href="#DejaVuSans-115"/>
     <use x="183.203125" xlink:href="#DejaVuSans-101"/>
     <use x="244.726562" xlink:href="#DejaVuSans-32"/>
     <use x="276.513672" xlink:href="#DejaVuSans-49"/>
    </g>
   </g>
  </g>
 </g>
 <defs>
  <clipPath id="p0c7113464e">
   <rect height="266.112" width="308.490492" x="81.914754" y="41.472"/>
  </clipPath>
 </defs>
</svg>
