<?xml version="1.0" encoding="utf-8" standalone="no"?>
<!DOCTYPE svg PUBLIC "-//W3C//DTD SVG 1.1//EN"
  "http://www.w3.org/Graphics/SVG/1.1/DTD/svg11.dtd">
<!-- Created with matplotlib (https://matplotlib.org/) -->
<svg height="345.6pt" version="1.1" viewBox="0 0 460.8 345.6" width="460.8pt" xmlns="http://www.w3.org/2000/svg" xmlns:xlink="http://www.w3.org/1999/xlink">
 <metadata>
  <rdf:RDF xmlns:cc="http://creativecommons.org/ns#" xmlns:dc="http://purl.org/dc/elements/1.1/" xmlns:rdf="http://www.w3.org/1999/02/22-rdf-syntax-ns#">
   <cc:Work>
    <dc:type rdf:resource="http://purl.org/dc/dcmitype/StillImage"/>
    <dc:date>2022-12-08T00:52:10.280986</dc:date>
    <dc:format>image/svg+xml</dc:format>
    <dc:creator>
     <cc:Agent>
      <dc:title>Matplotlib v3.3.4, https://matplotlib.org/</dc:title>
     </cc:Agent>
    </dc:creator>
   </cc:Work>
  </rdf:RDF>
 </metadata>
 <defs>
  <style type="text/css">*{stroke-linecap:butt;stroke-linejoin:round;}</style>
 </defs>
 <g id="figure_1">
  <g id="patch_1">
   <path d="M 0 345.6 
L 460.8 345.6 
L 460.8 0 
L 0 0 
z
" style="fill:#ffffff;"/>
  </g>
  <g id="axes_1">
   <g id="patch_2">
    <path d="M 57.6 94.167446 
L 414.72 94.167446 
L 414.72 41.472 
L 57.6 41.472 
z
" style="fill:#ffffff;"/>
   </g>
   <g id="matplotlib.axis_1">
    <g id="xtick_1">
     <g id="line2d_1">
      <defs>
       <path d="M 0 0 
L 0 3.5 
" id="m533faa383a" style="stroke:#000000;stroke-width:0.8;"/>
      </defs>
      <g>
       <use style="stroke:#000000;stroke-width:0.8;" x="73.832727" xlink:href="#m533faa383a" y="94.167446"/>
      </g>
     </g>
     <g id="text_1">
      <!-- 0 -->
      <g transform="translate(70.651477 108.765883)scale(0.1 -0.1)">
       <defs>
        <path d="M 31.78125 66.40625 
Q 24.171875 66.40625 20.328125 58.90625 
Q 16.5 51.421875 16.5 36.375 
Q 16.5 21.390625 20.328125 13.890625 
Q 24.171875 6.390625 31.78125 6.390625 
Q 39.453125 6.390625 43.28125 13.890625 
Q 47.125 21.390625 47.125 36.375 
Q 47.125 51.421875 43.28125 58.90625 
Q 39.453125 66.40625 31.78125 66.40625 
z
M 31.78125 74.21875 
Q 44.046875 74.21875 50.515625 64.515625 
Q 56.984375 54.828125 56.984375 36.375 
Q 56.984375 17.96875 50.515625 8.265625 
Q 44.046875 -1.421875 31.78125 -1.421875 
Q 19.53125 -1.421875 13.0625 8.265625 
Q 6.59375 17.96875 6.59375 36.375 
Q 6.59375 54.828125 13.0625 64.515625 
Q 19.53125 74.21875 31.78125 74.21875 
z
" id="DejaVuSans-48"/>
       </defs>
       <use xlink:href="#DejaVuSans-48"/>
      </g>
     </g>
    </g>
    <g id="xtick_2">
     <g id="line2d_2">
      <g>
       <use style="stroke:#000000;stroke-width:0.8;" x="114.414545" xlink:href="#m533faa383a" y="94.167446"/>
      </g>
     </g>
     <g id="text_2">
      <!-- 5 -->
      <g transform="translate(111.233295 108.765883)scale(0.1 -0.1)">
       <defs>
        <path d="M 10.796875 72.90625 
L 49.515625 72.90625 
L 49.515625 64.59375 
L 19.828125 64.59375 
L 19.828125 46.734375 
Q 21.96875 47.46875 24.109375 47.828125 
Q 26.265625 48.1875 28.421875 48.1875 
Q 40.625 48.1875 47.75 41.5 
Q 54.890625 34.8125 54.890625 23.390625 
Q 54.890625 11.625 47.5625 5.09375 
Q 40.234375 -1.421875 26.90625 -1.421875 
Q 22.3125 -1.421875 17.546875 -0.640625 
Q 12.796875 0.140625 7.71875 1.703125 
L 7.71875 11.625 
Q 12.109375 9.234375 16.796875 8.0625 
Q 21.484375 6.890625 26.703125 6.890625 
Q 35.15625 6.890625 40.078125 11.328125 
Q 45.015625 15.765625 45.015625 23.390625 
Q 45.015625 31 40.078125 35.4375 
Q 35.15625 39.890625 26.703125 39.890625 
Q 22.75 39.890625 18.8125 39.015625 
Q 14.890625 38.140625 10.796875 36.28125 
z
" id="DejaVuSans-53"/>
       </defs>
       <use xlink:href="#DejaVuSans-53"/>
      </g>
     </g>
    </g>
    <g id="xtick_3">
     <g id="line2d_3">
      <g>
       <use style="stroke:#000000;stroke-width:0.8;" x="154.996364" xlink:href="#m533faa383a" y="94.167446"/>
      </g>
     </g>
     <g id="text_3">
      <!-- 10 -->
      <g transform="translate(148.633864 108.765883)scale(0.1 -0.1)">
       <defs>
        <path d="M 12.40625 8.296875 
L 28.515625 8.296875 
L 28.515625 63.921875 
L 10.984375 60.40625 
L 10.984375 69.390625 
L 28.421875 72.90625 
L 38.28125 72.90625 
L 38.28125 8.296875 
L 54.390625 8.296875 
L 54.390625 0 
L 12.40625 0 
z
" id="DejaVuSans-49"/>
       </defs>
       <use xlink:href="#DejaVuSans-49"/>
       <use x="63.623047" xlink:href="#DejaVuSans-48"/>
      </g>
     </g>
    </g>
    <g id="xtick_4">
     <g id="line2d_4">
      <g>
       <use style="stroke:#000000;stroke-width:0.8;" x="195.578182" xlink:href="#m533faa383a" y="94.167446"/>
      </g>
     </g>
     <g id="text_4">
      <!-- 15 -->
      <g transform="translate(189.215682 108.765883)scale(0.1 -0.1)">
       <use xlink:href="#DejaVuSans-49"/>
       <use x="63.623047" xlink:href="#DejaVuSans-53"/>
      </g>
     </g>
    </g>
    <g id="xtick_5">
     <g id="line2d_5">
      <g>
       <use style="stroke:#000000;stroke-width:0.8;" x="236.16" xlink:href="#m533faa383a" y="94.167446"/>
      </g>
     </g>
     <g id="text_5">
      <!-- 20 -->
      <g transform="translate(229.7975 108.765883)scale(0.1 -0.1)">
       <defs>
        <path d="M 19.1875 8.296875 
L 53.609375 8.296875 
L 53.609375 0 
L 7.328125 0 
L 7.328125 8.296875 
Q 12.9375 14.109375 22.625 23.890625 
Q 32.328125 33.6875 34.8125 36.53125 
Q 39.546875 41.84375 41.421875 45.53125 
Q 43.3125 49.21875 43.3125 52.78125 
Q 43.3125 58.59375 39.234375 62.25 
Q 35.15625 65.921875 28.609375 65.921875 
Q 23.96875 65.921875 18.8125 64.3125 
Q 13.671875 62.703125 7.8125 59.421875 
L 7.8125 69.390625 
Q 13.765625 71.78125 18.9375 73 
Q 24.125 74.21875 28.421875 74.21875 
Q 39.75 74.21875 46.484375 68.546875 
Q 53.21875 62.890625 53.21875 53.421875 
Q 53.21875 48.921875 51.53125 44.890625 
Q 49.859375 40.875 45.40625 35.40625 
Q 44.1875 33.984375 37.640625 27.21875 
Q 31.109375 20.453125 19.1875 8.296875 
z
" id="DejaVuSans-50"/>
       </defs>
       <use xlink:href="#DejaVuSans-50"/>
       <use x="63.623047" xlink:href="#DejaVuSans-48"/>
      </g>
     </g>
    </g>
    <g id="xtick_6">
     <g id="line2d_6">
      <g>
       <use style="stroke:#000000;stroke-width:0.8;" x="276.741818" xlink:href="#m533faa383a" y="94.167446"/>
      </g>
     </g>
     <g id="text_6">
      <!-- 25 -->
      <g transform="translate(270.379318 108.765883)scale(0.1 -0.1)">
       <use xlink:href="#DejaVuSans-50"/>
       <use x="63.623047" xlink:href="#DejaVuSans-53"/>
      </g>
     </g>
    </g>
    <g id="xtick_7">
     <g id="line2d_7">
      <g>
       <use style="stroke:#000000;stroke-width:0.8;" x="317.323636" xlink:href="#m533faa383a" y="94.167446"/>
      </g>
     </g>
     <g id="text_7">
      <!-- 30 -->
      <g transform="translate(310.961136 108.765883)scale(0.1 -0.1)">
       <defs>
        <path d="M 40.578125 39.3125 
Q 47.65625 37.796875 51.625 33 
Q 55.609375 28.21875 55.609375 21.1875 
Q 55.609375 10.40625 48.1875 4.484375 
Q 40.765625 -1.421875 27.09375 -1.421875 
Q 22.515625 -1.421875 17.65625 -0.515625 
Q 12.796875 0.390625 7.625 2.203125 
L 7.625 11.71875 
Q 11.71875 9.328125 16.59375 8.109375 
Q 21.484375 6.890625 26.8125 6.890625 
Q 36.078125 6.890625 40.9375 10.546875 
Q 45.796875 14.203125 45.796875 21.1875 
Q 45.796875 27.640625 41.28125 31.265625 
Q 36.765625 34.90625 28.71875 34.90625 
L 20.21875 34.90625 
L 20.21875 43.015625 
L 29.109375 43.015625 
Q 36.375 43.015625 40.234375 45.921875 
Q 44.09375 48.828125 44.09375 54.296875 
Q 44.09375 59.90625 40.109375 62.90625 
Q 36.140625 65.921875 28.71875 65.921875 
Q 24.65625 65.921875 20.015625 65.03125 
Q 15.375 64.15625 9.8125 62.3125 
L 9.8125 71.09375 
Q 15.4375 72.65625 20.34375 73.4375 
Q 25.25 74.21875 29.59375 74.21875 
Q 40.828125 74.21875 47.359375 69.109375 
Q 53.90625 64.015625 53.90625 55.328125 
Q 53.90625 49.265625 50.4375 45.09375 
Q 46.96875 40.921875 40.578125 39.3125 
z
" id="DejaVuSans-51"/>
       </defs>
       <use xlink:href="#DejaVuSans-51"/>
       <use x="63.623047" xlink:href="#DejaVuSans-48"/>
      </g>
     </g>
    </g>
    <g id="xtick_8">
     <g id="line2d_8">
      <g>
       <use style="stroke:#000000;stroke-width:0.8;" x="357.905455" xlink:href="#m533faa383a" y="94.167446"/>
      </g>
     </g>
     <g id="text_8">
      <!-- 35 -->
      <g transform="translate(351.542955 108.765883)scale(0.1 -0.1)">
       <use xlink:href="#DejaVuSans-51"/>
       <use x="63.623047" xlink:href="#DejaVuSans-53"/>
      </g>
     </g>
    </g>
    <g id="xtick_9">
     <g id="line2d_9">
      <g>
       <use style="stroke:#000000;stroke-width:0.8;" x="398.487273" xlink:href="#m533faa383a" y="94.167446"/>
      </g>
     </g>
     <g id="text_9">
      <!-- 40 -->
      <g transform="translate(392.124773 108.765883)scale(0.1 -0.1)">
       <defs>
        <path d="M 37.796875 64.3125 
L 12.890625 25.390625 
L 37.796875 25.390625 
z
M 35.203125 72.90625 
L 47.609375 72.90625 
L 47.609375 25.390625 
L 58.015625 25.390625 
L 58.015625 17.1875 
L 47.609375 17.1875 
L 47.609375 0 
L 37.796875 0 
L 37.796875 17.1875 
L 4.890625 17.1875 
L 4.890625 26.703125 
z
" id="DejaVuSans-52"/>
       </defs>
       <use xlink:href="#DejaVuSans-52"/>
       <use x="63.623047" xlink:href="#DejaVuSans-48"/>
      </g>
     </g>
    </g>
   </g>
   <g id="matplotlib.axis_2">
    <g id="ytick_1">
     <g id="line2d_10">
      <defs>
       <path d="M 0 0 
L -3.5 0 
" id="mb25fc599e6" style="stroke:#000000;stroke-width:0.8;"/>
      </defs>
      <g>
       <use style="stroke:#000000;stroke-width:0.8;" x="57.6" xlink:href="#mb25fc599e6" y="91.772337"/>
      </g>
     </g>
     <g id="text_10">
      <!-- −2.5 -->
      <g transform="translate(26.317187 95.571556)scale(0.1 -0.1)">
       <defs>
        <path d="M 10.59375 35.5 
L 73.1875 35.5 
L 73.1875 27.203125 
L 10.59375 27.203125 
z
" id="DejaVuSans-8722"/>
        <path d="M 10.6875 12.40625 
L 21 12.40625 
L 21 0 
L 10.6875 0 
z
" id="DejaVuSans-46"/>
       </defs>
       <use xlink:href="#DejaVuSans-8722"/>
       <use x="83.789062" xlink:href="#DejaVuSans-50"/>
       <use x="147.412109" xlink:href="#DejaVuSans-46"/>
       <use x="179.199219" xlink:href="#DejaVuSans-53"/>
      </g>
     </g>
    </g>
    <g id="ytick_2">
     <g id="line2d_11">
      <g>
       <use style="stroke:#000000;stroke-width:0.8;" x="57.6" xlink:href="#mb25fc599e6" y="64.63664"/>
      </g>
     </g>
     <g id="text_11">
      <!-- 0.0 -->
      <g transform="translate(34.696875 68.435858)scale(0.1 -0.1)">
       <use xlink:href="#DejaVuSans-48"/>
       <use x="63.623047" xlink:href="#DejaVuSans-46"/>
       <use x="95.410156" xlink:href="#DejaVuSans-48"/>
      </g>
     </g>
    </g>
   </g>
   <g id="line2d_12">
    <path clip-path="url(#p28b5595998)" d="M 73.832727 64.63664 
L 77.079273 60.355206 
L 80.325818 56.55388 
L 81.949091 54.900145 
L 83.572364 53.422007 
L 85.195636 52.126657 
L 86.818909 51.019736 
L 88.442182 50.104178 
L 90.065455 49.380532 
L 91.688727 48.848308 
L 93.312 48.508583 
L 94.935273 48.348093 
L 98.181818 48.389763 
L 103.051636 48.683012 
L 106.298182 48.682511 
L 111.168 48.671852 
L 114.414545 48.923474 
L 117.661091 49.348531 
L 120.907636 49.957134 
L 122.530909 50.368647 
L 124.154182 50.918404 
L 125.777455 51.635694 
L 129.024 53.432638 
L 133.893818 56.524259 
L 137.140364 58.792775 
L 140.386909 61.284551 
L 150.126545 69.149017 
L 153.373091 71.438631 
L 154.996364 72.401026 
L 156.619636 73.193939 
L 158.242909 73.802027 
L 159.866182 74.211414 
L 161.489455 74.407656 
L 163.112727 74.377506 
L 164.736 74.125367 
L 166.359273 73.672824 
L 167.982545 73.04 
L 169.605818 72.246545 
L 172.852364 70.282355 
L 179.345455 65.961536 
L 182.592 64.16309 
L 187.461818 61.987609 
L 189.085091 61.406611 
L 190.708364 60.982285 
L 192.331636 60.774992 
L 193.954909 60.829315 
L 195.578182 61.114548 
L 198.824727 62.077502 
L 202.071273 63.113531 
L 205.317818 63.767985 
L 208.564364 64.174923 
L 210.187636 64.229795 
L 226.420364 63.564713 
L 236.16 62.36548 
L 242.653091 60.982501 
L 257.262545 56.439986 
L 271.872 53.223543 
L 279.988364 50.90241 
L 283.234909 50.210777 
L 288.104727 49.007896 
L 289.728 48.738445 
L 291.351273 48.636745 
L 292.974545 48.718904 
L 294.597818 48.987957 
L 296.221091 49.389181 
L 297.844364 49.918795 
L 299.467636 50.594227 
L 301.090909 51.544248 
L 302.714182 53.007434 
L 330.309818 89.76068 
L 331.933091 91.166019 
L 333.556364 91.771839 
L 340.049455 91.77069 
L 341.672727 90.714498 
L 375.761455 45.133462 
L 377.384727 43.917724 
L 379.008 43.867248 
L 380.631273 45.099454 
L 396.864 66.807495 
L 398.487273 64.63664 
L 398.487273 64.63664 
" style="fill:none;stroke:#1f77b4;stroke-linecap:square;stroke-width:1.5;"/>
   </g>
   <g id="patch_3">
    <path d="M 57.6 94.167446 
L 57.6 41.472 
" style="fill:none;stroke:#000000;stroke-linecap:square;stroke-linejoin:miter;stroke-width:0.8;"/>
   </g>
   <g id="patch_4">
    <path d="M 414.72 94.167446 
L 414.72 41.472 
" style="fill:none;stroke:#000000;stroke-linecap:square;stroke-linejoin:miter;stroke-width:0.8;"/>
   </g>
   <g id="patch_5">
    <path d="M 57.6 94.167446 
L 414.72 94.167446 
" style="fill:none;stroke:#000000;stroke-linecap:square;stroke-linejoin:miter;stroke-width:0.8;"/>
   </g>
   <g id="patch_6">
    <path d="M 57.6 41.472 
L 414.72 41.472 
" style="fill:none;stroke:#000000;stroke-linecap:square;stroke-linejoin:miter;stroke-width:0.8;"/>
   </g>
   <g id="legend_1">
    <g id="patch_7">
     <path d="M 64.6 89.167446 
L 109.784375 89.167446 
Q 111.784375 89.167446 111.784375 87.167446 
L 111.784375 73.489321 
Q 111.784375 71.489321 109.784375 71.489321 
L 64.6 71.489321 
Q 62.6 71.489321 62.6 73.489321 
L 62.6 87.167446 
Q 62.6 89.167446 64.6 89.167446 
z
" style="fill:#ffffff;opacity:0.8;stroke:#cccccc;stroke-linejoin:miter;"/>
    </g>
    <g id="line2d_13">
     <path d="M 66.6 79.587758 
L 86.6 79.587758 
" style="fill:none;stroke:#1f77b4;stroke-linecap:square;stroke-width:1.5;"/>
    </g>
    <g id="line2d_14"/>
    <g id="text_12">
     <!-- v-t -->
     <g transform="translate(94.6 83.087758)scale(0.1 -0.1)">
      <defs>
       <path d="M 2.984375 54.6875 
L 12.5 54.6875 
L 29.59375 8.796875 
L 46.6875 54.6875 
L 56.203125 54.6875 
L 35.6875 0 
L 23.484375 0 
z
" id="DejaVuSans-118"/>
       <path d="M 4.890625 31.390625 
L 31.203125 31.390625 
L 31.203125 23.390625 
L 4.890625 23.390625 
z
" id="DejaVuSans-45"/>
       <path d="M 18.3125 70.21875 
L 18.3125 54.6875 
L 36.8125 54.6875 
L 36.8125 47.703125 
L 18.3125 47.703125 
L 18.3125 18.015625 
Q 18.3125 11.328125 20.140625 9.421875 
Q 21.96875 7.515625 27.59375 7.515625 
L 36.8125 7.515625 
L 36.8125 0 
L 27.59375 0 
Q 17.1875 0 13.234375 3.875 
Q 9.28125 7.765625 9.28125 18.015625 
L 9.28125 47.703125 
L 2.6875 47.703125 
L 2.6875 54.6875 
L 9.28125 54.6875 
L 9.28125 70.21875 
z
" id="DejaVuSans-116"/>
      </defs>
      <use xlink:href="#DejaVuSans-118"/>
      <use x="56.554688" xlink:href="#DejaVuSans-45"/>
      <use x="92.638672" xlink:href="#DejaVuSans-116"/>
     </g>
    </g>
   </g>
  </g>
  <g id="axes_2">
   <g id="patch_8">
    <path d="M 57.6 165.306297 
L 414.72 165.306297 
L 414.72 112.610851 
L 57.6 112.610851 
z
" style="fill:#ffffff;"/>
   </g>
   <g id="matplotlib.axis_3">
    <g id="xtick_10">
     <g id="line2d_15">
      <g>
       <use style="stroke:#000000;stroke-width:0.8;" x="73.832727" xlink:href="#m533faa383a" y="165.306297"/>
      </g>
     </g>
     <g id="text_13">
      <!-- 0 -->
      <g transform="translate(70.651477 179.904735)scale(0.1 -0.1)">
       <use xlink:href="#DejaVuSans-48"/>
      </g>
     </g>
    </g>
    <g id="xtick_11">
     <g id="line2d_16">
      <g>
       <use style="stroke:#000000;stroke-width:0.8;" x="114.618474" xlink:href="#m533faa383a" y="165.306297"/>
      </g>
     </g>
     <g id="text_14">
      <!-- 5 -->
      <g transform="translate(111.437224 179.904735)scale(0.1 -0.1)">
       <use xlink:href="#DejaVuSans-53"/>
      </g>
     </g>
    </g>
    <g id="xtick_12">
     <g id="line2d_17">
      <g>
       <use style="stroke:#000000;stroke-width:0.8;" x="155.404221" xlink:href="#m533faa383a" y="165.306297"/>
      </g>
     </g>
     <g id="text_15">
      <!-- 10 -->
      <g transform="translate(149.041721 179.904735)scale(0.1 -0.1)">
       <use xlink:href="#DejaVuSans-49"/>
       <use x="63.623047" xlink:href="#DejaVuSans-48"/>
      </g>
     </g>
    </g>
    <g id="xtick_13">
     <g id="line2d_18">
      <g>
       <use style="stroke:#000000;stroke-width:0.8;" x="196.189968" xlink:href="#m533faa383a" y="165.306297"/>
      </g>
     </g>
     <g id="text_16">
      <!-- 15 -->
      <g transform="translate(189.827468 179.904735)scale(0.1 -0.1)">
       <use xlink:href="#DejaVuSans-49"/>
       <use x="63.623047" xlink:href="#DejaVuSans-53"/>
      </g>
     </g>
    </g>
    <g id="xtick_14">
     <g id="line2d_19">
      <g>
       <use style="stroke:#000000;stroke-width:0.8;" x="236.975715" xlink:href="#m533faa383a" y="165.306297"/>
      </g>
     </g>
     <g id="text_17">
      <!-- 20 -->
      <g transform="translate(230.613215 179.904735)scale(0.1 -0.1)">
       <use xlink:href="#DejaVuSans-50"/>
       <use x="63.623047" xlink:href="#DejaVuSans-48"/>
      </g>
     </g>
    </g>
    <g id="xtick_15">
     <g id="line2d_20">
      <g>
       <use style="stroke:#000000;stroke-width:0.8;" x="277.761462" xlink:href="#m533faa383a" y="165.306297"/>
      </g>
     </g>
     <g id="text_18">
      <!-- 25 -->
      <g transform="translate(271.398962 179.904735)scale(0.1 -0.1)">
       <use xlink:href="#DejaVuSans-50"/>
       <use x="63.623047" xlink:href="#DejaVuSans-53"/>
      </g>
     </g>
    </g>
    <g id="xtick_16">
     <g id="line2d_21">
      <g>
       <use style="stroke:#000000;stroke-width:0.8;" x="318.547209" xlink:href="#m533faa383a" y="165.306297"/>
      </g>
     </g>
     <g id="text_19">
      <!-- 30 -->
      <g transform="translate(312.184709 179.904735)scale(0.1 -0.1)">
       <use xlink:href="#DejaVuSans-51"/>
       <use x="63.623047" xlink:href="#DejaVuSans-48"/>
      </g>
     </g>
    </g>
    <g id="xtick_17">
     <g id="line2d_22">
      <g>
       <use style="stroke:#000000;stroke-width:0.8;" x="359.332956" xlink:href="#m533faa383a" y="165.306297"/>
      </g>
     </g>
     <g id="text_20">
      <!-- 35 -->
      <g transform="translate(352.970456 179.904735)scale(0.1 -0.1)">
       <use xlink:href="#DejaVuSans-51"/>
       <use x="63.623047" xlink:href="#DejaVuSans-53"/>
      </g>
     </g>
    </g>
    <g id="xtick_18">
     <g id="line2d_23">
      <g>
       <use style="stroke:#000000;stroke-width:0.8;" x="400.118703" xlink:href="#m533faa383a" y="165.306297"/>
      </g>
     </g>
     <g id="text_21">
      <!-- 40 -->
      <g transform="translate(393.756203 179.904735)scale(0.1 -0.1)">
       <use xlink:href="#DejaVuSans-52"/>
       <use x="63.623047" xlink:href="#DejaVuSans-48"/>
      </g>
     </g>
    </g>
   </g>
   <g id="matplotlib.axis_4">
    <g id="ytick_3">
     <g id="line2d_24">
      <g>
       <use style="stroke:#000000;stroke-width:0.8;" x="57.6" xlink:href="#mb25fc599e6" y="162.911136"/>
      </g>
     </g>
     <g id="text_22">
      <!-- −1 -->
      <g transform="translate(35.857813 166.710355)scale(0.1 -0.1)">
       <use xlink:href="#DejaVuSans-8722"/>
       <use x="83.789062" xlink:href="#DejaVuSans-49"/>
      </g>
     </g>
    </g>
    <g id="ytick_4">
     <g id="line2d_25">
      <g>
       <use style="stroke:#000000;stroke-width:0.8;" x="57.6" xlink:href="#mb25fc599e6" y="138.958618"/>
      </g>
     </g>
     <g id="text_23">
      <!-- 0 -->
      <g transform="translate(44.2375 142.757836)scale(0.1 -0.1)">
       <use xlink:href="#DejaVuSans-48"/>
      </g>
     </g>
    </g>
    <g id="ytick_5">
     <g id="line2d_26">
      <g>
       <use style="stroke:#000000;stroke-width:0.8;" x="57.6" xlink:href="#mb25fc599e6" y="115.006099"/>
      </g>
     </g>
     <g id="text_24">
      <!-- 1 -->
      <g transform="translate(44.2375 118.805318)scale(0.1 -0.1)">
       <use xlink:href="#DejaVuSans-49"/>
      </g>
     </g>
    </g>
   </g>
   <g id="line2d_27">
    <path clip-path="url(#p086da32711)" d="M 73.832727 115.026454 
L 75.464157 115.65083 
L 77.095587 117.151164 
L 78.727017 118.823478 
L 81.989877 122.649329 
L 86.884166 128.856643 
L 93.409886 137.187817 
L 95.041316 138.688231 
L 96.672746 139.688781 
L 98.304175 140.186679 
L 99.935605 140.140528 
L 101.567035 139.784259 
L 104.829895 138.677936 
L 106.461325 138.559917 
L 108.092755 138.829459 
L 109.724185 139.368861 
L 112.987044 140.665056 
L 117.881334 142.02982 
L 119.512764 142.602535 
L 121.144194 143.499129 
L 122.775624 145.024451 
L 124.407053 146.872968 
L 126.038483 148.429375 
L 127.669913 149.314749 
L 129.301343 149.887069 
L 135.827063 151.732647 
L 139.089922 153.0556 
L 140.721352 153.463953 
L 142.352782 153.612251 
L 143.984212 153.532445 
L 145.615642 153.599208 
L 147.247072 153.400253 
L 148.878502 152.917563 
L 150.509931 152.139708 
L 152.141361 151.040392 
L 153.772791 149.577369 
L 155.404221 147.70736 
L 158.667081 143.475658 
L 161.929941 138.625949 
L 163.56137 136.176602 
L 165.1928 133.965405 
L 166.82423 131.976242 
L 168.45566 130.20389 
L 170.08709 128.664341 
L 171.71852 127.580663 
L 173.34995 126.945821 
L 174.98138 126.741705 
L 176.61281 126.952746 
L 178.244239 127.519676 
L 179.875669 128.39966 
L 181.507099 129.674107 
L 183.138529 130.604141 
L 184.769959 130.868835 
L 186.401389 131.399326 
L 188.032819 132.548076 
L 189.664249 134.276737 
L 191.295678 136.671418 
L 192.927108 139.557995 
L 194.558538 142.105787 
L 196.189968 143.806353 
L 197.821398 144.735809 
L 199.452828 144.927211 
L 201.084258 144.42123 
L 202.715688 143.138891 
L 204.347117 141.999381 
L 205.978547 141.522022 
L 207.609977 140.885231 
L 210.872837 138.310024 
L 212.504267 138.079427 
L 215.767127 139.077926 
L 217.398556 138.526116 
L 219.029986 137.833517 
L 220.661416 137.725424 
L 223.924276 138.355049 
L 225.555706 137.701524 
L 227.187136 136.896312 
L 228.818566 136.769763 
L 232.081425 137.429791 
L 233.712855 136.654816 
L 235.344285 135.677356 
L 236.975715 135.316532 
L 240.238575 135.399715 
L 241.870005 134.465277 
L 243.501434 133.374954 
L 245.132864 133.013298 
L 246.764294 133.206744 
L 248.395724 133.792928 
L 250.027154 134.101916 
L 253.290014 132.68129 
L 254.921444 133.00174 
L 256.552873 133.935683 
L 258.184303 135.152375 
L 259.815733 135.8671 
L 261.447163 135.351353 
L 263.078593 134.577968 
L 264.710023 134.245542 
L 266.341453 134.506358 
L 267.972883 135.16934 
L 269.604312 135.518213 
L 271.235742 134.750127 
L 272.867172 133.655614 
L 274.498602 133.41171 
L 276.130032 133.53902 
L 277.761462 133.870317 
L 279.392892 134.70579 
L 281.024322 135.335342 
L 282.655751 134.95065 
L 284.287181 134.404145 
L 285.918611 134.383463 
L 287.550041 134.816039 
L 289.181471 135.985589 
L 290.812901 137.836489 
L 294.075761 141.927258 
L 298.97005 146.411123 
L 300.60148 149.440833 
L 302.23291 155.102944 
L 303.86434 162.899456 
L 321.810069 162.905924 
L 328.335788 162.906392 
L 329.967218 161.288049 
L 331.598648 154.464671 
L 333.230078 145.643037 
L 334.861508 138.962373 
L 339.755797 138.94198 
L 343.018657 115.061597 
L 347.912947 115.006643 
L 375.647254 115.01822 
L 377.278684 125.544561 
L 378.910114 138.401673 
L 380.541544 152.554382 
L 382.172974 162.908087 
L 396.855843 162.910494 
L 398.487273 115.006099 
L 398.487273 115.006099 
" style="fill:none;stroke:#1f77b4;stroke-linecap:square;stroke-width:1.5;"/>
   </g>
   <g id="patch_9">
    <path d="M 57.6 165.306297 
L 57.6 112.610851 
" style="fill:none;stroke:#000000;stroke-linecap:square;stroke-linejoin:miter;stroke-width:0.8;"/>
   </g>
   <g id="patch_10">
    <path d="M 414.72 165.306297 
L 414.72 112.610851 
" style="fill:none;stroke:#000000;stroke-linecap:square;stroke-linejoin:miter;stroke-width:0.8;"/>
   </g>
   <g id="patch_11">
    <path d="M 57.6 165.306297 
L 414.72 165.306297 
" style="fill:none;stroke:#000000;stroke-linecap:square;stroke-linejoin:miter;stroke-width:0.8;"/>
   </g>
   <g id="patch_12">
    <path d="M 57.6 112.610851 
L 414.72 112.610851 
" style="fill:none;stroke:#000000;stroke-linecap:square;stroke-linejoin:miter;stroke-width:0.8;"/>
   </g>
   <g id="legend_2">
    <g id="patch_13">
     <path d="M 64.6 160.306297 
L 110.25625 160.306297 
Q 112.25625 160.306297 112.25625 158.306297 
L 112.25625 144.628172 
Q 112.25625 142.628172 110.25625 142.628172 
L 64.6 142.628172 
Q 62.6 142.628172 62.6 144.628172 
L 62.6 158.306297 
Q 62.6 160.306297 64.6 160.306297 
z
" style="fill:#ffffff;opacity:0.8;stroke:#cccccc;stroke-linejoin:miter;"/>
    </g>
    <g id="line2d_28">
     <path d="M 66.6 150.72661 
L 86.6 150.72661 
" style="fill:none;stroke:#1f77b4;stroke-linecap:square;stroke-width:1.5;"/>
    </g>
    <g id="line2d_29"/>
    <g id="text_25">
     <!-- a-t -->
     <g transform="translate(94.6 154.22661)scale(0.1 -0.1)">
      <defs>
       <path d="M 34.28125 27.484375 
Q 23.390625 27.484375 19.1875 25 
Q 14.984375 22.515625 14.984375 16.5 
Q 14.984375 11.71875 18.140625 8.90625 
Q 21.296875 6.109375 26.703125 6.109375 
Q 34.1875 6.109375 38.703125 11.40625 
Q 43.21875 16.703125 43.21875 25.484375 
L 43.21875 27.484375 
z
M 52.203125 31.203125 
L 52.203125 0 
L 43.21875 0 
L 43.21875 8.296875 
Q 40.140625 3.328125 35.546875 0.953125 
Q 30.953125 -1.421875 24.3125 -1.421875 
Q 15.921875 -1.421875 10.953125 3.296875 
Q 6 8.015625 6 15.921875 
Q 6 25.140625 12.171875 29.828125 
Q 18.359375 34.515625 30.609375 34.515625 
L 43.21875 34.515625 
L 43.21875 35.40625 
Q 43.21875 41.609375 39.140625 45 
Q 35.0625 48.390625 27.6875 48.390625 
Q 23 48.390625 18.546875 47.265625 
Q 14.109375 46.140625 10.015625 43.890625 
L 10.015625 52.203125 
Q 14.9375 54.109375 19.578125 55.046875 
Q 24.21875 56 28.609375 56 
Q 40.484375 56 46.34375 49.84375 
Q 52.203125 43.703125 52.203125 31.203125 
z
" id="DejaVuSans-97"/>
      </defs>
      <use xlink:href="#DejaVuSans-97"/>
      <use x="61.279297" xlink:href="#DejaVuSans-45"/>
      <use x="97.363281" xlink:href="#DejaVuSans-116"/>
     </g>
    </g>
   </g>
  </g>
  <g id="axes_3">
   <g id="patch_14">
    <path d="M 57.6 236.445149 
L 414.72 236.445149 
L 414.72 183.749703 
L 57.6 183.749703 
z
" style="fill:#ffffff;"/>
   </g>
   <g id="matplotlib.axis_5">
    <g id="xtick_19">
     <g id="line2d_30">
      <g>
       <use style="stroke:#000000;stroke-width:0.8;" x="73.832727" xlink:href="#m533faa383a" y="236.445149"/>
      </g>
     </g>
     <g id="text_26">
      <!-- 0 -->
      <g transform="translate(70.651477 251.043586)scale(0.1 -0.1)">
       <use xlink:href="#DejaVuSans-48"/>
      </g>
     </g>
    </g>
    <g id="xtick_20">
     <g id="line2d_31">
      <g>
       <use style="stroke:#000000;stroke-width:0.8;" x="114.414545" xlink:href="#m533faa383a" y="236.445149"/>
      </g>
     </g>
     <g id="text_27">
      <!-- 5 -->
      <g transform="translate(111.233295 251.043586)scale(0.1 -0.1)">
       <use xlink:href="#DejaVuSans-53"/>
      </g>
     </g>
    </g>
    <g id="xtick_21">
     <g id="line2d_32">
      <g>
       <use style="stroke:#000000;stroke-width:0.8;" x="154.996364" xlink:href="#m533faa383a" y="236.445149"/>
      </g>
     </g>
     <g id="text_28">
      <!-- 10 -->
      <g transform="translate(148.633864 251.043586)scale(0.1 -0.1)">
       <use xlink:href="#DejaVuSans-49"/>
       <use x="63.623047" xlink:href="#DejaVuSans-48"/>
      </g>
     </g>
    </g>
    <g id="xtick_22">
     <g id="line2d_33">
      <g>
       <use style="stroke:#000000;stroke-width:0.8;" x="195.578182" xlink:href="#m533faa383a" y="236.445149"/>
      </g>
     </g>
     <g id="text_29">
      <!-- 15 -->
      <g transform="translate(189.215682 251.043586)scale(0.1 -0.1)">
       <use xlink:href="#DejaVuSans-49"/>
       <use x="63.623047" xlink:href="#DejaVuSans-53"/>
      </g>
     </g>
    </g>
    <g id="xtick_23">
     <g id="line2d_34">
      <g>
       <use style="stroke:#000000;stroke-width:0.8;" x="236.16" xlink:href="#m533faa383a" y="236.445149"/>
      </g>
     </g>
     <g id="text_30">
      <!-- 20 -->
      <g transform="translate(229.7975 251.043586)scale(0.1 -0.1)">
       <use xlink:href="#DejaVuSans-50"/>
       <use x="63.623047" xlink:href="#DejaVuSans-48"/>
      </g>
     </g>
    </g>
    <g id="xtick_24">
     <g id="line2d_35">
      <g>
       <use style="stroke:#000000;stroke-width:0.8;" x="276.741818" xlink:href="#m533faa383a" y="236.445149"/>
      </g>
     </g>
     <g id="text_31">
      <!-- 25 -->
      <g transform="translate(270.379318 251.043586)scale(0.1 -0.1)">
       <use xlink:href="#DejaVuSans-50"/>
       <use x="63.623047" xlink:href="#DejaVuSans-53"/>
      </g>
     </g>
    </g>
    <g id="xtick_25">
     <g id="line2d_36">
      <g>
       <use style="stroke:#000000;stroke-width:0.8;" x="317.323636" xlink:href="#m533faa383a" y="236.445149"/>
      </g>
     </g>
     <g id="text_32">
      <!-- 30 -->
      <g transform="translate(310.961136 251.043586)scale(0.1 -0.1)">
       <use xlink:href="#DejaVuSans-51"/>
       <use x="63.623047" xlink:href="#DejaVuSans-48"/>
      </g>
     </g>
    </g>
    <g id="xtick_26">
     <g id="line2d_37">
      <g>
       <use style="stroke:#000000;stroke-width:0.8;" x="357.905455" xlink:href="#m533faa383a" y="236.445149"/>
      </g>
     </g>
     <g id="text_33">
      <!-- 35 -->
      <g transform="translate(351.542955 251.043586)scale(0.1 -0.1)">
       <use xlink:href="#DejaVuSans-51"/>
       <use x="63.623047" xlink:href="#DejaVuSans-53"/>
      </g>
     </g>
    </g>
    <g id="xtick_27">
     <g id="line2d_38">
      <g>
       <use style="stroke:#000000;stroke-width:0.8;" x="398.487273" xlink:href="#m533faa383a" y="236.445149"/>
      </g>
     </g>
     <g id="text_34">
      <!-- 40 -->
      <g transform="translate(392.124773 251.043586)scale(0.1 -0.1)">
       <use xlink:href="#DejaVuSans-52"/>
       <use x="63.623047" xlink:href="#DejaVuSans-48"/>
      </g>
     </g>
    </g>
   </g>
   <g id="matplotlib.axis_6">
    <g id="ytick_6">
     <g id="line2d_39">
      <g>
       <use style="stroke:#000000;stroke-width:0.8;" x="57.6" xlink:href="#mb25fc599e6" y="230.422671"/>
      </g>
     </g>
     <g id="text_35">
      <!-- −0.5 -->
      <g transform="translate(26.317187 234.22189)scale(0.1 -0.1)">
       <use xlink:href="#DejaVuSans-8722"/>
       <use x="83.789062" xlink:href="#DejaVuSans-48"/>
       <use x="147.412109" xlink:href="#DejaVuSans-46"/>
       <use x="179.199219" xlink:href="#DejaVuSans-53"/>
      </g>
     </g>
    </g>
    <g id="ytick_7">
     <g id="line2d_40">
      <g>
       <use style="stroke:#000000;stroke-width:0.8;" x="57.6" xlink:href="#mb25fc599e6" y="209.298711"/>
      </g>
     </g>
     <g id="text_36">
      <!-- 0.0 -->
      <g transform="translate(34.696875 213.09793)scale(0.1 -0.1)">
       <use xlink:href="#DejaVuSans-48"/>
       <use x="63.623047" xlink:href="#DejaVuSans-46"/>
       <use x="95.410156" xlink:href="#DejaVuSans-48"/>
      </g>
     </g>
    </g>
    <g id="ytick_8">
     <g id="line2d_41">
      <g>
       <use style="stroke:#000000;stroke-width:0.8;" x="57.6" xlink:href="#mb25fc599e6" y="188.174751"/>
      </g>
     </g>
     <g id="text_37">
      <!-- 0.5 -->
      <g transform="translate(34.696875 191.97397)scale(0.1 -0.1)">
       <use xlink:href="#DejaVuSans-48"/>
       <use x="63.623047" xlink:href="#DejaVuSans-46"/>
       <use x="95.410156" xlink:href="#DejaVuSans-53"/>
      </g>
     </g>
    </g>
   </g>
   <g id="line2d_42">
    <path clip-path="url(#pa08c97c59b)" d="M 73.832727 205.073919 
L 80.325818 221.751128 
L 81.949091 225.196166 
L 83.572364 227.862163 
L 85.195636 229.657203 
L 86.818909 230.530309 
L 88.442182 230.481409 
L 90.065455 229.57001 
L 91.688727 227.905318 
L 93.312 225.636064 
L 96.558545 220.29084 
L 99.805091 214.662408 
L 107.921455 199.632462 
L 111.168 194.552813 
L 112.791273 192.368609 
L 114.414545 190.446994 
L 116.037818 188.914201 
L 117.661091 187.620312 
L 119.284364 186.647767 
L 120.907636 186.14495 
L 122.530909 186.263418 
L 124.154182 187.16297 
L 125.777455 188.882686 
L 127.400727 191.224788 
L 129.024 194.003903 
L 132.270545 200.239917 
L 135.517091 206.534113 
L 137.140364 209.440785 
L 138.763636 212.062396 
L 140.386909 214.307363 
L 142.010182 216.081746 
L 143.633455 217.285706 
L 145.256727 217.80708 
L 146.88 217.820501 
L 148.503273 217.42348 
L 150.126545 216.706639 
L 151.749818 215.756035 
L 158.242909 211.266813 
L 159.866182 210.3933 
L 161.489455 209.805334 
L 163.112727 209.395309 
L 164.736 209.258418 
L 171.229091 209.160465 
L 174.475636 208.454547 
L 176.098909 207.89136 
L 177.722182 207.08756 
L 179.345455 205.995374 
L 182.592 203.159976 
L 184.215273 201.71368 
L 185.838545 200.447371 
L 187.461818 199.359372 
L 189.085091 198.549487 
L 190.708364 198.099101 
L 192.331636 198.102398 
L 197.201455 198.942122 
L 198.824727 198.874516 
L 200.448 198.651164 
L 203.694545 196.674923 
L 205.317818 195.974365 
L 206.941091 195.644085 
L 208.564364 195.841776 
L 210.187636 196.805454 
L 211.810909 198.591737 
L 213.434182 198.780868 
L 215.057455 199.459446 
L 216.680727 198.56642 
L 218.304 198.5621 
L 219.927273 199.434885 
L 221.550545 198.72384 
L 223.173818 198.477077 
L 224.797091 198.847111 
L 226.420364 200.053347 
L 228.043636 202.157681 
L 229.666909 202.743539 
L 231.290182 203.899683 
L 232.913455 203.56922 
L 234.536727 204.218653 
L 236.16 205.840817 
L 237.783273 205.97579 
L 239.406545 206.668904 
L 241.029818 208.06872 
L 242.653091 210.387847 
L 244.276364 213.669774 
L 245.899636 215.461481 
L 247.522909 217.795216 
L 249.146182 220.617812 
L 250.769455 221.787996 
L 252.392727 223.677444 
L 254.016 226.125926 
L 255.639273 226.414414 
L 257.262545 226.35641 
L 258.885818 226.136613 
L 260.509091 224.412954 
L 262.132364 223.35755 
L 267.002182 221.133747 
L 268.625455 220.812883 
L 270.248727 219.383308 
L 271.872 218.712427 
L 273.495273 218.489925 
L 275.118545 217.916884 
L 276.741818 216.880573 
L 278.365091 216.419044 
L 279.988364 216.226025 
L 281.611636 215.346582 
L 291.351273 213.007803 
L 292.974545 212.800218 
L 294.597818 212.294218 
L 296.221091 212.927825 
L 304.337455 234.049901 
L 305.960727 231.010104 
L 317.323636 201.444455 
L 318.946909 204.818161 
L 325.44 221.716363 
L 327.063273 219.65197 
L 328.686545 215.427291 
L 330.309818 212.406581 
L 331.933091 210.877669 
L 333.556364 210.035455 
L 335.179636 209.636413 
L 338.426182 209.370368 
L 344.919273 209.302585 
L 359.528727 209.299264 
L 361.152 209.704984 
L 362.775273 209.298724 
L 393.617455 209.298775 
L 395.240727 211.540913 
L 396.864 213.523503 
L 398.487273 209.298711 
L 398.487273 209.298711 
" style="fill:none;stroke:#1f77b4;stroke-linecap:square;stroke-width:1.5;"/>
   </g>
   <g id="patch_15">
    <path d="M 57.6 236.445149 
L 57.6 183.749703 
" style="fill:none;stroke:#000000;stroke-linecap:square;stroke-linejoin:miter;stroke-width:0.8;"/>
   </g>
   <g id="patch_16">
    <path d="M 414.72 236.445149 
L 414.72 183.749703 
" style="fill:none;stroke:#000000;stroke-linecap:square;stroke-linejoin:miter;stroke-width:0.8;"/>
   </g>
   <g id="patch_17">
    <path d="M 57.6 236.445149 
L 414.72 236.445149 
" style="fill:none;stroke:#000000;stroke-linecap:square;stroke-linejoin:miter;stroke-width:0.8;"/>
   </g>
   <g id="patch_18">
    <path d="M 57.6 183.749703 
L 414.72 183.749703 
" style="fill:none;stroke:#000000;stroke-linecap:square;stroke-linejoin:miter;stroke-width:0.8;"/>
   </g>
   <g id="legend_3">
    <g id="patch_19">
     <path d="M 343.2825 206.427828 
L 407.72 206.427828 
Q 409.72 206.427828 409.72 204.427828 
L 409.72 190.749703 
Q 409.72 188.749703 407.72 188.749703 
L 343.2825 188.749703 
Q 341.2825 188.749703 341.2825 190.749703 
L 341.2825 204.427828 
Q 341.2825 206.427828 343.2825 206.427828 
z
" style="fill:#ffffff;opacity:0.8;stroke:#cccccc;stroke-linejoin:miter;"/>
    </g>
    <g id="line2d_43">
     <path d="M 345.2825 196.84814 
L 365.2825 196.84814 
" style="fill:none;stroke:#1f77b4;stroke-linecap:square;stroke-width:1.5;"/>
    </g>
    <g id="line2d_44"/>
    <g id="text_38">
     <!-- steer-t -->
     <g transform="translate(373.2825 200.34814)scale(0.1 -0.1)">
      <defs>
       <path d="M 44.28125 53.078125 
L 44.28125 44.578125 
Q 40.484375 46.53125 36.375 47.5 
Q 32.28125 48.484375 27.875 48.484375 
Q 21.1875 48.484375 17.84375 46.4375 
Q 14.5 44.390625 14.5 40.28125 
Q 14.5 37.15625 16.890625 35.375 
Q 19.28125 33.59375 26.515625 31.984375 
L 29.59375 31.296875 
Q 39.15625 29.25 43.1875 25.515625 
Q 47.21875 21.78125 47.21875 15.09375 
Q 47.21875 7.46875 41.1875 3.015625 
Q 35.15625 -1.421875 24.609375 -1.421875 
Q 20.21875 -1.421875 15.453125 -0.5625 
Q 10.6875 0.296875 5.421875 2 
L 5.421875 11.28125 
Q 10.40625 8.6875 15.234375 7.390625 
Q 20.0625 6.109375 24.8125 6.109375 
Q 31.15625 6.109375 34.5625 8.28125 
Q 37.984375 10.453125 37.984375 14.40625 
Q 37.984375 18.0625 35.515625 20.015625 
Q 33.0625 21.96875 24.703125 23.78125 
L 21.578125 24.515625 
Q 13.234375 26.265625 9.515625 29.90625 
Q 5.8125 33.546875 5.8125 39.890625 
Q 5.8125 47.609375 11.28125 51.796875 
Q 16.75 56 26.8125 56 
Q 31.78125 56 36.171875 55.265625 
Q 40.578125 54.546875 44.28125 53.078125 
z
" id="DejaVuSans-115"/>
       <path d="M 56.203125 29.59375 
L 56.203125 25.203125 
L 14.890625 25.203125 
Q 15.484375 15.921875 20.484375 11.0625 
Q 25.484375 6.203125 34.421875 6.203125 
Q 39.59375 6.203125 44.453125 7.46875 
Q 49.3125 8.734375 54.109375 11.28125 
L 54.109375 2.78125 
Q 49.265625 0.734375 44.1875 -0.34375 
Q 39.109375 -1.421875 33.890625 -1.421875 
Q 20.796875 -1.421875 13.15625 6.1875 
Q 5.515625 13.8125 5.515625 26.8125 
Q 5.515625 40.234375 12.765625 48.109375 
Q 20.015625 56 32.328125 56 
Q 43.359375 56 49.78125 48.890625 
Q 56.203125 41.796875 56.203125 29.59375 
z
M 47.21875 32.234375 
Q 47.125 39.59375 43.09375 43.984375 
Q 39.0625 48.390625 32.421875 48.390625 
Q 24.90625 48.390625 20.390625 44.140625 
Q 15.875 39.890625 15.1875 32.171875 
z
" id="DejaVuSans-101"/>
       <path d="M 41.109375 46.296875 
Q 39.59375 47.171875 37.8125 47.578125 
Q 36.03125 48 33.890625 48 
Q 26.265625 48 22.1875 43.046875 
Q 18.109375 38.09375 18.109375 28.8125 
L 18.109375 0 
L 9.078125 0 
L 9.078125 54.6875 
L 18.109375 54.6875 
L 18.109375 46.1875 
Q 20.953125 51.171875 25.484375 53.578125 
Q 30.03125 56 36.53125 56 
Q 37.453125 56 38.578125 55.875 
Q 39.703125 55.765625 41.0625 55.515625 
z
" id="DejaVuSans-114"/>
      </defs>
      <use xlink:href="#DejaVuSans-115"/>
      <use x="52.099609" xlink:href="#DejaVuSans-116"/>
      <use x="91.308594" xlink:href="#DejaVuSans-101"/>
      <use x="152.832031" xlink:href="#DejaVuSans-101"/>
      <use x="214.355469" xlink:href="#DejaVuSans-114"/>
      <use x="249.09375" xlink:href="#DejaVuSans-45"/>
      <use x="285.177734" xlink:href="#DejaVuSans-116"/>
     </g>
    </g>
   </g>
  </g>
  <g id="axes_4">
   <g id="patch_20">
    <path d="M 57.6 307.584 
L 414.72 307.584 
L 414.72 254.888554 
L 57.6 254.888554 
z
" style="fill:#ffffff;"/>
   </g>
   <g id="matplotlib.axis_7">
    <g id="xtick_28">
     <g id="line2d_45">
      <g>
       <use style="stroke:#000000;stroke-width:0.8;" x="73.832727" xlink:href="#m533faa383a" y="307.584"/>
      </g>
     </g>
     <g id="text_39">
      <!-- 0 -->
      <g transform="translate(70.651477 322.182437)scale(0.1 -0.1)">
       <use xlink:href="#DejaVuSans-48"/>
      </g>
     </g>
    </g>
    <g id="xtick_29">
     <g id="line2d_46">
      <g>
       <use style="stroke:#000000;stroke-width:0.8;" x="114.618474" xlink:href="#m533faa383a" y="307.584"/>
      </g>
     </g>
     <g id="text_40">
      <!-- 5 -->
      <g transform="translate(111.437224 322.182437)scale(0.1 -0.1)">
       <use xlink:href="#DejaVuSans-53"/>
      </g>
     </g>
    </g>
    <g id="xtick_30">
     <g id="line2d_47">
      <g>
       <use style="stroke:#000000;stroke-width:0.8;" x="155.404221" xlink:href="#m533faa383a" y="307.584"/>
      </g>
     </g>
     <g id="text_41">
      <!-- 10 -->
      <g transform="translate(149.041721 322.182437)scale(0.1 -0.1)">
       <use xlink:href="#DejaVuSans-49"/>
       <use x="63.623047" xlink:href="#DejaVuSans-48"/>
      </g>
     </g>
    </g>
    <g id="xtick_31">
     <g id="line2d_48">
      <g>
       <use style="stroke:#000000;stroke-width:0.8;" x="196.189968" xlink:href="#m533faa383a" y="307.584"/>
      </g>
     </g>
     <g id="text_42">
      <!-- 15 -->
      <g transform="translate(189.827468 322.182437)scale(0.1 -0.1)">
       <use xlink:href="#DejaVuSans-49"/>
       <use x="63.623047" xlink:href="#DejaVuSans-53"/>
      </g>
     </g>
    </g>
    <g id="xtick_32">
     <g id="line2d_49">
      <g>
       <use style="stroke:#000000;stroke-width:0.8;" x="236.975715" xlink:href="#m533faa383a" y="307.584"/>
      </g>
     </g>
     <g id="text_43">
      <!-- 20 -->
      <g transform="translate(230.613215 322.182437)scale(0.1 -0.1)">
       <use xlink:href="#DejaVuSans-50"/>
       <use x="63.623047" xlink:href="#DejaVuSans-48"/>
      </g>
     </g>
    </g>
    <g id="xtick_33">
     <g id="line2d_50">
      <g>
       <use style="stroke:#000000;stroke-width:0.8;" x="277.761462" xlink:href="#m533faa383a" y="307.584"/>
      </g>
     </g>
     <g id="text_44">
      <!-- 25 -->
      <g transform="translate(271.398962 322.182437)scale(0.1 -0.1)">
       <use xlink:href="#DejaVuSans-50"/>
       <use x="63.623047" xlink:href="#DejaVuSans-53"/>
      </g>
     </g>
    </g>
    <g id="xtick_34">
     <g id="line2d_51">
      <g>
       <use style="stroke:#000000;stroke-width:0.8;" x="318.547209" xlink:href="#m533faa383a" y="307.584"/>
      </g>
     </g>
     <g id="text_45">
      <!-- 30 -->
      <g transform="translate(312.184709 322.182437)scale(0.1 -0.1)">
       <use xlink:href="#DejaVuSans-51"/>
       <use x="63.623047" xlink:href="#DejaVuSans-48"/>
      </g>
     </g>
    </g>
    <g id="xtick_35">
     <g id="line2d_52">
      <g>
       <use style="stroke:#000000;stroke-width:0.8;" x="359.332956" xlink:href="#m533faa383a" y="307.584"/>
      </g>
     </g>
     <g id="text_46">
      <!-- 35 -->
      <g transform="translate(352.970456 322.182437)scale(0.1 -0.1)">
       <use xlink:href="#DejaVuSans-51"/>
       <use x="63.623047" xlink:href="#DejaVuSans-53"/>
      </g>
     </g>
    </g>
    <g id="xtick_36">
     <g id="line2d_53">
      <g>
       <use style="stroke:#000000;stroke-width:0.8;" x="400.118703" xlink:href="#m533faa383a" y="307.584"/>
      </g>
     </g>
     <g id="text_47">
      <!-- 40 -->
      <g transform="translate(393.756203 322.182437)scale(0.1 -0.1)">
       <use xlink:href="#DejaVuSans-52"/>
       <use x="63.623047" xlink:href="#DejaVuSans-48"/>
      </g>
     </g>
    </g>
   </g>
   <g id="matplotlib.axis_8">
    <g id="ytick_9">
     <g id="line2d_54">
      <g>
       <use style="stroke:#000000;stroke-width:0.8;" x="57.6" xlink:href="#mb25fc599e6" y="305.189663"/>
      </g>
     </g>
     <g id="text_48">
      <!-- −0.5 -->
      <g transform="translate(26.317187 308.988882)scale(0.1 -0.1)">
       <use xlink:href="#DejaVuSans-8722"/>
       <use x="83.789062" xlink:href="#DejaVuSans-48"/>
       <use x="147.412109" xlink:href="#DejaVuSans-46"/>
       <use x="179.199219" xlink:href="#DejaVuSans-53"/>
      </g>
     </g>
    </g>
    <g id="ytick_10">
     <g id="line2d_55">
      <g>
       <use style="stroke:#000000;stroke-width:0.8;" x="57.6" xlink:href="#mb25fc599e6" y="281.236732"/>
      </g>
     </g>
     <g id="text_49">
      <!-- 0.0 -->
      <g transform="translate(34.696875 285.035951)scale(0.1 -0.1)">
       <use xlink:href="#DejaVuSans-48"/>
       <use x="63.623047" xlink:href="#DejaVuSans-46"/>
       <use x="95.410156" xlink:href="#DejaVuSans-48"/>
      </g>
     </g>
    </g>
    <g id="ytick_11">
     <g id="line2d_56">
      <g>
       <use style="stroke:#000000;stroke-width:0.8;" x="57.6" xlink:href="#mb25fc599e6" y="257.283802"/>
      </g>
     </g>
     <g id="text_50">
      <!-- 0.5 -->
      <g transform="translate(34.696875 261.083021)scale(0.1 -0.1)">
       <use xlink:href="#DejaVuSans-48"/>
       <use x="63.623047" xlink:href="#DejaVuSans-46"/>
       <use x="95.410156" xlink:href="#DejaVuSans-53"/>
      </g>
     </g>
    </g>
   </g>
   <g id="line2d_57">
    <path clip-path="url(#pff308cd330)" d="M 73.832727 305.127971 
L 77.095587 305.124853 
L 78.727017 304.097248 
L 80.358447 300.768763 
L 81.989877 296.351897 
L 85.252736 286.186902 
L 88.515596 276.069458 
L 90.147026 271.798573 
L 91.778456 268.370945 
L 93.409886 266.385111 
L 95.041316 265.783007 
L 98.304175 265.1016 
L 99.935605 264.153884 
L 101.567035 263.513745 
L 103.198465 263.697335 
L 104.829895 264.32221 
L 108.092755 266.260749 
L 109.724185 267.41308 
L 112.987044 270.341918 
L 114.618474 272.546393 
L 116.249904 273.900885 
L 117.881334 275.722777 
L 119.512764 278.385958 
L 121.144194 281.908397 
L 124.407053 290.986853 
L 126.038483 294.515543 
L 127.669913 296.993235 
L 129.301343 298.540491 
L 130.932773 299.288753 
L 132.564203 299.350435 
L 134.195633 298.808676 
L 135.827063 297.716433 
L 137.458492 296.100252 
L 139.089922 293.964823 
L 140.721352 291.296794 
L 142.352782 288.062717 
L 143.984212 284.192722 
L 145.615642 281.312826 
L 147.247072 278.985778 
L 148.878502 277.172519 
L 150.509931 275.847179 
L 152.141361 274.993335 
L 153.772791 274.602128 
L 155.404221 274.674261 
L 157.035651 275.225055 
L 158.667081 276.284256 
L 160.298511 277.903196 
L 161.929941 278.912049 
L 163.56137 280.460613 
L 165.1928 281.106944 
L 166.82423 281.293855 
L 168.45566 281.34365 
L 170.08709 280.647125 
L 171.71852 279.440665 
L 173.34995 279.030518 
L 174.98138 278.043677 
L 176.61281 276.6795 
L 179.875669 273.555707 
L 181.507099 272.842155 
L 183.138529 273.036792 
L 186.401389 275.068201 
L 188.032819 276.644997 
L 189.664249 278.683218 
L 191.295678 281.25543 
L 192.927108 282.749985 
L 194.558538 283.176412 
L 196.189968 282.544706 
L 197.821398 280.853432 
L 199.452828 279.970414 
L 201.084258 275.328982 
L 202.715688 275.939967 
L 204.347117 277.264836 
L 205.978547 279.364173 
L 207.609977 282.357567 
L 209.241407 286.700413 
L 210.872837 291.364263 
L 212.504267 282.309031 
L 214.135697 285.084007 
L 215.767127 276.17362 
L 219.029986 286.185082 
L 220.661416 277.205385 
L 222.292846 279.837681 
L 223.924276 283.334679 
L 225.555706 288.075624 
L 227.187136 293.167487 
L 228.818566 284.558319 
L 230.449995 287.791623 
L 232.081425 279.363135 
L 235.344285 290.433775 
L 236.975715 282.001976 
L 238.607145 285.166422 
L 240.238575 289.173146 
L 243.501434 299.843983 
L 245.132864 291.395017 
L 246.764294 294.4681 
L 248.395724 297.239755 
L 250.027154 287.871225 
L 251.658584 291.949166 
L 253.290014 295.118678 
L 254.921444 282.872346 
L 256.552873 280.907874 
L 258.184303 279.990567 
L 259.815733 271.464254 
L 261.447163 275.253002 
L 263.078593 277.12988 
L 266.341453 276.96142 
L 267.972883 279.417559 
L 269.604312 273.131598 
L 271.235742 277.433096 
L 272.867172 279.975236 
L 274.498602 277.98781 
L 276.130032 275.361253 
L 277.761462 278.62004 
L 279.392892 280.14239 
L 281.024322 276.250631 
L 282.655751 279.069643 
L 284.287181 278.89552 
L 287.550041 279.032718 
L 290.812901 279.146554 
L 292.444331 280.059808 
L 294.075761 278.36791 
L 295.70719 284.829033 
L 297.33862 305.187918 
L 303.86434 305.183875 
L 305.49577 264.002265 
L 307.1272 257.285707 
L 316.915779 257.321269 
L 318.547209 300.36433 
L 320.178639 305.187828 
L 325.072928 305.188039 
L 326.704358 269.532427 
L 328.335788 257.284441 
L 329.967218 264.110477 
L 331.598648 272.568399 
L 333.230078 276.461706 
L 334.861508 278.974318 
L 336.492937 280.203235 
L 338.124367 280.761855 
L 339.755797 281.017943 
L 343.018657 281.19196 
L 352.807236 281.235828 
L 359.332956 281.238404 
L 360.964386 283.537004 
L 362.595815 278.933398 
L 364.227245 281.236737 
L 393.592983 281.237069 
L 395.224413 293.948786 
L 396.855843 292.477248 
L 398.487273 257.283802 
L 398.487273 257.283802 
" style="fill:none;stroke:#1f77b4;stroke-linecap:square;stroke-width:1.5;"/>
   </g>
   <g id="patch_21">
    <path d="M 57.6 307.584 
L 57.6 254.888554 
" style="fill:none;stroke:#000000;stroke-linecap:square;stroke-linejoin:miter;stroke-width:0.8;"/>
   </g>
   <g id="patch_22">
    <path d="M 414.72 307.584 
L 414.72 254.888554 
" style="fill:none;stroke:#000000;stroke-linecap:square;stroke-linejoin:miter;stroke-width:0.8;"/>
   </g>
   <g id="patch_23">
    <path d="M 57.6 307.584 
L 414.72 307.584 
" style="fill:none;stroke:#000000;stroke-linecap:square;stroke-linejoin:miter;stroke-width:0.8;"/>
   </g>
   <g id="patch_24">
    <path d="M 57.6 254.888554 
L 414.72 254.888554 
" style="fill:none;stroke:#000000;stroke-linecap:square;stroke-linejoin:miter;stroke-width:0.8;"/>
   </g>
   <g id="legend_4">
    <g id="patch_25">
     <path d="M 319.362188 302.584 
L 407.72 302.584 
Q 409.72 302.584 409.72 300.584 
L 409.72 286.905875 
Q 409.72 284.905875 407.72 284.905875 
L 319.362188 284.905875 
Q 317.362188 284.905875 317.362188 286.905875 
L 317.362188 300.584 
Q 317.362188 302.584 319.362188 302.584 
z
" style="fill:#ffffff;opacity:0.8;stroke:#cccccc;stroke-linejoin:miter;"/>
    </g>
    <g id="line2d_58">
     <path d="M 321.362188 293.004312 
L 341.362188 293.004312 
" style="fill:none;stroke:#1f77b4;stroke-linecap:square;stroke-width:1.5;"/>
    </g>
    <g id="line2d_59"/>
    <g id="text_51">
     <!-- steer-rate-t -->
     <g transform="translate(349.362188 296.504312)scale(0.1 -0.1)">
      <use xlink:href="#DejaVuSans-115"/>
      <use x="52.099609" xlink:href="#DejaVuSans-116"/>
      <use x="91.308594" xlink:href="#DejaVuSans-101"/>
      <use x="152.832031" xlink:href="#DejaVuSans-101"/>
      <use x="214.355469" xlink:href="#DejaVuSans-114"/>
      <use x="249.09375" xlink:href="#DejaVuSans-45"/>
      <use x="285.177734" xlink:href="#DejaVuSans-114"/>
      <use x="326.291016" xlink:href="#DejaVuSans-97"/>
      <use x="387.570312" xlink:href="#DejaVuSans-116"/>
      <use x="426.779297" xlink:href="#DejaVuSans-101"/>
      <use x="488.302734" xlink:href="#DejaVuSans-45"/>
      <use x="524.386719" xlink:href="#DejaVuSans-116"/>
     </g>
    </g>
   </g>
  </g>
 </g>
 <defs>
  <clipPath id="p28b5595998">
   <rect height="52.695446" width="357.12" x="57.6" y="41.472"/>
  </clipPath>
  <clipPath id="p086da32711">
   <rect height="52.695446" width="357.12" x="57.6" y="112.610851"/>
  </clipPath>
  <clipPath id="pa08c97c59b">
   <rect height="52.695446" width="357.12" x="57.6" y="183.749703"/>
  </clipPath>
  <clipPath id="pff308cd330">
   <rect height="52.695446" width="357.12" x="57.6" y="254.888554"/>
  </clipPath>
 </defs>
</svg>
