<?xml version="1.0" encoding="utf-8" standalone="no"?>
<!DOCTYPE svg PUBLIC "-//W3C//DTD SVG 1.1//EN"
  "http://www.w3.org/Graphics/SVG/1.1/DTD/svg11.dtd">
<!-- Created with matplotlib (https://matplotlib.org/) -->
<svg height="345.6pt" version="1.1" viewBox="0 0 460.8 345.6" width="460.8pt" xmlns="http://www.w3.org/2000/svg" xmlns:xlink="http://www.w3.org/1999/xlink">
 <metadata>
  <rdf:RDF xmlns:cc="http://creativecommons.org/ns#" xmlns:dc="http://purl.org/dc/elements/1.1/" xmlns:rdf="http://www.w3.org/1999/02/22-rdf-syntax-ns#">
   <cc:Work>
    <dc:type rdf:resource="http://purl.org/dc/dcmitype/StillImage"/>
    <dc:date>2022-12-08T01:24:23.766638</dc:date>
    <dc:format>image/svg+xml</dc:format>
    <dc:creator>
     <cc:Agent>
      <dc:title>Matplotlib v3.3.4, https://matplotlib.org/</dc:title>
     </cc:Agent>
    </dc:creator>
   </cc:Work>
  </rdf:RDF>
 </metadata>
 <defs>
  <style type="text/css">*{stroke-linecap:butt;stroke-linejoin:round;}</style>
 </defs>
 <g id="figure_1">
  <g id="patch_1">
   <path d="M 0 345.6 
L 460.8 345.6 
L 460.8 0 
L 0 0 
z
" style="fill:#ffffff;"/>
  </g>
  <g id="axes_1">
   <g id="patch_2">
    <path d="M 57.6 273.803725 
L 414.72 273.803725 
L 414.72 75.252275 
L 57.6 75.252275 
z
" style="fill:#ffffff;"/>
   </g>
   <g id="matplotlib.axis_1">
    <g id="xtick_1">
     <g id="line2d_1">
      <path clip-path="url(#pc9c3da30df)" d="M 91.676336 273.803725 
L 91.676336 75.252275 
" style="fill:none;stroke:#b0b0b0;stroke-linecap:square;stroke-width:0.2;"/>
     </g>
     <g id="line2d_2">
      <defs>
       <path d="M 0 0 
L 0 3.5 
" id="me5f045fc9e" style="stroke:#000000;stroke-width:0.8;"/>
      </defs>
      <g>
       <use style="stroke:#000000;stroke-width:0.8;" x="91.676336" xlink:href="#me5f045fc9e" y="273.803725"/>
      </g>
     </g>
     <g id="text_1">
      <!-- −10 -->
      <g transform="translate(81.123992 288.402163)scale(0.1 -0.1)">
       <defs>
        <path d="M 10.59375 35.5 
L 73.1875 35.5 
L 73.1875 27.203125 
L 10.59375 27.203125 
z
" id="DejaVuSans-8722"/>
        <path d="M 12.40625 8.296875 
L 28.515625 8.296875 
L 28.515625 63.921875 
L 10.984375 60.40625 
L 10.984375 69.390625 
L 28.421875 72.90625 
L 38.28125 72.90625 
L 38.28125 8.296875 
L 54.390625 8.296875 
L 54.390625 0 
L 12.40625 0 
z
" id="DejaVuSans-49"/>
        <path d="M 31.78125 66.40625 
Q 24.171875 66.40625 20.328125 58.90625 
Q 16.5 51.421875 16.5 36.375 
Q 16.5 21.390625 20.328125 13.890625 
Q 24.171875 6.390625 31.78125 6.390625 
Q 39.453125 6.390625 43.28125 13.890625 
Q 47.125 21.390625 47.125 36.375 
Q 47.125 51.421875 43.28125 58.90625 
Q 39.453125 66.40625 31.78125 66.40625 
z
M 31.78125 74.21875 
Q 44.046875 74.21875 50.515625 64.515625 
Q 56.984375 54.828125 56.984375 36.375 
Q 56.984375 17.96875 50.515625 8.265625 
Q 44.046875 -1.421875 31.78125 -1.421875 
Q 19.53125 -1.421875 13.0625 8.265625 
Q 6.59375 17.96875 6.59375 36.375 
Q 6.59375 54.828125 13.0625 64.515625 
Q 19.53125 74.21875 31.78125 74.21875 
z
" id="DejaVuSans-48"/>
       </defs>
       <use xlink:href="#DejaVuSans-8722"/>
       <use x="83.789062" xlink:href="#DejaVuSans-49"/>
       <use x="147.412109" xlink:href="#DejaVuSans-48"/>
      </g>
     </g>
    </g>
    <g id="xtick_2">
     <g id="line2d_3">
      <path clip-path="url(#pc9c3da30df)" d="M 137.338626 273.803725 
L 137.338626 75.252275 
" style="fill:none;stroke:#b0b0b0;stroke-linecap:square;stroke-width:0.2;"/>
     </g>
     <g id="line2d_4">
      <g>
       <use style="stroke:#000000;stroke-width:0.8;" x="137.338626" xlink:href="#me5f045fc9e" y="273.803725"/>
      </g>
     </g>
     <g id="text_2">
      <!-- −5 -->
      <g transform="translate(129.967532 288.402163)scale(0.1 -0.1)">
       <defs>
        <path d="M 10.796875 72.90625 
L 49.515625 72.90625 
L 49.515625 64.59375 
L 19.828125 64.59375 
L 19.828125 46.734375 
Q 21.96875 47.46875 24.109375 47.828125 
Q 26.265625 48.1875 28.421875 48.1875 
Q 40.625 48.1875 47.75 41.5 
Q 54.890625 34.8125 54.890625 23.390625 
Q 54.890625 11.625 47.5625 5.09375 
Q 40.234375 -1.421875 26.90625 -1.421875 
Q 22.3125 -1.421875 17.546875 -0.640625 
Q 12.796875 0.140625 7.71875 1.703125 
L 7.71875 11.625 
Q 12.109375 9.234375 16.796875 8.0625 
Q 21.484375 6.890625 26.703125 6.890625 
Q 35.15625 6.890625 40.078125 11.328125 
Q 45.015625 15.765625 45.015625 23.390625 
Q 45.015625 31 40.078125 35.4375 
Q 35.15625 39.890625 26.703125 39.890625 
Q 22.75 39.890625 18.8125 39.015625 
Q 14.890625 38.140625 10.796875 36.28125 
z
" id="DejaVuSans-53"/>
       </defs>
       <use xlink:href="#DejaVuSans-8722"/>
       <use x="83.789062" xlink:href="#DejaVuSans-53"/>
      </g>
     </g>
    </g>
    <g id="xtick_3">
     <g id="line2d_5">
      <path clip-path="url(#pc9c3da30df)" d="M 183.000916 273.803725 
L 183.000916 75.252275 
" style="fill:none;stroke:#b0b0b0;stroke-linecap:square;stroke-width:0.2;"/>
     </g>
     <g id="line2d_6">
      <g>
       <use style="stroke:#000000;stroke-width:0.8;" x="183.000916" xlink:href="#me5f045fc9e" y="273.803725"/>
      </g>
     </g>
     <g id="text_3">
      <!-- 0 -->
      <g transform="translate(179.819666 288.402163)scale(0.1 -0.1)">
       <use xlink:href="#DejaVuSans-48"/>
      </g>
     </g>
    </g>
    <g id="xtick_4">
     <g id="line2d_7">
      <path clip-path="url(#pc9c3da30df)" d="M 228.663206 273.803725 
L 228.663206 75.252275 
" style="fill:none;stroke:#b0b0b0;stroke-linecap:square;stroke-width:0.2;"/>
     </g>
     <g id="line2d_8">
      <g>
       <use style="stroke:#000000;stroke-width:0.8;" x="228.663206" xlink:href="#me5f045fc9e" y="273.803725"/>
      </g>
     </g>
     <g id="text_4">
      <!-- 5 -->
      <g transform="translate(225.481956 288.402163)scale(0.1 -0.1)">
       <use xlink:href="#DejaVuSans-53"/>
      </g>
     </g>
    </g>
    <g id="xtick_5">
     <g id="line2d_9">
      <path clip-path="url(#pc9c3da30df)" d="M 274.325496 273.803725 
L 274.325496 75.252275 
" style="fill:none;stroke:#b0b0b0;stroke-linecap:square;stroke-width:0.2;"/>
     </g>
     <g id="line2d_10">
      <g>
       <use style="stroke:#000000;stroke-width:0.8;" x="274.325496" xlink:href="#me5f045fc9e" y="273.803725"/>
      </g>
     </g>
     <g id="text_5">
      <!-- 10 -->
      <g transform="translate(267.962996 288.402163)scale(0.1 -0.1)">
       <use xlink:href="#DejaVuSans-49"/>
       <use x="63.623047" xlink:href="#DejaVuSans-48"/>
      </g>
     </g>
    </g>
    <g id="xtick_6">
     <g id="line2d_11">
      <path clip-path="url(#pc9c3da30df)" d="M 319.987786 273.803725 
L 319.987786 75.252275 
" style="fill:none;stroke:#b0b0b0;stroke-linecap:square;stroke-width:0.2;"/>
     </g>
     <g id="line2d_12">
      <g>
       <use style="stroke:#000000;stroke-width:0.8;" x="319.987786" xlink:href="#me5f045fc9e" y="273.803725"/>
      </g>
     </g>
     <g id="text_6">
      <!-- 15 -->
      <g transform="translate(313.625286 288.402163)scale(0.1 -0.1)">
       <use xlink:href="#DejaVuSans-49"/>
       <use x="63.623047" xlink:href="#DejaVuSans-53"/>
      </g>
     </g>
    </g>
    <g id="xtick_7">
     <g id="line2d_13">
      <path clip-path="url(#pc9c3da30df)" d="M 365.650076 273.803725 
L 365.650076 75.252275 
" style="fill:none;stroke:#b0b0b0;stroke-linecap:square;stroke-width:0.2;"/>
     </g>
     <g id="line2d_14">
      <g>
       <use style="stroke:#000000;stroke-width:0.8;" x="365.650076" xlink:href="#me5f045fc9e" y="273.803725"/>
      </g>
     </g>
     <g id="text_7">
      <!-- 20 -->
      <g transform="translate(359.287576 288.402163)scale(0.1 -0.1)">
       <defs>
        <path d="M 19.1875 8.296875 
L 53.609375 8.296875 
L 53.609375 0 
L 7.328125 0 
L 7.328125 8.296875 
Q 12.9375 14.109375 22.625 23.890625 
Q 32.328125 33.6875 34.8125 36.53125 
Q 39.546875 41.84375 41.421875 45.53125 
Q 43.3125 49.21875 43.3125 52.78125 
Q 43.3125 58.59375 39.234375 62.25 
Q 35.15625 65.921875 28.609375 65.921875 
Q 23.96875 65.921875 18.8125 64.3125 
Q 13.671875 62.703125 7.8125 59.421875 
L 7.8125 69.390625 
Q 13.765625 71.78125 18.9375 73 
Q 24.125 74.21875 28.421875 74.21875 
Q 39.75 74.21875 46.484375 68.546875 
Q 53.21875 62.890625 53.21875 53.421875 
Q 53.21875 48.921875 51.53125 44.890625 
Q 49.859375 40.875 45.40625 35.40625 
Q 44.1875 33.984375 37.640625 27.21875 
Q 31.109375 20.453125 19.1875 8.296875 
z
" id="DejaVuSans-50"/>
       </defs>
       <use xlink:href="#DejaVuSans-50"/>
       <use x="63.623047" xlink:href="#DejaVuSans-48"/>
      </g>
     </g>
    </g>
    <g id="xtick_8">
     <g id="line2d_15">
      <path clip-path="url(#pc9c3da30df)" d="M 411.312366 273.803725 
L 411.312366 75.252275 
" style="fill:none;stroke:#b0b0b0;stroke-linecap:square;stroke-width:0.2;"/>
     </g>
     <g id="line2d_16">
      <g>
       <use style="stroke:#000000;stroke-width:0.8;" x="411.312366" xlink:href="#me5f045fc9e" y="273.803725"/>
      </g>
     </g>
     <g id="text_8">
      <!-- 25 -->
      <g transform="translate(404.949866 288.402163)scale(0.1 -0.1)">
       <use xlink:href="#DejaVuSans-50"/>
       <use x="63.623047" xlink:href="#DejaVuSans-53"/>
      </g>
     </g>
    </g>
    <g id="text_9">
     <!-- X / m -->
     <g transform="translate(217.739062 305.119663)scale(0.14 -0.14)">
      <defs>
       <path d="M 6.296875 72.90625 
L 16.890625 72.90625 
L 35.015625 45.796875 
L 53.21875 72.90625 
L 63.8125 72.90625 
L 40.375 37.890625 
L 65.375 0 
L 54.78125 0 
L 34.28125 31 
L 13.625 0 
L 2.984375 0 
L 29 38.921875 
z
" id="DejaVuSans-88"/>
       <path id="DejaVuSans-32"/>
       <path d="M 25.390625 72.90625 
L 33.6875 72.90625 
L 8.296875 -9.28125 
L 0 -9.28125 
z
" id="DejaVuSans-47"/>
       <path d="M 52 44.1875 
Q 55.375 50.25 60.0625 53.125 
Q 64.75 56 71.09375 56 
Q 79.640625 56 84.28125 50.015625 
Q 88.921875 44.046875 88.921875 33.015625 
L 88.921875 0 
L 79.890625 0 
L 79.890625 32.71875 
Q 79.890625 40.578125 77.09375 44.375 
Q 74.3125 48.1875 68.609375 48.1875 
Q 61.625 48.1875 57.5625 43.546875 
Q 53.515625 38.921875 53.515625 30.90625 
L 53.515625 0 
L 44.484375 0 
L 44.484375 32.71875 
Q 44.484375 40.625 41.703125 44.40625 
Q 38.921875 48.1875 33.109375 48.1875 
Q 26.21875 48.1875 22.15625 43.53125 
Q 18.109375 38.875 18.109375 30.90625 
L 18.109375 0 
L 9.078125 0 
L 9.078125 54.6875 
L 18.109375 54.6875 
L 18.109375 46.1875 
Q 21.1875 51.21875 25.484375 53.609375 
Q 29.78125 56 35.6875 56 
Q 41.65625 56 45.828125 52.96875 
Q 50 49.953125 52 44.1875 
z
" id="DejaVuSans-109"/>
      </defs>
      <use xlink:href="#DejaVuSans-88"/>
      <use x="68.505859" xlink:href="#DejaVuSans-32"/>
      <use x="100.292969" xlink:href="#DejaVuSans-47"/>
      <use x="133.984375" xlink:href="#DejaVuSans-32"/>
      <use x="165.771484" xlink:href="#DejaVuSans-109"/>
     </g>
    </g>
   </g>
   <g id="matplotlib.axis_2">
    <g id="ytick_1">
     <g id="line2d_17">
      <path clip-path="url(#pc9c3da30df)" d="M 57.6 262.78571 
L 414.72 262.78571 
" style="fill:none;stroke:#b0b0b0;stroke-linecap:square;stroke-width:0.2;"/>
     </g>
     <g id="line2d_18">
      <defs>
       <path d="M 0 0 
L -3.5 0 
" id="ma5067b18a0" style="stroke:#000000;stroke-width:0.8;"/>
      </defs>
      <g>
       <use style="stroke:#000000;stroke-width:0.8;" x="57.6" xlink:href="#ma5067b18a0" y="262.78571"/>
      </g>
     </g>
     <g id="text_10">
      <!-- −12.5 -->
      <g transform="translate(19.954687 266.584929)scale(0.1 -0.1)">
       <defs>
        <path d="M 10.6875 12.40625 
L 21 12.40625 
L 21 0 
L 10.6875 0 
z
" id="DejaVuSans-46"/>
       </defs>
       <use xlink:href="#DejaVuSans-8722"/>
       <use x="83.789062" xlink:href="#DejaVuSans-49"/>
       <use x="147.412109" xlink:href="#DejaVuSans-50"/>
       <use x="211.035156" xlink:href="#DejaVuSans-46"/>
       <use x="242.822266" xlink:href="#DejaVuSans-53"/>
      </g>
     </g>
    </g>
    <g id="ytick_2">
     <g id="line2d_19">
      <path clip-path="url(#pc9c3da30df)" d="M 57.6 239.954565 
L 414.72 239.954565 
" style="fill:none;stroke:#b0b0b0;stroke-linecap:square;stroke-width:0.2;"/>
     </g>
     <g id="line2d_20">
      <g>
       <use style="stroke:#000000;stroke-width:0.8;" x="57.6" xlink:href="#ma5067b18a0" y="239.954565"/>
      </g>
     </g>
     <g id="text_11">
      <!-- −10.0 -->
      <g transform="translate(19.954687 243.753784)scale(0.1 -0.1)">
       <use xlink:href="#DejaVuSans-8722"/>
       <use x="83.789062" xlink:href="#DejaVuSans-49"/>
       <use x="147.412109" xlink:href="#DejaVuSans-48"/>
       <use x="211.035156" xlink:href="#DejaVuSans-46"/>
       <use x="242.822266" xlink:href="#DejaVuSans-48"/>
      </g>
     </g>
    </g>
    <g id="ytick_3">
     <g id="line2d_21">
      <path clip-path="url(#pc9c3da30df)" d="M 57.6 217.12342 
L 414.72 217.12342 
" style="fill:none;stroke:#b0b0b0;stroke-linecap:square;stroke-width:0.2;"/>
     </g>
     <g id="line2d_22">
      <g>
       <use style="stroke:#000000;stroke-width:0.8;" x="57.6" xlink:href="#ma5067b18a0" y="217.12342"/>
      </g>
     </g>
     <g id="text_12">
      <!-- −7.5 -->
      <g transform="translate(26.317187 220.922639)scale(0.1 -0.1)">
       <defs>
        <path d="M 8.203125 72.90625 
L 55.078125 72.90625 
L 55.078125 68.703125 
L 28.609375 0 
L 18.3125 0 
L 43.21875 64.59375 
L 8.203125 64.59375 
z
" id="DejaVuSans-55"/>
       </defs>
       <use xlink:href="#DejaVuSans-8722"/>
       <use x="83.789062" xlink:href="#DejaVuSans-55"/>
       <use x="147.412109" xlink:href="#DejaVuSans-46"/>
       <use x="179.199219" xlink:href="#DejaVuSans-53"/>
      </g>
     </g>
    </g>
    <g id="ytick_4">
     <g id="line2d_23">
      <path clip-path="url(#pc9c3da30df)" d="M 57.6 194.292275 
L 414.72 194.292275 
" style="fill:none;stroke:#b0b0b0;stroke-linecap:square;stroke-width:0.2;"/>
     </g>
     <g id="line2d_24">
      <g>
       <use style="stroke:#000000;stroke-width:0.8;" x="57.6" xlink:href="#ma5067b18a0" y="194.292275"/>
      </g>
     </g>
     <g id="text_13">
      <!-- −5.0 -->
      <g transform="translate(26.317187 198.091494)scale(0.1 -0.1)">
       <use xlink:href="#DejaVuSans-8722"/>
       <use x="83.789062" xlink:href="#DejaVuSans-53"/>
       <use x="147.412109" xlink:href="#DejaVuSans-46"/>
       <use x="179.199219" xlink:href="#DejaVuSans-48"/>
      </g>
     </g>
    </g>
    <g id="ytick_5">
     <g id="line2d_25">
      <path clip-path="url(#pc9c3da30df)" d="M 57.6 171.46113 
L 414.72 171.46113 
" style="fill:none;stroke:#b0b0b0;stroke-linecap:square;stroke-width:0.2;"/>
     </g>
     <g id="line2d_26">
      <g>
       <use style="stroke:#000000;stroke-width:0.8;" x="57.6" xlink:href="#ma5067b18a0" y="171.46113"/>
      </g>
     </g>
     <g id="text_14">
      <!-- −2.5 -->
      <g transform="translate(26.317187 175.260349)scale(0.1 -0.1)">
       <use xlink:href="#DejaVuSans-8722"/>
       <use x="83.789062" xlink:href="#DejaVuSans-50"/>
       <use x="147.412109" xlink:href="#DejaVuSans-46"/>
       <use x="179.199219" xlink:href="#DejaVuSans-53"/>
      </g>
     </g>
    </g>
    <g id="ytick_6">
     <g id="line2d_27">
      <path clip-path="url(#pc9c3da30df)" d="M 57.6 148.629985 
L 414.72 148.629985 
" style="fill:none;stroke:#b0b0b0;stroke-linecap:square;stroke-width:0.2;"/>
     </g>
     <g id="line2d_28">
      <g>
       <use style="stroke:#000000;stroke-width:0.8;" x="57.6" xlink:href="#ma5067b18a0" y="148.629985"/>
      </g>
     </g>
     <g id="text_15">
      <!-- 0.0 -->
      <g transform="translate(34.696875 152.429203)scale(0.1 -0.1)">
       <use xlink:href="#DejaVuSans-48"/>
       <use x="63.623047" xlink:href="#DejaVuSans-46"/>
       <use x="95.410156" xlink:href="#DejaVuSans-48"/>
      </g>
     </g>
    </g>
    <g id="ytick_7">
     <g id="line2d_29">
      <path clip-path="url(#pc9c3da30df)" d="M 57.6 125.79884 
L 414.72 125.79884 
" style="fill:none;stroke:#b0b0b0;stroke-linecap:square;stroke-width:0.2;"/>
     </g>
     <g id="line2d_30">
      <g>
       <use style="stroke:#000000;stroke-width:0.8;" x="57.6" xlink:href="#ma5067b18a0" y="125.79884"/>
      </g>
     </g>
     <g id="text_16">
      <!-- 2.5 -->
      <g transform="translate(34.696875 129.598058)scale(0.1 -0.1)">
       <use xlink:href="#DejaVuSans-50"/>
       <use x="63.623047" xlink:href="#DejaVuSans-46"/>
       <use x="95.410156" xlink:href="#DejaVuSans-53"/>
      </g>
     </g>
    </g>
    <g id="ytick_8">
     <g id="line2d_31">
      <path clip-path="url(#pc9c3da30df)" d="M 57.6 102.967695 
L 414.72 102.967695 
" style="fill:none;stroke:#b0b0b0;stroke-linecap:square;stroke-width:0.2;"/>
     </g>
     <g id="line2d_32">
      <g>
       <use style="stroke:#000000;stroke-width:0.8;" x="57.6" xlink:href="#ma5067b18a0" y="102.967695"/>
      </g>
     </g>
     <g id="text_17">
      <!-- 5.0 -->
      <g transform="translate(34.696875 106.766913)scale(0.1 -0.1)">
       <use xlink:href="#DejaVuSans-53"/>
       <use x="63.623047" xlink:href="#DejaVuSans-46"/>
       <use x="95.410156" xlink:href="#DejaVuSans-48"/>
      </g>
     </g>
    </g>
    <g id="ytick_9">
     <g id="line2d_33">
      <path clip-path="url(#pc9c3da30df)" d="M 57.6 80.13655 
L 414.72 80.13655 
" style="fill:none;stroke:#b0b0b0;stroke-linecap:square;stroke-width:0.2;"/>
     </g>
     <g id="line2d_34">
      <g>
       <use style="stroke:#000000;stroke-width:0.8;" x="57.6" xlink:href="#ma5067b18a0" y="80.13655"/>
      </g>
     </g>
     <g id="text_18">
      <!-- 7.5 -->
      <g transform="translate(34.696875 83.935768)scale(0.1 -0.1)">
       <use xlink:href="#DejaVuSans-55"/>
       <use x="63.623047" xlink:href="#DejaVuSans-46"/>
       <use x="95.410156" xlink:href="#DejaVuSans-53"/>
      </g>
     </g>
    </g>
    <g id="text_19">
     <!-- Y / m -->
     <g transform="translate(13.043125 192.429406)rotate(-90)scale(0.14 -0.14)">
      <defs>
       <path d="M -0.203125 72.90625 
L 10.40625 72.90625 
L 30.609375 42.921875 
L 50.6875 72.90625 
L 61.28125 72.90625 
L 35.5 34.71875 
L 35.5 0 
L 25.59375 0 
L 25.59375 34.71875 
z
" id="DejaVuSans-89"/>
      </defs>
      <use xlink:href="#DejaVuSans-89"/>
      <use x="61.083984" xlink:href="#DejaVuSans-32"/>
      <use x="92.871094" xlink:href="#DejaVuSans-47"/>
      <use x="126.5625" xlink:href="#DejaVuSans-32"/>
      <use x="158.349609" xlink:href="#DejaVuSans-109"/>
     </g>
    </g>
   </g>
   <g id="patch_3">
    <path clip-path="url(#pc9c3da30df)" d="M 29.979082 124.898586 
L 166.403376 137.300795 
L 119.475034 176.407746 
L -16.94926 164.005538 
z
" style="opacity:0.5;"/>
   </g>
   <g id="patch_4">
    <path clip-path="url(#pc9c3da30df)" d="M 198.235711 140.194643 
L 334.660004 152.596852 
L 287.731662 191.703804 
L 151.307369 179.301595 
z
" style="opacity:0.5;"/>
   </g>
   <g id="line2d_35">
    <path clip-path="url(#pc9c3da30df)" d="M 320.148646 194.314357 
L 357.819522 173.951721 
L 349.386116 158.349921 
L 311.71524 178.712557 
L 320.148646 194.314357 
" style="fill:none;stroke:#008000;stroke-dasharray:1.48,0.64;stroke-dashoffset:0;stroke-width:0.4;"/>
   </g>
   <g id="line2d_36">
    <path clip-path="url(#pc9c3da30df)" d="M 148.08386 178.820506 
L 180.980705 151.406468 
L 169.626885 137.781884 
L 136.73004 165.195922 
L 148.08386 178.820506 
" style="fill:none;stroke:#ff0000;stroke-dasharray:1.48,0.64;stroke-dashoffset:0;stroke-width:0.4;"/>
   </g>
   <g id="line2d_37">
    <path clip-path="url(#pc9c3da30df)" d="M 320.148646 194.314357 
L 357.819522 173.951721 
L 349.386116 158.349921 
L 311.71524 178.712557 
L 320.148646 194.314357 
" style="fill:none;stroke:#0000ff;stroke-dasharray:0.555,0.24;stroke-dashoffset:0;stroke-width:0.15;"/>
   </g>
   <g id="line2d_38">
    <path clip-path="url(#pc9c3da30df)" d="M 319.36814 194.689283 
L 357.137492 174.509888 
L 348.779978 158.867303 
L 311.010626 179.046698 
L 319.36814 194.689283 
" style="fill:none;stroke:#0000ff;stroke-dasharray:0.555,0.24;stroke-dashoffset:0;stroke-width:0.15;"/>
   </g>
   <g id="line2d_39">
    <path clip-path="url(#pc9c3da30df)" d="M 317.766842 195.420543 
L 355.792069 175.727549 
L 347.636003 159.978991 
L 309.610776 179.671985 
L 317.766842 195.420543 
" style="fill:none;stroke:#0000ff;stroke-dasharray:0.555,0.24;stroke-dashoffset:0;stroke-width:0.15;"/>
   </g>
   <g id="line2d_40">
    <path clip-path="url(#pc9c3da30df)" d="M 315.523851 196.538683 
L 353.638112 177.018565 
L 345.553644 161.233132 
L 307.439383 180.75325 
L 315.523851 196.538683 
" style="fill:none;stroke:#0000ff;stroke-dasharray:0.555,0.24;stroke-dashoffset:0;stroke-width:0.15;"/>
   </g>
   <g id="line2d_41">
    <path clip-path="url(#pc9c3da30df)" d="M 312.75412 198.082919 
L 350.605751 178.058287 
L 342.312334 162.381625 
L 304.460702 182.406257 
L 312.75412 198.082919 
" style="fill:none;stroke:#0000ff;stroke-dasharray:0.555,0.24;stroke-dashoffset:0;stroke-width:0.15;"/>
   </g>
   <g id="line2d_42">
    <path clip-path="url(#pc9c3da30df)" d="M 309.411771 200.083263 
L 346.761437 179.137278 
L 338.086431 163.66851 
L 300.736765 184.614495 
L 309.411771 200.083263 
" style="fill:none;stroke:#0000ff;stroke-dasharray:0.555,0.24;stroke-dashoffset:0;stroke-width:0.15;"/>
   </g>
   <g id="line2d_43">
    <path clip-path="url(#pc9c3da30df)" d="M 305.113433 202.496233 
L 342.457869 181.540923 
L 333.779001 166.074322 
L 296.434565 187.029632 
L 305.113433 202.496233 
" style="fill:none;stroke:#0000ff;stroke-dasharray:0.555,0.24;stroke-dashoffset:0;stroke-width:0.15;"/>
   </g>
   <g id="line2d_44">
    <path clip-path="url(#pc9c3da30df)" d="M 299.697145 205.20187 
L 337.726585 185.517015 
L 329.57389 169.766711 
L 291.544449 189.451567 
L 299.697145 205.20187 
" style="fill:none;stroke:#0000ff;stroke-dasharray:0.555,0.24;stroke-dashoffset:0;stroke-width:0.15;"/>
   </g>
   <g id="line2d_45">
    <path clip-path="url(#pc9c3da30df)" d="M 292.937153 207.914076 
L 332.404446 191.298883 
L 325.523084 174.953077 
L 286.055791 191.568271 
L 292.937153 207.914076 
" style="fill:none;stroke:#0000ff;stroke-dasharray:0.555,0.24;stroke-dashoffset:0;stroke-width:0.15;"/>
   </g>
   <g id="line2d_46">
    <path clip-path="url(#pc9c3da30df)" d="M 285.18634 209.913328 
L 326.462691 198.511807 
L 321.740628 181.41676 
L 280.464277 192.818281 
L 285.18634 209.913328 
" style="fill:none;stroke:#0000ff;stroke-dasharray:0.555,0.24;stroke-dashoffset:0;stroke-width:0.15;"/>
   </g>
   <g id="line2d_47">
    <path clip-path="url(#pc9c3da30df)" d="M 276.717272 210.499986 
L 319.378296 206.789335 
L 317.84149 189.120811 
L 275.180466 192.831462 
L 276.717272 210.499986 
" style="fill:none;stroke:#0000ff;stroke-dasharray:0.555,0.24;stroke-dashoffset:0;stroke-width:0.15;"/>
   </g>
   <g id="line2d_48">
    <path clip-path="url(#pc9c3da30df)" d="M 268.72648 210.025511 
L 311.510378 211.833815 
L 312.259306 194.114401 
L 269.475409 192.306098 
L 268.72648 210.025511 
" style="fill:none;stroke:#0000ff;stroke-dasharray:0.555,0.24;stroke-dashoffset:0;stroke-width:0.15;"/>
   </g>
   <g id="line2d_49">
    <path clip-path="url(#pc9c3da30df)" d="M 261.212671 208.977855 
L 303.701963 214.306259 
L 305.908779 196.708859 
L 263.419487 191.380455 
L 261.212671 208.977855 
" style="fill:none;stroke:#0000ff;stroke-dasharray:0.555,0.24;stroke-dashoffset:0;stroke-width:0.15;"/>
   </g>
   <g id="line2d_50">
    <path clip-path="url(#pc9c3da30df)" d="M 254.11335 207.737045 
L 296.354444 214.767117 
L 299.266024 197.272512 
L 257.024931 190.24244 
L 254.11335 207.737045 
" style="fill:none;stroke:#0000ff;stroke-dasharray:0.555,0.24;stroke-dashoffset:0;stroke-width:0.15;"/>
   </g>
   <g id="line2d_51">
    <path clip-path="url(#pc9c3da30df)" d="M 247.359249 206.615681 
L 289.60255 213.632477 
L 292.508632 196.136958 
L 250.265331 189.120162 
L 247.359249 206.615681 
" style="fill:none;stroke:#0000ff;stroke-dasharray:0.555,0.24;stroke-dashoffset:0;stroke-width:0.15;"/>
   </g>
   <g id="line2d_52">
    <path clip-path="url(#pc9c3da30df)" d="M 240.894645 205.868049 
L 283.377895 211.244414 
L 285.604575 193.649517 
L 243.121324 188.273152 
L 240.894645 205.868049 
" style="fill:none;stroke:#0000ff;stroke-dasharray:0.555,0.24;stroke-dashoffset:0;stroke-width:0.15;"/>
   </g>
   <g id="line2d_53">
    <path clip-path="url(#pc9c3da30df)" d="M 234.142444 205.060739 
L 276.654802 210.201872 
L 278.784058 192.59492 
L 236.2717 187.453786 
L 234.142444 205.060739 
" style="fill:none;stroke:#0000ff;stroke-dasharray:0.555,0.24;stroke-dashoffset:0;stroke-width:0.15;"/>
   </g>
   <g id="line2d_54">
    <path clip-path="url(#pc9c3da30df)" d="M 227.394625 204.301343 
L 269.940234 209.159638 
L 271.952349 191.538914 
L 229.40674 186.680619 
L 227.394625 204.301343 
" style="fill:none;stroke:#0000ff;stroke-dasharray:0.555,0.24;stroke-dashoffset:0;stroke-width:0.15;"/>
   </g>
   <g id="line2d_55">
    <path clip-path="url(#pc9c3da30df)" d="M 220.654477 203.601727 
L 263.238665 208.109362 
L 265.105551 190.47266 
L 222.521362 185.965026 
L 220.654477 203.601727 
" style="fill:none;stroke:#0000ff;stroke-dasharray:0.555,0.24;stroke-dashoffset:0;stroke-width:0.15;"/>
   </g>
   <g id="line2d_56">
    <path clip-path="url(#pc9c3da30df)" d="M 213.910217 202.959317 
L 256.530834 207.108402 
L 258.249222 189.456614 
L 215.628606 185.307528 
L 213.910217 202.959317 
" style="fill:none;stroke:#0000ff;stroke-dasharray:0.555,0.24;stroke-dashoffset:0;stroke-width:0.15;"/>
   </g>
   <g id="line2d_57">
    <path clip-path="url(#pc9c3da30df)" d="M 207.125485 202.333165 
L 249.762502 206.310172 
L 251.409623 188.65159 
L 208.772605 184.674583 
L 207.125485 202.333165 
" style="fill:none;stroke:#0000ff;stroke-dasharray:0.555,0.24;stroke-dashoffset:0;stroke-width:0.15;"/>
   </g>
   <g id="line2d_58">
    <path clip-path="url(#pc9c3da30df)" d="M 200.313872 201.706409 
L 242.954886 205.64034 
L 244.584166 187.980104 
L 201.943153 184.046173 
L 200.313872 201.706409 
" style="fill:none;stroke:#0000ff;stroke-dasharray:0.555,0.24;stroke-dashoffset:0;stroke-width:0.15;"/>
   </g>
   <g id="line2d_59">
    <path clip-path="url(#pc9c3da30df)" d="M 193.526948 201.115513 
L 236.183905 204.872633 
L 237.739956 187.205794 
L 195.083 183.448674 
L 193.526948 201.115513 
" style="fill:none;stroke:#0000ff;stroke-dasharray:0.555,0.24;stroke-dashoffset:0;stroke-width:0.15;"/>
   </g>
   <g id="line2d_60">
    <path clip-path="url(#pc9c3da30df)" d="M 186.711326 200.522896 
L 229.371658 204.241499 
L 230.911757 186.573262 
L 188.251425 182.854659 
L 186.711326 200.522896 
" style="fill:none;stroke:#0000ff;stroke-dasharray:0.555,0.24;stroke-dashoffset:0;stroke-width:0.15;"/>
   </g>
   <g id="line2d_61">
    <path clip-path="url(#pc9c3da30df)" d="M 179.893565 199.934607 
L 222.556506 203.623147 
L 224.084155 185.953829 
L 181.421214 182.265289 
L 179.893565 199.934607 
" style="fill:none;stroke:#0000ff;stroke-dasharray:0.555,0.24;stroke-dashoffset:0;stroke-width:0.15;"/>
   </g>
   <g id="line2d_62">
    <path clip-path="url(#pc9c3da30df)" d="M 173.077299 199.353288 
L 215.743688 203.001728 
L 217.254729 185.330982 
L 174.588339 181.682542 
L 173.077299 199.353288 
" style="fill:none;stroke:#0000ff;stroke-dasharray:0.555,0.24;stroke-dashoffset:0;stroke-width:0.15;"/>
   </g>
   <g id="line2d_63">
    <path clip-path="url(#pc9c3da30df)" d="M 166.329444 198.786477 
L 209.000178 202.383753 
L 210.490028 184.711208 
L 167.819295 181.113932 
L 166.329444 198.786477 
" style="fill:none;stroke:#0000ff;stroke-dasharray:0.555,0.24;stroke-dashoffset:0;stroke-width:0.15;"/>
   </g>
   <g id="line2d_64">
    <path clip-path="url(#pc9c3da30df)" d="M 160.398719 198.295434 
L 203.073206 201.847901 
L 204.544499 184.173801 
L 161.870012 180.621334 
L 160.398719 198.295434 
" style="fill:none;stroke:#0000ff;stroke-dasharray:0.555,0.24;stroke-dashoffset:0;stroke-width:0.15;"/>
   </g>
   <g id="line2d_65">
    <path clip-path="url(#pc9c3da30df)" d="M 154.187236 197.48248 
L 196.715543 202.489976 
L 198.789451 184.876418 
L 156.261145 179.868923 
L 154.187236 197.48248 
" style="fill:none;stroke:#0000ff;stroke-dasharray:0.555,0.24;stroke-dashoffset:0;stroke-width:0.15;"/>
   </g>
   <g id="line2d_66">
    <path clip-path="url(#pc9c3da30df)" d="M 148.624755 196.288669 
L 190.767463 203.886302 
L 193.914105 186.432445 
L 151.771397 178.834811 
L 148.624755 196.288669 
" style="fill:none;stroke:#0000ff;stroke-dasharray:0.555,0.24;stroke-dashoffset:0;stroke-width:0.15;"/>
   </g>
   <g id="line2d_67">
    <path clip-path="url(#pc9c3da30df)" d="M 143.828206 194.700647 
L 185.222461 205.666394 
L 189.764043 188.522516 
L 148.369789 177.55677 
L 143.828206 194.700647 
" style="fill:none;stroke:#0000ff;stroke-dasharray:0.555,0.24;stroke-dashoffset:0;stroke-width:0.15;"/>
   </g>
   <g id="line2d_68">
    <path clip-path="url(#pc9c3da30df)" d="M 139.904043 192.810453 
L 180.10731 207.555934 
L 186.21431 190.905317 
L 146.011043 176.159836 
L 139.904043 192.810453 
" style="fill:none;stroke:#0000ff;stroke-dasharray:0.555,0.24;stroke-dashoffset:0;stroke-width:0.15;"/>
   </g>
   <g id="line2d_69">
    <path clip-path="url(#pc9c3da30df)" d="M 136.926183 190.803914 
L 175.522223 209.353244 
L 183.204628 193.368277 
L 144.608588 174.818948 
L 136.926183 190.803914 
" style="fill:none;stroke:#0000ff;stroke-dasharray:0.555,0.24;stroke-dashoffset:0;stroke-width:0.15;"/>
   </g>
   <g id="line2d_70">
    <path clip-path="url(#pc9c3da30df)" d="M 134.993994 189.218988 
L 172.253085 210.325669 
L 180.994645 194.894414 
L 143.735554 173.787733 
L 134.993994 189.218988 
" style="fill:none;stroke:#0000ff;stroke-dasharray:0.555,0.24;stroke-dashoffset:0;stroke-width:0.15;"/>
   </g>
   <g id="line2d_71">
    <path clip-path="url(#pc9c3da30df)" d="M 133.975312 188.269617 
L 170.417847 210.756802 
L 179.731158 195.663732 
L 143.288623 173.176547 
L 133.975312 188.269617 
" style="fill:none;stroke:#0000ff;stroke-dasharray:0.555,0.24;stroke-dashoffset:0;stroke-width:0.15;"/>
   </g>
   <g id="line2d_72">
    <path clip-path="url(#pc9c3da30df)" d="M 133.782929 188.09574 
L 170.100835 210.783658 
L 179.497281 195.742205 
L 143.179375 173.054287 
L 133.782929 188.09574 
" style="fill:none;stroke:#0000ff;stroke-dasharray:0.555,0.24;stroke-dashoffset:0;stroke-width:0.15;"/>
   </g>
   <g id="line2d_73">
    <path clip-path="url(#pc9c3da30df)" d="M 134.341098 188.56007 
L 170.920422 210.824053 
L 180.141291 195.674331 
L 143.561967 173.410348 
L 134.341098 188.56007 
" style="fill:none;stroke:#0000ff;stroke-dasharray:0.555,0.24;stroke-dashoffset:0;stroke-width:0.15;"/>
   </g>
   <g id="line2d_74">
    <path clip-path="url(#pc9c3da30df)" d="M 135.625942 189.513238 
L 172.586909 211.137733 
L 181.542927 195.829949 
L 144.58196 174.205454 
L 135.625942 189.513238 
" style="fill:none;stroke:#0000ff;stroke-dasharray:0.555,0.24;stroke-dashoffset:0;stroke-width:0.15;"/>
   </g>
   <g id="line2d_75">
    <path clip-path="url(#pc9c3da30df)" d="M 137.23497 190.559838 
L 174.426581 211.7852 
L 183.217293 196.381893 
L 146.025683 175.156531 
L 137.23497 190.559838 
" style="fill:none;stroke:#0000ff;stroke-dasharray:0.555,0.24;stroke-dashoffset:0;stroke-width:0.15;"/>
   </g>
   <g id="line2d_76">
    <path clip-path="url(#pc9c3da30df)" d="M 138.63677 191.450393 
L 176.024467 212.328419 
L 184.671327 196.8439 
L 147.28363 175.965874 
L 138.63677 191.450393 
" style="fill:none;stroke:#0000ff;stroke-dasharray:0.555,0.24;stroke-dashoffset:0;stroke-width:0.15;"/>
   </g>
   <g id="line2d_77">
    <path clip-path="url(#pc9c3da30df)" d="M 139.823093 192.263552 
L 177.532659 212.55445 
L 185.936353 196.936626 
L 148.226787 176.645728 
L 139.823093 192.263552 
" style="fill:none;stroke:#0000ff;stroke-dasharray:0.555,0.24;stroke-dashoffset:0;stroke-width:0.15;"/>
   </g>
   <g id="line2d_78">
    <path clip-path="url(#pc9c3da30df)" d="M 140.874354 192.960379 
L 178.858609 212.732285 
L 187.047357 197.000696 
L 149.063102 177.22879 
L 140.874354 192.960379 
" style="fill:none;stroke:#0000ff;stroke-dasharray:0.555,0.24;stroke-dashoffset:0;stroke-width:0.15;"/>
   </g>
   <g id="line2d_79">
    <path clip-path="url(#pc9c3da30df)" d="M 141.706554 193.548303 
L 180.008379 212.697771 
L 187.939338 196.834657 
L 149.637513 177.685189 
L 141.706554 193.548303 
" style="fill:none;stroke:#0000ff;stroke-dasharray:0.555,0.24;stroke-dashoffset:0;stroke-width:0.15;"/>
   </g>
   <g id="line2d_80">
    <path clip-path="url(#pc9c3da30df)" d="M 141.90172 193.69498 
L 180.302427 212.645377 
L 188.150939 196.74131 
L 149.750231 177.790912 
L 141.90172 193.69498 
" style="fill:none;stroke:#0000ff;stroke-dasharray:0.555,0.24;stroke-dashoffset:0;stroke-width:0.15;"/>
   </g>
   <g id="line2d_81">
    <path clip-path="url(#pc9c3da30df)" d="M 141.245646 193.152219 
L 179.202836 212.976033 
L 187.413083 197.255653 
L 149.455893 177.431838 
L 141.245646 193.152219 
" style="fill:none;stroke:#0000ff;stroke-dasharray:0.555,0.24;stroke-dashoffset:0;stroke-width:0.15;"/>
   </g>
   <g id="line2d_82">
    <path clip-path="url(#pc9c3da30df)" d="M 140.322681 192.350126 
L 177.60767 213.411025 
L 186.330269 197.969044 
L 149.045279 176.908145 
L 140.322681 192.350126 
" style="fill:none;stroke:#0000ff;stroke-dasharray:0.555,0.24;stroke-dashoffset:0;stroke-width:0.15;"/>
   </g>
   <g id="line2d_83">
    <path clip-path="url(#pc9c3da30df)" d="M 139.592693 191.673527 
L 176.301049 213.724117 
L 185.433539 198.520955 
L 148.725183 176.470365 
L 139.592693 191.673527 
" style="fill:none;stroke:#0000ff;stroke-dasharray:0.555,0.24;stroke-dashoffset:0;stroke-width:0.15;"/>
   </g>
   <g id="line2d_84">
    <path clip-path="url(#pc9c3da30df)" d="M 139.013103 191.107559 
L 175.232944 213.951704 
L 184.694094 198.950866 
L 148.474252 176.10672 
L 139.013103 191.107559 
" style="fill:none;stroke:#0000ff;stroke-dasharray:0.555,0.24;stroke-dashoffset:0;stroke-width:0.15;"/>
   </g>
   <g id="line2d_85">
    <path clip-path="url(#pc9c3da30df)" d="M 138.551365 190.637153 
L 174.36119 214.118813 
L 184.086373 199.287788 
L 148.276548 175.806128 
L 138.551365 190.637153 
" style="fill:none;stroke:#0000ff;stroke-dasharray:0.555,0.24;stroke-dashoffset:0;stroke-width:0.15;"/>
   </g>
   <g id="line2d_86">
    <path clip-path="url(#pc9c3da30df)" d="M 138.182305 190.247969 
L 173.650313 214.242808 
L 183.588035 199.553349 
L 148.120026 175.558511 
L 138.182305 190.247969 
" style="fill:none;stroke:#0000ff;stroke-dasharray:0.555,0.24;stroke-dashoffset:0;stroke-width:0.15;"/>
   </g>
   <g id="line2d_87">
    <path clip-path="url(#pc9c3da30df)" d="M 137.886485 189.927128 
L 173.071007 214.335758 
L 183.180105 199.763708 
L 147.995583 175.355078 
L 137.886485 189.927128 
" style="fill:none;stroke:#0000ff;stroke-dasharray:0.555,0.24;stroke-dashoffset:0;stroke-width:0.15;"/>
   </g>
   <g id="line2d_88">
    <path clip-path="url(#pc9c3da30df)" d="M 137.648798 189.663363 
L 172.599157 214.406125 
L 182.846639 199.931057 
L 147.89628 175.188294 
L 137.648798 189.663363 
" style="fill:none;stroke:#0000ff;stroke-dasharray:0.555,0.24;stroke-dashoffset:0;stroke-width:0.15;"/>
   </g>
   <g id="line2d_89">
    <path clip-path="url(#pc9c3da30df)" d="M 137.457431 189.446997 
L 172.214977 214.459891 
L 182.574337 200.064677 
L 147.816791 175.051784 
L 137.457431 189.446997 
" style="fill:none;stroke:#0000ff;stroke-dasharray:0.555,0.24;stroke-dashoffset:0;stroke-width:0.15;"/>
   </g>
   <g id="line2d_90">
    <path clip-path="url(#pc9c3da30df)" d="M 137.303093 189.269821 
L 171.902272 214.501323 
L 182.352171 200.1717 
L 147.752992 174.940198 
L 137.303093 189.269821 
" style="fill:none;stroke:#0000ff;stroke-dasharray:0.555,0.24;stroke-dashoffset:0;stroke-width:0.15;"/>
   </g>
   <g id="line2d_91">
    <path clip-path="url(#pc9c3da30df)" d="M 137.178441 189.124939 
L 171.647802 214.5335 
L 182.171032 200.257642 
L 147.701671 174.84908 
L 137.178441 189.124939 
" style="fill:none;stroke:#0000ff;stroke-dasharray:0.555,0.24;stroke-dashoffset:0;stroke-width:0.15;"/>
   </g>
   <g id="line2d_92">
    <path clip-path="url(#pc9c3da30df)" d="M 137.077645 189.006594 
L 171.44076 214.558663 
L 182.023425 200.326807 
L 147.66031 174.774739 
L 137.077645 189.006594 
" style="fill:none;stroke:#0000ff;stroke-dasharray:0.555,0.24;stroke-dashoffset:0;stroke-width:0.15;"/>
   </g>
   <g id="line2d_93">
    <path clip-path="url(#pc9c3da30df)" d="M 136.839166 188.723751 
L 170.946898 214.615728 
L 181.67034 200.489643 
L 147.562608 174.597666 
L 136.839166 188.723751 
" style="fill:none;stroke:#0000ff;stroke-dasharray:0.555,0.24;stroke-dashoffset:0;stroke-width:0.15;"/>
   </g>
   <g id="line2d_94">
    <path clip-path="url(#pc9c3da30df)" d="M 137.306486 189.233865 
L 171.791104 214.621716 
L 182.305757 200.339539 
L 147.821139 174.951688 
L 137.306486 189.233865 
" style="fill:none;stroke:#0000ff;stroke-dasharray:0.555,0.24;stroke-dashoffset:0;stroke-width:0.15;"/>
   </g>
   <g id="line2d_95">
    <path clip-path="url(#pc9c3da30df)" d="M 137.06666 188.952163 
L 171.29752 214.681137 
L 181.953453 200.504057 
L 147.722593 174.775083 
L 137.06666 188.952163 
" style="fill:none;stroke:#0000ff;stroke-dasharray:0.555,0.24;stroke-dashoffset:0;stroke-width:0.15;"/>
   </g>
   <g id="line2d_96">
    <path clip-path="url(#pc9c3da30df)" d="M 136.838189 188.678365 
L 170.821268 214.733732 
L 181.61238 200.659273 
L 147.629301 174.603905 
L 136.838189 188.678365 
" style="fill:none;stroke:#0000ff;stroke-dasharray:0.555,0.24;stroke-dashoffset:0;stroke-width:0.15;"/>
   </g>
   <g id="line2d_97">
    <path clip-path="url(#pc9c3da30df)" d="M 136.656239 188.456145 
L 170.437524 214.772615 
L 181.336775 200.781731 
L 147.555489 174.46526 
L 136.656239 188.456145 
" style="fill:none;stroke:#0000ff;stroke-dasharray:0.555,0.24;stroke-dashoffset:0;stroke-width:0.15;"/>
   </g>
   <g id="line2d_98">
    <path clip-path="url(#pc9c3da30df)" d="M 136.511054 188.276092 
L 170.128392 214.801674 
L 181.114248 200.87869 
L 147.49691 174.353108 
L 136.511054 188.276092 
" style="fill:none;stroke:#0000ff;stroke-dasharray:0.555,0.24;stroke-dashoffset:0;stroke-width:0.15;"/>
   </g>
   <g id="line2d_99">
    <path clip-path="url(#pc9c3da30df)" d="M 136.39502 188.130399 
L 169.879408 214.823612 
L 180.934691 200.95569 
L 147.450302 174.262478 
L 136.39502 188.130399 
" style="fill:none;stroke:#0000ff;stroke-dasharray:0.555,0.24;stroke-dashoffset:0;stroke-width:0.15;"/>
   </g>
   <g id="line2d_100">
    <path clip-path="url(#pc9c3da30df)" d="M 136.956635 188.772915 
L 170.919367 214.8548 
L 181.721461 200.788767 
L 147.758729 174.706883 
L 136.956635 188.772915 
" style="fill:none;stroke:#0000ff;stroke-dasharray:0.555,0.24;stroke-dashoffset:0;stroke-width:0.15;"/>
   </g>
   <g id="line2d_101">
    <path clip-path="url(#pc9c3da30df)" d="M 138.173399 189.998729 
L 172.844046 215.131935 
L 183.253235 200.772712 
L 148.582588 175.639506 
L 138.173399 189.998729 
" style="fill:none;stroke:#0000ff;stroke-dasharray:0.555,0.24;stroke-dashoffset:0;stroke-width:0.15;"/>
   </g>
   <g id="line2d_102">
    <path clip-path="url(#pc9c3da30df)" d="M 139.272687 190.960633 
L 174.338065 215.540119 
L 184.517925 201.017414 
L 149.452546 176.437928 
L 139.272687 190.960633 
" style="fill:none;stroke:#0000ff;stroke-dasharray:0.555,0.24;stroke-dashoffset:0;stroke-width:0.15;"/>
   </g>
   <g id="line2d_103">
    <path clip-path="url(#pc9c3da30df)" d="M 140.271755 191.80736 
L 175.683538 215.885097 
L 185.655594 201.218925 
L 150.24381 177.141187 
L 140.271755 191.80736 
" style="fill:none;stroke:#0000ff;stroke-dasharray:0.555,0.24;stroke-dashoffset:0;stroke-width:0.15;"/>
   </g>
   <g id="line2d_104">
    <path clip-path="url(#pc9c3da30df)" d="M 141.177922 192.553562 
L 176.894123 216.177381 
L 186.678183 201.385131 
L 150.961982 177.761311 
L 141.177922 192.553562 
" style="fill:none;stroke:#0000ff;stroke-dasharray:0.555,0.24;stroke-dashoffset:0;stroke-width:0.15;"/>
   </g>
   <g id="line2d_105">
    <path clip-path="url(#pc9c3da30df)" d="M 141.905448 193.191078 
L 177.98334 216.258751 
L 187.537066 201.316702 
L 151.459174 178.249029 
L 141.905448 193.191078 
" style="fill:none;stroke:#0000ff;stroke-dasharray:0.555,0.24;stroke-dashoffset:0;stroke-width:0.15;"/>
   </g>
   <g id="line2d_106">
    <path clip-path="url(#pc9c3da30df)" d="M 141.903779 193.189522 
L 177.980551 216.258946 
L 187.535003 201.317361 
L 151.45823 178.247937 
L 141.903779 193.189522 
" style="fill:none;stroke:#0000ff;stroke-dasharray:0.555,0.24;stroke-dashoffset:0;stroke-width:0.15;"/>
   </g>
   <g id="line2d_107">
    <path clip-path="url(#pc9c3da30df)" d="M 141.128144 192.386632 
L 176.496457 216.52818 
L 186.49494 201.880012 
L 151.126627 177.738464 
L 141.128144 192.386632 
" style="fill:none;stroke:#0000ff;stroke-dasharray:0.555,0.24;stroke-dashoffset:0;stroke-width:0.15;"/>
   </g>
   <g id="line2d_108">
    <path clip-path="url(#pc9c3da30df)" d="M 140.266154 191.437834 
L 174.781369 216.784073 
L 185.278787 202.489224 
L 150.763572 177.142985 
L 140.266154 191.437834 
" style="fill:none;stroke:#0000ff;stroke-dasharray:0.555,0.24;stroke-dashoffset:0;stroke-width:0.15;"/>
   </g>
   <g id="line2d_109">
    <path clip-path="url(#pc9c3da30df)" d="M 139.358846 190.366218 
L 172.892299 216.997766 
L 183.922043 203.109524 
L 150.388589 176.477976 
L 139.358846 190.366218 
" style="fill:none;stroke:#0000ff;stroke-dasharray:0.555,0.24;stroke-dashoffset:0;stroke-width:0.15;"/>
   </g>
   <g id="line2d_110">
    <path clip-path="url(#pc9c3da30df)" d="M 138.679845 189.501989 
L 171.41197 217.112492 
L 182.847158 203.556129 
L 150.115033 175.945626 
L 138.679845 189.501989 
" style="fill:none;stroke:#0000ff;stroke-dasharray:0.555,0.24;stroke-dashoffset:0;stroke-width:0.15;"/>
   </g>
   <g id="line2d_111">
    <path clip-path="url(#pc9c3da30df)" d="M 138.168058 188.810724 
L 170.253479 217.17016 
L 181.998846 203.881636 
L 149.913424 175.522201 
L 138.168058 188.810724 
" style="fill:none;stroke:#0000ff;stroke-dasharray:0.555,0.24;stroke-dashoffset:0;stroke-width:0.15;"/>
   </g>
   <g id="line2d_112">
    <path clip-path="url(#pc9c3da30df)" d="M 137.779894 188.261112 
L 169.347659 217.195661 
L 181.331215 204.121531 
L 149.76345 175.186982 
L 137.779894 188.261112 
" style="fill:none;stroke:#0000ff;stroke-dasharray:0.555,0.24;stroke-dashoffset:0;stroke-width:0.15;"/>
   </g>
   <g id="line2d_113">
    <path clip-path="url(#pc9c3da30df)" d="M 137.483921 187.826061 
L 168.639822 217.203632 
L 180.80686 204.300079 
L 149.650959 174.922508 
L 137.483921 187.826061 
" style="fill:none;stroke:#0000ff;stroke-dasharray:0.555,0.24;stroke-dashoffset:0;stroke-width:0.15;"/>
   </g>
   <g id="line2d_114">
    <path clip-path="url(#pc9c3da30df)" d="M 137.257228 187.482834 
L 168.086917 217.202561 
L 180.395663 204.434112 
L 149.565974 174.714386 
L 137.257228 187.482834 
" style="fill:none;stroke:#0000ff;stroke-dasharray:0.555,0.24;stroke-dashoffset:0;stroke-width:0.15;"/>
   </g>
   <g id="line2d_115">
    <path clip-path="url(#pc9c3da30df)" d="M 137.082953 187.212732 
L 167.655151 217.197271 
L 180.073572 204.535465 
L 149.501374 174.550926 
L 137.082953 187.212732 
" style="fill:none;stroke:#0000ff;stroke-dasharray:0.555,0.24;stroke-dashoffset:0;stroke-width:0.15;"/>
   </g>
   <g id="line2d_116">
    <path clip-path="url(#pc9c3da30df)" d="M 136.709366 186.620731 
L 166.712476 217.174703 
L 179.366734 204.748591 
L 149.363624 174.194618 
L 136.709366 186.620731 
" style="fill:none;stroke:#0000ff;stroke-dasharray:0.555,0.24;stroke-dashoffset:0;stroke-width:0.15;"/>
   </g>
   <g id="line2d_117">
    <path clip-path="url(#pc9c3da30df)" d="M 136.432853 186.164393 
L 165.995226 217.144999 
L 178.826179 204.901423 
L 149.263806 173.920817 
L 136.432853 186.164393 
" style="fill:none;stroke:#0000ff;stroke-dasharray:0.555,0.24;stroke-dashoffset:0;stroke-width:0.15;"/>
   </g>
   <g id="line2d_118">
    <path clip-path="url(#pc9c3da30df)" d="M 136.226996 185.813801 
L 165.449569 217.115128 
L 178.413352 205.012283 
L 149.190778 173.710956 
L 136.226996 185.813801 
" style="fill:none;stroke:#0000ff;stroke-dasharray:0.555,0.24;stroke-dashoffset:0;stroke-width:0.15;"/>
   </g>
   <g id="line2d_119">
    <path clip-path="url(#pc9c3da30df)" d="M 135.802137 185.068853 
L 164.29583 217.035107 
L 177.534999 205.234136 
L 149.041306 173.267883 
L 135.802137 185.068853 
" style="fill:none;stroke:#0000ff;stroke-dasharray:0.555,0.24;stroke-dashoffset:0;stroke-width:0.15;"/>
   </g>
   <g id="line2d_120">
    <path clip-path="url(#pc9c3da30df)" d="M 135.504029 184.518136 
L 163.456191 216.958982 
L 176.891918 205.382293 
L 148.939755 172.941446 
L 135.504029 184.518136 
" style="fill:none;stroke:#0000ff;stroke-dasharray:0.555,0.24;stroke-dashoffset:0;stroke-width:0.15;"/>
   </g>
   <g id="line2d_121">
    <path clip-path="url(#pc9c3da30df)" d="M 134.709498 182.973636 
L 161.114738 216.68558 
L 175.076904 205.749564 
L 148.671664 172.03762 
L 134.709498 182.973636 
" style="fill:none;stroke:#0000ff;stroke-dasharray:0.555,0.24;stroke-dashoffset:0;stroke-width:0.15;"/>
   </g>
   <g id="line2d_122">
    <path clip-path="url(#pc9c3da30df)" d="M 133.915881 181.445605 
L 159.065688 216.104213 
L 173.419924 205.688149 
L 148.270117 171.029541 
L 133.915881 181.445605 
" style="fill:none;stroke:#0000ff;stroke-dasharray:0.555,0.24;stroke-dashoffset:0;stroke-width:0.15;"/>
   </g>
   <g id="line2d_123">
    <path clip-path="url(#pc9c3da30df)" d="M 133.429009 180.415762 
L 157.721079 215.680861 
L 172.326501 205.620038 
L 148.034431 170.354939 
L 133.429009 180.415762 
" style="fill:none;stroke:#0000ff;stroke-dasharray:0.555,0.24;stroke-dashoffset:0;stroke-width:0.15;"/>
   </g>
   <g id="line2d_124">
    <path clip-path="url(#pc9c3da30df)" d="M 133.02708 179.612039 
L 156.801178 215.228386 
L 171.552072 205.382086 
L 147.777975 169.765739 
L 133.02708 179.612039 
" style="fill:none;stroke:#0000ff;stroke-dasharray:0.555,0.24;stroke-dashoffset:0;stroke-width:0.15;"/>
   </g>
   <g id="line2d_125">
    <path clip-path="url(#pc9c3da30df)" d="M 132.677642 178.96293 
L 156.159435 214.772667 
L 170.990424 205.047429 
L 147.508631 169.237692 
L 132.677642 178.96293 
" style="fill:none;stroke:#0000ff;stroke-dasharray:0.555,0.24;stroke-dashoffset:0;stroke-width:0.15;"/>
   </g>
   <g id="line2d_126">
    <path clip-path="url(#pc9c3da30df)" d="M 132.267127 178.263433 
L 155.579045 214.183989 
L 170.455932 204.529107 
L 147.144014 168.60855 
L 132.267127 178.263433 
" style="fill:none;stroke:#0000ff;stroke-dasharray:0.555,0.24;stroke-dashoffset:0;stroke-width:0.15;"/>
   </g>
   <g id="line2d_127">
    <path clip-path="url(#pc9c3da30df)" d="M 131.938409 177.75457 
L 155.244906 213.678644 
L 170.123249 204.026007 
L 146.816753 168.101933 
L 131.938409 177.75457 
" style="fill:none;stroke:#0000ff;stroke-dasharray:0.555,0.24;stroke-dashoffset:0;stroke-width:0.15;"/>
   </g>
   <g id="line2d_128">
    <path clip-path="url(#pc9c3da30df)" d="M 131.298268 176.868841 
L 154.837757 212.640678 
L 169.65305 202.891544 
L 146.113561 167.119707 
L 131.298268 176.868841 
" style="fill:none;stroke:#0000ff;stroke-dasharray:0.555,0.24;stroke-dashoffset:0;stroke-width:0.15;"/>
   </g>
   <g id="line2d_129">
    <path clip-path="url(#pc9c3da30df)" d="M 130.722991 176.176061 
L 154.683983 211.666944 
L 169.382915 201.743241 
L 145.421924 166.252358 
L 130.722991 176.176061 
" style="fill:none;stroke:#0000ff;stroke-dasharray:0.555,0.24;stroke-dashoffset:0;stroke-width:0.15;"/>
   </g>
   <g id="line2d_130">
    <path clip-path="url(#pc9c3da30df)" d="M 129.688449 175.125776 
L 154.784712 209.823174 
L 169.155014 199.429285 
L 144.058751 164.731887 
L 129.688449 175.125776 
" style="fill:none;stroke:#0000ff;stroke-dasharray:0.555,0.24;stroke-dashoffset:0;stroke-width:0.15;"/>
   </g>
   <g id="line2d_131">
    <path clip-path="url(#pc9c3da30df)" d="M 128.114762 173.885711 
L 155.478741 206.824207 
L 169.120575 195.491119 
L 141.756596 162.552623 
L 128.114762 173.885711 
" style="fill:none;stroke:#0000ff;stroke-dasharray:0.555,0.24;stroke-dashoffset:0;stroke-width:0.15;"/>
   </g>
   <g id="line2d_132">
    <path clip-path="url(#pc9c3da30df)" d="M 126.987081 173.321816 
L 156.333186 204.507357 
L 169.249015 192.35335 
L 139.902909 161.167809 
L 126.987081 173.321816 
" style="fill:none;stroke:#0000ff;stroke-dasharray:0.555,0.24;stroke-dashoffset:0;stroke-width:0.15;"/>
   </g>
   <g id="line2d_133">
    <path clip-path="url(#pc9c3da30df)" d="M 126.354479 172.947818 
L 156.452866 203.407939 
L 169.068254 190.942367 
L 138.969867 160.482246 
L 126.354479 172.947818 
" style="fill:none;stroke:#0000ff;stroke-dasharray:0.555,0.24;stroke-dashoffset:0;stroke-width:0.15;"/>
   </g>
   <g id="line2d_134">
    <path clip-path="url(#pc9c3da30df)" d="M 126.28256 172.898092 
L 156.439135 203.300606 
L 169.030665 190.810934 
L 138.87409 160.408421 
L 126.28256 172.898092 
" style="fill:none;stroke:#0000ff;stroke-dasharray:0.555,0.24;stroke-dashoffset:0;stroke-width:0.15;"/>
   </g>
   <g id="line2d_135">
    <path clip-path="url(#pc9c3da30df)" d="M 126.297448 172.910078 
L 156.446394 203.320157 
L 169.041057 190.833645 
L 138.89211 160.423566 
L 126.297448 172.910078 
" style="fill:none;stroke:#0000ff;stroke-dasharray:0.555,0.24;stroke-dashoffset:0;stroke-width:0.15;"/>
   </g>
   <g id="line2d_136">
    <path clip-path="url(#pc9c3da30df)" d="M 126.298383 172.910931 
L 156.447101 203.321237 
L 169.041857 190.834819 
L 138.89314 160.424514 
L 126.298383 172.910931 
" style="fill:none;stroke:#0000ff;stroke-dasharray:0.555,0.24;stroke-dashoffset:0;stroke-width:0.15;"/>
   </g>
   <g id="line2d_137">
    <path clip-path="url(#pc9c3da30df)" d="M 126.297858 172.910399 
L 156.44657 203.32071 
L 169.041329 190.834295 
L 138.892617 160.423984 
L 126.297858 172.910399 
" style="fill:none;stroke:#0000ff;stroke-dasharray:0.555,0.24;stroke-dashoffset:0;stroke-width:0.15;"/>
   </g>
   <g id="line2d_138">
    <path clip-path="url(#pc9c3da30df)" d="M 126.295081 172.907306 
L 156.443055 203.318349 
L 169.038117 190.83224 
L 138.890143 160.421197 
L 126.295081 172.907306 
" style="fill:none;stroke:#0000ff;stroke-dasharray:0.555,0.24;stroke-dashoffset:0;stroke-width:0.15;"/>
   </g>
   <g id="line2d_139">
    <path clip-path="url(#pc9c3da30df)" d="M 126.278743 172.887378 
L 156.418018 203.307042 
L 169.016651 190.824536 
L 138.877376 160.404872 
L 126.278743 172.887378 
" style="fill:none;stroke:#0000ff;stroke-dasharray:0.555,0.24;stroke-dashoffset:0;stroke-width:0.15;"/>
   </g>
   <g id="line2d_140">
    <path clip-path="url(#pc9c3da30df)" d="M 126.749193 173.514651 
L 157.273313 203.548132 
L 169.712003 190.906237 
L 139.187883 160.872757 
L 126.749193 173.514651 
" style="fill:none;stroke:#0000ff;stroke-dasharray:0.555,0.24;stroke-dashoffset:0;stroke-width:0.15;"/>
   </g>
   <g id="line2d_141">
    <path clip-path="url(#pc9c3da30df)" d="M 127.832626 175.049854 
L 159.541366 203.829842 
L 171.460909 190.697325 
L 139.752169 161.917337 
L 127.832626 175.049854 
" style="fill:none;stroke:#0000ff;stroke-dasharray:0.555,0.24;stroke-dashoffset:0;stroke-width:0.15;"/>
   </g>
   <g id="line2d_142">
    <path clip-path="url(#pc9c3da30df)" d="M 129.656649 177.624974 
L 163.669494 203.641473 
L 174.444509 189.554686 
L 140.431663 163.538187 
L 129.656649 177.624974 
" style="fill:none;stroke:#0000ff;stroke-dasharray:0.555,0.24;stroke-dashoffset:0;stroke-width:0.15;"/>
   </g>
   <g id="line2d_143">
    <path clip-path="url(#pc9c3da30df)" d="M 132.056848 180.460328 
L 168.470723 202.993894 
L 177.803242 187.912694 
L 141.389367 165.379128 
L 132.056848 180.460328 
" style="fill:none;stroke:#0000ff;stroke-dasharray:0.555,0.24;stroke-dashoffset:0;stroke-width:0.15;"/>
   </g>
   <g id="line2d_144">
    <path clip-path="url(#pc9c3da30df)" d="M 134.180219 182.529031 
L 172.258555 202.119136 
L 180.372009 186.348581 
L 142.293673 166.758477 
L 134.180219 182.529031 
" style="fill:none;stroke:#0000ff;stroke-dasharray:0.555,0.24;stroke-dashoffset:0;stroke-width:0.15;"/>
   </g>
   <g id="line2d_145">
    <path clip-path="url(#pc9c3da30df)" d="M 135.755725 183.847576 
L 174.850644 201.320961 
L 182.087435 185.129378 
L 142.992517 167.655993 
L 135.755725 183.847576 
" style="fill:none;stroke:#0000ff;stroke-dasharray:0.555,0.24;stroke-dashoffset:0;stroke-width:0.15;"/>
   </g>
   <g id="line2d_146">
    <path clip-path="url(#pc9c3da30df)" d="M 136.809608 184.566707 
L 176.363389 200.974945 
L 183.159038 184.593319 
L 143.605257 168.185081 
L 136.809608 184.566707 
" style="fill:none;stroke:#0000ff;stroke-dasharray:0.555,0.24;stroke-dashoffset:0;stroke-width:0.15;"/>
   </g>
   <g id="line2d_147">
    <path clip-path="url(#pc9c3da30df)" d="M 137.003331 184.680047 
L 176.615877 200.945901 
L 183.352557 184.539937 
L 143.74001 168.274083 
L 137.003331 184.680047 
" style="fill:none;stroke:#0000ff;stroke-dasharray:0.555,0.24;stroke-dashoffset:0;stroke-width:0.15;"/>
   </g>
   <g id="line2d_148">
    <path clip-path="url(#pc9c3da30df)" d="M 136.381436 184.354338 
L 175.868565 200.922334 
L 182.73038 184.568313 
L 143.24325 168.000317 
L 136.381436 184.354338 
" style="fill:none;stroke:#0000ff;stroke-dasharray:0.555,0.24;stroke-dashoffset:0;stroke-width:0.15;"/>
   </g>
   <g id="line2d_149">
    <path clip-path="url(#pc9c3da30df)" d="M 135.428241 183.899714 
L 174.816512 200.70138 
L 181.775103 184.388302 
L 142.386832 167.586636 
L 135.428241 183.899714 
" style="fill:none;stroke:#0000ff;stroke-dasharray:0.555,0.24;stroke-dashoffset:0;stroke-width:0.15;"/>
   </g>
   <g id="line2d_150">
    <path clip-path="url(#pc9c3da30df)" d="M 133.989229 183.285882 
L 173.3775 200.087547 
L 180.336091 183.774469 
L 140.94782 166.972804 
L 133.989229 183.285882 
" style="fill:none;stroke:#0000ff;stroke-dasharray:0.555,0.24;stroke-dashoffset:0;stroke-width:0.15;"/>
   </g>
   <g id="line2d_151">
    <path clip-path="url(#pc9c3da30df)" d="M 132.297284 182.667081 
L 171.871663 199.025575 
L 178.64671 182.635418 
L 139.072331 166.276924 
L 132.297284 182.667081 
" style="fill:none;stroke:#0000ff;stroke-dasharray:0.555,0.24;stroke-dashoffset:0;stroke-width:0.15;"/>
   </g>
   <g id="line2d_152">
    <path clip-path="url(#pc9c3da30df)" d="M 131.34864 182.360471 
L 171.074428 198.347767 
L 177.69574 181.894903 
L 137.969952 165.907607 
L 131.34864 182.360471 
" style="fill:none;stroke:#0000ff;stroke-dasharray:0.555,0.24;stroke-dashoffset:0;stroke-width:0.15;"/>
   </g>
   <g id="line2d_153">
    <path clip-path="url(#pc9c3da30df)" d="M 131.115285 182.272837 
L 170.852043 198.232849 
L 177.462054 181.775442 
L 137.725297 165.81543 
L 131.115285 182.272837 
" style="fill:none;stroke:#0000ff;stroke-dasharray:0.555,0.24;stroke-dashoffset:0;stroke-width:0.15;"/>
   </g>
   <g id="line2d_154">
    <path clip-path="url(#pc9c3da30df)" d="M 131.650259 182.504203 
L 171.415776 198.392422 
L 177.996054 181.923104 
L 138.230537 166.034884 
L 131.650259 182.504203 
" style="fill:none;stroke:#0000ff;stroke-dasharray:0.555,0.24;stroke-dashoffset:0;stroke-width:0.15;"/>
   </g>
   <g id="line2d_155">
    <path clip-path="url(#pc9c3da30df)" d="M 133.005672 183.161825 
L 172.971146 198.540146 
L 179.340244 181.988013 
L 139.37477 166.609692 
L 133.005672 183.161825 
" style="fill:none;stroke:#0000ff;stroke-dasharray:0.555,0.24;stroke-dashoffset:0;stroke-width:0.15;"/>
   </g>
   <g id="line2d_156">
    <path clip-path="url(#pc9c3da30df)" d="M 134.335459 183.777336 
L 174.474991 198.69544 
L 180.653485 182.07122 
L 140.513953 167.153115 
L 134.335459 183.777336 
" style="fill:none;stroke:#0000ff;stroke-dasharray:0.555,0.24;stroke-dashoffset:0;stroke-width:0.15;"/>
   </g>
   <g id="line2d_157">
    <path clip-path="url(#pc9c3da30df)" d="M 135.376958 184.234304 
L 175.630943 198.840759 
L 181.680365 182.169137 
L 141.426379 167.562681 
L 135.376958 184.234304 
" style="fill:none;stroke:#0000ff;stroke-dasharray:0.555,0.24;stroke-dashoffset:0;stroke-width:0.15;"/>
   </g>
   <g id="line2d_158">
    <path clip-path="url(#pc9c3da30df)" d="M 136.061403 184.526365 
L 176.385826 198.937223 
L 182.354238 182.236427 
L 142.029815 167.82557 
L 136.061403 184.526365 
" style="fill:none;stroke:#0000ff;stroke-dasharray:0.555,0.24;stroke-dashoffset:0;stroke-width:0.15;"/>
   </g>
   <g id="line2d_159">
    <path clip-path="url(#pc9c3da30df)" d="M 136.504286 184.712098 
L 176.872512 198.999792 
L 182.789915 182.280855 
L 142.421689 167.993161 
L 136.504286 184.712098 
" style="fill:none;stroke:#0000ff;stroke-dasharray:0.555,0.24;stroke-dashoffset:0;stroke-width:0.15;"/>
   </g>
   <g id="line2d_160">
    <path clip-path="url(#pc9c3da30df)" d="M 136.789628 184.830423 
L 177.185323 199.040269 
L 183.070484 182.309956 
L 142.674789 168.100109 
L 136.789628 184.830423 
" style="fill:none;stroke:#0000ff;stroke-dasharray:0.555,0.24;stroke-dashoffset:0;stroke-width:0.15;"/>
   </g>
   <g id="line2d_161">
    <path clip-path="url(#pc9c3da30df)" d="M 136.972921 184.905871 
L 177.385933 199.066393 
L 183.250666 182.328908 
L 142.837654 168.168386 
L 136.972921 184.905871 
" style="fill:none;stroke:#0000ff;stroke-dasharray:0.555,0.24;stroke-dashoffset:0;stroke-width:0.15;"/>
   </g>
   <g id="line2d_162">
    <path clip-path="url(#pc9c3da30df)" d="M 137.380596 185.075443 
L 177.83559 199.115576 
L 183.650463 182.360704 
L 143.195469 168.320571 
L 137.380596 185.075443 
" style="fill:none;stroke:#0000ff;stroke-dasharray:0.555,0.24;stroke-dashoffset:0;stroke-width:0.15;"/>
   </g>
   <g id="line2d_163">
    <path clip-path="url(#pc9c3da30df)" d="M 137.405789 185.08452 
L 177.861305 199.123151 
L 183.675555 182.368062 
L 143.22004 168.329431 
L 137.405789 185.08452 
" style="fill:none;stroke:#0000ff;stroke-dasharray:0.555,0.24;stroke-dashoffset:0;stroke-width:0.15;"/>
   </g>
   <g id="line2d_164">
    <path clip-path="url(#pc9c3da30df)" d="M 137.765693 185.233486 
L 178.25875 199.163463 
L 184.028 182.392826 
L 143.534944 168.462849 
L 137.765693 185.233486 
" style="fill:none;stroke:#0000ff;stroke-dasharray:0.555,0.24;stroke-dashoffset:0;stroke-width:0.15;"/>
   </g>
   <g id="line2d_165">
    <path clip-path="url(#pc9c3da30df)" d="M 137.713057 185.20907 
L 178.196312 199.167506 
L 183.977349 182.400929 
L 143.494094 168.442492 
L 137.713057 185.20907 
" style="fill:none;stroke:#0000ff;stroke-dasharray:0.555,0.24;stroke-dashoffset:0;stroke-width:0.15;"/>
   </g>
   <g id="line2d_166">
    <path clip-path="url(#pc9c3da30df)" d="M 137.681531 185.192692 
L 178.156215 199.175962 
L 183.947537 182.412934 
L 143.472853 168.429665 
L 137.681531 185.192692 
" style="fill:none;stroke:#0000ff;stroke-dasharray:0.555,0.24;stroke-dashoffset:0;stroke-width:0.15;"/>
   </g>
   <g id="line2d_167">
    <path clip-path="url(#pc9c3da30df)" d="M 137.698976 185.200811 
L 178.176918 199.174646 
L 183.964333 182.410269 
L 143.48639 168.436434 
L 137.698976 185.200811 
" style="fill:none;stroke:#0000ff;stroke-dasharray:0.555,0.24;stroke-dashoffset:0;stroke-width:0.15;"/>
   </g>
   <g id="line2d_168">
    <path clip-path="url(#pc9c3da30df)" d="M 137.728576 185.214108 
L 178.21131 199.174057 
L 183.992973 182.407696 
L 143.51024 168.447747 
L 137.728576 185.214108 
" style="fill:none;stroke:#0000ff;stroke-dasharray:0.555,0.24;stroke-dashoffset:0;stroke-width:0.15;"/>
   </g>
   <g id="line2d_169">
    <path clip-path="url(#pc9c3da30df)" d="M 137.706665 185.203091 
L 178.184012 199.17865 
L 183.972141 182.41452 
L 143.494794 168.43896 
L 137.706665 185.203091 
" style="fill:none;stroke:#0000ff;stroke-dasharray:0.555,0.24;stroke-dashoffset:0;stroke-width:0.15;"/>
   </g>
   <g id="line2d_170">
    <path clip-path="url(#pc9c3da30df)" d="M 137.745729 185.220641 
L 178.229398 199.177875 
L 184.009937 182.411125 
L 143.526268 168.453892 
L 137.745729 185.220641 
" style="fill:none;stroke:#0000ff;stroke-dasharray:0.555,0.24;stroke-dashoffset:0;stroke-width:0.15;"/>
   </g>
   <g id="line2d_171">
    <path clip-path="url(#pc9c3da30df)" d="M 323.39542 182.479145 
L 319.032939 184.778577 
L 312.474106 188.198992 
L 303.155314 193.426691 
L 297.315861 196.449317 
L 291.003114 199.106898 
L 284.40101 200.930557 
L 277.57743 201.524072 
L 270.734196 201.234836 
L 263.938084 200.382564 
L 250.424905 198.135784 
L 236.829958 196.453522 
L 223.213547 194.955453 
L 202.75631 193.026466 
L 158.547527 189.067008 
L 154.300162 188.301278 
L 150.922746 187.406567 
L 148.414159 186.486485 
L 145.676574 185.070018 
L 146.198748 185.396222 
L 150.367572 187.844557 
L 153.434049 189.497461 
L 149.911906 187.47702 
L 148.556697 186.484985 
L 153.830181 190.290296 
L 153.134671 189.84555 
L 150.882435 188.194091 
L 148.980809 186.461127 
L 147.759866 185.157078 
L 146.075761 183.10425 
L 144.324204 180.55269 
L 141.845753 176.803193 
L 140.35712 174.745049 
L 138.549351 172.672968 
L 139.016076 173.144035 
L 141.782892 175.736054 
L 143.937543 177.384152 
L 145.78115 178.525009 
L 148.219838 179.699709 
L 146.711269 179.071976 
L 142.293067 177.206183 
L 145.377281 178.420849 
L 148.672935 179.60802 
L 148.656755 179.602519 
" style="fill:none;stroke:#ff0000;stroke-linecap:square;stroke-width:0.1;"/>
   </g>
   <g id="patch_5">
    <path d="M 57.6 273.803725 
L 57.6 75.252275 
" style="fill:none;stroke:#000000;stroke-linecap:square;stroke-linejoin:miter;stroke-width:0.8;"/>
   </g>
   <g id="patch_6">
    <path d="M 414.72 273.803725 
L 414.72 75.252275 
" style="fill:none;stroke:#000000;stroke-linecap:square;stroke-linejoin:miter;stroke-width:0.8;"/>
   </g>
   <g id="patch_7">
    <path d="M 57.6 273.803725 
L 414.72 273.803725 
" style="fill:none;stroke:#000000;stroke-linecap:square;stroke-linejoin:miter;stroke-width:0.8;"/>
   </g>
   <g id="patch_8">
    <path d="M 57.6 75.252275 
L 414.72 75.252275 
" style="fill:none;stroke:#000000;stroke-linecap:square;stroke-linejoin:miter;stroke-width:0.8;"/>
   </g>
   <g id="text_20">
    <!-- Case 9 -->
    <g transform="translate(215.751563 69.252275)scale(0.12 -0.12)">
     <defs>
      <path d="M 64.40625 67.28125 
L 64.40625 56.890625 
Q 59.421875 61.53125 53.78125 63.8125 
Q 48.140625 66.109375 41.796875 66.109375 
Q 29.296875 66.109375 22.65625 58.46875 
Q 16.015625 50.828125 16.015625 36.375 
Q 16.015625 21.96875 22.65625 14.328125 
Q 29.296875 6.6875 41.796875 6.6875 
Q 48.140625 6.6875 53.78125 8.984375 
Q 59.421875 11.28125 64.40625 15.921875 
L 64.40625 5.609375 
Q 59.234375 2.09375 53.4375 0.328125 
Q 47.65625 -1.421875 41.21875 -1.421875 
Q 24.65625 -1.421875 15.125 8.703125 
Q 5.609375 18.84375 5.609375 36.375 
Q 5.609375 53.953125 15.125 64.078125 
Q 24.65625 74.21875 41.21875 74.21875 
Q 47.75 74.21875 53.53125 72.484375 
Q 59.328125 70.75 64.40625 67.28125 
z
" id="DejaVuSans-67"/>
      <path d="M 34.28125 27.484375 
Q 23.390625 27.484375 19.1875 25 
Q 14.984375 22.515625 14.984375 16.5 
Q 14.984375 11.71875 18.140625 8.90625 
Q 21.296875 6.109375 26.703125 6.109375 
Q 34.1875 6.109375 38.703125 11.40625 
Q 43.21875 16.703125 43.21875 25.484375 
L 43.21875 27.484375 
z
M 52.203125 31.203125 
L 52.203125 0 
L 43.21875 0 
L 43.21875 8.296875 
Q 40.140625 3.328125 35.546875 0.953125 
Q 30.953125 -1.421875 24.3125 -1.421875 
Q 15.921875 -1.421875 10.953125 3.296875 
Q 6 8.015625 6 15.921875 
Q 6 25.140625 12.171875 29.828125 
Q 18.359375 34.515625 30.609375 34.515625 
L 43.21875 34.515625 
L 43.21875 35.40625 
Q 43.21875 41.609375 39.140625 45 
Q 35.0625 48.390625 27.6875 48.390625 
Q 23 48.390625 18.546875 47.265625 
Q 14.109375 46.140625 10.015625 43.890625 
L 10.015625 52.203125 
Q 14.9375 54.109375 19.578125 55.046875 
Q 24.21875 56 28.609375 56 
Q 40.484375 56 46.34375 49.84375 
Q 52.203125 43.703125 52.203125 31.203125 
z
" id="DejaVuSans-97"/>
      <path d="M 44.28125 53.078125 
L 44.28125 44.578125 
Q 40.484375 46.53125 36.375 47.5 
Q 32.28125 48.484375 27.875 48.484375 
Q 21.1875 48.484375 17.84375 46.4375 
Q 14.5 44.390625 14.5 40.28125 
Q 14.5 37.15625 16.890625 35.375 
Q 19.28125 33.59375 26.515625 31.984375 
L 29.59375 31.296875 
Q 39.15625 29.25 43.1875 25.515625 
Q 47.21875 21.78125 47.21875 15.09375 
Q 47.21875 7.46875 41.1875 3.015625 
Q 35.15625 -1.421875 24.609375 -1.421875 
Q 20.21875 -1.421875 15.453125 -0.5625 
Q 10.6875 0.296875 5.421875 2 
L 5.421875 11.28125 
Q 10.40625 8.6875 15.234375 7.390625 
Q 20.0625 6.109375 24.8125 6.109375 
Q 31.15625 6.109375 34.5625 8.28125 
Q 37.984375 10.453125 37.984375 14.40625 
Q 37.984375 18.0625 35.515625 20.015625 
Q 33.0625 21.96875 24.703125 23.78125 
L 21.578125 24.515625 
Q 13.234375 26.265625 9.515625 29.90625 
Q 5.8125 33.546875 5.8125 39.890625 
Q 5.8125 47.609375 11.28125 51.796875 
Q 16.75 56 26.8125 56 
Q 31.78125 56 36.171875 55.265625 
Q 40.578125 54.546875 44.28125 53.078125 
z
" id="DejaVuSans-115"/>
      <path d="M 56.203125 29.59375 
L 56.203125 25.203125 
L 14.890625 25.203125 
Q 15.484375 15.921875 20.484375 11.0625 
Q 25.484375 6.203125 34.421875 6.203125 
Q 39.59375 6.203125 44.453125 7.46875 
Q 49.3125 8.734375 54.109375 11.28125 
L 54.109375 2.78125 
Q 49.265625 0.734375 44.1875 -0.34375 
Q 39.109375 -1.421875 33.890625 -1.421875 
Q 20.796875 -1.421875 13.15625 6.1875 
Q 5.515625 13.8125 5.515625 26.8125 
Q 5.515625 40.234375 12.765625 48.109375 
Q 20.015625 56 32.328125 56 
Q 43.359375 56 49.78125 48.890625 
Q 56.203125 41.796875 56.203125 29.59375 
z
M 47.21875 32.234375 
Q 47.125 39.59375 43.09375 43.984375 
Q 39.0625 48.390625 32.421875 48.390625 
Q 24.90625 48.390625 20.390625 44.140625 
Q 15.875 39.890625 15.1875 32.171875 
z
" id="DejaVuSans-101"/>
      <path d="M 10.984375 1.515625 
L 10.984375 10.5 
Q 14.703125 8.734375 18.5 7.8125 
Q 22.3125 6.890625 25.984375 6.890625 
Q 35.75 6.890625 40.890625 13.453125 
Q 46.046875 20.015625 46.78125 33.40625 
Q 43.953125 29.203125 39.59375 26.953125 
Q 35.25 24.703125 29.984375 24.703125 
Q 19.046875 24.703125 12.671875 31.3125 
Q 6.296875 37.9375 6.296875 49.421875 
Q 6.296875 60.640625 12.9375 67.421875 
Q 19.578125 74.21875 30.609375 74.21875 
Q 43.265625 74.21875 49.921875 64.515625 
Q 56.59375 54.828125 56.59375 36.375 
Q 56.59375 19.140625 48.40625 8.859375 
Q 40.234375 -1.421875 26.421875 -1.421875 
Q 22.703125 -1.421875 18.890625 -0.6875 
Q 15.09375 0.046875 10.984375 1.515625 
z
M 30.609375 32.421875 
Q 37.25 32.421875 41.125 36.953125 
Q 45.015625 41.5 45.015625 49.421875 
Q 45.015625 57.28125 41.125 61.84375 
Q 37.25 66.40625 30.609375 66.40625 
Q 23.96875 66.40625 20.09375 61.84375 
Q 16.21875 57.28125 16.21875 49.421875 
Q 16.21875 41.5 20.09375 36.953125 
Q 23.96875 32.421875 30.609375 32.421875 
z
" id="DejaVuSans-57"/>
     </defs>
     <use xlink:href="#DejaVuSans-67"/>
     <use x="69.824219" xlink:href="#DejaVuSans-97"/>
     <use x="131.103516" xlink:href="#DejaVuSans-115"/>
     <use x="183.203125" xlink:href="#DejaVuSans-101"/>
     <use x="244.726562" xlink:href="#DejaVuSans-32"/>
     <use x="276.513672" xlink:href="#DejaVuSans-57"/>
    </g>
   </g>
  </g>
 </g>
 <defs>
  <clipPath id="pc9c3da30df">
   <rect height="198.55145" width="357.12" x="57.6" y="75.252275"/>
  </clipPath>
 </defs>
</svg>
