<?xml version="1.0" encoding="utf-8" standalone="no"?>
<!DOCTYPE svg PUBLIC "-//W3C//DTD SVG 1.1//EN"
  "http://www.w3.org/Graphics/SVG/1.1/DTD/svg11.dtd">
<!-- Created with matplotlib (https://matplotlib.org/) -->
<svg height="345.6pt" version="1.1" viewBox="0 0 460.8 345.6" width="460.8pt" xmlns="http://www.w3.org/2000/svg" xmlns:xlink="http://www.w3.org/1999/xlink">
 <metadata>
  <rdf:RDF xmlns:cc="http://creativecommons.org/ns#" xmlns:dc="http://purl.org/dc/elements/1.1/" xmlns:rdf="http://www.w3.org/1999/02/22-rdf-syntax-ns#">
   <cc:Work>
    <dc:type rdf:resource="http://purl.org/dc/dcmitype/StillImage"/>
    <dc:date>2022-12-08T01:24:24.035982</dc:date>
    <dc:format>image/svg+xml</dc:format>
    <dc:creator>
     <cc:Agent>
      <dc:title>Matplotlib v3.3.4, https://matplotlib.org/</dc:title>
     </cc:Agent>
    </dc:creator>
   </cc:Work>
  </rdf:RDF>
 </metadata>
 <defs>
  <style type="text/css">*{stroke-linecap:butt;stroke-linejoin:round;}</style>
 </defs>
 <g id="figure_1">
  <g id="patch_1">
   <path d="M 0 345.6 
L 460.8 345.6 
L 460.8 0 
L 0 0 
z
" style="fill:#ffffff;"/>
  </g>
  <g id="axes_1">
   <g id="patch_2">
    <path d="M 57.6 273.803725 
L 414.72 273.803725 
L 414.72 75.252275 
L 57.6 75.252275 
z
" style="fill:#ffffff;"/>
   </g>
   <g id="matplotlib.axis_1">
    <g id="xtick_1">
     <g id="line2d_1">
      <path clip-path="url(#pffde66902a)" d="M 91.676336 273.803725 
L 91.676336 75.252275 
" style="fill:none;stroke:#b0b0b0;stroke-linecap:square;stroke-width:0.2;"/>
     </g>
     <g id="line2d_2">
      <defs>
       <path d="M 0 0 
L 0 3.5 
" id="m339212caac" style="stroke:#000000;stroke-width:0.8;"/>
      </defs>
      <g>
       <use style="stroke:#000000;stroke-width:0.8;" x="91.676336" xlink:href="#m339212caac" y="273.803725"/>
      </g>
     </g>
     <g id="text_1">
      <!-- −10 -->
      <g transform="translate(81.123992 288.402163)scale(0.1 -0.1)">
       <defs>
        <path d="M 10.59375 35.5 
L 73.1875 35.5 
L 73.1875 27.203125 
L 10.59375 27.203125 
z
" id="DejaVuSans-8722"/>
        <path d="M 12.40625 8.296875 
L 28.515625 8.296875 
L 28.515625 63.921875 
L 10.984375 60.40625 
L 10.984375 69.390625 
L 28.421875 72.90625 
L 38.28125 72.90625 
L 38.28125 8.296875 
L 54.390625 8.296875 
L 54.390625 0 
L 12.40625 0 
z
" id="DejaVuSans-49"/>
        <path d="M 31.78125 66.40625 
Q 24.171875 66.40625 20.328125 58.90625 
Q 16.5 51.421875 16.5 36.375 
Q 16.5 21.390625 20.328125 13.890625 
Q 24.171875 6.390625 31.78125 6.390625 
Q 39.453125 6.390625 43.28125 13.890625 
Q 47.125 21.390625 47.125 36.375 
Q 47.125 51.421875 43.28125 58.90625 
Q 39.453125 66.40625 31.78125 66.40625 
z
M 31.78125 74.21875 
Q 44.046875 74.21875 50.515625 64.515625 
Q 56.984375 54.828125 56.984375 36.375 
Q 56.984375 17.96875 50.515625 8.265625 
Q 44.046875 -1.421875 31.78125 -1.421875 
Q 19.53125 -1.421875 13.0625 8.265625 
Q 6.59375 17.96875 6.59375 36.375 
Q 6.59375 54.828125 13.0625 64.515625 
Q 19.53125 74.21875 31.78125 74.21875 
z
" id="DejaVuSans-48"/>
       </defs>
       <use xlink:href="#DejaVuSans-8722"/>
       <use x="83.789062" xlink:href="#DejaVuSans-49"/>
       <use x="147.412109" xlink:href="#DejaVuSans-48"/>
      </g>
     </g>
    </g>
    <g id="xtick_2">
     <g id="line2d_3">
      <path clip-path="url(#pffde66902a)" d="M 137.338626 273.803725 
L 137.338626 75.252275 
" style="fill:none;stroke:#b0b0b0;stroke-linecap:square;stroke-width:0.2;"/>
     </g>
     <g id="line2d_4">
      <g>
       <use style="stroke:#000000;stroke-width:0.8;" x="137.338626" xlink:href="#m339212caac" y="273.803725"/>
      </g>
     </g>
     <g id="text_2">
      <!-- −5 -->
      <g transform="translate(129.967532 288.402163)scale(0.1 -0.1)">
       <defs>
        <path d="M 10.796875 72.90625 
L 49.515625 72.90625 
L 49.515625 64.59375 
L 19.828125 64.59375 
L 19.828125 46.734375 
Q 21.96875 47.46875 24.109375 47.828125 
Q 26.265625 48.1875 28.421875 48.1875 
Q 40.625 48.1875 47.75 41.5 
Q 54.890625 34.8125 54.890625 23.390625 
Q 54.890625 11.625 47.5625 5.09375 
Q 40.234375 -1.421875 26.90625 -1.421875 
Q 22.3125 -1.421875 17.546875 -0.640625 
Q 12.796875 0.140625 7.71875 1.703125 
L 7.71875 11.625 
Q 12.109375 9.234375 16.796875 8.0625 
Q 21.484375 6.890625 26.703125 6.890625 
Q 35.15625 6.890625 40.078125 11.328125 
Q 45.015625 15.765625 45.015625 23.390625 
Q 45.015625 31 40.078125 35.4375 
Q 35.15625 39.890625 26.703125 39.890625 
Q 22.75 39.890625 18.8125 39.015625 
Q 14.890625 38.140625 10.796875 36.28125 
z
" id="DejaVuSans-53"/>
       </defs>
       <use xlink:href="#DejaVuSans-8722"/>
       <use x="83.789062" xlink:href="#DejaVuSans-53"/>
      </g>
     </g>
    </g>
    <g id="xtick_3">
     <g id="line2d_5">
      <path clip-path="url(#pffde66902a)" d="M 183.000916 273.803725 
L 183.000916 75.252275 
" style="fill:none;stroke:#b0b0b0;stroke-linecap:square;stroke-width:0.2;"/>
     </g>
     <g id="line2d_6">
      <g>
       <use style="stroke:#000000;stroke-width:0.8;" x="183.000916" xlink:href="#m339212caac" y="273.803725"/>
      </g>
     </g>
     <g id="text_3">
      <!-- 0 -->
      <g transform="translate(179.819666 288.402163)scale(0.1 -0.1)">
       <use xlink:href="#DejaVuSans-48"/>
      </g>
     </g>
    </g>
    <g id="xtick_4">
     <g id="line2d_7">
      <path clip-path="url(#pffde66902a)" d="M 228.663206 273.803725 
L 228.663206 75.252275 
" style="fill:none;stroke:#b0b0b0;stroke-linecap:square;stroke-width:0.2;"/>
     </g>
     <g id="line2d_8">
      <g>
       <use style="stroke:#000000;stroke-width:0.8;" x="228.663206" xlink:href="#m339212caac" y="273.803725"/>
      </g>
     </g>
     <g id="text_4">
      <!-- 5 -->
      <g transform="translate(225.481956 288.402163)scale(0.1 -0.1)">
       <use xlink:href="#DejaVuSans-53"/>
      </g>
     </g>
    </g>
    <g id="xtick_5">
     <g id="line2d_9">
      <path clip-path="url(#pffde66902a)" d="M 274.325496 273.803725 
L 274.325496 75.252275 
" style="fill:none;stroke:#b0b0b0;stroke-linecap:square;stroke-width:0.2;"/>
     </g>
     <g id="line2d_10">
      <g>
       <use style="stroke:#000000;stroke-width:0.8;" x="274.325496" xlink:href="#m339212caac" y="273.803725"/>
      </g>
     </g>
     <g id="text_5">
      <!-- 10 -->
      <g transform="translate(267.962996 288.402163)scale(0.1 -0.1)">
       <use xlink:href="#DejaVuSans-49"/>
       <use x="63.623047" xlink:href="#DejaVuSans-48"/>
      </g>
     </g>
    </g>
    <g id="xtick_6">
     <g id="line2d_11">
      <path clip-path="url(#pffde66902a)" d="M 319.987786 273.803725 
L 319.987786 75.252275 
" style="fill:none;stroke:#b0b0b0;stroke-linecap:square;stroke-width:0.2;"/>
     </g>
     <g id="line2d_12">
      <g>
       <use style="stroke:#000000;stroke-width:0.8;" x="319.987786" xlink:href="#m339212caac" y="273.803725"/>
      </g>
     </g>
     <g id="text_6">
      <!-- 15 -->
      <g transform="translate(313.625286 288.402163)scale(0.1 -0.1)">
       <use xlink:href="#DejaVuSans-49"/>
       <use x="63.623047" xlink:href="#DejaVuSans-53"/>
      </g>
     </g>
    </g>
    <g id="xtick_7">
     <g id="line2d_13">
      <path clip-path="url(#pffde66902a)" d="M 365.650076 273.803725 
L 365.650076 75.252275 
" style="fill:none;stroke:#b0b0b0;stroke-linecap:square;stroke-width:0.2;"/>
     </g>
     <g id="line2d_14">
      <g>
       <use style="stroke:#000000;stroke-width:0.8;" x="365.650076" xlink:href="#m339212caac" y="273.803725"/>
      </g>
     </g>
     <g id="text_7">
      <!-- 20 -->
      <g transform="translate(359.287576 288.402163)scale(0.1 -0.1)">
       <defs>
        <path d="M 19.1875 8.296875 
L 53.609375 8.296875 
L 53.609375 0 
L 7.328125 0 
L 7.328125 8.296875 
Q 12.9375 14.109375 22.625 23.890625 
Q 32.328125 33.6875 34.8125 36.53125 
Q 39.546875 41.84375 41.421875 45.53125 
Q 43.3125 49.21875 43.3125 52.78125 
Q 43.3125 58.59375 39.234375 62.25 
Q 35.15625 65.921875 28.609375 65.921875 
Q 23.96875 65.921875 18.8125 64.3125 
Q 13.671875 62.703125 7.8125 59.421875 
L 7.8125 69.390625 
Q 13.765625 71.78125 18.9375 73 
Q 24.125 74.21875 28.421875 74.21875 
Q 39.75 74.21875 46.484375 68.546875 
Q 53.21875 62.890625 53.21875 53.421875 
Q 53.21875 48.921875 51.53125 44.890625 
Q 49.859375 40.875 45.40625 35.40625 
Q 44.1875 33.984375 37.640625 27.21875 
Q 31.109375 20.453125 19.1875 8.296875 
z
" id="DejaVuSans-50"/>
       </defs>
       <use xlink:href="#DejaVuSans-50"/>
       <use x="63.623047" xlink:href="#DejaVuSans-48"/>
      </g>
     </g>
    </g>
    <g id="xtick_8">
     <g id="line2d_15">
      <path clip-path="url(#pffde66902a)" d="M 411.312366 273.803725 
L 411.312366 75.252275 
" style="fill:none;stroke:#b0b0b0;stroke-linecap:square;stroke-width:0.2;"/>
     </g>
     <g id="line2d_16">
      <g>
       <use style="stroke:#000000;stroke-width:0.8;" x="411.312366" xlink:href="#m339212caac" y="273.803725"/>
      </g>
     </g>
     <g id="text_8">
      <!-- 25 -->
      <g transform="translate(404.949866 288.402163)scale(0.1 -0.1)">
       <use xlink:href="#DejaVuSans-50"/>
       <use x="63.623047" xlink:href="#DejaVuSans-53"/>
      </g>
     </g>
    </g>
    <g id="text_9">
     <!-- X / m -->
     <g transform="translate(217.739062 305.119663)scale(0.14 -0.14)">
      <defs>
       <path d="M 6.296875 72.90625 
L 16.890625 72.90625 
L 35.015625 45.796875 
L 53.21875 72.90625 
L 63.8125 72.90625 
L 40.375 37.890625 
L 65.375 0 
L 54.78125 0 
L 34.28125 31 
L 13.625 0 
L 2.984375 0 
L 29 38.921875 
z
" id="DejaVuSans-88"/>
       <path id="DejaVuSans-32"/>
       <path d="M 25.390625 72.90625 
L 33.6875 72.90625 
L 8.296875 -9.28125 
L 0 -9.28125 
z
" id="DejaVuSans-47"/>
       <path d="M 52 44.1875 
Q 55.375 50.25 60.0625 53.125 
Q 64.75 56 71.09375 56 
Q 79.640625 56 84.28125 50.015625 
Q 88.921875 44.046875 88.921875 33.015625 
L 88.921875 0 
L 79.890625 0 
L 79.890625 32.71875 
Q 79.890625 40.578125 77.09375 44.375 
Q 74.3125 48.1875 68.609375 48.1875 
Q 61.625 48.1875 57.5625 43.546875 
Q 53.515625 38.921875 53.515625 30.90625 
L 53.515625 0 
L 44.484375 0 
L 44.484375 32.71875 
Q 44.484375 40.625 41.703125 44.40625 
Q 38.921875 48.1875 33.109375 48.1875 
Q 26.21875 48.1875 22.15625 43.53125 
Q 18.109375 38.875 18.109375 30.90625 
L 18.109375 0 
L 9.078125 0 
L 9.078125 54.6875 
L 18.109375 54.6875 
L 18.109375 46.1875 
Q 21.1875 51.21875 25.484375 53.609375 
Q 29.78125 56 35.6875 56 
Q 41.65625 56 45.828125 52.96875 
Q 50 49.953125 52 44.1875 
z
" id="DejaVuSans-109"/>
      </defs>
      <use xlink:href="#DejaVuSans-88"/>
      <use x="68.505859" xlink:href="#DejaVuSans-32"/>
      <use x="100.292969" xlink:href="#DejaVuSans-47"/>
      <use x="133.984375" xlink:href="#DejaVuSans-32"/>
      <use x="165.771484" xlink:href="#DejaVuSans-109"/>
     </g>
    </g>
   </g>
   <g id="matplotlib.axis_2">
    <g id="ytick_1">
     <g id="line2d_17">
      <path clip-path="url(#pffde66902a)" d="M 57.6 262.78571 
L 414.72 262.78571 
" style="fill:none;stroke:#b0b0b0;stroke-linecap:square;stroke-width:0.2;"/>
     </g>
     <g id="line2d_18">
      <defs>
       <path d="M 0 0 
L -3.5 0 
" id="m8144dc82bf" style="stroke:#000000;stroke-width:0.8;"/>
      </defs>
      <g>
       <use style="stroke:#000000;stroke-width:0.8;" x="57.6" xlink:href="#m8144dc82bf" y="262.78571"/>
      </g>
     </g>
     <g id="text_10">
      <!-- −12.5 -->
      <g transform="translate(19.954687 266.584929)scale(0.1 -0.1)">
       <defs>
        <path d="M 10.6875 12.40625 
L 21 12.40625 
L 21 0 
L 10.6875 0 
z
" id="DejaVuSans-46"/>
       </defs>
       <use xlink:href="#DejaVuSans-8722"/>
       <use x="83.789062" xlink:href="#DejaVuSans-49"/>
       <use x="147.412109" xlink:href="#DejaVuSans-50"/>
       <use x="211.035156" xlink:href="#DejaVuSans-46"/>
       <use x="242.822266" xlink:href="#DejaVuSans-53"/>
      </g>
     </g>
    </g>
    <g id="ytick_2">
     <g id="line2d_19">
      <path clip-path="url(#pffde66902a)" d="M 57.6 239.954565 
L 414.72 239.954565 
" style="fill:none;stroke:#b0b0b0;stroke-linecap:square;stroke-width:0.2;"/>
     </g>
     <g id="line2d_20">
      <g>
       <use style="stroke:#000000;stroke-width:0.8;" x="57.6" xlink:href="#m8144dc82bf" y="239.954565"/>
      </g>
     </g>
     <g id="text_11">
      <!-- −10.0 -->
      <g transform="translate(19.954687 243.753784)scale(0.1 -0.1)">
       <use xlink:href="#DejaVuSans-8722"/>
       <use x="83.789062" xlink:href="#DejaVuSans-49"/>
       <use x="147.412109" xlink:href="#DejaVuSans-48"/>
       <use x="211.035156" xlink:href="#DejaVuSans-46"/>
       <use x="242.822266" xlink:href="#DejaVuSans-48"/>
      </g>
     </g>
    </g>
    <g id="ytick_3">
     <g id="line2d_21">
      <path clip-path="url(#pffde66902a)" d="M 57.6 217.12342 
L 414.72 217.12342 
" style="fill:none;stroke:#b0b0b0;stroke-linecap:square;stroke-width:0.2;"/>
     </g>
     <g id="line2d_22">
      <g>
       <use style="stroke:#000000;stroke-width:0.8;" x="57.6" xlink:href="#m8144dc82bf" y="217.12342"/>
      </g>
     </g>
     <g id="text_12">
      <!-- −7.5 -->
      <g transform="translate(26.317187 220.922639)scale(0.1 -0.1)">
       <defs>
        <path d="M 8.203125 72.90625 
L 55.078125 72.90625 
L 55.078125 68.703125 
L 28.609375 0 
L 18.3125 0 
L 43.21875 64.59375 
L 8.203125 64.59375 
z
" id="DejaVuSans-55"/>
       </defs>
       <use xlink:href="#DejaVuSans-8722"/>
       <use x="83.789062" xlink:href="#DejaVuSans-55"/>
       <use x="147.412109" xlink:href="#DejaVuSans-46"/>
       <use x="179.199219" xlink:href="#DejaVuSans-53"/>
      </g>
     </g>
    </g>
    <g id="ytick_4">
     <g id="line2d_23">
      <path clip-path="url(#pffde66902a)" d="M 57.6 194.292275 
L 414.72 194.292275 
" style="fill:none;stroke:#b0b0b0;stroke-linecap:square;stroke-width:0.2;"/>
     </g>
     <g id="line2d_24">
      <g>
       <use style="stroke:#000000;stroke-width:0.8;" x="57.6" xlink:href="#m8144dc82bf" y="194.292275"/>
      </g>
     </g>
     <g id="text_13">
      <!-- −5.0 -->
      <g transform="translate(26.317187 198.091494)scale(0.1 -0.1)">
       <use xlink:href="#DejaVuSans-8722"/>
       <use x="83.789062" xlink:href="#DejaVuSans-53"/>
       <use x="147.412109" xlink:href="#DejaVuSans-46"/>
       <use x="179.199219" xlink:href="#DejaVuSans-48"/>
      </g>
     </g>
    </g>
    <g id="ytick_5">
     <g id="line2d_25">
      <path clip-path="url(#pffde66902a)" d="M 57.6 171.46113 
L 414.72 171.46113 
" style="fill:none;stroke:#b0b0b0;stroke-linecap:square;stroke-width:0.2;"/>
     </g>
     <g id="line2d_26">
      <g>
       <use style="stroke:#000000;stroke-width:0.8;" x="57.6" xlink:href="#m8144dc82bf" y="171.46113"/>
      </g>
     </g>
     <g id="text_14">
      <!-- −2.5 -->
      <g transform="translate(26.317187 175.260349)scale(0.1 -0.1)">
       <use xlink:href="#DejaVuSans-8722"/>
       <use x="83.789062" xlink:href="#DejaVuSans-50"/>
       <use x="147.412109" xlink:href="#DejaVuSans-46"/>
       <use x="179.199219" xlink:href="#DejaVuSans-53"/>
      </g>
     </g>
    </g>
    <g id="ytick_6">
     <g id="line2d_27">
      <path clip-path="url(#pffde66902a)" d="M 57.6 148.629985 
L 414.72 148.629985 
" style="fill:none;stroke:#b0b0b0;stroke-linecap:square;stroke-width:0.2;"/>
     </g>
     <g id="line2d_28">
      <g>
       <use style="stroke:#000000;stroke-width:0.8;" x="57.6" xlink:href="#m8144dc82bf" y="148.629985"/>
      </g>
     </g>
     <g id="text_15">
      <!-- 0.0 -->
      <g transform="translate(34.696875 152.429203)scale(0.1 -0.1)">
       <use xlink:href="#DejaVuSans-48"/>
       <use x="63.623047" xlink:href="#DejaVuSans-46"/>
       <use x="95.410156" xlink:href="#DejaVuSans-48"/>
      </g>
     </g>
    </g>
    <g id="ytick_7">
     <g id="line2d_29">
      <path clip-path="url(#pffde66902a)" d="M 57.6 125.79884 
L 414.72 125.79884 
" style="fill:none;stroke:#b0b0b0;stroke-linecap:square;stroke-width:0.2;"/>
     </g>
     <g id="line2d_30">
      <g>
       <use style="stroke:#000000;stroke-width:0.8;" x="57.6" xlink:href="#m8144dc82bf" y="125.79884"/>
      </g>
     </g>
     <g id="text_16">
      <!-- 2.5 -->
      <g transform="translate(34.696875 129.598058)scale(0.1 -0.1)">
       <use xlink:href="#DejaVuSans-50"/>
       <use x="63.623047" xlink:href="#DejaVuSans-46"/>
       <use x="95.410156" xlink:href="#DejaVuSans-53"/>
      </g>
     </g>
    </g>
    <g id="ytick_8">
     <g id="line2d_31">
      <path clip-path="url(#pffde66902a)" d="M 57.6 102.967695 
L 414.72 102.967695 
" style="fill:none;stroke:#b0b0b0;stroke-linecap:square;stroke-width:0.2;"/>
     </g>
     <g id="line2d_32">
      <g>
       <use style="stroke:#000000;stroke-width:0.8;" x="57.6" xlink:href="#m8144dc82bf" y="102.967695"/>
      </g>
     </g>
     <g id="text_17">
      <!-- 5.0 -->
      <g transform="translate(34.696875 106.766913)scale(0.1 -0.1)">
       <use xlink:href="#DejaVuSans-53"/>
       <use x="63.623047" xlink:href="#DejaVuSans-46"/>
       <use x="95.410156" xlink:href="#DejaVuSans-48"/>
      </g>
     </g>
    </g>
    <g id="ytick_9">
     <g id="line2d_33">
      <path clip-path="url(#pffde66902a)" d="M 57.6 80.13655 
L 414.72 80.13655 
" style="fill:none;stroke:#b0b0b0;stroke-linecap:square;stroke-width:0.2;"/>
     </g>
     <g id="line2d_34">
      <g>
       <use style="stroke:#000000;stroke-width:0.8;" x="57.6" xlink:href="#m8144dc82bf" y="80.13655"/>
      </g>
     </g>
     <g id="text_18">
      <!-- 7.5 -->
      <g transform="translate(34.696875 83.935768)scale(0.1 -0.1)">
       <use xlink:href="#DejaVuSans-55"/>
       <use x="63.623047" xlink:href="#DejaVuSans-46"/>
       <use x="95.410156" xlink:href="#DejaVuSans-53"/>
      </g>
     </g>
    </g>
    <g id="text_19">
     <!-- Y / m -->
     <g transform="translate(13.043125 192.429406)rotate(-90)scale(0.14 -0.14)">
      <defs>
       <path d="M -0.203125 72.90625 
L 10.40625 72.90625 
L 30.609375 42.921875 
L 50.6875 72.90625 
L 61.28125 72.90625 
L 35.5 34.71875 
L 35.5 0 
L 25.59375 0 
L 25.59375 34.71875 
z
" id="DejaVuSans-89"/>
      </defs>
      <use xlink:href="#DejaVuSans-89"/>
      <use x="61.083984" xlink:href="#DejaVuSans-32"/>
      <use x="92.871094" xlink:href="#DejaVuSans-47"/>
      <use x="126.5625" xlink:href="#DejaVuSans-32"/>
      <use x="158.349609" xlink:href="#DejaVuSans-109"/>
     </g>
    </g>
   </g>
   <g id="patch_3">
    <path clip-path="url(#pffde66902a)" d="M 29.979082 124.898586 
L 166.403376 137.300795 
L 119.475034 176.407746 
L -16.94926 164.005538 
z
" style="opacity:0.5;"/>
   </g>
   <g id="patch_4">
    <path clip-path="url(#pffde66902a)" d="M 198.235711 140.194643 
L 334.660004 152.596852 
L 287.731662 191.703804 
L 151.307369 179.301595 
z
" style="opacity:0.5;"/>
   </g>
   <g id="line2d_35">
    <path clip-path="url(#pffde66902a)" d="M 320.148646 194.314357 
L 357.819522 173.951721 
L 349.386116 158.349921 
L 311.71524 178.712557 
L 320.148646 194.314357 
" style="fill:none;stroke:#008000;stroke-dasharray:1.48,0.64;stroke-dashoffset:0;stroke-width:0.4;"/>
   </g>
   <g id="line2d_36">
    <path clip-path="url(#pffde66902a)" d="M 148.08386 178.820506 
L 180.980705 151.406468 
L 169.626885 137.781884 
L 136.73004 165.195922 
L 148.08386 178.820506 
" style="fill:none;stroke:#ff0000;stroke-dasharray:1.48,0.64;stroke-dashoffset:0;stroke-width:0.4;"/>
   </g>
   <g id="line2d_37">
    <path clip-path="url(#pffde66902a)" d="M 320.148646 194.314357 
L 357.819522 173.951721 
L 349.386116 158.349921 
L 311.71524 178.712557 
L 320.148646 194.314357 
" style="fill:none;stroke:#0000ff;stroke-dasharray:0.555,0.24;stroke-dashoffset:0;stroke-width:0.15;"/>
   </g>
   <g id="line2d_38">
    <path clip-path="url(#pffde66902a)" d="M 320.148646 194.314357 
L 357.819522 173.951721 
L 349.386116 158.349921 
L 311.71524 178.712557 
L 320.148646 194.314357 
" style="fill:none;stroke:#0000ff;stroke-dasharray:0.555,0.24;stroke-dashoffset:0;stroke-width:0.15;"/>
   </g>
   <g id="line2d_39">
    <path clip-path="url(#pffde66902a)" d="M 320.010775 194.397849 
L 357.662692 174.000176 
L 349.214775 158.406228 
L 311.562859 178.803902 
L 320.010775 194.397849 
" style="fill:none;stroke:#0000ff;stroke-dasharray:0.555,0.24;stroke-dashoffset:0;stroke-width:0.15;"/>
   </g>
   <g id="line2d_40">
    <path clip-path="url(#pffde66902a)" d="M 319.737005 194.56253 
L 357.354237 174.100963 
L 348.879858 158.52138 
L 311.262626 178.982947 
L 319.737005 194.56253 
" style="fill:none;stroke:#0000ff;stroke-dasharray:0.555,0.24;stroke-dashoffset:0;stroke-width:0.15;"/>
   </g>
   <g id="line2d_41">
    <path clip-path="url(#pffde66902a)" d="M 319.329437 194.806441 
L 356.89944 174.258284 
L 348.389198 158.698262 
L 310.819196 179.246419 
L 319.329437 194.806441 
" style="fill:none;stroke:#0000ff;stroke-dasharray:0.555,0.24;stroke-dashoffset:0;stroke-width:0.15;"/>
   </g>
   <g id="line2d_42">
    <path clip-path="url(#pffde66902a)" d="M 318.790212 195.127869 
L 356.303661 174.476646 
L 347.750734 158.940046 
L 310.237285 179.591269 
L 318.790212 195.127869 
" style="fill:none;stroke:#0000ff;stroke-dasharray:0.555,0.24;stroke-dashoffset:0;stroke-width:0.15;"/>
   </g>
   <g id="line2d_43">
    <path clip-path="url(#pffde66902a)" d="M 318.121427 195.525238 
L 355.572339 174.76082 
L 346.972531 159.25012 
L 309.521619 180.014538 
L 318.121427 195.525238 
" style="fill:none;stroke:#0000ff;stroke-dasharray:0.555,0.24;stroke-dashoffset:0;stroke-width:0.15;"/>
   </g>
   <g id="line2d_44">
    <path clip-path="url(#pffde66902a)" d="M 317.32506 195.997011 
L 354.710972 175.115788 
L 346.062788 159.632009 
L 308.676876 180.513232 
L 317.32506 195.997011 
" style="fill:none;stroke:#0000ff;stroke-dasharray:0.555,0.24;stroke-dashoffset:0;stroke-width:0.15;"/>
   </g>
   <g id="line2d_45">
    <path clip-path="url(#pffde66902a)" d="M 316.402906 196.541596 
L 353.725084 175.546669 
L 345.029808 160.089286 
L 307.707631 181.084214 
L 316.402906 196.541596 
" style="fill:none;stroke:#0000ff;stroke-dasharray:0.555,0.24;stroke-dashoffset:0;stroke-width:0.15;"/>
   </g>
   <g id="line2d_46">
    <path clip-path="url(#pffde66902a)" d="M 315.356523 197.157249 
L 352.620177 176.058624 
L 343.881954 160.625479 
L 306.6183 181.724104 
L 315.356523 197.157249 
" style="fill:none;stroke:#0000ff;stroke-dasharray:0.555,0.24;stroke-dashoffset:0;stroke-width:0.15;"/>
   </g>
   <g id="line2d_47">
    <path clip-path="url(#pffde66902a)" d="M 314.187181 197.841973 
L 351.40167 176.656749 
L 342.62758 161.243967 
L 305.413092 182.429191 
L 314.187181 197.841973 
" style="fill:none;stroke:#0000ff;stroke-dasharray:0.555,0.24;stroke-dashoffset:0;stroke-width:0.15;"/>
   </g>
   <g id="line2d_48">
    <path clip-path="url(#pffde66902a)" d="M 312.89583 198.593432 
L 350.074806 177.345947 
L 341.274931 161.947872 
L 304.095955 183.195357 
L 312.89583 198.593432 
" style="fill:none;stroke:#0000ff;stroke-dasharray:0.555,0.24;stroke-dashoffset:0;stroke-width:0.15;"/>
   </g>
   <g id="line2d_49">
    <path clip-path="url(#pffde66902a)" d="M 311.483071 199.408845 
L 348.64456 178.130792 
L 339.832024 162.739959 
L 302.670535 184.018013 
L 311.483071 199.408845 
" style="fill:none;stroke:#0000ff;stroke-dasharray:0.555,0.24;stroke-dashoffset:0;stroke-width:0.15;"/>
   </g>
   <g id="line2d_50">
    <path clip-path="url(#pffde66902a)" d="M 309.949145 200.284902 
L 347.115517 179.015376 
L 338.306513 163.622522 
L 301.140142 184.892047 
L 309.949145 200.284902 
" style="fill:none;stroke:#0000ff;stroke-dasharray:0.555,0.24;stroke-dashoffset:0;stroke-width:0.15;"/>
   </g>
   <g id="line2d_51">
    <path clip-path="url(#pffde66902a)" d="M 308.293944 201.217664 
L 345.491746 180.003154 
L 336.705528 164.597283 
L 299.507726 185.811792 
L 308.293944 201.217664 
" style="fill:none;stroke:#0000ff;stroke-dasharray:0.555,0.24;stroke-dashoffset:0;stroke-width:0.15;"/>
   </g>
   <g id="line2d_52">
    <path clip-path="url(#pffde66902a)" d="M 306.517026 202.202483 
L 343.776665 181.096769 
L 335.035506 165.665287 
L 297.775867 186.771001 
L 306.517026 202.202483 
" style="fill:none;stroke:#0000ff;stroke-dasharray:0.555,0.24;stroke-dashoffset:0;stroke-width:0.15;"/>
   </g>
   <g id="line2d_53">
    <path clip-path="url(#pffde66902a)" d="M 304.617672 203.233924 
L 341.972908 182.297873 
L 333.302016 166.826798 
L 295.94678 187.762849 
L 304.617672 203.233924 
" style="fill:none;stroke:#0000ff;stroke-dasharray:0.555,0.24;stroke-dashoffset:0;stroke-width:0.15;"/>
   </g>
   <g id="line2d_54">
    <path clip-path="url(#pffde66902a)" d="M 302.594955 204.305698 
L 340.082194 183.606936 
L 331.509579 168.081191 
L 294.022339 188.779952 
L 302.594955 204.305698 
" style="fill:none;stroke:#0000ff;stroke-dasharray:0.555,0.24;stroke-dashoffset:0;stroke-width:0.15;"/>
   </g>
   <g id="line2d_55">
    <path clip-path="url(#pffde66902a)" d="M 300.447847 205.410621 
L 338.10523 185.023041 
L 329.661494 169.426829 
L 292.004111 189.814409 
L 300.447847 205.410621 
" style="fill:none;stroke:#0000ff;stroke-dasharray:0.555,0.24;stroke-dashoffset:0;stroke-width:0.15;"/>
   </g>
   <g id="line2d_56">
    <path clip-path="url(#pffde66902a)" d="M 298.175362 206.540595 
L 336.041633 186.543661 
L 327.759686 170.860936 
L 289.893415 190.85787 
L 298.175362 206.540595 
" style="fill:none;stroke:#0000ff;stroke-dasharray:0.555,0.24;stroke-dashoffset:0;stroke-width:0.15;"/>
   </g>
   <g id="line2d_57">
    <path clip-path="url(#pffde66902a)" d="M 295.776718 207.686633 
L 333.889906 188.164421 
L 325.804571 172.379432 
L 287.691383 191.901644 
L 295.776718 207.686633 
" style="fill:none;stroke:#0000ff;stroke-dasharray:0.555,0.24;stroke-dashoffset:0;stroke-width:0.15;"/>
   </g>
   <g id="line2d_58">
    <path clip-path="url(#pffde66902a)" d="M 293.251555 208.838921 
L 331.647487 189.878852 
L 323.79497 173.976762 
L 285.399037 192.936831 
L 293.251555 208.838921 
" style="fill:none;stroke:#0000ff;stroke-dasharray:0.555,0.24;stroke-dashoffset:0;stroke-width:0.15;"/>
   </g>
   <g id="line2d_59">
    <path clip-path="url(#pffde66902a)" d="M 290.60016 209.986957 
L 329.310866 191.678133 
L 321.728069 175.645675 
L 283.017362 193.9545 
L 290.60016 209.986957 
" style="fill:none;stroke:#0000ff;stroke-dasharray:0.555,0.24;stroke-dashoffset:0;stroke-width:0.15;"/>
   </g>
   <g id="line2d_60">
    <path clip-path="url(#pffde66902a)" d="M 287.823728 211.119756 
L 326.875809 193.550839 
L 319.599452 177.376997 
L 280.547371 194.945915 
L 287.823728 211.119756 
" style="fill:none;stroke:#0000ff;stroke-dasharray:0.555,0.24;stroke-dashoffset:0;stroke-width:0.15;"/>
   </g>
   <g id="line2d_61">
    <path clip-path="url(#pffde66902a)" d="M 284.924623 212.226139 
L 324.33769 195.482721 
L 317.403222 179.159373 
L 277.990156 195.902792 
L 284.924623 212.226139 
" style="fill:none;stroke:#0000ff;stroke-dasharray:0.555,0.24;stroke-dashoffset:0;stroke-width:0.15;"/>
   </g>
   <g id="line2d_62">
    <path clip-path="url(#pffde66902a)" d="M 281.905961 213.294986 
L 321.691986 197.45819 
L 315.133005 180.980378 
L 275.346981 196.817174 
L 281.905961 213.294986 
" style="fill:none;stroke:#0000ff;stroke-dasharray:0.555,0.24;stroke-dashoffset:0;stroke-width:0.15;"/>
   </g>
   <g id="line2d_63">
    <path clip-path="url(#pffde66902a)" d="M 278.771684 214.315359 
L 318.934779 199.460808 
L 312.782606 182.826829 
L 272.619511 197.68138 
L 278.771684 214.315359 
" style="fill:none;stroke:#0000ff;stroke-dasharray:0.555,0.24;stroke-dashoffset:0;stroke-width:0.15;"/>
   </g>
   <g id="line2d_64">
    <path clip-path="url(#pffde66902a)" d="M 275.526578 215.27671 
L 316.063034 201.473536 
L 310.3463 184.684925 
L 269.809845 198.488099 
L 275.526578 215.27671 
" style="fill:none;stroke:#0000ff;stroke-dasharray:0.555,0.24;stroke-dashoffset:0;stroke-width:0.15;"/>
   </g>
   <g id="line2d_65">
    <path clip-path="url(#pffde66902a)" d="M 272.176252 216.169078 
L 313.074833 203.479004 
L 307.819101 186.540415 
L 266.920521 199.230489 
L 272.176252 216.169078 
" style="fill:none;stroke:#0000ff;stroke-dasharray:0.555,0.24;stroke-dashoffset:0;stroke-width:0.15;"/>
   </g>
   <g id="line2d_66">
    <path clip-path="url(#pffde66902a)" d="M 268.72709 216.983272 
L 309.969563 205.459803 
L 305.196994 188.378788 
L 263.954521 199.902256 
L 268.72709 216.983272 
" style="fill:none;stroke:#0000ff;stroke-dasharray:0.555,0.24;stroke-dashoffset:0;stroke-width:0.15;"/>
   </g>
   <g id="line2d_67">
    <path clip-path="url(#pffde66902a)" d="M 265.186185 217.711039 
L 306.748057 207.398781 
L 302.477124 190.185483 
L 260.915252 200.497741 
L 265.186185 217.711039 
" style="fill:none;stroke:#0000ff;stroke-dasharray:0.555,0.24;stroke-dashoffset:0;stroke-width:0.15;"/>
   </g>
   <g id="line2d_68">
    <path clip-path="url(#pffde66902a)" d="M 261.561235 218.345204 
L 303.412661 209.279335 
L 299.657933 191.946114 
L 257.806507 201.011984 
L 261.561235 218.345204 
" style="fill:none;stroke:#0000ff;stroke-dasharray:0.555,0.24;stroke-dashoffset:0;stroke-width:0.15;"/>
   </g>
   <g id="line2d_69">
    <path clip-path="url(#pffde66902a)" d="M 257.860432 218.879779 
L 299.96725 211.085695 
L 296.739246 193.646701 
L 254.632428 201.440786 
L 257.860432 218.879779 
" style="fill:none;stroke:#0000ff;stroke-dasharray:0.555,0.24;stroke-dashoffset:0;stroke-width:0.15;"/>
   </g>
   <g id="line2d_70">
    <path clip-path="url(#pffde66902a)" d="M 254.092335 219.310049 
L 296.41718 212.803182 
L 293.722291 195.27389 
L 251.397445 201.780757 
L 254.092335 219.310049 
" style="fill:none;stroke:#0000ff;stroke-dasharray:0.555,0.24;stroke-dashoffset:0;stroke-width:0.15;"/>
   </g>
   <g id="line2d_71">
    <path clip-path="url(#pffde66902a)" d="M 250.265729 219.632622 
L 292.769189 214.418433 
L 290.609676 196.815166 
L 248.106216 202.029355 
L 250.265729 219.632622 
" style="fill:none;stroke:#0000ff;stroke-dasharray:0.555,0.24;stroke-dashoffset:0;stroke-width:0.15;"/>
   </g>
   <g id="line2d_72">
    <path clip-path="url(#pffde66902a)" d="M 246.389492 219.845447 
L 289.03125 215.919588 
L 287.405313 198.259044 
L 244.763555 202.184902 
L 246.389492 219.845447 
" style="fill:none;stroke:#0000ff;stroke-dasharray:0.555,0.24;stroke-dashoffset:0;stroke-width:0.15;"/>
   </g>
   <g id="line2d_73">
    <path clip-path="url(#pffde66902a)" d="M 242.472458 219.947809 
L 285.212394 217.296437 
L 284.114299 199.595231 
L 241.374364 202.246603 
L 242.472458 219.947809 
" style="fill:none;stroke:#0000ff;stroke-dasharray:0.555,0.24;stroke-dashoffset:0;stroke-width:0.15;"/>
   </g>
   <g id="line2d_74">
    <path clip-path="url(#pffde66902a)" d="M 238.523293 219.940295 
L 281.322505 218.540509 
L 280.742768 200.814753 
L 237.943557 202.21454 
L 238.523293 219.940295 
" style="fill:none;stroke:#0000ff;stroke-dasharray:0.555,0.24;stroke-dashoffset:0;stroke-width:0.15;"/>
   </g>
   <g id="line2d_75">
    <path clip-path="url(#pffde66902a)" d="M 234.550383 219.824738 
L 277.372102 219.64513 
L 277.297715 201.910052 
L 234.475996 202.089661 
L 234.550383 219.824738 
" style="fill:none;stroke:#0000ff;stroke-dasharray:0.555,0.24;stroke-dashoffset:0;stroke-width:0.15;"/>
   </g>
   <g id="line2d_76">
    <path clip-path="url(#pffde66902a)" d="M 230.561732 219.604144 
L 273.37212 220.605424 
L 273.786811 202.87504 
L 230.976423 201.873759 
L 230.561732 219.604144 
" style="fill:none;stroke:#0000ff;stroke-dasharray:0.555,0.24;stroke-dashoffset:0;stroke-width:0.15;"/>
   </g>
   <g id="line2d_77">
    <path clip-path="url(#pffde66902a)" d="M 226.564888 219.282602 
L 269.333694 221.418283 
L 270.218209 203.70512 
L 227.449403 201.56944 
L 226.564888 219.282602 
" style="fill:none;stroke:#0000ff;stroke-dasharray:0.555,0.24;stroke-dashoffset:0;stroke-width:0.15;"/>
   </g>
   <g id="line2d_78">
    <path clip-path="url(#pffde66902a)" d="M 222.566878 218.865194 
L 265.267957 222.08229 
L 266.600353 204.397177 
L 223.899273 201.180081 
L 222.566878 218.865194 
" style="fill:none;stroke:#0000ff;stroke-dasharray:0.555,0.24;stroke-dashoffset:0;stroke-width:0.15;"/>
   </g>
   <g id="line2d_79">
    <path clip-path="url(#pffde66902a)" d="M 218.574165 218.357883 
L 261.185859 222.59763 
L 262.941796 204.949537 
L 220.330103 200.70979 
L 218.574165 218.357883 
" style="fill:none;stroke:#0000ff;stroke-dasharray:0.555,0.24;stroke-dashoffset:0;stroke-width:0.15;"/>
   </g>
   <g id="line2d_80">
    <path clip-path="url(#pffde66902a)" d="M 214.592626 217.767413 
L 257.098002 222.965958 
L 259.251035 205.361897 
L 216.745659 200.163353 
L 214.592626 217.767413 
" style="fill:none;stroke:#0000ff;stroke-dasharray:0.555,0.24;stroke-dashoffset:0;stroke-width:0.15;"/>
   </g>
   <g id="line2d_81">
    <path clip-path="url(#pffde66902a)" d="M 210.627539 217.101203 
L 253.014508 223.190266 
L 255.536359 205.635245 
L 213.14939 199.546182 
L 210.627539 217.101203 
" style="fill:none;stroke:#0000ff;stroke-dasharray:0.555,0.24;stroke-dashoffset:0;stroke-width:0.15;"/>
   </g>
   <g id="line2d_82">
    <path clip-path="url(#pffde66902a)" d="M 206.683599 216.367238 
L 248.94491 223.274733 
L 251.805724 205.771755 
L 209.544413 198.86426 
L 206.683599 216.367238 
" style="fill:none;stroke:#0000ff;stroke-dasharray:0.555,0.24;stroke-dashoffset:0;stroke-width:0.15;"/>
   </g>
   <g id="line2d_83">
    <path clip-path="url(#pffde66902a)" d="M 202.764939 215.573975 
L 244.898065 223.224567 
L 248.06664 205.774678 
L 205.933514 198.124086 
L 202.764939 215.573975 
" style="fill:none;stroke:#0000ff;stroke-dasharray:0.555,0.24;stroke-dashoffset:0;stroke-width:0.15;"/>
   </g>
   <g id="line2d_84">
    <path clip-path="url(#pffde66902a)" d="M 198.875161 214.730243 
L 240.882096 223.045852 
L 244.326095 205.648227 
L 202.319161 197.332617 
L 198.875161 214.730243 
" style="fill:none;stroke:#0000ff;stroke-dasharray:0.555,0.24;stroke-dashoffset:0;stroke-width:0.15;"/>
   </g>
   <g id="line2d_85">
    <path clip-path="url(#pffde66902a)" d="M 195.017392 213.845154 
L 236.904354 222.745395 
L 240.590485 205.397457 
L 198.703523 196.497216 
L 195.017392 213.845154 
" style="fill:none;stroke:#0000ff;stroke-dasharray:0.555,0.24;stroke-dashoffset:0;stroke-width:0.15;"/>
   </g>
   <g id="line2d_86">
    <path clip-path="url(#pffde66902a)" d="M 191.194331 212.92802 
L 232.971403 222.330579 
L 236.865574 205.028153 
L 195.088502 195.625595 
L 191.194331 212.92802 
" style="fill:none;stroke:#0000ff;stroke-dasharray:0.555,0.24;stroke-dashoffset:0;stroke-width:0.15;"/>
   </g>
   <g id="line2d_87">
    <path clip-path="url(#pffde66902a)" d="M 187.408316 211.988273 
L 229.089016 221.809225 
L 233.15647 204.546713 
L 191.475769 194.725761 
L 187.408316 211.988273 
" style="fill:none;stroke:#0000ff;stroke-dasharray:0.555,0.24;stroke-dashoffset:0;stroke-width:0.15;"/>
   </g>
   <g id="line2d_88">
    <path clip-path="url(#pffde66902a)" d="M 183.661395 211.035389 
L 225.262195 221.189468 
L 229.467616 203.960047 
L 187.866816 193.805968 
L 183.661395 211.035389 
" style="fill:none;stroke:#0000ff;stroke-dasharray:0.555,0.24;stroke-dashoffset:0;stroke-width:0.15;"/>
   </g>
   <g id="line2d_89">
    <path clip-path="url(#pffde66902a)" d="M 179.955393 210.078818 
L 221.495191 220.479639 
L 225.802803 203.275483 
L 184.263005 192.874662 
L 179.955393 210.078818 
" style="fill:none;stroke:#0000ff;stroke-dasharray:0.555,0.24;stroke-dashoffset:0;stroke-width:0.15;"/>
   </g>
   <g id="line2d_90">
    <path clip-path="url(#pffde66902a)" d="M 176.291991 209.127919 
L 217.791547 219.688161 
L 222.165185 202.500672 
L 180.665629 191.94043 
L 176.291991 209.127919 
" style="fill:none;stroke:#0000ff;stroke-dasharray:0.555,0.24;stroke-dashoffset:0;stroke-width:0.15;"/>
   </g>
   <g id="line2d_91">
    <path clip-path="url(#pffde66902a)" d="M 172.672798 208.191893 
L 214.154139 218.823462 
L 218.557318 201.643517 
L 177.075978 191.011948 
L 172.672798 208.191893 
" style="fill:none;stroke:#0000ff;stroke-dasharray:0.555,0.24;stroke-dashoffset:0;stroke-width:0.15;"/>
   </g>
   <g id="line2d_92">
    <path clip-path="url(#pffde66902a)" d="M 169.09943 207.279719 
L 210.585225 217.893891 
L 214.9812 200.712101 
L 173.495404 190.097929 
L 169.09943 207.279719 
" style="fill:none;stroke:#0000ff;stroke-dasharray:0.555,0.24;stroke-dashoffset:0;stroke-width:0.15;"/>
   </g>
   <g id="line2d_93">
    <path clip-path="url(#pffde66902a)" d="M 165.573576 206.400094 
L 207.086502 216.907656 
L 211.438323 199.714629 
L 169.925397 189.207067 
L 165.573576 206.400094 
" style="fill:none;stroke:#0000ff;stroke-dasharray:0.555,0.24;stroke-dashoffset:0;stroke-width:0.15;"/>
   </g>
   <g id="line2d_94">
    <path clip-path="url(#pffde66902a)" d="M 162.097072 205.561365 
L 203.659157 215.872763 
L 207.929734 198.659376 
L 166.367649 188.347978 
L 162.097072 205.561365 
" style="fill:none;stroke:#0000ff;stroke-dasharray:0.555,0.24;stroke-dashoffset:0;stroke-width:0.15;"/>
   </g>
   <g id="line2d_95">
    <path clip-path="url(#pffde66902a)" d="M 158.671958 204.771467 
L 200.303929 214.796977 
L 204.456102 197.554646 
L 162.824131 187.529137 
L 158.671958 204.771467 
" style="fill:none;stroke:#0000ff;stroke-dasharray:0.555,0.24;stroke-dashoffset:0;stroke-width:0.15;"/>
   </g>
   <g id="line2d_96">
    <path clip-path="url(#pffde66902a)" d="M 155.300539 204.037858 
L 197.021167 213.687783 
L 201.017788 196.408734 
L 159.297159 186.758809 
L 155.300539 204.037858 
" style="fill:none;stroke:#0000ff;stroke-dasharray:0.555,0.24;stroke-dashoffset:0;stroke-width:0.15;"/>
   </g>
   <g id="line2d_97">
    <path clip-path="url(#pffde66902a)" d="M 151.985427 203.367447 
L 193.810888 212.552361 
L 197.614919 195.229894 
L 155.789458 186.04498 
L 151.985427 203.367447 
" style="fill:none;stroke:#0000ff;stroke-dasharray:0.555,0.24;stroke-dashoffset:0;stroke-width:0.15;"/>
   </g>
   <g id="line2d_98">
    <path clip-path="url(#pffde66902a)" d="M 148.72958 202.766526 
L 190.672839 211.397568 
L 194.247479 194.026314 
L 152.30422 185.395272 
L 148.72958 202.766526 
" style="fill:none;stroke:#0000ff;stroke-dasharray:0.555,0.24;stroke-dashoffset:0;stroke-width:0.15;"/>
   </g>
   <g id="line2d_99">
    <path clip-path="url(#pffde66902a)" d="M 145.536328 202.2407 
L 187.606556 210.229929 
L 190.915382 192.806089 
L 148.845154 184.81686 
L 145.536328 202.2407 
" style="fill:none;stroke:#0000ff;stroke-dasharray:0.555,0.24;stroke-dashoffset:0;stroke-width:0.15;"/>
   </g>
   <g id="line2d_100">
    <path clip-path="url(#pffde66902a)" d="M 142.40938 201.794812 
L 184.611423 209.055628 
L 187.618569 191.577196 
L 145.416526 184.31638 
L 142.40938 201.794812 
" style="fill:none;stroke:#0000ff;stroke-dasharray:0.555,0.24;stroke-dashoffset:0;stroke-width:0.15;"/>
   </g>
   <g id="line2d_101">
    <path clip-path="url(#pffde66902a)" d="M 139.352825 201.432874 
L 181.686734 207.880514 
L 184.357094 190.347468 
L 142.023185 183.899828 
L 139.352825 201.432874 
" style="fill:none;stroke:#0000ff;stroke-dasharray:0.555,0.24;stroke-dashoffset:0;stroke-width:0.15;"/>
   </g>
   <g id="line2d_102">
    <path clip-path="url(#pffde66902a)" d="M 136.371112 201.157995 
L 178.831753 206.710101 
L 181.131217 189.124568 
L 138.670577 183.572462 
L 136.371112 201.157995 
" style="fill:none;stroke:#0000ff;stroke-dasharray:0.555,0.24;stroke-dashoffset:0;stroke-width:0.15;"/>
   </g>
   <g id="line2d_103">
    <path clip-path="url(#pffde66902a)" d="M 133.469014 200.972318 
L 176.045774 205.549578 
L 177.941496 187.915952 
L 135.364735 183.338692 
L 133.469014 200.972318 
" style="fill:none;stroke:#0000ff;stroke-dasharray:0.555,0.24;stroke-dashoffset:0;stroke-width:0.15;"/>
   </g>
   <g id="line2d_104">
    <path clip-path="url(#pffde66902a)" d="M 130.651577 200.876954 
L 173.328188 204.403815 
L 174.788876 186.728836 
L 132.112265 183.201975 
L 130.651577 200.876954 
" style="fill:none;stroke:#0000ff;stroke-dasharray:0.555,0.24;stroke-dashoffset:0;stroke-width:0.15;"/>
   </g>
   <g id="line2d_105">
    <path clip-path="url(#pffde66902a)" d="M 127.924055 200.871937 
L 170.678537 203.277375 
L 171.674776 185.570144 
L 128.920294 183.164706 
L 127.924055 200.871937 
" style="fill:none;stroke:#0000ff;stroke-dasharray:0.555,0.24;stroke-dashoffset:0;stroke-width:0.15;"/>
   </g>
   <g id="line2d_106">
    <path clip-path="url(#pffde66902a)" d="M 125.291825 200.956176 
L 168.096585 202.174517 
L 168.601174 184.446463 
L 125.796414 183.228122 
L 125.291825 200.956176 
" style="fill:none;stroke:#0000ff;stroke-dasharray:0.555,0.24;stroke-dashoffset:0;stroke-width:0.15;"/>
   </g>
   <g id="line2d_107">
    <path clip-path="url(#pffde66902a)" d="M 122.760288 201.127434 
L 165.582375 201.099208 
L 165.570684 183.363978 
L 122.748598 183.392204 
L 122.760288 201.127434 
" style="fill:none;stroke:#0000ff;stroke-dasharray:0.555,0.24;stroke-dashoffset:0;stroke-width:0.15;"/>
   </g>
   <g id="line2d_108">
    <path clip-path="url(#pffde66902a)" d="M 120.334766 201.382309 
L 163.13629 200.055119 
L 162.586619 182.328405 
L 119.785096 183.655596 
L 120.334766 201.382309 
" style="fill:none;stroke:#0000ff;stroke-dasharray:0.555,0.24;stroke-dashoffset:0;stroke-width:0.15;"/>
   </g>
   <g id="line2d_109">
    <path clip-path="url(#pffde66902a)" d="M 118.02038 201.716249 
L 160.759117 199.045628 
L 159.65305 181.344918 
L 116.914313 184.015539 
L 118.02038 201.716249 
" style="fill:none;stroke:#0000ff;stroke-dasharray:0.555,0.24;stroke-dashoffset:0;stroke-width:0.15;"/>
   </g>
   <g id="line2d_110">
    <path clip-path="url(#pffde66902a)" d="M 115.821929 202.12357 
L 158.452098 198.073814 
L 156.774848 180.418069 
L 114.144678 184.467825 
L 115.821929 202.12357 
" style="fill:none;stroke:#0000ff;stroke-dasharray:0.555,0.24;stroke-dashoffset:0;stroke-width:0.15;"/>
   </g>
   <g id="line2d_111">
    <path clip-path="url(#pffde66902a)" d="M 113.743768 202.597512 
L 156.216985 197.142446 
L 153.95771 179.551705 
L 111.484494 185.006771 
L 113.743768 202.597512 
" style="fill:none;stroke:#0000ff;stroke-dasharray:0.555,0.24;stroke-dashoffset:0;stroke-width:0.15;"/>
   </g>
   <g id="line2d_112">
    <path clip-path="url(#pffde66902a)" d="M 111.789689 203.130305 
L 154.056081 196.253974 
L 151.208174 178.748891 
L 108.941782 185.625222 
L 111.789689 203.130305 
" style="fill:none;stroke:#0000ff;stroke-dasharray:0.555,0.24;stroke-dashoffset:0;stroke-width:0.15;"/>
   </g>
   <g id="line2d_113">
    <path clip-path="url(#pffde66902a)" d="M 109.960574 203.709874 
L 151.973806 195.426145 
L 148.543011 178.025911 
L 106.529778 186.30964 
L 109.960574 203.709874 
" style="fill:none;stroke:#0000ff;stroke-dasharray:0.555,0.24;stroke-dashoffset:0;stroke-width:0.15;"/>
   </g>
   <g id="line2d_114">
    <path clip-path="url(#pffde66902a)" d="M 108.254794 204.323766 
L 149.97511 194.67249 
L 145.97793 177.393571 
L 104.257614 187.044847 
L 108.254794 204.323766 
" style="fill:none;stroke:#0000ff;stroke-dasharray:0.555,0.24;stroke-dashoffset:0;stroke-width:0.15;"/>
   </g>
   <g id="line2d_115">
    <path clip-path="url(#pffde66902a)" d="M 106.67007 204.95908 
L 148.067064 194.003683 
L 143.529768 176.85867 
L 102.132774 187.814068 
L 106.67007 204.95908 
" style="fill:none;stroke:#0000ff;stroke-dasharray:0.555,0.24;stroke-dashoffset:0;stroke-width:0.15;"/>
   </g>
   <g id="line2d_116">
    <path clip-path="url(#pffde66902a)" d="M 105.203663 205.602872 
L 146.258289 193.427094 
L 141.215559 176.423878 
L 100.160933 188.599655 
L 105.203663 205.602872 
" style="fill:none;stroke:#0000ff;stroke-dasharray:0.555,0.24;stroke-dashoffset:0;stroke-width:0.15;"/>
   </g>
   <g id="line2d_117">
    <path clip-path="url(#pffde66902a)" d="M 103.852638 206.242531 
L 144.558264 192.946521 
L 139.051577 176.087846 
L 98.345951 189.383856 
L 103.852638 206.242531 
" style="fill:none;stroke:#0000ff;stroke-dasharray:0.555,0.24;stroke-dashoffset:0;stroke-width:0.15;"/>
   </g>
   <g id="line2d_118">
    <path clip-path="url(#pffde66902a)" d="M 102.61415 206.866098 
L 142.976602 192.562103 
L 137.052448 175.845557 
L 96.689995 190.149552 
L 102.61415 206.866098 
" style="fill:none;stroke:#0000ff;stroke-dasharray:0.555,0.24;stroke-dashoffset:0;stroke-width:0.15;"/>
   </g>
   <g id="line2d_119">
    <path clip-path="url(#pffde66902a)" d="M 101.485732 207.462523 
L 141.52238 192.270462 
L 135.230424 175.688852 
L 95.193776 190.880913 
L 101.485732 207.462523 
" style="fill:none;stroke:#0000ff;stroke-dasharray:0.555,0.24;stroke-dashoffset:0;stroke-width:0.15;"/>
   </g>
   <g id="line2d_120">
    <path clip-path="url(#pffde66902a)" d="M 100.465543 208.021864 
L 140.203575 192.065026 
L 133.594878 175.607091 
L 93.856846 191.563929 
L 100.465543 208.021864 
" style="fill:none;stroke:#0000ff;stroke-dasharray:0.555,0.24;stroke-dashoffset:0;stroke-width:0.15;"/>
   </g>
   <g id="line2d_121">
    <path clip-path="url(#pffde66902a)" d="M 99.552549 208.535432 
L 139.026681 191.936493 
L 132.15205 175.587855 
L 92.677919 192.186794 
L 99.552549 208.535432 
" style="fill:none;stroke:#0000ff;stroke-dasharray:0.555,0.24;stroke-dashoffset:0;stroke-width:0.15;"/>
   </g>
   <g id="line2d_122">
    <path clip-path="url(#pffde66902a)" d="M 98.746635 208.995886 
L 137.996495 191.873376 
L 130.905022 175.617622 
L 91.655162 192.740132 
L 98.746635 208.995886 
" style="fill:none;stroke:#0000ff;stroke-dasharray:0.555,0.24;stroke-dashoffset:0;stroke-width:0.15;"/>
   </g>
   <g id="line2d_123">
    <path clip-path="url(#pffde66902a)" d="M 98.048626 209.397282 
L 137.116081 191.862578 
L 129.853894 175.682369 
L 90.786439 193.217074 
L 98.048626 209.397282 
" style="fill:none;stroke:#0000ff;stroke-dasharray:0.555,0.24;stroke-dashoffset:0;stroke-width:0.15;"/>
   </g>
   <g id="line2d_124">
    <path clip-path="url(#pffde66902a)" d="M 97.460238 209.735092 
L 136.386864 191.889936 
L 128.9961 175.768053 
L 90.069473 193.613209 
L 97.460238 209.735092 
" style="fill:none;stroke:#0000ff;stroke-dasharray:0.555,0.24;stroke-dashoffset:0;stroke-width:0.15;"/>
   </g>
   <g id="line2d_125">
    <path clip-path="url(#pffde66902a)" d="M 96.983946 210.006172 
L 135.808821 191.940708 
L 128.326814 175.860967 
L 89.501939 193.926431 
L 96.983946 210.006172 
" style="fill:none;stroke:#0000ff;stroke-dasharray:0.555,0.24;stroke-dashoffset:0;stroke-width:0.15;"/>
   </g>
   <g id="line2d_126">
    <path clip-path="url(#pffde66902a)" d="M 96.622814 210.208696 
L 135.380715 191.999989 
L 127.839382 175.947986 
L 89.081481 194.156693 
L 96.622814 210.208696 
" style="fill:none;stroke:#0000ff;stroke-dasharray:0.555,0.24;stroke-dashoffset:0;stroke-width:0.15;"/>
   </g>
   <g id="line2d_127">
    <path clip-path="url(#pffde66902a)" d="M 96.380271 210.342055 
L 135.100342 192.053043 
L 127.52575 176.016707 
L 88.805679 194.305719 
L 96.380271 210.342055 
" style="fill:none;stroke:#0000ff;stroke-dasharray:0.555,0.24;stroke-dashoffset:0;stroke-width:0.15;"/>
   </g>
   <g id="line2d_128">
    <path clip-path="url(#pffde66902a)" d="M 96.259871 210.406707 
L 134.964753 192.085572 
L 127.376858 176.055527 
L 88.671975 194.376662 
L 96.259871 210.406707 
" style="fill:none;stroke:#0000ff;stroke-dasharray:0.555,0.24;stroke-dashoffset:0;stroke-width:0.15;"/>
   </g>
   <g id="line2d_129">
    <path clip-path="url(#pffde66902a)" d="M 96.265044 210.404002 
L 134.970426 192.083925 
L 127.382969 176.053673 
L 88.677586 194.373749 
L 96.265044 210.404002 
" style="fill:none;stroke:#0000ff;stroke-dasharray:0.555,0.24;stroke-dashoffset:0;stroke-width:0.15;"/>
   </g>
   <g id="line2d_130">
    <path clip-path="url(#pffde66902a)" d="M 96.39885 210.335972 
L 135.113392 192.035258 
L 127.533954 176.001212 
L 88.819412 194.301926 
L 96.39885 210.335972 
" style="fill:none;stroke:#0000ff;stroke-dasharray:0.555,0.24;stroke-dashoffset:0;stroke-width:0.15;"/>
   </g>
   <g id="line2d_131">
    <path clip-path="url(#pffde66902a)" d="M 96.663759 210.205101 
L 135.389301 191.927676 
L 127.819507 175.889074 
L 89.093966 194.1665 
L 96.663759 210.205101 
" style="fill:none;stroke:#0000ff;stroke-dasharray:0.555,0.24;stroke-dashoffset:0;stroke-width:0.15;"/>
   </g>
   <g id="line2d_132">
    <path clip-path="url(#pffde66902a)" d="M 97.061441 210.01409 
L 135.79344 191.750352 
L 128.229316 175.709076 
L 89.497317 193.972814 
L 97.061441 210.01409 
" style="fill:none;stroke:#0000ff;stroke-dasharray:0.555,0.24;stroke-dashoffset:0;stroke-width:0.15;"/>
   </g>
   <g id="line2d_133">
    <path clip-path="url(#pffde66902a)" d="M 97.592605 209.765617 
L 136.320721 191.493647 
L 128.753187 175.453979 
L 90.025071 193.72595 
L 97.592605 209.765617 
" style="fill:none;stroke:#0000ff;stroke-dasharray:0.555,0.24;stroke-dashoffset:0;stroke-width:0.15;"/>
   </g>
   <g id="line2d_134">
    <path clip-path="url(#pffde66902a)" d="M 98.256862 209.462133 
L 136.965638 191.149228 
L 129.381151 175.11757 
L 90.672374 193.430475 
L 98.256862 209.462133 
" style="fill:none;stroke:#0000ff;stroke-dasharray:0.555,0.24;stroke-dashoffset:0;stroke-width:0.15;"/>
   </g>
   <g id="line2d_135">
    <path clip-path="url(#pffde66902a)" d="M 99.052624 209.105671 
L 137.722229 190.710195 
L 130.103544 174.69476 
L 91.433939 193.090236 
L 99.052624 209.105671 
" style="fill:none;stroke:#0000ff;stroke-dasharray:0.555,0.24;stroke-dashoffset:0;stroke-width:0.15;"/>
   </g>
   <g id="line2d_136">
    <path clip-path="url(#pffde66902a)" d="M 99.977047 208.697719 
L 138.584047 190.171211 
L 130.911093 174.181705 
L 92.304094 192.708213 
L 99.977047 208.697719 
" style="fill:none;stroke:#0000ff;stroke-dasharray:0.555,0.24;stroke-dashoffset:0;stroke-width:0.15;"/>
   </g>
   <g id="line2d_137">
    <path clip-path="url(#pffde66902a)" d="M 101.026006 208.239139 
L 139.544167 189.528631 
L 131.795008 173.575918 
L 93.276847 192.286427 
L 101.026006 208.239139 
" style="fill:none;stroke:#0000ff;stroke-dasharray:0.555,0.24;stroke-dashoffset:0;stroke-width:0.15;"/>
   </g>
   <g id="line2d_138">
    <path clip-path="url(#pffde66902a)" d="M 102.1941 207.730158 
L 140.595232 188.780621 
L 132.747077 172.876377 
L 94.345945 191.825914 
L 102.1941 207.730158 
" style="fill:none;stroke:#0000ff;stroke-dasharray:0.555,0.24;stroke-dashoffset:0;stroke-width:0.15;"/>
   </g>
   <g id="line2d_139">
    <path clip-path="url(#pffde66902a)" d="M 103.474705 207.17041 
L 141.729549 187.927261 
L 133.759791 172.083604 
L 95.504947 191.326753 
L 103.474705 207.17041 
" style="fill:none;stroke:#0000ff;stroke-dasharray:0.555,0.24;stroke-dashoffset:0;stroke-width:0.15;"/>
   </g>
   <g id="line2d_140">
    <path clip-path="url(#pffde66902a)" d="M 104.860049 206.55906 
L 142.939235 186.970607 
L 134.826466 171.199701 
L 96.74728 190.788154 
L 104.860049 206.55906 
" style="fill:none;stroke:#0000ff;stroke-dasharray:0.555,0.24;stroke-dashoffset:0;stroke-width:0.15;"/>
   </g>
   <g id="line2d_141">
    <path clip-path="url(#pffde66902a)" d="M 106.341337 205.894961 
L 144.216414 185.914711 
L 135.941377 170.228338 
L 98.0663 190.208589 
L 106.341337 205.894961 
" style="fill:none;stroke:#0000ff;stroke-dasharray:0.555,0.24;stroke-dashoffset:0;stroke-width:0.15;"/>
   </g>
   <g id="line2d_142">
    <path clip-path="url(#pffde66902a)" d="M 107.908896 205.176865 
L 145.553437 184.765583 
L 137.099884 169.17469 
L 99.455344 189.585972 
L 107.908896 205.176865 
" style="fill:none;stroke:#0000ff;stroke-dasharray:0.555,0.24;stroke-dashoffset:0;stroke-width:0.15;"/>
   </g>
   <g id="line2d_143">
    <path clip-path="url(#pffde66902a)" d="M 109.55237 204.403644 
L 146.943125 183.531094 
L 138.298533 168.045309 
L 100.907778 188.917859 
L 109.55237 204.403644 
" style="fill:none;stroke:#0000ff;stroke-dasharray:0.555,0.24;stroke-dashoffset:0;stroke-width:0.15;"/>
   </g>
   <g id="line2d_144">
    <path clip-path="url(#pffde66902a)" d="M 111.260926 203.574522 
L 148.378993 182.220811 
L 139.535123 166.847963 
L 102.417056 188.201673 
L 111.260926 203.574522 
" style="fill:none;stroke:#0000ff;stroke-dasharray:0.555,0.24;stroke-dashoffset:0;stroke-width:0.15;"/>
   </g>
   <g id="line2d_145">
    <path clip-path="url(#pffde66902a)" d="M 113.023493 202.689282 
L 149.855457 180.845785 
L 140.808737 165.591429 
L 103.976773 187.434926 
L 113.023493 202.689282 
" style="fill:none;stroke:#0000ff;stroke-dasharray:0.555,0.24;stroke-dashoffset:0;stroke-width:0.15;"/>
   </g>
   <g id="line2d_146">
    <path clip-path="url(#pffde66902a)" d="M 114.829007 201.748444 
L 151.367976 179.418294 
L 142.119703 164.285285 
L 105.580734 186.615435 
L 114.829007 201.748444 
" style="fill:none;stroke:#0000ff;stroke-dasharray:0.555,0.24;stroke-dashoffset:0;stroke-width:0.15;"/>
   </g>
   <g id="line2d_147">
    <path clip-path="url(#pffde66902a)" d="M 116.666647 200.753392 
L 152.913144 177.951564 
L 143.469521 162.939686 
L 107.223024 185.741514 
L 116.666647 200.753392 
" style="fill:none;stroke:#0000ff;stroke-dasharray:0.555,0.24;stroke-dashoffset:0;stroke-width:0.15;"/>
   </g>
   <g id="line2d_148">
    <path clip-path="url(#pffde66902a)" d="M 118.521508 199.708726 
L 154.485527 176.463916 
L 144.858438 161.569029 
L 108.894418 184.813839 
L 118.521508 199.708726 
" style="fill:none;stroke:#0000ff;stroke-dasharray:0.555,0.24;stroke-dashoffset:0;stroke-width:0.15;"/>
   </g>
   <g id="line2d_149">
    <path clip-path="url(#pffde66902a)" d="M 120.384839 198.620694 
L 156.077194 174.960863 
L 146.278219 160.178488 
L 110.585864 183.838319 
L 120.384839 198.620694 
" style="fill:none;stroke:#0000ff;stroke-dasharray:0.555,0.24;stroke-dashoffset:0;stroke-width:0.15;"/>
   </g>
   <g id="line2d_150">
    <path clip-path="url(#pffde66902a)" d="M 122.248249 197.495927 
L 157.680261 173.447967 
L 147.720539 158.773416 
L 112.288527 182.821377 
L 122.248249 197.495927 
" style="fill:none;stroke:#0000ff;stroke-dasharray:0.555,0.24;stroke-dashoffset:0;stroke-width:0.15;"/>
   </g>
   <g id="line2d_151">
    <path clip-path="url(#pffde66902a)" d="M 124.103637 196.341362 
L 159.286902 171.930919 
L 149.177053 157.35939 
L 113.993788 181.769833 
L 124.103637 196.341362 
" style="fill:none;stroke:#0000ff;stroke-dasharray:0.555,0.24;stroke-dashoffset:0;stroke-width:0.15;"/>
   </g>
   <g id="line2d_152">
    <path clip-path="url(#pffde66902a)" d="M 125.943127 195.164179 
L 160.889372 170.415607 
L 150.639484 155.942242 
L 115.693238 180.690814 
L 125.943127 195.164179 
" style="fill:none;stroke:#0000ff;stroke-dasharray:0.555,0.24;stroke-dashoffset:0;stroke-width:0.15;"/>
   </g>
   <g id="line2d_153">
    <path clip-path="url(#pffde66902a)" d="M 127.759013 193.971754 
L 162.480029 168.908177 
L 152.099678 154.528093 
L 117.378662 179.59167 
L 127.759013 193.971754 
" style="fill:none;stroke:#0000ff;stroke-dasharray:0.555,0.24;stroke-dashoffset:0;stroke-width:0.15;"/>
   </g>
   <g id="line2d_154">
    <path clip-path="url(#pffde66902a)" d="M 129.543718 192.771623 
L 164.051359 167.415073 
L 153.549669 153.123361 
L 119.042029 178.479911 
L 129.543718 192.771623 
" style="fill:none;stroke:#0000ff;stroke-dasharray:0.555,0.24;stroke-dashoffset:0;stroke-width:0.15;"/>
   </g>
   <g id="line2d_155">
    <path clip-path="url(#pffde66902a)" d="M 131.289759 191.571452 
L 165.595989 165.94306 
L 154.981714 151.734764 
L 120.675484 177.363156 
L 131.289759 191.571452 
" style="fill:none;stroke:#0000ff;stroke-dasharray:0.555,0.24;stroke-dashoffset:0;stroke-width:0.15;"/>
   </g>
   <g id="line2d_156">
    <path clip-path="url(#pffde66902a)" d="M 132.989721 190.379017 
L 167.106705 164.499232 
L 156.388312 150.369314 
L 122.271328 176.2491 
L 132.989721 190.379017 
" style="fill:none;stroke:#0000ff;stroke-dasharray:0.555,0.24;stroke-dashoffset:0;stroke-width:0.15;"/>
   </g>
   <g id="line2d_157">
    <path clip-path="url(#pffde66902a)" d="M 134.636243 189.202189 
L 168.576448 163.090996 
L 157.762215 149.034294 
L 123.822011 175.145486 
L 134.636243 189.202189 
" style="fill:none;stroke:#0000ff;stroke-dasharray:0.555,0.24;stroke-dashoffset:0;stroke-width:0.15;"/>
   </g>
   <g id="line2d_158">
    <path clip-path="url(#pffde66902a)" d="M 136.222013 188.048915 
L 169.998305 161.726035 
L 159.0964 147.737219 
L 125.320108 174.060099 
L 136.222013 188.048915 
" style="fill:none;stroke:#0000ff;stroke-dasharray:0.555,0.24;stroke-dashoffset:0;stroke-width:0.15;"/>
   </g>
   <g id="line2d_159">
    <path clip-path="url(#pffde66902a)" d="M 137.739767 186.927204 
L 171.365488 160.412251 
L 160.384034 146.485795 
L 126.758313 173.000748 
L 137.739767 186.927204 
" style="fill:none;stroke:#0000ff;stroke-dasharray:0.555,0.24;stroke-dashoffset:0;stroke-width:0.15;"/>
   </g>
   <g id="line2d_160">
    <path clip-path="url(#pffde66902a)" d="M 139.182289 185.845108 
L 172.671296 159.15769 
L 161.618414 145.287856 
L 128.129407 171.975273 
L 139.182289 185.845108 
" style="fill:none;stroke:#0000ff;stroke-dasharray:0.555,0.24;stroke-dashoffset:0;stroke-width:0.15;"/>
   </g>
   <g id="line2d_161">
    <path clip-path="url(#pffde66902a)" d="M 140.542421 184.810697 
L 173.909066 157.97045 
L 162.792888 144.151293 
L 129.426243 170.99154 
L 140.542421 184.810697 
" style="fill:none;stroke:#0000ff;stroke-dasharray:0.555,0.24;stroke-dashoffset:0;stroke-width:0.15;"/>
   </g>
   <g id="line2d_162">
    <path clip-path="url(#pffde66902a)" d="M 141.813065 183.832035 
L 175.072115 156.858576 
L 163.900765 143.083981 
L 130.641716 170.057441 
L 141.813065 183.832035 
" style="fill:none;stroke:#0000ff;stroke-dasharray:0.555,0.24;stroke-dashoffset:0;stroke-width:0.15;"/>
   </g>
   <g id="line2d_163">
    <path clip-path="url(#pffde66902a)" d="M 142.98719 182.917149 
L 176.15367 155.829949 
L 164.935213 142.093692 
L 131.768733 169.180893 
L 142.98719 182.917149 
" style="fill:none;stroke:#0000ff;stroke-dasharray:0.555,0.24;stroke-dashoffset:0;stroke-width:0.15;"/>
   </g>
   <g id="line2d_164">
    <path clip-path="url(#pffde66902a)" d="M 144.057831 182.073994 
L 177.146804 154.892167 
L 165.889157 141.188012 
L 132.800184 168.369839 
L 144.057831 182.073994 
" style="fill:none;stroke:#0000ff;stroke-dasharray:0.555,0.24;stroke-dashoffset:0;stroke-width:0.15;"/>
   </g>
   <g id="line2d_165">
    <path clip-path="url(#pffde66902a)" d="M 145.018095 181.310424 
L 178.044361 154.052441 
L 166.755173 140.374256 
L 133.728907 167.632239 
L 145.018095 181.310424 
" style="fill:none;stroke:#0000ff;stroke-dasharray:0.555,0.24;stroke-dashoffset:0;stroke-width:0.15;"/>
   </g>
   <g id="line2d_166">
    <path clip-path="url(#pffde66902a)" d="M 145.861154 180.634154 
L 178.838896 153.317485 
L 167.525402 139.659397 
L 134.54766 166.976066 
L 145.861154 180.634154 
" style="fill:none;stroke:#0000ff;stroke-dasharray:0.555,0.24;stroke-dashoffset:0;stroke-width:0.15;"/>
   </g>
   <g id="line2d_167">
    <path clip-path="url(#pffde66902a)" d="M 146.580247 180.052744 
L 179.522626 152.69344 
L 168.191475 139.049998 
L 135.249096 166.409302 
L 146.580247 180.052744 
" style="fill:none;stroke:#0000ff;stroke-dasharray:0.555,0.24;stroke-dashoffset:0;stroke-width:0.15;"/>
   </g>
   <g id="line2d_168">
    <path clip-path="url(#pffde66902a)" d="M 147.168673 179.573572 
L 180.087395 152.185808 
L 168.744457 138.552163 
L 135.825735 165.939927 
L 147.168673 179.573572 
" style="fill:none;stroke:#0000ff;stroke-dasharray:0.555,0.24;stroke-dashoffset:0;stroke-width:0.15;"/>
   </g>
   <g id="line2d_169">
    <path clip-path="url(#pffde66902a)" d="M 147.619792 179.203827 
L 180.524663 151.799424 
L 169.174833 138.171516 
L 136.269962 165.57592 
L 147.619792 179.203827 
" style="fill:none;stroke:#0000ff;stroke-dasharray:0.555,0.24;stroke-dashoffset:0;stroke-width:0.15;"/>
   </g>
   <g id="line2d_170">
    <path clip-path="url(#pffde66902a)" d="M 147.927025 178.950522 
L 180.825516 151.538459 
L 169.472514 137.913194 
L 136.574023 165.325257 
L 147.927025 178.950522 
" style="fill:none;stroke:#0000ff;stroke-dasharray:0.555,0.24;stroke-dashoffset:0;stroke-width:0.15;"/>
   </g>
   <g id="line2d_171">
    <path clip-path="url(#pffde66902a)" d="M 148.08386 178.820506 
L 180.980705 151.406468 
L 169.626885 137.781884 
L 136.73004 165.195922 
L 148.08386 178.820506 
" style="fill:none;stroke:#0000ff;stroke-dasharray:0.555,0.24;stroke-dashoffset:0;stroke-width:0.15;"/>
   </g>
   <g id="line2d_172">
    <path clip-path="url(#pffde66902a)" d="M 323.39542 182.479145 
L 317.173193 185.938296 
L 301.536578 194.737375 
L 294.478252 198.343325 
L 289.266035 200.747205 
L 283.652841 203.055337 
L 277.651347 205.185584 
L 271.285092 207.061292 
L 264.58877 208.616093 
L 257.606897 209.797936 
L 250.391187 210.571907 
L 242.997168 210.921615 
L 235.480641 210.849149 
L 227.894502 210.373829 
L 220.286309 209.530077 
L 212.696779 208.364791 
L 205.159239 206.93453 
L 197.699959 205.302776 
L 186.700837 202.626404 
L 165.564676 197.310208 
L 158.826835 195.790909 
L 152.27416 194.494132 
L 145.933285 193.46523 
L 139.83715 192.738217 
L 134.024738 192.333531 
L 128.539909 192.256005 
L 123.429332 192.493347 
L 118.739691 193.015403 
L 114.52197 193.772164 
L 110.816175 194.688959 
L 107.648813 195.673871 
L 103.935978 197.072477 
L 100.134261 198.761841 
L 103.789516 197.032433 
L 109.707752 194.093222 
L 114.192944 191.65743 
L 119.12611 188.72988 
L 124.288294 185.394192 
L 129.447878 181.816035 
L 135.953471 177.000603 
L 142.816782 171.600668 
L 148.92458 166.576855 
L 148.92458 166.576855 
" style="fill:none;stroke:#ff0000;stroke-linecap:square;stroke-width:0.1;"/>
   </g>
   <g id="patch_5">
    <path d="M 57.6 273.803725 
L 57.6 75.252275 
" style="fill:none;stroke:#000000;stroke-linecap:square;stroke-linejoin:miter;stroke-width:0.8;"/>
   </g>
   <g id="patch_6">
    <path d="M 414.72 273.803725 
L 414.72 75.252275 
" style="fill:none;stroke:#000000;stroke-linecap:square;stroke-linejoin:miter;stroke-width:0.8;"/>
   </g>
   <g id="patch_7">
    <path d="M 57.6 273.803725 
L 414.72 273.803725 
" style="fill:none;stroke:#000000;stroke-linecap:square;stroke-linejoin:miter;stroke-width:0.8;"/>
   </g>
   <g id="patch_8">
    <path d="M 57.6 75.252275 
L 414.72 75.252275 
" style="fill:none;stroke:#000000;stroke-linecap:square;stroke-linejoin:miter;stroke-width:0.8;"/>
   </g>
   <g id="text_20">
    <!-- Case 9 -->
    <g transform="translate(215.751563 69.252275)scale(0.12 -0.12)">
     <defs>
      <path d="M 64.40625 67.28125 
L 64.40625 56.890625 
Q 59.421875 61.53125 53.78125 63.8125 
Q 48.140625 66.109375 41.796875 66.109375 
Q 29.296875 66.109375 22.65625 58.46875 
Q 16.015625 50.828125 16.015625 36.375 
Q 16.015625 21.96875 22.65625 14.328125 
Q 29.296875 6.6875 41.796875 6.6875 
Q 48.140625 6.6875 53.78125 8.984375 
Q 59.421875 11.28125 64.40625 15.921875 
L 64.40625 5.609375 
Q 59.234375 2.09375 53.4375 0.328125 
Q 47.65625 -1.421875 41.21875 -1.421875 
Q 24.65625 -1.421875 15.125 8.703125 
Q 5.609375 18.84375 5.609375 36.375 
Q 5.609375 53.953125 15.125 64.078125 
Q 24.65625 74.21875 41.21875 74.21875 
Q 47.75 74.21875 53.53125 72.484375 
Q 59.328125 70.75 64.40625 67.28125 
z
" id="DejaVuSans-67"/>
      <path d="M 34.28125 27.484375 
Q 23.390625 27.484375 19.1875 25 
Q 14.984375 22.515625 14.984375 16.5 
Q 14.984375 11.71875 18.140625 8.90625 
Q 21.296875 6.109375 26.703125 6.109375 
Q 34.1875 6.109375 38.703125 11.40625 
Q 43.21875 16.703125 43.21875 25.484375 
L 43.21875 27.484375 
z
M 52.203125 31.203125 
L 52.203125 0 
L 43.21875 0 
L 43.21875 8.296875 
Q 40.140625 3.328125 35.546875 0.953125 
Q 30.953125 -1.421875 24.3125 -1.421875 
Q 15.921875 -1.421875 10.953125 3.296875 
Q 6 8.015625 6 15.921875 
Q 6 25.140625 12.171875 29.828125 
Q 18.359375 34.515625 30.609375 34.515625 
L 43.21875 34.515625 
L 43.21875 35.40625 
Q 43.21875 41.609375 39.140625 45 
Q 35.0625 48.390625 27.6875 48.390625 
Q 23 48.390625 18.546875 47.265625 
Q 14.109375 46.140625 10.015625 43.890625 
L 10.015625 52.203125 
Q 14.9375 54.109375 19.578125 55.046875 
Q 24.21875 56 28.609375 56 
Q 40.484375 56 46.34375 49.84375 
Q 52.203125 43.703125 52.203125 31.203125 
z
" id="DejaVuSans-97"/>
      <path d="M 44.28125 53.078125 
L 44.28125 44.578125 
Q 40.484375 46.53125 36.375 47.5 
Q 32.28125 48.484375 27.875 48.484375 
Q 21.1875 48.484375 17.84375 46.4375 
Q 14.5 44.390625 14.5 40.28125 
Q 14.5 37.15625 16.890625 35.375 
Q 19.28125 33.59375 26.515625 31.984375 
L 29.59375 31.296875 
Q 39.15625 29.25 43.1875 25.515625 
Q 47.21875 21.78125 47.21875 15.09375 
Q 47.21875 7.46875 41.1875 3.015625 
Q 35.15625 -1.421875 24.609375 -1.421875 
Q 20.21875 -1.421875 15.453125 -0.5625 
Q 10.6875 0.296875 5.421875 2 
L 5.421875 11.28125 
Q 10.40625 8.6875 15.234375 7.390625 
Q 20.0625 6.109375 24.8125 6.109375 
Q 31.15625 6.109375 34.5625 8.28125 
Q 37.984375 10.453125 37.984375 14.40625 
Q 37.984375 18.0625 35.515625 20.015625 
Q 33.0625 21.96875 24.703125 23.78125 
L 21.578125 24.515625 
Q 13.234375 26.265625 9.515625 29.90625 
Q 5.8125 33.546875 5.8125 39.890625 
Q 5.8125 47.609375 11.28125 51.796875 
Q 16.75 56 26.8125 56 
Q 31.78125 56 36.171875 55.265625 
Q 40.578125 54.546875 44.28125 53.078125 
z
" id="DejaVuSans-115"/>
      <path d="M 56.203125 29.59375 
L 56.203125 25.203125 
L 14.890625 25.203125 
Q 15.484375 15.921875 20.484375 11.0625 
Q 25.484375 6.203125 34.421875 6.203125 
Q 39.59375 6.203125 44.453125 7.46875 
Q 49.3125 8.734375 54.109375 11.28125 
L 54.109375 2.78125 
Q 49.265625 0.734375 44.1875 -0.34375 
Q 39.109375 -1.421875 33.890625 -1.421875 
Q 20.796875 -1.421875 13.15625 6.1875 
Q 5.515625 13.8125 5.515625 26.8125 
Q 5.515625 40.234375 12.765625 48.109375 
Q 20.015625 56 32.328125 56 
Q 43.359375 56 49.78125 48.890625 
Q 56.203125 41.796875 56.203125 29.59375 
z
M 47.21875 32.234375 
Q 47.125 39.59375 43.09375 43.984375 
Q 39.0625 48.390625 32.421875 48.390625 
Q 24.90625 48.390625 20.390625 44.140625 
Q 15.875 39.890625 15.1875 32.171875 
z
" id="DejaVuSans-101"/>
      <path d="M 10.984375 1.515625 
L 10.984375 10.5 
Q 14.703125 8.734375 18.5 7.8125 
Q 22.3125 6.890625 25.984375 6.890625 
Q 35.75 6.890625 40.890625 13.453125 
Q 46.046875 20.015625 46.78125 33.40625 
Q 43.953125 29.203125 39.59375 26.953125 
Q 35.25 24.703125 29.984375 24.703125 
Q 19.046875 24.703125 12.671875 31.3125 
Q 6.296875 37.9375 6.296875 49.421875 
Q 6.296875 60.640625 12.9375 67.421875 
Q 19.578125 74.21875 30.609375 74.21875 
Q 43.265625 74.21875 49.921875 64.515625 
Q 56.59375 54.828125 56.59375 36.375 
Q 56.59375 19.140625 48.40625 8.859375 
Q 40.234375 -1.421875 26.421875 -1.421875 
Q 22.703125 -1.421875 18.890625 -0.6875 
Q 15.09375 0.046875 10.984375 1.515625 
z
M 30.609375 32.421875 
Q 37.25 32.421875 41.125 36.953125 
Q 45.015625 41.5 45.015625 49.421875 
Q 45.015625 57.28125 41.125 61.84375 
Q 37.25 66.40625 30.609375 66.40625 
Q 23.96875 66.40625 20.09375 61.84375 
Q 16.21875 57.28125 16.21875 49.421875 
Q 16.21875 41.5 20.09375 36.953125 
Q 23.96875 32.421875 30.609375 32.421875 
z
" id="DejaVuSans-57"/>
     </defs>
     <use xlink:href="#DejaVuSans-67"/>
     <use x="69.824219" xlink:href="#DejaVuSans-97"/>
     <use x="131.103516" xlink:href="#DejaVuSans-115"/>
     <use x="183.203125" xlink:href="#DejaVuSans-101"/>
     <use x="244.726562" xlink:href="#DejaVuSans-32"/>
     <use x="276.513672" xlink:href="#DejaVuSans-57"/>
    </g>
   </g>
  </g>
 </g>
 <defs>
  <clipPath id="pffde66902a">
   <rect height="198.55145" width="357.12" x="57.6" y="75.252275"/>
  </clipPath>
 </defs>
</svg>
