<?xml version="1.0" encoding="utf-8" standalone="no"?>
<!DOCTYPE svg PUBLIC "-//W3C//DTD SVG 1.1//EN"
  "http://www.w3.org/Graphics/SVG/1.1/DTD/svg11.dtd">
<!-- Created with matplotlib (https://matplotlib.org/) -->
<svg height="345.6pt" version="1.1" viewBox="0 0 460.8 345.6" width="460.8pt" xmlns="http://www.w3.org/2000/svg" xmlns:xlink="http://www.w3.org/1999/xlink">
 <metadata>
  <rdf:RDF xmlns:cc="http://creativecommons.org/ns#" xmlns:dc="http://purl.org/dc/elements/1.1/" xmlns:rdf="http://www.w3.org/1999/02/22-rdf-syntax-ns#">
   <cc:Work>
    <dc:type rdf:resource="http://purl.org/dc/dcmitype/StillImage"/>
    <dc:date>2022-12-08T01:24:24.255786</dc:date>
    <dc:format>image/svg+xml</dc:format>
    <dc:creator>
     <cc:Agent>
      <dc:title>Matplotlib v3.3.4, https://matplotlib.org/</dc:title>
     </cc:Agent>
    </dc:creator>
   </cc:Work>
  </rdf:RDF>
 </metadata>
 <defs>
  <style type="text/css">*{stroke-linecap:butt;stroke-linejoin:round;}</style>
 </defs>
 <g id="figure_1">
  <g id="patch_1">
   <path d="M 0 345.6 
L 460.8 345.6 
L 460.8 0 
L 0 0 
z
" style="fill:#ffffff;"/>
  </g>
  <g id="axes_1">
   <g id="patch_2">
    <path d="M 57.6 273.803725 
L 414.72 273.803725 
L 414.72 75.252275 
L 57.6 75.252275 
z
" style="fill:#ffffff;"/>
   </g>
   <g id="matplotlib.axis_1">
    <g id="xtick_1">
     <g id="line2d_1">
      <path clip-path="url(#p44f802fb1d)" d="M 91.676336 273.803725 
L 91.676336 75.252275 
" style="fill:none;stroke:#b0b0b0;stroke-linecap:square;stroke-width:0.2;"/>
     </g>
     <g id="line2d_2">
      <defs>
       <path d="M 0 0 
L 0 3.5 
" id="m8f631b1980" style="stroke:#000000;stroke-width:0.8;"/>
      </defs>
      <g>
       <use style="stroke:#000000;stroke-width:0.8;" x="91.676336" xlink:href="#m8f631b1980" y="273.803725"/>
      </g>
     </g>
     <g id="text_1">
      <!-- −10 -->
      <g transform="translate(81.123992 288.402163)scale(0.1 -0.1)">
       <defs>
        <path d="M 10.59375 35.5 
L 73.1875 35.5 
L 73.1875 27.203125 
L 10.59375 27.203125 
z
" id="DejaVuSans-8722"/>
        <path d="M 12.40625 8.296875 
L 28.515625 8.296875 
L 28.515625 63.921875 
L 10.984375 60.40625 
L 10.984375 69.390625 
L 28.421875 72.90625 
L 38.28125 72.90625 
L 38.28125 8.296875 
L 54.390625 8.296875 
L 54.390625 0 
L 12.40625 0 
z
" id="DejaVuSans-49"/>
        <path d="M 31.78125 66.40625 
Q 24.171875 66.40625 20.328125 58.90625 
Q 16.5 51.421875 16.5 36.375 
Q 16.5 21.390625 20.328125 13.890625 
Q 24.171875 6.390625 31.78125 6.390625 
Q 39.453125 6.390625 43.28125 13.890625 
Q 47.125 21.390625 47.125 36.375 
Q 47.125 51.421875 43.28125 58.90625 
Q 39.453125 66.40625 31.78125 66.40625 
z
M 31.78125 74.21875 
Q 44.046875 74.21875 50.515625 64.515625 
Q 56.984375 54.828125 56.984375 36.375 
Q 56.984375 17.96875 50.515625 8.265625 
Q 44.046875 -1.421875 31.78125 -1.421875 
Q 19.53125 -1.421875 13.0625 8.265625 
Q 6.59375 17.96875 6.59375 36.375 
Q 6.59375 54.828125 13.0625 64.515625 
Q 19.53125 74.21875 31.78125 74.21875 
z
" id="DejaVuSans-48"/>
       </defs>
       <use xlink:href="#DejaVuSans-8722"/>
       <use x="83.789062" xlink:href="#DejaVuSans-49"/>
       <use x="147.412109" xlink:href="#DejaVuSans-48"/>
      </g>
     </g>
    </g>
    <g id="xtick_2">
     <g id="line2d_3">
      <path clip-path="url(#p44f802fb1d)" d="M 137.338626 273.803725 
L 137.338626 75.252275 
" style="fill:none;stroke:#b0b0b0;stroke-linecap:square;stroke-width:0.2;"/>
     </g>
     <g id="line2d_4">
      <g>
       <use style="stroke:#000000;stroke-width:0.8;" x="137.338626" xlink:href="#m8f631b1980" y="273.803725"/>
      </g>
     </g>
     <g id="text_2">
      <!-- −5 -->
      <g transform="translate(129.967532 288.402163)scale(0.1 -0.1)">
       <defs>
        <path d="M 10.796875 72.90625 
L 49.515625 72.90625 
L 49.515625 64.59375 
L 19.828125 64.59375 
L 19.828125 46.734375 
Q 21.96875 47.46875 24.109375 47.828125 
Q 26.265625 48.1875 28.421875 48.1875 
Q 40.625 48.1875 47.75 41.5 
Q 54.890625 34.8125 54.890625 23.390625 
Q 54.890625 11.625 47.5625 5.09375 
Q 40.234375 -1.421875 26.90625 -1.421875 
Q 22.3125 -1.421875 17.546875 -0.640625 
Q 12.796875 0.140625 7.71875 1.703125 
L 7.71875 11.625 
Q 12.109375 9.234375 16.796875 8.0625 
Q 21.484375 6.890625 26.703125 6.890625 
Q 35.15625 6.890625 40.078125 11.328125 
Q 45.015625 15.765625 45.015625 23.390625 
Q 45.015625 31 40.078125 35.4375 
Q 35.15625 39.890625 26.703125 39.890625 
Q 22.75 39.890625 18.8125 39.015625 
Q 14.890625 38.140625 10.796875 36.28125 
z
" id="DejaVuSans-53"/>
       </defs>
       <use xlink:href="#DejaVuSans-8722"/>
       <use x="83.789062" xlink:href="#DejaVuSans-53"/>
      </g>
     </g>
    </g>
    <g id="xtick_3">
     <g id="line2d_5">
      <path clip-path="url(#p44f802fb1d)" d="M 183.000916 273.803725 
L 183.000916 75.252275 
" style="fill:none;stroke:#b0b0b0;stroke-linecap:square;stroke-width:0.2;"/>
     </g>
     <g id="line2d_6">
      <g>
       <use style="stroke:#000000;stroke-width:0.8;" x="183.000916" xlink:href="#m8f631b1980" y="273.803725"/>
      </g>
     </g>
     <g id="text_3">
      <!-- 0 -->
      <g transform="translate(179.819666 288.402163)scale(0.1 -0.1)">
       <use xlink:href="#DejaVuSans-48"/>
      </g>
     </g>
    </g>
    <g id="xtick_4">
     <g id="line2d_7">
      <path clip-path="url(#p44f802fb1d)" d="M 228.663206 273.803725 
L 228.663206 75.252275 
" style="fill:none;stroke:#b0b0b0;stroke-linecap:square;stroke-width:0.2;"/>
     </g>
     <g id="line2d_8">
      <g>
       <use style="stroke:#000000;stroke-width:0.8;" x="228.663206" xlink:href="#m8f631b1980" y="273.803725"/>
      </g>
     </g>
     <g id="text_4">
      <!-- 5 -->
      <g transform="translate(225.481956 288.402163)scale(0.1 -0.1)">
       <use xlink:href="#DejaVuSans-53"/>
      </g>
     </g>
    </g>
    <g id="xtick_5">
     <g id="line2d_9">
      <path clip-path="url(#p44f802fb1d)" d="M 274.325496 273.803725 
L 274.325496 75.252275 
" style="fill:none;stroke:#b0b0b0;stroke-linecap:square;stroke-width:0.2;"/>
     </g>
     <g id="line2d_10">
      <g>
       <use style="stroke:#000000;stroke-width:0.8;" x="274.325496" xlink:href="#m8f631b1980" y="273.803725"/>
      </g>
     </g>
     <g id="text_5">
      <!-- 10 -->
      <g transform="translate(267.962996 288.402163)scale(0.1 -0.1)">
       <use xlink:href="#DejaVuSans-49"/>
       <use x="63.623047" xlink:href="#DejaVuSans-48"/>
      </g>
     </g>
    </g>
    <g id="xtick_6">
     <g id="line2d_11">
      <path clip-path="url(#p44f802fb1d)" d="M 319.987786 273.803725 
L 319.987786 75.252275 
" style="fill:none;stroke:#b0b0b0;stroke-linecap:square;stroke-width:0.2;"/>
     </g>
     <g id="line2d_12">
      <g>
       <use style="stroke:#000000;stroke-width:0.8;" x="319.987786" xlink:href="#m8f631b1980" y="273.803725"/>
      </g>
     </g>
     <g id="text_6">
      <!-- 15 -->
      <g transform="translate(313.625286 288.402163)scale(0.1 -0.1)">
       <use xlink:href="#DejaVuSans-49"/>
       <use x="63.623047" xlink:href="#DejaVuSans-53"/>
      </g>
     </g>
    </g>
    <g id="xtick_7">
     <g id="line2d_13">
      <path clip-path="url(#p44f802fb1d)" d="M 365.650076 273.803725 
L 365.650076 75.252275 
" style="fill:none;stroke:#b0b0b0;stroke-linecap:square;stroke-width:0.2;"/>
     </g>
     <g id="line2d_14">
      <g>
       <use style="stroke:#000000;stroke-width:0.8;" x="365.650076" xlink:href="#m8f631b1980" y="273.803725"/>
      </g>
     </g>
     <g id="text_7">
      <!-- 20 -->
      <g transform="translate(359.287576 288.402163)scale(0.1 -0.1)">
       <defs>
        <path d="M 19.1875 8.296875 
L 53.609375 8.296875 
L 53.609375 0 
L 7.328125 0 
L 7.328125 8.296875 
Q 12.9375 14.109375 22.625 23.890625 
Q 32.328125 33.6875 34.8125 36.53125 
Q 39.546875 41.84375 41.421875 45.53125 
Q 43.3125 49.21875 43.3125 52.78125 
Q 43.3125 58.59375 39.234375 62.25 
Q 35.15625 65.921875 28.609375 65.921875 
Q 23.96875 65.921875 18.8125 64.3125 
Q 13.671875 62.703125 7.8125 59.421875 
L 7.8125 69.390625 
Q 13.765625 71.78125 18.9375 73 
Q 24.125 74.21875 28.421875 74.21875 
Q 39.75 74.21875 46.484375 68.546875 
Q 53.21875 62.890625 53.21875 53.421875 
Q 53.21875 48.921875 51.53125 44.890625 
Q 49.859375 40.875 45.40625 35.40625 
Q 44.1875 33.984375 37.640625 27.21875 
Q 31.109375 20.453125 19.1875 8.296875 
z
" id="DejaVuSans-50"/>
       </defs>
       <use xlink:href="#DejaVuSans-50"/>
       <use x="63.623047" xlink:href="#DejaVuSans-48"/>
      </g>
     </g>
    </g>
    <g id="xtick_8">
     <g id="line2d_15">
      <path clip-path="url(#p44f802fb1d)" d="M 411.312366 273.803725 
L 411.312366 75.252275 
" style="fill:none;stroke:#b0b0b0;stroke-linecap:square;stroke-width:0.2;"/>
     </g>
     <g id="line2d_16">
      <g>
       <use style="stroke:#000000;stroke-width:0.8;" x="411.312366" xlink:href="#m8f631b1980" y="273.803725"/>
      </g>
     </g>
     <g id="text_8">
      <!-- 25 -->
      <g transform="translate(404.949866 288.402163)scale(0.1 -0.1)">
       <use xlink:href="#DejaVuSans-50"/>
       <use x="63.623047" xlink:href="#DejaVuSans-53"/>
      </g>
     </g>
    </g>
    <g id="text_9">
     <!-- X / m -->
     <g transform="translate(217.739062 305.119663)scale(0.14 -0.14)">
      <defs>
       <path d="M 6.296875 72.90625 
L 16.890625 72.90625 
L 35.015625 45.796875 
L 53.21875 72.90625 
L 63.8125 72.90625 
L 40.375 37.890625 
L 65.375 0 
L 54.78125 0 
L 34.28125 31 
L 13.625 0 
L 2.984375 0 
L 29 38.921875 
z
" id="DejaVuSans-88"/>
       <path id="DejaVuSans-32"/>
       <path d="M 25.390625 72.90625 
L 33.6875 72.90625 
L 8.296875 -9.28125 
L 0 -9.28125 
z
" id="DejaVuSans-47"/>
       <path d="M 52 44.1875 
Q 55.375 50.25 60.0625 53.125 
Q 64.75 56 71.09375 56 
Q 79.640625 56 84.28125 50.015625 
Q 88.921875 44.046875 88.921875 33.015625 
L 88.921875 0 
L 79.890625 0 
L 79.890625 32.71875 
Q 79.890625 40.578125 77.09375 44.375 
Q 74.3125 48.1875 68.609375 48.1875 
Q 61.625 48.1875 57.5625 43.546875 
Q 53.515625 38.921875 53.515625 30.90625 
L 53.515625 0 
L 44.484375 0 
L 44.484375 32.71875 
Q 44.484375 40.625 41.703125 44.40625 
Q 38.921875 48.1875 33.109375 48.1875 
Q 26.21875 48.1875 22.15625 43.53125 
Q 18.109375 38.875 18.109375 30.90625 
L 18.109375 0 
L 9.078125 0 
L 9.078125 54.6875 
L 18.109375 54.6875 
L 18.109375 46.1875 
Q 21.1875 51.21875 25.484375 53.609375 
Q 29.78125 56 35.6875 56 
Q 41.65625 56 45.828125 52.96875 
Q 50 49.953125 52 44.1875 
z
" id="DejaVuSans-109"/>
      </defs>
      <use xlink:href="#DejaVuSans-88"/>
      <use x="68.505859" xlink:href="#DejaVuSans-32"/>
      <use x="100.292969" xlink:href="#DejaVuSans-47"/>
      <use x="133.984375" xlink:href="#DejaVuSans-32"/>
      <use x="165.771484" xlink:href="#DejaVuSans-109"/>
     </g>
    </g>
   </g>
   <g id="matplotlib.axis_2">
    <g id="ytick_1">
     <g id="line2d_17">
      <path clip-path="url(#p44f802fb1d)" d="M 57.6 262.78571 
L 414.72 262.78571 
" style="fill:none;stroke:#b0b0b0;stroke-linecap:square;stroke-width:0.2;"/>
     </g>
     <g id="line2d_18">
      <defs>
       <path d="M 0 0 
L -3.5 0 
" id="m5f6ee09ad3" style="stroke:#000000;stroke-width:0.8;"/>
      </defs>
      <g>
       <use style="stroke:#000000;stroke-width:0.8;" x="57.6" xlink:href="#m5f6ee09ad3" y="262.78571"/>
      </g>
     </g>
     <g id="text_10">
      <!-- −12.5 -->
      <g transform="translate(19.954687 266.584929)scale(0.1 -0.1)">
       <defs>
        <path d="M 10.6875 12.40625 
L 21 12.40625 
L 21 0 
L 10.6875 0 
z
" id="DejaVuSans-46"/>
       </defs>
       <use xlink:href="#DejaVuSans-8722"/>
       <use x="83.789062" xlink:href="#DejaVuSans-49"/>
       <use x="147.412109" xlink:href="#DejaVuSans-50"/>
       <use x="211.035156" xlink:href="#DejaVuSans-46"/>
       <use x="242.822266" xlink:href="#DejaVuSans-53"/>
      </g>
     </g>
    </g>
    <g id="ytick_2">
     <g id="line2d_19">
      <path clip-path="url(#p44f802fb1d)" d="M 57.6 239.954565 
L 414.72 239.954565 
" style="fill:none;stroke:#b0b0b0;stroke-linecap:square;stroke-width:0.2;"/>
     </g>
     <g id="line2d_20">
      <g>
       <use style="stroke:#000000;stroke-width:0.8;" x="57.6" xlink:href="#m5f6ee09ad3" y="239.954565"/>
      </g>
     </g>
     <g id="text_11">
      <!-- −10.0 -->
      <g transform="translate(19.954687 243.753784)scale(0.1 -0.1)">
       <use xlink:href="#DejaVuSans-8722"/>
       <use x="83.789062" xlink:href="#DejaVuSans-49"/>
       <use x="147.412109" xlink:href="#DejaVuSans-48"/>
       <use x="211.035156" xlink:href="#DejaVuSans-46"/>
       <use x="242.822266" xlink:href="#DejaVuSans-48"/>
      </g>
     </g>
    </g>
    <g id="ytick_3">
     <g id="line2d_21">
      <path clip-path="url(#p44f802fb1d)" d="M 57.6 217.12342 
L 414.72 217.12342 
" style="fill:none;stroke:#b0b0b0;stroke-linecap:square;stroke-width:0.2;"/>
     </g>
     <g id="line2d_22">
      <g>
       <use style="stroke:#000000;stroke-width:0.8;" x="57.6" xlink:href="#m5f6ee09ad3" y="217.12342"/>
      </g>
     </g>
     <g id="text_12">
      <!-- −7.5 -->
      <g transform="translate(26.317187 220.922639)scale(0.1 -0.1)">
       <defs>
        <path d="M 8.203125 72.90625 
L 55.078125 72.90625 
L 55.078125 68.703125 
L 28.609375 0 
L 18.3125 0 
L 43.21875 64.59375 
L 8.203125 64.59375 
z
" id="DejaVuSans-55"/>
       </defs>
       <use xlink:href="#DejaVuSans-8722"/>
       <use x="83.789062" xlink:href="#DejaVuSans-55"/>
       <use x="147.412109" xlink:href="#DejaVuSans-46"/>
       <use x="179.199219" xlink:href="#DejaVuSans-53"/>
      </g>
     </g>
    </g>
    <g id="ytick_4">
     <g id="line2d_23">
      <path clip-path="url(#p44f802fb1d)" d="M 57.6 194.292275 
L 414.72 194.292275 
" style="fill:none;stroke:#b0b0b0;stroke-linecap:square;stroke-width:0.2;"/>
     </g>
     <g id="line2d_24">
      <g>
       <use style="stroke:#000000;stroke-width:0.8;" x="57.6" xlink:href="#m5f6ee09ad3" y="194.292275"/>
      </g>
     </g>
     <g id="text_13">
      <!-- −5.0 -->
      <g transform="translate(26.317187 198.091494)scale(0.1 -0.1)">
       <use xlink:href="#DejaVuSans-8722"/>
       <use x="83.789062" xlink:href="#DejaVuSans-53"/>
       <use x="147.412109" xlink:href="#DejaVuSans-46"/>
       <use x="179.199219" xlink:href="#DejaVuSans-48"/>
      </g>
     </g>
    </g>
    <g id="ytick_5">
     <g id="line2d_25">
      <path clip-path="url(#p44f802fb1d)" d="M 57.6 171.46113 
L 414.72 171.46113 
" style="fill:none;stroke:#b0b0b0;stroke-linecap:square;stroke-width:0.2;"/>
     </g>
     <g id="line2d_26">
      <g>
       <use style="stroke:#000000;stroke-width:0.8;" x="57.6" xlink:href="#m5f6ee09ad3" y="171.46113"/>
      </g>
     </g>
     <g id="text_14">
      <!-- −2.5 -->
      <g transform="translate(26.317187 175.260349)scale(0.1 -0.1)">
       <use xlink:href="#DejaVuSans-8722"/>
       <use x="83.789062" xlink:href="#DejaVuSans-50"/>
       <use x="147.412109" xlink:href="#DejaVuSans-46"/>
       <use x="179.199219" xlink:href="#DejaVuSans-53"/>
      </g>
     </g>
    </g>
    <g id="ytick_6">
     <g id="line2d_27">
      <path clip-path="url(#p44f802fb1d)" d="M 57.6 148.629985 
L 414.72 148.629985 
" style="fill:none;stroke:#b0b0b0;stroke-linecap:square;stroke-width:0.2;"/>
     </g>
     <g id="line2d_28">
      <g>
       <use style="stroke:#000000;stroke-width:0.8;" x="57.6" xlink:href="#m5f6ee09ad3" y="148.629985"/>
      </g>
     </g>
     <g id="text_15">
      <!-- 0.0 -->
      <g transform="translate(34.696875 152.429203)scale(0.1 -0.1)">
       <use xlink:href="#DejaVuSans-48"/>
       <use x="63.623047" xlink:href="#DejaVuSans-46"/>
       <use x="95.410156" xlink:href="#DejaVuSans-48"/>
      </g>
     </g>
    </g>
    <g id="ytick_7">
     <g id="line2d_29">
      <path clip-path="url(#p44f802fb1d)" d="M 57.6 125.79884 
L 414.72 125.79884 
" style="fill:none;stroke:#b0b0b0;stroke-linecap:square;stroke-width:0.2;"/>
     </g>
     <g id="line2d_30">
      <g>
       <use style="stroke:#000000;stroke-width:0.8;" x="57.6" xlink:href="#m5f6ee09ad3" y="125.79884"/>
      </g>
     </g>
     <g id="text_16">
      <!-- 2.5 -->
      <g transform="translate(34.696875 129.598058)scale(0.1 -0.1)">
       <use xlink:href="#DejaVuSans-50"/>
       <use x="63.623047" xlink:href="#DejaVuSans-46"/>
       <use x="95.410156" xlink:href="#DejaVuSans-53"/>
      </g>
     </g>
    </g>
    <g id="ytick_8">
     <g id="line2d_31">
      <path clip-path="url(#p44f802fb1d)" d="M 57.6 102.967695 
L 414.72 102.967695 
" style="fill:none;stroke:#b0b0b0;stroke-linecap:square;stroke-width:0.2;"/>
     </g>
     <g id="line2d_32">
      <g>
       <use style="stroke:#000000;stroke-width:0.8;" x="57.6" xlink:href="#m5f6ee09ad3" y="102.967695"/>
      </g>
     </g>
     <g id="text_17">
      <!-- 5.0 -->
      <g transform="translate(34.696875 106.766913)scale(0.1 -0.1)">
       <use xlink:href="#DejaVuSans-53"/>
       <use x="63.623047" xlink:href="#DejaVuSans-46"/>
       <use x="95.410156" xlink:href="#DejaVuSans-48"/>
      </g>
     </g>
    </g>
    <g id="ytick_9">
     <g id="line2d_33">
      <path clip-path="url(#p44f802fb1d)" d="M 57.6 80.13655 
L 414.72 80.13655 
" style="fill:none;stroke:#b0b0b0;stroke-linecap:square;stroke-width:0.2;"/>
     </g>
     <g id="line2d_34">
      <g>
       <use style="stroke:#000000;stroke-width:0.8;" x="57.6" xlink:href="#m5f6ee09ad3" y="80.13655"/>
      </g>
     </g>
     <g id="text_18">
      <!-- 7.5 -->
      <g transform="translate(34.696875 83.935768)scale(0.1 -0.1)">
       <use xlink:href="#DejaVuSans-55"/>
       <use x="63.623047" xlink:href="#DejaVuSans-46"/>
       <use x="95.410156" xlink:href="#DejaVuSans-53"/>
      </g>
     </g>
    </g>
    <g id="text_19">
     <!-- Y / m -->
     <g transform="translate(13.043125 192.429406)rotate(-90)scale(0.14 -0.14)">
      <defs>
       <path d="M -0.203125 72.90625 
L 10.40625 72.90625 
L 30.609375 42.921875 
L 50.6875 72.90625 
L 61.28125 72.90625 
L 35.5 34.71875 
L 35.5 0 
L 25.59375 0 
L 25.59375 34.71875 
z
" id="DejaVuSans-89"/>
      </defs>
      <use xlink:href="#DejaVuSans-89"/>
      <use x="61.083984" xlink:href="#DejaVuSans-32"/>
      <use x="92.871094" xlink:href="#DejaVuSans-47"/>
      <use x="126.5625" xlink:href="#DejaVuSans-32"/>
      <use x="158.349609" xlink:href="#DejaVuSans-109"/>
     </g>
    </g>
   </g>
   <g id="patch_3">
    <path clip-path="url(#p44f802fb1d)" d="M 29.979082 124.898586 
L 166.403376 137.300795 
L 119.475034 176.407746 
L -16.94926 164.005538 
z
" style="opacity:0.5;"/>
   </g>
   <g id="patch_4">
    <path clip-path="url(#p44f802fb1d)" d="M 198.235711 140.194643 
L 334.660004 152.596852 
L 287.731662 191.703804 
L 151.307369 179.301595 
z
" style="opacity:0.5;"/>
   </g>
   <g id="line2d_35">
    <path clip-path="url(#p44f802fb1d)" d="M 320.148646 194.314357 
L 357.819522 173.951721 
L 349.386116 158.349921 
L 311.71524 178.712557 
L 320.148646 194.314357 
" style="fill:none;stroke:#008000;stroke-dasharray:1.48,0.64;stroke-dashoffset:0;stroke-width:0.4;"/>
   </g>
   <g id="line2d_36">
    <path clip-path="url(#p44f802fb1d)" d="M 148.08386 178.820506 
L 180.980705 151.406468 
L 169.626885 137.781884 
L 136.73004 165.195922 
L 148.08386 178.820506 
" style="fill:none;stroke:#ff0000;stroke-dasharray:1.48,0.64;stroke-dashoffset:0;stroke-width:0.4;"/>
   </g>
   <g id="line2d_37">
    <path clip-path="url(#p44f802fb1d)" d="M 320.148646 194.314357 
L 357.819522 173.951721 
L 349.386116 158.349921 
L 311.71524 178.712557 
L 320.148646 194.314357 
" style="fill:none;stroke:#0000ff;stroke-dasharray:0.555,0.24;stroke-dashoffset:0;stroke-width:0.15;"/>
   </g>
   <g id="line2d_38">
    <path clip-path="url(#p44f802fb1d)" d="M 318.790212 195.127869 
L 356.303661 174.476646 
L 347.750734 158.940046 
L 310.237285 179.591269 
L 318.790212 195.127869 
" style="fill:none;stroke:#0000ff;stroke-dasharray:0.555,0.24;stroke-dashoffset:0;stroke-width:0.15;"/>
   </g>
   <g id="line2d_39">
    <path clip-path="url(#p44f802fb1d)" d="M 314.187181 197.841973 
L 351.40167 176.656749 
L 342.62758 161.243967 
L 305.413092 182.429191 
L 314.187181 197.841973 
" style="fill:none;stroke:#0000ff;stroke-dasharray:0.555,0.24;stroke-dashoffset:0;stroke-width:0.15;"/>
   </g>
   <g id="line2d_40">
    <path clip-path="url(#p44f802fb1d)" d="M 306.517026 202.202483 
L 343.776665 181.096769 
L 335.035506 165.665287 
L 297.775867 186.771001 
L 306.517026 202.202483 
" style="fill:none;stroke:#0000ff;stroke-dasharray:0.555,0.24;stroke-dashoffset:0;stroke-width:0.15;"/>
   </g>
   <g id="line2d_41">
    <path clip-path="url(#p44f802fb1d)" d="M 295.776718 207.686633 
L 333.889906 188.164421 
L 325.804571 172.379432 
L 287.691383 191.901644 
L 295.776718 207.686633 
" style="fill:none;stroke:#0000ff;stroke-dasharray:0.555,0.24;stroke-dashoffset:0;stroke-width:0.15;"/>
   </g>
   <g id="line2d_42">
    <path clip-path="url(#p44f802fb1d)" d="M 281.905961 213.294986 
L 321.691986 197.45819 
L 315.133005 180.980378 
L 275.346981 196.817174 
L 281.905961 213.294986 
" style="fill:none;stroke:#0000ff;stroke-dasharray:0.555,0.24;stroke-dashoffset:0;stroke-width:0.15;"/>
   </g>
   <g id="line2d_43">
    <path clip-path="url(#p44f802fb1d)" d="M 265.186185 217.711039 
L 306.748057 207.398781 
L 302.477124 190.185483 
L 260.915252 200.497741 
L 265.186185 217.711039 
" style="fill:none;stroke:#0000ff;stroke-dasharray:0.555,0.24;stroke-dashoffset:0;stroke-width:0.15;"/>
   </g>
   <g id="line2d_44">
    <path clip-path="url(#p44f802fb1d)" d="M 246.389492 219.845447 
L 289.03125 215.919588 
L 287.405313 198.259044 
L 244.763555 202.184902 
L 246.389492 219.845447 
" style="fill:none;stroke:#0000ff;stroke-dasharray:0.555,0.24;stroke-dashoffset:0;stroke-width:0.15;"/>
   </g>
   <g id="line2d_45">
    <path clip-path="url(#p44f802fb1d)" d="M 226.564888 219.282602 
L 269.333694 221.418283 
L 270.218209 203.70512 
L 227.449403 201.56944 
L 226.564888 219.282602 
" style="fill:none;stroke:#0000ff;stroke-dasharray:0.555,0.24;stroke-dashoffset:0;stroke-width:0.15;"/>
   </g>
   <g id="line2d_46">
    <path clip-path="url(#p44f802fb1d)" d="M 206.683599 216.367238 
L 248.94491 223.274733 
L 251.805724 205.771755 
L 209.544413 198.86426 
L 206.683599 216.367238 
" style="fill:none;stroke:#0000ff;stroke-dasharray:0.555,0.24;stroke-dashoffset:0;stroke-width:0.15;"/>
   </g>
   <g id="line2d_47">
    <path clip-path="url(#p44f802fb1d)" d="M 187.408316 211.988273 
L 229.089016 221.809225 
L 233.15647 204.546713 
L 191.475769 194.725761 
L 187.408316 211.988273 
" style="fill:none;stroke:#0000ff;stroke-dasharray:0.555,0.24;stroke-dashoffset:0;stroke-width:0.15;"/>
   </g>
   <g id="line2d_48">
    <path clip-path="url(#p44f802fb1d)" d="M 169.09943 207.279719 
L 210.585225 217.893891 
L 214.9812 200.712101 
L 173.495404 190.097929 
L 169.09943 207.279719 
" style="fill:none;stroke:#0000ff;stroke-dasharray:0.555,0.24;stroke-dashoffset:0;stroke-width:0.15;"/>
   </g>
   <g id="line2d_49">
    <path clip-path="url(#p44f802fb1d)" d="M 151.985427 203.367447 
L 193.810888 212.552361 
L 197.614919 195.229894 
L 155.789458 186.04498 
L 151.985427 203.367447 
" style="fill:none;stroke:#0000ff;stroke-dasharray:0.555,0.24;stroke-dashoffset:0;stroke-width:0.15;"/>
   </g>
   <g id="line2d_50">
    <path clip-path="url(#p44f802fb1d)" d="M 136.371112 201.157995 
L 178.831753 206.710101 
L 181.131217 189.124568 
L 138.670577 183.572462 
L 136.371112 201.157995 
" style="fill:none;stroke:#0000ff;stroke-dasharray:0.555,0.24;stroke-dashoffset:0;stroke-width:0.15;"/>
   </g>
   <g id="line2d_51">
    <path clip-path="url(#p44f802fb1d)" d="M 122.760288 201.127434 
L 165.582375 201.099208 
L 165.570684 183.363978 
L 122.748598 183.392204 
L 122.760288 201.127434 
" style="fill:none;stroke:#0000ff;stroke-dasharray:0.555,0.24;stroke-dashoffset:0;stroke-width:0.15;"/>
   </g>
   <g id="line2d_52">
    <path clip-path="url(#p44f802fb1d)" d="M 111.789689 203.130305 
L 154.056081 196.253974 
L 151.208174 178.748891 
L 108.941782 185.625222 
L 111.789689 203.130305 
" style="fill:none;stroke:#0000ff;stroke-dasharray:0.555,0.24;stroke-dashoffset:0;stroke-width:0.15;"/>
   </g>
   <g id="line2d_53">
    <path clip-path="url(#p44f802fb1d)" d="M 103.852638 206.242531 
L 144.558264 192.946521 
L 139.051577 176.087846 
L 98.345951 189.383856 
L 103.852638 206.242531 
" style="fill:none;stroke:#0000ff;stroke-dasharray:0.555,0.24;stroke-dashoffset:0;stroke-width:0.15;"/>
   </g>
   <g id="line2d_54">
    <path clip-path="url(#p44f802fb1d)" d="M 98.746635 208.995886 
L 137.996495 191.873376 
L 130.905022 175.617622 
L 91.655162 192.740132 
L 98.746635 208.995886 
" style="fill:none;stroke:#0000ff;stroke-dasharray:0.555,0.24;stroke-dashoffset:0;stroke-width:0.15;"/>
   </g>
   <g id="line2d_55">
    <path clip-path="url(#p44f802fb1d)" d="M 96.380271 210.342055 
L 135.100342 192.053043 
L 127.52575 176.016707 
L 88.805679 194.305719 
L 96.380271 210.342055 
" style="fill:none;stroke:#0000ff;stroke-dasharray:0.555,0.24;stroke-dashoffset:0;stroke-width:0.15;"/>
   </g>
   <g id="line2d_56">
    <path clip-path="url(#p44f802fb1d)" d="M 97.061441 210.01409 
L 135.79344 191.750352 
L 128.229316 175.709076 
L 89.497317 193.972814 
L 97.061441 210.01409 
" style="fill:none;stroke:#0000ff;stroke-dasharray:0.555,0.24;stroke-dashoffset:0;stroke-width:0.15;"/>
   </g>
   <g id="line2d_57">
    <path clip-path="url(#p44f802fb1d)" d="M 101.026006 208.239139 
L 139.544167 189.528631 
L 131.795008 173.575918 
L 93.276847 192.286427 
L 101.026006 208.239139 
" style="fill:none;stroke:#0000ff;stroke-dasharray:0.555,0.24;stroke-dashoffset:0;stroke-width:0.15;"/>
   </g>
   <g id="line2d_58">
    <path clip-path="url(#p44f802fb1d)" d="M 107.908896 205.176865 
L 145.553437 184.765583 
L 137.099884 169.17469 
L 99.455344 189.585972 
L 107.908896 205.176865 
" style="fill:none;stroke:#0000ff;stroke-dasharray:0.555,0.24;stroke-dashoffset:0;stroke-width:0.15;"/>
   </g>
   <g id="line2d_59">
    <path clip-path="url(#p44f802fb1d)" d="M 116.666647 200.753392 
L 152.913144 177.951564 
L 143.469521 162.939686 
L 107.223024 185.741514 
L 116.666647 200.753392 
" style="fill:none;stroke:#0000ff;stroke-dasharray:0.555,0.24;stroke-dashoffset:0;stroke-width:0.15;"/>
   </g>
   <g id="line2d_60">
    <path clip-path="url(#p44f802fb1d)" d="M 125.943127 195.164179 
L 160.889372 170.415607 
L 150.639484 155.942242 
L 115.693238 180.690814 
L 125.943127 195.164179 
" style="fill:none;stroke:#0000ff;stroke-dasharray:0.555,0.24;stroke-dashoffset:0;stroke-width:0.15;"/>
   </g>
   <g id="line2d_61">
    <path clip-path="url(#p44f802fb1d)" d="M 134.636243 189.202189 
L 168.576448 163.090996 
L 157.762215 149.034294 
L 123.822011 175.145486 
L 134.636243 189.202189 
" style="fill:none;stroke:#0000ff;stroke-dasharray:0.555,0.24;stroke-dashoffset:0;stroke-width:0.15;"/>
   </g>
   <g id="line2d_62">
    <path clip-path="url(#p44f802fb1d)" d="M 141.813065 183.832035 
L 175.072115 156.858576 
L 163.900765 143.083981 
L 130.641716 170.057441 
L 141.813065 183.832035 
" style="fill:none;stroke:#0000ff;stroke-dasharray:0.555,0.24;stroke-dashoffset:0;stroke-width:0.15;"/>
   </g>
   <g id="line2d_63">
    <path clip-path="url(#p44f802fb1d)" d="M 146.580247 180.052744 
L 179.522626 152.69344 
L 168.191475 139.049998 
L 135.249096 166.409302 
L 146.580247 180.052744 
" style="fill:none;stroke:#0000ff;stroke-dasharray:0.555,0.24;stroke-dashoffset:0;stroke-width:0.15;"/>
   </g>
   <g id="line2d_64">
    <path clip-path="url(#p44f802fb1d)" d="M 323.39542 182.479145 
L 321.946036 183.268082 
L 317.173193 185.938296 
L 309.528448 190.305209 
L 299.28516 195.926334 
L 286.509008 201.918442 
L 271.285092 207.061292 
L 254.024848 210.237371 
L 235.480641 210.849149 
L 216.486955 208.984285 
L 197.699959 205.302776 
L 179.516718 200.791738 
L 162.174039 196.525959 
L 145.933285 193.46523 
L 131.238495 192.254227 
L 118.739691 193.015403 
L 109.164026 195.178945 
L 102.977209 197.475641 
L 100.264322 198.700408 
L 100.953089 198.37498 
L 104.78277 196.555796 
L 111.140379 193.337468 
L 119.12611 188.72988 
L 127.741847 183.024229 
L 135.953471 177.000603 
L 142.816782 171.600668 
L 147.441323 167.810509 
" style="fill:none;stroke:#ff0000;stroke-linecap:square;stroke-width:0.1;"/>
   </g>
   <g id="patch_5">
    <path d="M 57.6 273.803725 
L 57.6 75.252275 
" style="fill:none;stroke:#000000;stroke-linecap:square;stroke-linejoin:miter;stroke-width:0.8;"/>
   </g>
   <g id="patch_6">
    <path d="M 414.72 273.803725 
L 414.72 75.252275 
" style="fill:none;stroke:#000000;stroke-linecap:square;stroke-linejoin:miter;stroke-width:0.8;"/>
   </g>
   <g id="patch_7">
    <path d="M 57.6 273.803725 
L 414.72 273.803725 
" style="fill:none;stroke:#000000;stroke-linecap:square;stroke-linejoin:miter;stroke-width:0.8;"/>
   </g>
   <g id="patch_8">
    <path d="M 57.6 75.252275 
L 414.72 75.252275 
" style="fill:none;stroke:#000000;stroke-linecap:square;stroke-linejoin:miter;stroke-width:0.8;"/>
   </g>
   <g id="text_20">
    <!-- Case 9 -->
    <g transform="translate(215.751563 69.252275)scale(0.12 -0.12)">
     <defs>
      <path d="M 64.40625 67.28125 
L 64.40625 56.890625 
Q 59.421875 61.53125 53.78125 63.8125 
Q 48.140625 66.109375 41.796875 66.109375 
Q 29.296875 66.109375 22.65625 58.46875 
Q 16.015625 50.828125 16.015625 36.375 
Q 16.015625 21.96875 22.65625 14.328125 
Q 29.296875 6.6875 41.796875 6.6875 
Q 48.140625 6.6875 53.78125 8.984375 
Q 59.421875 11.28125 64.40625 15.921875 
L 64.40625 5.609375 
Q 59.234375 2.09375 53.4375 0.328125 
Q 47.65625 -1.421875 41.21875 -1.421875 
Q 24.65625 -1.421875 15.125 8.703125 
Q 5.609375 18.84375 5.609375 36.375 
Q 5.609375 53.953125 15.125 64.078125 
Q 24.65625 74.21875 41.21875 74.21875 
Q 47.75 74.21875 53.53125 72.484375 
Q 59.328125 70.75 64.40625 67.28125 
z
" id="DejaVuSans-67"/>
      <path d="M 34.28125 27.484375 
Q 23.390625 27.484375 19.1875 25 
Q 14.984375 22.515625 14.984375 16.5 
Q 14.984375 11.71875 18.140625 8.90625 
Q 21.296875 6.109375 26.703125 6.109375 
Q 34.1875 6.109375 38.703125 11.40625 
Q 43.21875 16.703125 43.21875 25.484375 
L 43.21875 27.484375 
z
M 52.203125 31.203125 
L 52.203125 0 
L 43.21875 0 
L 43.21875 8.296875 
Q 40.140625 3.328125 35.546875 0.953125 
Q 30.953125 -1.421875 24.3125 -1.421875 
Q 15.921875 -1.421875 10.953125 3.296875 
Q 6 8.015625 6 15.921875 
Q 6 25.140625 12.171875 29.828125 
Q 18.359375 34.515625 30.609375 34.515625 
L 43.21875 34.515625 
L 43.21875 35.40625 
Q 43.21875 41.609375 39.140625 45 
Q 35.0625 48.390625 27.6875 48.390625 
Q 23 48.390625 18.546875 47.265625 
Q 14.109375 46.140625 10.015625 43.890625 
L 10.015625 52.203125 
Q 14.9375 54.109375 19.578125 55.046875 
Q 24.21875 56 28.609375 56 
Q 40.484375 56 46.34375 49.84375 
Q 52.203125 43.703125 52.203125 31.203125 
z
" id="DejaVuSans-97"/>
      <path d="M 44.28125 53.078125 
L 44.28125 44.578125 
Q 40.484375 46.53125 36.375 47.5 
Q 32.28125 48.484375 27.875 48.484375 
Q 21.1875 48.484375 17.84375 46.4375 
Q 14.5 44.390625 14.5 40.28125 
Q 14.5 37.15625 16.890625 35.375 
Q 19.28125 33.59375 26.515625 31.984375 
L 29.59375 31.296875 
Q 39.15625 29.25 43.1875 25.515625 
Q 47.21875 21.78125 47.21875 15.09375 
Q 47.21875 7.46875 41.1875 3.015625 
Q 35.15625 -1.421875 24.609375 -1.421875 
Q 20.21875 -1.421875 15.453125 -0.5625 
Q 10.6875 0.296875 5.421875 2 
L 5.421875 11.28125 
Q 10.40625 8.6875 15.234375 7.390625 
Q 20.0625 6.109375 24.8125 6.109375 
Q 31.15625 6.109375 34.5625 8.28125 
Q 37.984375 10.453125 37.984375 14.40625 
Q 37.984375 18.0625 35.515625 20.015625 
Q 33.0625 21.96875 24.703125 23.78125 
L 21.578125 24.515625 
Q 13.234375 26.265625 9.515625 29.90625 
Q 5.8125 33.546875 5.8125 39.890625 
Q 5.8125 47.609375 11.28125 51.796875 
Q 16.75 56 26.8125 56 
Q 31.78125 56 36.171875 55.265625 
Q 40.578125 54.546875 44.28125 53.078125 
z
" id="DejaVuSans-115"/>
      <path d="M 56.203125 29.59375 
L 56.203125 25.203125 
L 14.890625 25.203125 
Q 15.484375 15.921875 20.484375 11.0625 
Q 25.484375 6.203125 34.421875 6.203125 
Q 39.59375 6.203125 44.453125 7.46875 
Q 49.3125 8.734375 54.109375 11.28125 
L 54.109375 2.78125 
Q 49.265625 0.734375 44.1875 -0.34375 
Q 39.109375 -1.421875 33.890625 -1.421875 
Q 20.796875 -1.421875 13.15625 6.1875 
Q 5.515625 13.8125 5.515625 26.8125 
Q 5.515625 40.234375 12.765625 48.109375 
Q 20.015625 56 32.328125 56 
Q 43.359375 56 49.78125 48.890625 
Q 56.203125 41.796875 56.203125 29.59375 
z
M 47.21875 32.234375 
Q 47.125 39.59375 43.09375 43.984375 
Q 39.0625 48.390625 32.421875 48.390625 
Q 24.90625 48.390625 20.390625 44.140625 
Q 15.875 39.890625 15.1875 32.171875 
z
" id="DejaVuSans-101"/>
      <path d="M 10.984375 1.515625 
L 10.984375 10.5 
Q 14.703125 8.734375 18.5 7.8125 
Q 22.3125 6.890625 25.984375 6.890625 
Q 35.75 6.890625 40.890625 13.453125 
Q 46.046875 20.015625 46.78125 33.40625 
Q 43.953125 29.203125 39.59375 26.953125 
Q 35.25 24.703125 29.984375 24.703125 
Q 19.046875 24.703125 12.671875 31.3125 
Q 6.296875 37.9375 6.296875 49.421875 
Q 6.296875 60.640625 12.9375 67.421875 
Q 19.578125 74.21875 30.609375 74.21875 
Q 43.265625 74.21875 49.921875 64.515625 
Q 56.59375 54.828125 56.59375 36.375 
Q 56.59375 19.140625 48.40625 8.859375 
Q 40.234375 -1.421875 26.421875 -1.421875 
Q 22.703125 -1.421875 18.890625 -0.6875 
Q 15.09375 0.046875 10.984375 1.515625 
z
M 30.609375 32.421875 
Q 37.25 32.421875 41.125 36.953125 
Q 45.015625 41.5 45.015625 49.421875 
Q 45.015625 57.28125 41.125 61.84375 
Q 37.25 66.40625 30.609375 66.40625 
Q 23.96875 66.40625 20.09375 61.84375 
Q 16.21875 57.28125 16.21875 49.421875 
Q 16.21875 41.5 20.09375 36.953125 
Q 23.96875 32.421875 30.609375 32.421875 
z
" id="DejaVuSans-57"/>
     </defs>
     <use xlink:href="#DejaVuSans-67"/>
     <use x="69.824219" xlink:href="#DejaVuSans-97"/>
     <use x="131.103516" xlink:href="#DejaVuSans-115"/>
     <use x="183.203125" xlink:href="#DejaVuSans-101"/>
     <use x="244.726562" xlink:href="#DejaVuSans-32"/>
     <use x="276.513672" xlink:href="#DejaVuSans-57"/>
    </g>
   </g>
  </g>
 </g>
 <defs>
  <clipPath id="p44f802fb1d">
   <rect height="198.55145" width="357.12" x="57.6" y="75.252275"/>
  </clipPath>
 </defs>
</svg>
