<?xml version="1.0" encoding="utf-8" standalone="no"?>
<!DOCTYPE svg PUBLIC "-//W3C//DTD SVG 1.1//EN"
  "http://www.w3.org/Graphics/SVG/1.1/DTD/svg11.dtd">
<!-- Created with matplotlib (https://matplotlib.org/) -->
<svg height="345.6pt" version="1.1" viewBox="0 0 460.8 345.6" width="460.8pt" xmlns="http://www.w3.org/2000/svg" xmlns:xlink="http://www.w3.org/1999/xlink">
 <metadata>
  <rdf:RDF xmlns:cc="http://creativecommons.org/ns#" xmlns:dc="http://purl.org/dc/elements/1.1/" xmlns:rdf="http://www.w3.org/1999/02/22-rdf-syntax-ns#">
   <cc:Work>
    <dc:type rdf:resource="http://purl.org/dc/dcmitype/StillImage"/>
    <dc:date>2022-11-21T15:53:25.426905</dc:date>
    <dc:format>image/svg+xml</dc:format>
    <dc:creator>
     <cc:Agent>
      <dc:title>Matplotlib v3.3.4, https://matplotlib.org/</dc:title>
     </cc:Agent>
    </dc:creator>
   </cc:Work>
  </rdf:RDF>
 </metadata>
 <defs>
  <style type="text/css">*{stroke-linecap:butt;stroke-linejoin:round;}</style>
 </defs>
 <g id="figure_1">
  <g id="patch_1">
   <path d="M 0 345.6 
L 460.8 345.6 
L 460.8 0 
L 0 0 
z
" style="fill:#ffffff;"/>
  </g>
  <g id="axes_1">
   <g id="patch_2">
    <path d="M 81.914754 307.584 
L 390.405246 307.584 
L 390.405246 41.472 
L 81.914754 41.472 
z
" style="fill:#ffffff;"/>
   </g>
   <g id="matplotlib.axis_1">
    <g id="xtick_1">
     <g id="line2d_1">
      <path clip-path="url(#p3ed69e6d59)" d="M 94.690623 307.584 
L 94.690623 41.472 
" style="fill:none;stroke:#b0b0b0;stroke-linecap:square;stroke-width:0.2;"/>
     </g>
     <g id="line2d_2">
      <defs>
       <path d="M 0 0 
L 0 3.5 
" id="mf7f7bda6e0" style="stroke:#000000;stroke-width:0.8;"/>
      </defs>
      <g>
       <use style="stroke:#000000;stroke-width:0.8;" x="94.690623" xlink:href="#mf7f7bda6e0" y="307.584"/>
      </g>
     </g>
     <g id="text_1">
      <!-- −25 -->
      <g transform="translate(84.138279 322.182437)scale(0.1 -0.1)">
       <defs>
        <path d="M 10.59375 35.5 
L 73.1875 35.5 
L 73.1875 27.203125 
L 10.59375 27.203125 
z
" id="DejaVuSans-8722"/>
        <path d="M 19.1875 8.296875 
L 53.609375 8.296875 
L 53.609375 0 
L 7.328125 0 
L 7.328125 8.296875 
Q 12.9375 14.109375 22.625 23.890625 
Q 32.328125 33.6875 34.8125 36.53125 
Q 39.546875 41.84375 41.421875 45.53125 
Q 43.3125 49.21875 43.3125 52.78125 
Q 43.3125 58.59375 39.234375 62.25 
Q 35.15625 65.921875 28.609375 65.921875 
Q 23.96875 65.921875 18.8125 64.3125 
Q 13.671875 62.703125 7.8125 59.421875 
L 7.8125 69.390625 
Q 13.765625 71.78125 18.9375 73 
Q 24.125 74.21875 28.421875 74.21875 
Q 39.75 74.21875 46.484375 68.546875 
Q 53.21875 62.890625 53.21875 53.421875 
Q 53.21875 48.921875 51.53125 44.890625 
Q 49.859375 40.875 45.40625 35.40625 
Q 44.1875 33.984375 37.640625 27.21875 
Q 31.109375 20.453125 19.1875 8.296875 
z
" id="DejaVuSans-50"/>
        <path d="M 10.796875 72.90625 
L 49.515625 72.90625 
L 49.515625 64.59375 
L 19.828125 64.59375 
L 19.828125 46.734375 
Q 21.96875 47.46875 24.109375 47.828125 
Q 26.265625 48.1875 28.421875 48.1875 
Q 40.625 48.1875 47.75 41.5 
Q 54.890625 34.8125 54.890625 23.390625 
Q 54.890625 11.625 47.5625 5.09375 
Q 40.234375 -1.421875 26.90625 -1.421875 
Q 22.3125 -1.421875 17.546875 -0.640625 
Q 12.796875 0.140625 7.71875 1.703125 
L 7.71875 11.625 
Q 12.109375 9.234375 16.796875 8.0625 
Q 21.484375 6.890625 26.703125 6.890625 
Q 35.15625 6.890625 40.078125 11.328125 
Q 45.015625 15.765625 45.015625 23.390625 
Q 45.015625 31 40.078125 35.4375 
Q 35.15625 39.890625 26.703125 39.890625 
Q 22.75 39.890625 18.8125 39.015625 
Q 14.890625 38.140625 10.796875 36.28125 
z
" id="DejaVuSans-53"/>
       </defs>
       <use xlink:href="#DejaVuSans-8722"/>
       <use x="83.789062" xlink:href="#DejaVuSans-50"/>
       <use x="147.412109" xlink:href="#DejaVuSans-53"/>
      </g>
     </g>
    </g>
    <g id="xtick_2">
     <g id="line2d_3">
      <path clip-path="url(#p3ed69e6d59)" d="M 157.323541 307.584 
L 157.323541 41.472 
" style="fill:none;stroke:#b0b0b0;stroke-linecap:square;stroke-width:0.2;"/>
     </g>
     <g id="line2d_4">
      <g>
       <use style="stroke:#000000;stroke-width:0.8;" x="157.323541" xlink:href="#mf7f7bda6e0" y="307.584"/>
      </g>
     </g>
     <g id="text_2">
      <!-- −20 -->
      <g transform="translate(146.771197 322.182437)scale(0.1 -0.1)">
       <defs>
        <path d="M 31.78125 66.40625 
Q 24.171875 66.40625 20.328125 58.90625 
Q 16.5 51.421875 16.5 36.375 
Q 16.5 21.390625 20.328125 13.890625 
Q 24.171875 6.390625 31.78125 6.390625 
Q 39.453125 6.390625 43.28125 13.890625 
Q 47.125 21.390625 47.125 36.375 
Q 47.125 51.421875 43.28125 58.90625 
Q 39.453125 66.40625 31.78125 66.40625 
z
M 31.78125 74.21875 
Q 44.046875 74.21875 50.515625 64.515625 
Q 56.984375 54.828125 56.984375 36.375 
Q 56.984375 17.96875 50.515625 8.265625 
Q 44.046875 -1.421875 31.78125 -1.421875 
Q 19.53125 -1.421875 13.0625 8.265625 
Q 6.59375 17.96875 6.59375 36.375 
Q 6.59375 54.828125 13.0625 64.515625 
Q 19.53125 74.21875 31.78125 74.21875 
z
" id="DejaVuSans-48"/>
       </defs>
       <use xlink:href="#DejaVuSans-8722"/>
       <use x="83.789062" xlink:href="#DejaVuSans-50"/>
       <use x="147.412109" xlink:href="#DejaVuSans-48"/>
      </g>
     </g>
    </g>
    <g id="xtick_3">
     <g id="line2d_5">
      <path clip-path="url(#p3ed69e6d59)" d="M 219.956459 307.584 
L 219.956459 41.472 
" style="fill:none;stroke:#b0b0b0;stroke-linecap:square;stroke-width:0.2;"/>
     </g>
     <g id="line2d_6">
      <g>
       <use style="stroke:#000000;stroke-width:0.8;" x="219.956459" xlink:href="#mf7f7bda6e0" y="307.584"/>
      </g>
     </g>
     <g id="text_3">
      <!-- −15 -->
      <g transform="translate(209.404115 322.182437)scale(0.1 -0.1)">
       <defs>
        <path d="M 12.40625 8.296875 
L 28.515625 8.296875 
L 28.515625 63.921875 
L 10.984375 60.40625 
L 10.984375 69.390625 
L 28.421875 72.90625 
L 38.28125 72.90625 
L 38.28125 8.296875 
L 54.390625 8.296875 
L 54.390625 0 
L 12.40625 0 
z
" id="DejaVuSans-49"/>
       </defs>
       <use xlink:href="#DejaVuSans-8722"/>
       <use x="83.789062" xlink:href="#DejaVuSans-49"/>
       <use x="147.412109" xlink:href="#DejaVuSans-53"/>
      </g>
     </g>
    </g>
    <g id="xtick_4">
     <g id="line2d_7">
      <path clip-path="url(#p3ed69e6d59)" d="M 282.589377 307.584 
L 282.589377 41.472 
" style="fill:none;stroke:#b0b0b0;stroke-linecap:square;stroke-width:0.2;"/>
     </g>
     <g id="line2d_8">
      <g>
       <use style="stroke:#000000;stroke-width:0.8;" x="282.589377" xlink:href="#mf7f7bda6e0" y="307.584"/>
      </g>
     </g>
     <g id="text_4">
      <!-- −10 -->
      <g transform="translate(272.037033 322.182437)scale(0.1 -0.1)">
       <use xlink:href="#DejaVuSans-8722"/>
       <use x="83.789062" xlink:href="#DejaVuSans-49"/>
       <use x="147.412109" xlink:href="#DejaVuSans-48"/>
      </g>
     </g>
    </g>
    <g id="xtick_5">
     <g id="line2d_9">
      <path clip-path="url(#p3ed69e6d59)" d="M 345.222295 307.584 
L 345.222295 41.472 
" style="fill:none;stroke:#b0b0b0;stroke-linecap:square;stroke-width:0.2;"/>
     </g>
     <g id="line2d_10">
      <g>
       <use style="stroke:#000000;stroke-width:0.8;" x="345.222295" xlink:href="#mf7f7bda6e0" y="307.584"/>
      </g>
     </g>
     <g id="text_5">
      <!-- −5 -->
      <g transform="translate(337.851201 322.182437)scale(0.1 -0.1)">
       <use xlink:href="#DejaVuSans-8722"/>
       <use x="83.789062" xlink:href="#DejaVuSans-53"/>
      </g>
     </g>
    </g>
    <g id="text_6">
     <!-- X / m -->
     <g transform="translate(217.739063 338.899937)scale(0.14 -0.14)">
      <defs>
       <path d="M 6.296875 72.90625 
L 16.890625 72.90625 
L 35.015625 45.796875 
L 53.21875 72.90625 
L 63.8125 72.90625 
L 40.375 37.890625 
L 65.375 0 
L 54.78125 0 
L 34.28125 31 
L 13.625 0 
L 2.984375 0 
L 29 38.921875 
z
" id="DejaVuSans-88"/>
       <path id="DejaVuSans-32"/>
       <path d="M 25.390625 72.90625 
L 33.6875 72.90625 
L 8.296875 -9.28125 
L 0 -9.28125 
z
" id="DejaVuSans-47"/>
       <path d="M 52 44.1875 
Q 55.375 50.25 60.0625 53.125 
Q 64.75 56 71.09375 56 
Q 79.640625 56 84.28125 50.015625 
Q 88.921875 44.046875 88.921875 33.015625 
L 88.921875 0 
L 79.890625 0 
L 79.890625 32.71875 
Q 79.890625 40.578125 77.09375 44.375 
Q 74.3125 48.1875 68.609375 48.1875 
Q 61.625 48.1875 57.5625 43.546875 
Q 53.515625 38.921875 53.515625 30.90625 
L 53.515625 0 
L 44.484375 0 
L 44.484375 32.71875 
Q 44.484375 40.625 41.703125 44.40625 
Q 38.921875 48.1875 33.109375 48.1875 
Q 26.21875 48.1875 22.15625 43.53125 
Q 18.109375 38.875 18.109375 30.90625 
L 18.109375 0 
L 9.078125 0 
L 9.078125 54.6875 
L 18.109375 54.6875 
L 18.109375 46.1875 
Q 21.1875 51.21875 25.484375 53.609375 
Q 29.78125 56 35.6875 56 
Q 41.65625 56 45.828125 52.96875 
Q 50 49.953125 52 44.1875 
z
" id="DejaVuSans-109"/>
      </defs>
      <use xlink:href="#DejaVuSans-88"/>
      <use x="68.505859" xlink:href="#DejaVuSans-32"/>
      <use x="100.292969" xlink:href="#DejaVuSans-47"/>
      <use x="133.984375" xlink:href="#DejaVuSans-32"/>
      <use x="165.771484" xlink:href="#DejaVuSans-109"/>
     </g>
    </g>
   </g>
   <g id="matplotlib.axis_2">
    <g id="ytick_1">
     <g id="line2d_11">
      <path clip-path="url(#p3ed69e6d59)" d="M 81.914754 279.383607 
L 390.405246 279.383607 
" style="fill:none;stroke:#b0b0b0;stroke-linecap:square;stroke-width:0.2;"/>
     </g>
     <g id="line2d_12">
      <defs>
       <path d="M 0 0 
L -3.5 0 
" id="m47683332f0" style="stroke:#000000;stroke-width:0.8;"/>
      </defs>
      <g>
       <use style="stroke:#000000;stroke-width:0.8;" x="81.914754" xlink:href="#m47683332f0" y="279.383607"/>
      </g>
     </g>
     <g id="text_7">
      <!-- −22.5 -->
      <g transform="translate(44.269442 283.182825)scale(0.1 -0.1)">
       <defs>
        <path d="M 10.6875 12.40625 
L 21 12.40625 
L 21 0 
L 10.6875 0 
z
" id="DejaVuSans-46"/>
       </defs>
       <use xlink:href="#DejaVuSans-8722"/>
       <use x="83.789062" xlink:href="#DejaVuSans-50"/>
       <use x="147.412109" xlink:href="#DejaVuSans-50"/>
       <use x="211.035156" xlink:href="#DejaVuSans-46"/>
       <use x="242.822266" xlink:href="#DejaVuSans-53"/>
      </g>
     </g>
    </g>
    <g id="ytick_2">
     <g id="line2d_13">
      <path clip-path="url(#p3ed69e6d59)" d="M 81.914754 248.067148 
L 390.405246 248.067148 
" style="fill:none;stroke:#b0b0b0;stroke-linecap:square;stroke-width:0.2;"/>
     </g>
     <g id="line2d_14">
      <g>
       <use style="stroke:#000000;stroke-width:0.8;" x="81.914754" xlink:href="#m47683332f0" y="248.067148"/>
      </g>
     </g>
     <g id="text_8">
      <!-- −20.0 -->
      <g transform="translate(44.269442 251.866366)scale(0.1 -0.1)">
       <use xlink:href="#DejaVuSans-8722"/>
       <use x="83.789062" xlink:href="#DejaVuSans-50"/>
       <use x="147.412109" xlink:href="#DejaVuSans-48"/>
       <use x="211.035156" xlink:href="#DejaVuSans-46"/>
       <use x="242.822266" xlink:href="#DejaVuSans-48"/>
      </g>
     </g>
    </g>
    <g id="ytick_3">
     <g id="line2d_15">
      <path clip-path="url(#p3ed69e6d59)" d="M 81.914754 216.750689 
L 390.405246 216.750689 
" style="fill:none;stroke:#b0b0b0;stroke-linecap:square;stroke-width:0.2;"/>
     </g>
     <g id="line2d_16">
      <g>
       <use style="stroke:#000000;stroke-width:0.8;" x="81.914754" xlink:href="#m47683332f0" y="216.750689"/>
      </g>
     </g>
     <g id="text_9">
      <!-- −17.5 -->
      <g transform="translate(44.269442 220.549907)scale(0.1 -0.1)">
       <defs>
        <path d="M 8.203125 72.90625 
L 55.078125 72.90625 
L 55.078125 68.703125 
L 28.609375 0 
L 18.3125 0 
L 43.21875 64.59375 
L 8.203125 64.59375 
z
" id="DejaVuSans-55"/>
       </defs>
       <use xlink:href="#DejaVuSans-8722"/>
       <use x="83.789062" xlink:href="#DejaVuSans-49"/>
       <use x="147.412109" xlink:href="#DejaVuSans-55"/>
       <use x="211.035156" xlink:href="#DejaVuSans-46"/>
       <use x="242.822266" xlink:href="#DejaVuSans-53"/>
      </g>
     </g>
    </g>
    <g id="ytick_4">
     <g id="line2d_17">
      <path clip-path="url(#p3ed69e6d59)" d="M 81.914754 185.43423 
L 390.405246 185.43423 
" style="fill:none;stroke:#b0b0b0;stroke-linecap:square;stroke-width:0.2;"/>
     </g>
     <g id="line2d_18">
      <g>
       <use style="stroke:#000000;stroke-width:0.8;" x="81.914754" xlink:href="#m47683332f0" y="185.43423"/>
      </g>
     </g>
     <g id="text_10">
      <!-- −15.0 -->
      <g transform="translate(44.269442 189.233448)scale(0.1 -0.1)">
       <use xlink:href="#DejaVuSans-8722"/>
       <use x="83.789062" xlink:href="#DejaVuSans-49"/>
       <use x="147.412109" xlink:href="#DejaVuSans-53"/>
       <use x="211.035156" xlink:href="#DejaVuSans-46"/>
       <use x="242.822266" xlink:href="#DejaVuSans-48"/>
      </g>
     </g>
    </g>
    <g id="ytick_5">
     <g id="line2d_19">
      <path clip-path="url(#p3ed69e6d59)" d="M 81.914754 154.11777 
L 390.405246 154.11777 
" style="fill:none;stroke:#b0b0b0;stroke-linecap:square;stroke-width:0.2;"/>
     </g>
     <g id="line2d_20">
      <g>
       <use style="stroke:#000000;stroke-width:0.8;" x="81.914754" xlink:href="#m47683332f0" y="154.11777"/>
      </g>
     </g>
     <g id="text_11">
      <!-- −12.5 -->
      <g transform="translate(44.269442 157.916989)scale(0.1 -0.1)">
       <use xlink:href="#DejaVuSans-8722"/>
       <use x="83.789062" xlink:href="#DejaVuSans-49"/>
       <use x="147.412109" xlink:href="#DejaVuSans-50"/>
       <use x="211.035156" xlink:href="#DejaVuSans-46"/>
       <use x="242.822266" xlink:href="#DejaVuSans-53"/>
      </g>
     </g>
    </g>
    <g id="ytick_6">
     <g id="line2d_21">
      <path clip-path="url(#p3ed69e6d59)" d="M 81.914754 122.801311 
L 390.405246 122.801311 
" style="fill:none;stroke:#b0b0b0;stroke-linecap:square;stroke-width:0.2;"/>
     </g>
     <g id="line2d_22">
      <g>
       <use style="stroke:#000000;stroke-width:0.8;" x="81.914754" xlink:href="#m47683332f0" y="122.801311"/>
      </g>
     </g>
     <g id="text_12">
      <!-- −10.0 -->
      <g transform="translate(44.269442 126.60053)scale(0.1 -0.1)">
       <use xlink:href="#DejaVuSans-8722"/>
       <use x="83.789062" xlink:href="#DejaVuSans-49"/>
       <use x="147.412109" xlink:href="#DejaVuSans-48"/>
       <use x="211.035156" xlink:href="#DejaVuSans-46"/>
       <use x="242.822266" xlink:href="#DejaVuSans-48"/>
      </g>
     </g>
    </g>
    <g id="ytick_7">
     <g id="line2d_23">
      <path clip-path="url(#p3ed69e6d59)" d="M 81.914754 91.484852 
L 390.405246 91.484852 
" style="fill:none;stroke:#b0b0b0;stroke-linecap:square;stroke-width:0.2;"/>
     </g>
     <g id="line2d_24">
      <g>
       <use style="stroke:#000000;stroke-width:0.8;" x="81.914754" xlink:href="#m47683332f0" y="91.484852"/>
      </g>
     </g>
     <g id="text_13">
      <!-- −7.5 -->
      <g transform="translate(50.631942 95.284071)scale(0.1 -0.1)">
       <use xlink:href="#DejaVuSans-8722"/>
       <use x="83.789062" xlink:href="#DejaVuSans-55"/>
       <use x="147.412109" xlink:href="#DejaVuSans-46"/>
       <use x="179.199219" xlink:href="#DejaVuSans-53"/>
      </g>
     </g>
    </g>
    <g id="ytick_8">
     <g id="line2d_25">
      <path clip-path="url(#p3ed69e6d59)" d="M 81.914754 60.168393 
L 390.405246 60.168393 
" style="fill:none;stroke:#b0b0b0;stroke-linecap:square;stroke-width:0.2;"/>
     </g>
     <g id="line2d_26">
      <g>
       <use style="stroke:#000000;stroke-width:0.8;" x="81.914754" xlink:href="#m47683332f0" y="60.168393"/>
      </g>
     </g>
     <g id="text_14">
      <!-- −5.0 -->
      <g transform="translate(50.631942 63.967612)scale(0.1 -0.1)">
       <use xlink:href="#DejaVuSans-8722"/>
       <use x="83.789062" xlink:href="#DejaVuSans-53"/>
       <use x="147.412109" xlink:href="#DejaVuSans-46"/>
       <use x="179.199219" xlink:href="#DejaVuSans-48"/>
      </g>
     </g>
    </g>
    <g id="text_15">
     <!-- Y / m -->
     <g transform="translate(37.357879 192.429406)rotate(-90)scale(0.14 -0.14)">
      <defs>
       <path d="M -0.203125 72.90625 
L 10.40625 72.90625 
L 30.609375 42.921875 
L 50.6875 72.90625 
L 61.28125 72.90625 
L 35.5 34.71875 
L 35.5 0 
L 25.59375 0 
L 25.59375 34.71875 
z
" id="DejaVuSans-89"/>
      </defs>
      <use xlink:href="#DejaVuSans-89"/>
      <use x="61.083984" xlink:href="#DejaVuSans-32"/>
      <use x="92.871094" xlink:href="#DejaVuSans-47"/>
      <use x="126.5625" xlink:href="#DejaVuSans-32"/>
      <use x="158.349609" xlink:href="#DejaVuSans-109"/>
     </g>
    </g>
   </g>
   <g id="patch_3">
    <path clip-path="url(#p3ed69e6d59)" d="M 63.658803 249.579069 
L 238.188923 179.971749 
L 247.20075 202.567582 
L 72.67063 272.174902 
z
" style="opacity:0.5;"/>
   </g>
   <g id="patch_4">
    <path clip-path="url(#p3ed69e6d59)" d="M 316.017721 148.931524 
L 490.54784 79.324204 
L 499.559668 101.920037 
L 325.029548 171.527357 
z
" style="opacity:0.5;"/>
   </g>
   <g id="patch_5">
    <path clip-path="url(#p3ed69e6d59)" d="M 73.790297 276.45194 
L 486.434897 110.966489 
L 503.539336 137.905981 
L 82.770128 293.556379 
z
" style="opacity:0.5;"/>
   </g>
   <g id="line2d_27">
    <path clip-path="url(#p3ed69e6d59)" d="M 198.197514 180.974228 
L 255.759176 169.282015 
L 250.91672 145.442231 
L 193.355057 157.134443 
L 198.197514 180.974228 
" style="fill:none;stroke:#008000;stroke-dasharray:1.48,0.64;stroke-dashoffset:0;stroke-width:0.4;"/>
   </g>
   <g id="line2d_28">
    <path clip-path="url(#p3ed69e6d59)" d="M 258.836092 197.927094 
L 313.394207 176.167845 
L 304.382379 153.572013 
L 249.824264 175.331261 
L 258.836092 197.927094 
" style="fill:none;stroke:#ff0000;stroke-dasharray:1.48,0.64;stroke-dashoffset:0;stroke-width:0.4;"/>
   </g>
   <g id="line2d_29">
    <path clip-path="url(#p3ed69e6d59)" d="M 198.197514 180.974228 
L 255.759176 169.282015 
L 250.91672 145.442231 
L 193.355057 157.134443 
L 198.197514 180.974228 
" style="fill:none;stroke:#0000ff;stroke-dasharray:0.555,0.24;stroke-dashoffset:0;stroke-width:0.15;"/>
   </g>
   <g id="line2d_30">
    <path clip-path="url(#p3ed69e6d59)" d="M 200.944283 180.142361 
L 258.757527 169.765386 
L 254.459791 145.821406 
L 196.646546 156.198381 
L 200.944283 180.142361 
" style="fill:none;stroke:#0000ff;stroke-dasharray:0.555,0.24;stroke-dashoffset:0;stroke-width:0.15;"/>
   </g>
   <g id="line2d_31">
    <path clip-path="url(#p3ed69e6d59)" d="M 206.212726 178.933345 
L 264.240478 169.832094 
L 260.471097 145.799273 
L 202.443344 154.900525 
L 206.212726 178.933345 
" style="fill:none;stroke:#0000ff;stroke-dasharray:0.555,0.24;stroke-dashoffset:0;stroke-width:0.15;"/>
   </g>
   <g id="line2d_32">
    <path clip-path="url(#p3ed69e6d59)" d="M 212.381725 177.001157 
L 270.945549 172.492119 
L 269.078082 148.237279 
L 210.514258 152.746317 
L 212.381725 177.001157 
" style="fill:none;stroke:#0000ff;stroke-dasharray:0.555,0.24;stroke-dashoffset:0;stroke-width:0.15;"/>
   </g>
   <g id="line2d_33">
    <path clip-path="url(#p3ed69e6d59)" d="M 217.045051 176.126446 
L 275.749002 174.15187 
L 274.931211 149.838995 
L 216.227259 151.81357 
L 217.045051 176.126446 
" style="fill:none;stroke:#0000ff;stroke-dasharray:0.555,0.24;stroke-dashoffset:0;stroke-width:0.15;"/>
   </g>
   <g id="line2d_34">
    <path clip-path="url(#p3ed69e6d59)" d="M 219.508892 175.853978 
L 278.237073 174.827526 
L 277.811957 150.504616 
L 219.083776 151.531068 
L 219.508892 175.853978 
" style="fill:none;stroke:#0000ff;stroke-dasharray:0.555,0.24;stroke-dashoffset:0;stroke-width:0.15;"/>
   </g>
   <g id="line2d_35">
    <path clip-path="url(#p3ed69e6d59)" d="M 224.334525 174.77851 
L 282.950371 178.551503 
L 284.512996 154.275117 
L 225.897151 150.502124 
L 224.334525 174.77851 
" style="fill:none;stroke:#0000ff;stroke-dasharray:0.555,0.24;stroke-dashoffset:0;stroke-width:0.15;"/>
   </g>
   <g id="line2d_36">
    <path clip-path="url(#p3ed69e6d59)" d="M 229.518338 174.482528 
L 287.854916 181.330634 
L 290.691133 157.16991 
L 232.354556 150.321804 
L 229.518338 174.482528 
" style="fill:none;stroke:#0000ff;stroke-dasharray:0.555,0.24;stroke-dashoffset:0;stroke-width:0.15;"/>
   </g>
   <g id="line2d_37">
    <path clip-path="url(#p3ed69e6d59)" d="M 233.308582 174.69389 
L 291.498683 182.691696 
L 294.811061 158.591637 
L 236.62096 150.59383 
L 233.308582 174.69389 
" style="fill:none;stroke:#0000ff;stroke-dasharray:0.555,0.24;stroke-dashoffset:0;stroke-width:0.15;"/>
   </g>
   <g id="line2d_38">
    <path clip-path="url(#p3ed69e6d59)" d="M 236.365665 174.974781 
L 294.457475 183.657783 
L 298.053634 159.598432 
L 239.961824 150.915431 
L 236.365665 174.974781 
" style="fill:none;stroke:#0000ff;stroke-dasharray:0.555,0.24;stroke-dashoffset:0;stroke-width:0.15;"/>
   </g>
   <g id="line2d_39">
    <path clip-path="url(#p3ed69e6d59)" d="M 238.589198 175.244802 
L 296.634326 184.23457 
L 300.357536 160.194553 
L 242.312408 151.204785 
L 238.589198 175.244802 
" style="fill:none;stroke:#0000ff;stroke-dasharray:0.555,0.24;stroke-dashoffset:0;stroke-width:0.15;"/>
   </g>
   <g id="line2d_40">
    <path clip-path="url(#p3ed69e6d59)" d="M 240.215417 175.457956 
L 298.230734 184.638143 
L 302.032808 160.610473 
L 244.017491 151.430286 
L 240.215417 175.457956 
" style="fill:none;stroke:#0000ff;stroke-dasharray:0.555,0.24;stroke-dashoffset:0;stroke-width:0.15;"/>
   </g>
   <g id="line2d_41">
    <path clip-path="url(#p3ed69e6d59)" d="M 244.9941 176.493414 
L 303.213079 184.278227 
L 306.437244 160.166208 
L 248.218265 152.381395 
L 244.9941 176.493414 
" style="fill:none;stroke:#0000ff;stroke-dasharray:0.555,0.24;stroke-dashoffset:0;stroke-width:0.15;"/>
   </g>
   <g id="line2d_42">
    <path clip-path="url(#p3ed69e6d59)" d="M 248.934455 177.524704 
L 307.439439 182.741953 
L 309.600219 158.511482 
L 251.095235 153.294233 
L 248.934455 177.524704 
" style="fill:none;stroke:#0000ff;stroke-dasharray:0.555,0.24;stroke-dashoffset:0;stroke-width:0.15;"/>
   </g>
   <g id="line2d_43">
    <path clip-path="url(#p3ed69e6d59)" d="M 255.000233 179.15252 
L 313.734852 178.607204 
L 313.509004 154.281627 
L 254.774384 154.826943 
L 255.000233 179.15252 
" style="fill:none;stroke:#0000ff;stroke-dasharray:0.555,0.24;stroke-dashoffset:0;stroke-width:0.15;"/>
   </g>
   <g id="line2d_44">
    <path clip-path="url(#p3ed69e6d59)" d="M 257.861529 179.601663 
L 316.522051 176.602329 
L 315.279845 152.30744 
L 256.619323 155.306774 
L 257.861529 179.601663 
" style="fill:none;stroke:#0000ff;stroke-dasharray:0.555,0.24;stroke-dashoffset:0;stroke-width:0.15;"/>
   </g>
   <g id="line2d_45">
    <path clip-path="url(#p3ed69e6d59)" d="M 256.9129 179.505298 
L 315.605997 177.230813 
L 314.663994 152.922433 
L 255.970898 155.196918 
L 256.9129 179.505298 
" style="fill:none;stroke:#0000ff;stroke-dasharray:0.555,0.24;stroke-dashoffset:0;stroke-width:0.15;"/>
   </g>
   <g id="line2d_46">
    <path clip-path="url(#p3ed69e6d59)" d="M 257.267299 179.54581 
L 315.949135 176.997293 
L 314.89364 152.693577 
L 256.211803 155.242093 
L 257.267299 179.54581 
" style="fill:none;stroke:#0000ff;stroke-dasharray:0.555,0.24;stroke-dashoffset:0;stroke-width:0.15;"/>
   </g>
   <g id="line2d_47">
    <path clip-path="url(#p3ed69e6d59)" d="M 259.608127 179.792727 
L 318.185328 175.460937 
L 316.391271 151.200557 
L 257.81407 155.532347 
L 259.608127 179.792727 
" style="fill:none;stroke:#0000ff;stroke-dasharray:0.555,0.24;stroke-dashoffset:0;stroke-width:0.15;"/>
   </g>
   <g id="line2d_48">
    <path clip-path="url(#p3ed69e6d59)" d="M 259.444797 179.782246 
L 318.030254 175.563594 
L 316.283054 151.299794 
L 257.697596 155.518446 
L 259.444797 179.782246 
" style="fill:none;stroke:#0000ff;stroke-dasharray:0.555,0.24;stroke-dashoffset:0;stroke-width:0.15;"/>
   </g>
   <g id="line2d_49">
    <path clip-path="url(#p3ed69e6d59)" d="M 258.054049 179.768679 
L 316.677661 176.118338 
L 315.165833 151.838736 
L 256.542221 155.489077 
L 258.054049 179.768679 
" style="fill:none;stroke:#0000ff;stroke-dasharray:0.555,0.24;stroke-dashoffset:0;stroke-width:0.15;"/>
   </g>
   <g id="line2d_50">
    <path clip-path="url(#p3ed69e6d59)" d="M 252.931671 179.388141 
L 311.668367 179.157029 
L 311.572649 154.830592 
L 252.835953 155.061704 
L 252.931671 179.388141 
" style="fill:none;stroke:#0000ff;stroke-dasharray:0.555,0.24;stroke-dashoffset:0;stroke-width:0.15;"/>
   </g>
   <g id="line2d_51">
    <path clip-path="url(#p3ed69e6d59)" d="M 249.019369 178.54153 
L 307.622638 182.505081 
L 309.264185 158.233904 
L 250.660916 154.270354 
L 249.019369 178.54153 
" style="fill:none;stroke:#0000ff;stroke-dasharray:0.555,0.24;stroke-dashoffset:0;stroke-width:0.15;"/>
   </g>
   <g id="line2d_52">
    <path clip-path="url(#p3ed69e6d59)" d="M 249.06706 178.554082 
L 307.67348 182.470752 
L 309.295611 158.19827 
L 250.689191 154.2816 
L 249.06706 178.554082 
" style="fill:none;stroke:#0000ff;stroke-dasharray:0.555,0.24;stroke-dashoffset:0;stroke-width:0.15;"/>
   </g>
   <g id="line2d_53">
    <path clip-path="url(#p3ed69e6d59)" d="M 248.693269 178.474914 
L 307.280907 182.663174 
L 309.01552 158.398471 
L 250.427882 154.210211 
L 248.693269 178.474914 
" style="fill:none;stroke:#0000ff;stroke-dasharray:0.555,0.24;stroke-dashoffset:0;stroke-width:0.15;"/>
   </g>
   <g id="line2d_54">
    <path clip-path="url(#p3ed69e6d59)" d="M 252.036105 179.244387 
L 310.755278 180.697524 
L 311.35711 156.378344 
L 252.637937 154.925207 
L 252.036105 179.244387 
" style="fill:none;stroke:#0000ff;stroke-dasharray:0.555,0.24;stroke-dashoffset:0;stroke-width:0.15;"/>
   </g>
   <g id="line2d_55">
    <path clip-path="url(#p3ed69e6d59)" d="M 259.987966 181.118872 
L 318.206279 173.329079 
L 314.980052 149.217336 
L 256.761739 157.007129 
L 259.987966 181.118872 
" style="fill:none;stroke:#0000ff;stroke-dasharray:0.555,0.24;stroke-dashoffset:0;stroke-width:0.15;"/>
   </g>
   <g id="line2d_56">
    <path clip-path="url(#p3ed69e6d59)" d="M 264.584159 181.260332 
L 322.152545 169.601265 
L 317.323817 145.758697 
L 259.755431 157.417763 
L 264.584159 181.260332 
" style="fill:none;stroke:#0000ff;stroke-dasharray:0.555,0.24;stroke-dashoffset:0;stroke-width:0.15;"/>
   </g>
   <g id="line2d_57">
    <path clip-path="url(#p3ed69e6d59)" d="M 266.339469 181.129232 
L 323.6748 168.373348 
L 318.391813 144.627301 
L 261.056481 157.383185 
L 266.339469 181.129232 
" style="fill:none;stroke:#0000ff;stroke-dasharray:0.555,0.24;stroke-dashoffset:0;stroke-width:0.15;"/>
   </g>
   <g id="line2d_58">
    <path clip-path="url(#p3ed69e6d59)" d="M 265.945209 181.191908 
L 323.307175 168.556336 
L 318.074016 144.799258 
L 260.71205 157.43483 
L 265.945209 181.191908 
" style="fill:none;stroke:#0000ff;stroke-dasharray:0.555,0.24;stroke-dashoffset:0;stroke-width:0.15;"/>
   </g>
   <g id="line2d_59">
    <path clip-path="url(#p3ed69e6d59)" d="M 265.764766 181.235207 
L 323.122963 168.582537 
L 317.882723 144.82702 
L 260.524526 157.47969 
L 265.764766 181.235207 
" style="fill:none;stroke:#0000ff;stroke-dasharray:0.555,0.24;stroke-dashoffset:0;stroke-width:0.15;"/>
   </g>
   <g id="line2d_60">
    <path clip-path="url(#p3ed69e6d59)" d="M 265.046599 181.393275 
L 322.405171 168.742303 
L 317.165634 144.986631 
L 259.807062 157.637603 
L 265.046599 181.393275 
" style="fill:none;stroke:#0000ff;stroke-dasharray:0.555,0.24;stroke-dashoffset:0;stroke-width:0.15;"/>
   </g>
   <g id="line2d_61">
    <path clip-path="url(#p3ed69e6d59)" d="M 265.740194 181.171539 
L 323.170591 168.850726 
L 318.067793 145.065307 
L 260.637396 157.386121 
L 265.740194 181.171539 
" style="fill:none;stroke:#0000ff;stroke-dasharray:0.555,0.24;stroke-dashoffset:0;stroke-width:0.15;"/>
   </g>
   <g id="line2d_62">
    <path clip-path="url(#p3ed69e6d59)" d="M 265.071702 181.372586 
L 322.441609 168.77312 
L 317.223404 145.012753 
L 259.853496 157.61222 
L 265.071702 181.372586 
" style="fill:none;stroke:#0000ff;stroke-dasharray:0.555,0.24;stroke-dashoffset:0;stroke-width:0.15;"/>
   </g>
   <g id="line2d_63">
    <path clip-path="url(#p3ed69e6d59)" d="M 264.757854 181.462618 
L 322.105332 168.761454 
L 316.845008 145.010376 
L 259.497529 157.711541 
L 264.757854 181.462618 
" style="fill:none;stroke:#0000ff;stroke-dasharray:0.555,0.24;stroke-dashoffset:0;stroke-width:0.15;"/>
   </g>
   <g id="line2d_64">
    <path clip-path="url(#p3ed69e6d59)" d="M 264.410237 181.607516 
L 321.684198 168.578845 
L 316.288233 144.858216 
L 259.014273 157.886887 
L 264.410237 181.607516 
" style="fill:none;stroke:#0000ff;stroke-dasharray:0.555,0.24;stroke-dashoffset:0;stroke-width:0.15;"/>
   </g>
   <g id="line2d_65">
    <path clip-path="url(#p3ed69e6d59)" d="M 262.292924 182.961409 
L 318.408997 165.610927 
L 311.223107 142.369849 
L 255.107034 159.720331 
L 262.292924 182.961409 
" style="fill:none;stroke:#0000ff;stroke-dasharray:0.555,0.24;stroke-dashoffset:0;stroke-width:0.15;"/>
   </g>
   <g id="line2d_66">
    <path clip-path="url(#p3ed69e6d59)" d="M 260.673784 184.377774 
L 315.256927 162.681383 
L 306.271132 140.075185 
L 251.687989 161.771576 
L 260.673784 184.377774 
" style="fill:none;stroke:#0000ff;stroke-dasharray:0.555,0.24;stroke-dashoffset:0;stroke-width:0.15;"/>
   </g>
   <g id="line2d_67">
    <path clip-path="url(#p3ed69e6d59)" d="M 259.477288 185.413404 
L 313.00901 161.238881 
L 302.996871 139.06814 
L 249.465148 163.242663 
L 259.477288 185.413404 
" style="fill:none;stroke:#0000ff;stroke-dasharray:0.555,0.24;stroke-dashoffset:0;stroke-width:0.15;"/>
   </g>
   <g id="line2d_68">
    <path clip-path="url(#p3ed69e6d59)" d="M 258.576163 186.082958 
L 311.593657 160.80059 
L 301.122691 138.842822 
L 248.105197 164.12519 
L 258.576163 186.082958 
" style="fill:none;stroke:#0000ff;stroke-dasharray:0.555,0.24;stroke-dashoffset:0;stroke-width:0.15;"/>
   </g>
   <g id="line2d_69">
    <path clip-path="url(#p3ed69e6d59)" d="M 256.485637 187.327 
L 309.003604 161.022704 
L 298.109396 139.27182 
L 245.591429 165.576116 
L 256.485637 187.327 
" style="fill:none;stroke:#0000ff;stroke-dasharray:0.555,0.24;stroke-dashoffset:0;stroke-width:0.15;"/>
   </g>
   <g id="line2d_70">
    <path clip-path="url(#p3ed69e6d59)" d="M 253.642115 188.751214 
L 306.160082 162.446918 
L 295.265874 140.696035 
L 242.747907 167.00033 
L 253.642115 188.751214 
" style="fill:none;stroke:#0000ff;stroke-dasharray:0.555,0.24;stroke-dashoffset:0;stroke-width:0.15;"/>
   </g>
   <g id="line2d_71">
    <path clip-path="url(#p3ed69e6d59)" d="M 249.577685 190.589634 
L 302.485353 165.078237 
L 291.919532 143.165954 
L 239.011864 168.677352 
L 249.577685 190.589634 
" style="fill:none;stroke:#0000ff;stroke-dasharray:0.555,0.24;stroke-dashoffset:0;stroke-width:0.15;"/>
   </g>
   <g id="line2d_72">
    <path clip-path="url(#p3ed69e6d59)" d="M 244.989096 192.174147 
L 299.047364 169.201197 
L 289.532869 146.812381 
L 235.4746 169.785331 
L 244.989096 192.174147 
" style="fill:none;stroke:#0000ff;stroke-dasharray:0.555,0.24;stroke-dashoffset:0;stroke-width:0.15;"/>
   </g>
   <g id="line2d_73">
    <path clip-path="url(#p3ed69e6d59)" d="M 243.422654 192.697905 
L 297.733921 170.329642 
L 288.469863 147.836044 
L 234.158597 170.204307 
L 243.422654 192.697905 
" style="fill:none;stroke:#0000ff;stroke-dasharray:0.555,0.24;stroke-dashoffset:0;stroke-width:0.15;"/>
   </g>
   <g id="line2d_74">
    <path clip-path="url(#p3ed69e6d59)" d="M 244.197295 192.459072 
L 298.364425 169.743991 
L 288.956729 147.310089 
L 234.789599 170.02517 
L 244.197295 192.459072 
" style="fill:none;stroke:#0000ff;stroke-dasharray:0.555,0.24;stroke-dashoffset:0;stroke-width:0.15;"/>
   </g>
   <g id="line2d_75">
    <path clip-path="url(#p3ed69e6d59)" d="M 247.261233 191.62673 
L 300.5617 166.946515 
L 290.340123 144.871551 
L 237.039655 169.551766 
L 247.261233 191.62673 
" style="fill:none;stroke:#0000ff;stroke-dasharray:0.555,0.24;stroke-dashoffset:0;stroke-width:0.15;"/>
   </g>
   <g id="line2d_76">
    <path clip-path="url(#p3ed69e6d59)" d="M 248.908205 190.982372 
L 301.977695 165.809329 
L 291.552007 143.830026 
L 238.482517 169.00307 
L 248.908205 190.982372 
" style="fill:none;stroke:#0000ff;stroke-dasharray:0.555,0.24;stroke-dashoffset:0;stroke-width:0.15;"/>
   </g>
   <g id="line2d_77">
    <path clip-path="url(#p3ed69e6d59)" d="M 252.060443 189.848245 
L 304.392017 163.175053 
L 293.345027 141.501366 
L 241.013452 168.174559 
L 252.060443 189.848245 
" style="fill:none;stroke:#0000ff;stroke-dasharray:0.555,0.24;stroke-dashoffset:0;stroke-width:0.15;"/>
   </g>
   <g id="line2d_78">
    <path clip-path="url(#p3ed69e6d59)" d="M 255.367674 188.470407 
L 307.047752 160.555853 
L 295.486638 139.15199 
L 243.806559 167.066544 
L 255.367674 188.470407 
" style="fill:none;stroke:#0000ff;stroke-dasharray:0.555,0.24;stroke-dashoffset:0;stroke-width:0.15;"/>
   </g>
   <g id="line2d_79">
    <path clip-path="url(#p3ed69e6d59)" d="M 259.071851 187.124172 
L 309.265926 156.61831 
L 296.631594 135.829891 
L 246.437518 166.335754 
L 259.071851 187.124172 
" style="fill:none;stroke:#0000ff;stroke-dasharray:0.555,0.24;stroke-dashoffset:0;stroke-width:0.15;"/>
   </g>
   <g id="line2d_80">
    <path clip-path="url(#p3ed69e6d59)" d="M 262.430485 185.987094 
L 310.404192 152.096442 
L 296.368012 132.227613 
L 248.394306 166.118266 
L 262.430485 185.987094 
" style="fill:none;stroke:#0000ff;stroke-dasharray:0.555,0.24;stroke-dashoffset:0;stroke-width:0.15;"/>
   </g>
   <g id="line2d_81">
    <path clip-path="url(#p3ed69e6d59)" d="M 266.305966 184.361345 
L 311.35691 146.672284 
L 295.747579 128.013949 
L 250.696635 165.70301 
L 266.305966 184.361345 
" style="fill:none;stroke:#0000ff;stroke-dasharray:0.555,0.24;stroke-dashoffset:0;stroke-width:0.15;"/>
   </g>
   <g id="line2d_82">
    <path clip-path="url(#p3ed69e6d59)" d="M 266.879743 184.01255 
L 311.601546 145.933511 
L 295.830701 127.411493 
L 251.108898 165.490533 
L 266.879743 184.01255 
" style="fill:none;stroke:#0000ff;stroke-dasharray:0.555,0.24;stroke-dashoffset:0;stroke-width:0.15;"/>
   </g>
   <g id="line2d_83">
    <path clip-path="url(#p3ed69e6d59)" d="M 264.605295 185.659959 
L 310.032782 148.425615 
L 294.611776 129.611331 
L 249.18429 166.845674 
L 264.605295 185.659959 
" style="fill:none;stroke:#0000ff;stroke-dasharray:0.555,0.24;stroke-dashoffset:0;stroke-width:0.15;"/>
   </g>
   <g id="line2d_84">
    <path clip-path="url(#p3ed69e6d59)" d="M 258.710329 189.095144 
L 307.261342 156.036831 
L 293.569884 135.928905 
L 245.018872 168.987218 
L 258.710329 189.095144 
" style="fill:none;stroke:#0000ff;stroke-dasharray:0.555,0.24;stroke-dashoffset:0;stroke-width:0.15;"/>
   </g>
   <g id="line2d_85">
    <path clip-path="url(#p3ed69e6d59)" d="M 250.007251 192.202256 
L 303.779332 168.567193 
L 293.990615 146.296905 
L 240.218535 169.931968 
L 250.007251 192.202256 
" style="fill:none;stroke:#0000ff;stroke-dasharray:0.555,0.24;stroke-dashoffset:0;stroke-width:0.15;"/>
   </g>
   <g id="line2d_86">
    <path clip-path="url(#p3ed69e6d59)" d="M 244.956954 193.286184 
L 300.553454 174.336724 
L 292.705331 151.310833 
L 237.10883 170.260292 
L 244.956954 193.286184 
" style="fill:none;stroke:#0000ff;stroke-dasharray:0.555,0.24;stroke-dashoffset:0;stroke-width:0.15;"/>
   </g>
   <g id="line2d_87">
    <path clip-path="url(#p3ed69e6d59)" d="M 243.689449 193.427836 
L 299.712953 175.780744 
L 292.404219 152.578005 
L 236.380715 170.225097 
L 243.689449 193.427836 
" style="fill:none;stroke:#0000ff;stroke-dasharray:0.555,0.24;stroke-dashoffset:0;stroke-width:0.15;"/>
   </g>
   <g id="line2d_88">
    <path clip-path="url(#p3ed69e6d59)" d="M 243.752498 193.418653 
L 299.76053 175.722518 
L 292.431484 152.526187 
L 236.423452 170.222322 
L 243.752498 193.418653 
" style="fill:none;stroke:#0000ff;stroke-dasharray:0.555,0.24;stroke-dashoffset:0;stroke-width:0.15;"/>
   </g>
   <g id="line2d_89">
    <path clip-path="url(#p3ed69e6d59)" d="M 245.831792 193.058859 
L 301.386251 173.986499 
L 293.487227 150.97802 
L 237.932768 170.05038 
L 245.831792 193.058859 
" style="fill:none;stroke:#0000ff;stroke-dasharray:0.555,0.24;stroke-dashoffset:0;stroke-width:0.15;"/>
   </g>
   <g id="line2d_90">
    <path clip-path="url(#p3ed69e6d59)" d="M 250.862286 191.725086 
L 305.767265 170.856543 
L 297.124333 148.117053 
L 242.219353 168.985596 
L 250.862286 191.725086 
" style="fill:none;stroke:#0000ff;stroke-dasharray:0.555,0.24;stroke-dashoffset:0;stroke-width:0.15;"/>
   </g>
   <g id="line2d_91">
    <path clip-path="url(#p3ed69e6d59)" d="M 254.485896 190.411003 
L 309.283949 169.26328 
L 300.525392 146.568075 
L 245.727338 167.715797 
L 254.485896 190.411003 
" style="fill:none;stroke:#0000ff;stroke-dasharray:0.555,0.24;stroke-dashoffset:0;stroke-width:0.15;"/>
   </g>
   <g id="line2d_92">
    <path clip-path="url(#p3ed69e6d59)" d="M 260.296318 188.744922 
L 314.031011 165.02498 
L 304.20714 142.770176 
L 250.472448 166.490118 
L 260.296318 188.744922 
" style="fill:none;stroke:#0000ff;stroke-dasharray:0.555,0.24;stroke-dashoffset:0;stroke-width:0.15;"/>
   </g>
   <g id="line2d_93">
    <path clip-path="url(#p3ed69e6d59)" d="M 264.596515 187.530615 
L 316.935455 160.87188 
L 305.894452 139.195143 
L 253.555512 165.853878 
L 264.596515 187.530615 
" style="fill:none;stroke:#0000ff;stroke-dasharray:0.555,0.24;stroke-dashoffset:0;stroke-width:0.15;"/>
   </g>
   <g id="line2d_94">
    <path clip-path="url(#p3ed69e6d59)" d="M 265.197123 187.276994 
L 317.428663 160.408443 
L 306.300762 138.776187 
L 254.069222 165.644738 
L 265.197123 187.276994 
" style="fill:none;stroke:#0000ff;stroke-dasharray:0.555,0.24;stroke-dashoffset:0;stroke-width:0.15;"/>
   </g>
   <g id="line2d_95">
    <path clip-path="url(#p3ed69e6d59)" d="M 262.971563 188.440654 
L 315.164413 161.497023 
L 304.005416 139.88079 
L 251.812567 166.824422 
L 262.971563 188.440654 
" style="fill:none;stroke:#0000ff;stroke-dasharray:0.555,0.24;stroke-dashoffset:0;stroke-width:0.15;"/>
   </g>
   <g id="line2d_96">
    <path clip-path="url(#p3ed69e6d59)" d="M 258.989904 190.15265 
L 311.862472 164.568585 
L 301.266555 142.67084 
L 248.393987 168.254905 
L 258.989904 190.15265 
" style="fill:none;stroke:#0000ff;stroke-dasharray:0.555,0.24;stroke-dashoffset:0;stroke-width:0.15;"/>
   </g>
   <g id="line2d_97">
    <path clip-path="url(#p3ed69e6d59)" d="M 254.127411 191.827951 
L 308.237066 168.976298 
L 298.772807 146.5662 
L 244.663152 169.417853 
L 254.127411 191.827951 
" style="fill:none;stroke:#0000ff;stroke-dasharray:0.555,0.24;stroke-dashoffset:0;stroke-width:0.15;"/>
   </g>
   <g id="line2d_98">
    <path clip-path="url(#p3ed69e6d59)" d="M 250.440646 192.941674 
L 305.305826 171.96872 
L 296.619651 149.245713 
L 241.75447 170.218667 
L 250.440646 192.941674 
" style="fill:none;stroke:#0000ff;stroke-dasharray:0.555,0.24;stroke-dashoffset:0;stroke-width:0.15;"/>
   </g>
   <g id="line2d_99">
    <path clip-path="url(#p3ed69e6d59)" d="M 248.196886 193.617881 
L 303.359583 173.440425 
L 295.002872 150.594198 
L 239.840175 170.771655 
L 248.196886 193.617881 
" style="fill:none;stroke:#0000ff;stroke-dasharray:0.555,0.24;stroke-dashoffset:0;stroke-width:0.15;"/>
   </g>
   <g id="line2d_100">
    <path clip-path="url(#p3ed69e6d59)" d="M 247.290346 193.895131 
L 302.540806 173.959247 
L 294.284144 151.076672 
L 239.033684 171.012556 
L 247.290346 193.895131 
" style="fill:none;stroke:#0000ff;stroke-dasharray:0.555,0.24;stroke-dashoffset:0;stroke-width:0.15;"/>
   </g>
   <g id="line2d_101">
    <path clip-path="url(#p3ed69e6d59)" d="M 247.470372 193.838902 
L 302.706746 173.864023 
L 294.433934 150.987282 
L 239.19756 170.962161 
L 247.470372 193.838902 
" style="fill:none;stroke:#0000ff;stroke-dasharray:0.555,0.24;stroke-dashoffset:0;stroke-width:0.15;"/>
   </g>
   <g id="line2d_102">
    <path clip-path="url(#p3ed69e6d59)" d="M 249.48176 193.132291 
L 304.684521 173.064704 
L 296.373313 150.201884 
L 241.170552 170.269471 
L 249.48176 193.132291 
" style="fill:none;stroke:#0000ff;stroke-dasharray:0.555,0.24;stroke-dashoffset:0;stroke-width:0.15;"/>
   </g>
   <g id="line2d_103">
    <path clip-path="url(#p3ed69e6d59)" d="M 254.775932 191.650316 
L 309.210814 169.584584 
L 300.072052 147.03979 
L 245.637171 169.105522 
L 254.775932 191.650316 
" style="fill:none;stroke:#0000ff;stroke-dasharray:0.555,0.24;stroke-dashoffset:0;stroke-width:0.15;"/>
   </g>
   <g id="line2d_104">
    <path clip-path="url(#p3ed69e6d59)" d="M 259.421417 190.51459 
L 312.396301 165.14306 
L 301.888408 143.20294 
L 248.913524 168.574469 
L 259.421417 190.51459 
" style="fill:none;stroke:#0000ff;stroke-dasharray:0.555,0.24;stroke-dashoffset:0;stroke-width:0.15;"/>
   </g>
   <g id="line2d_105">
    <path clip-path="url(#p3ed69e6d59)" d="M 264.591372 189.291814 
L 314.681915 158.616248 
L 301.977298 137.870709 
L 251.886755 168.546274 
L 264.591372 189.291814 
" style="fill:none;stroke:#0000ff;stroke-dasharray:0.555,0.24;stroke-dashoffset:0;stroke-width:0.15;"/>
   </g>
   <g id="line2d_106">
    <path clip-path="url(#p3ed69e6d59)" d="M 265.422499 188.941095 
L 315.151675 157.683105 
L 302.20584 137.08723 
L 252.476665 168.34522 
L 265.422499 188.941095 
" style="fill:none;stroke:#0000ff;stroke-dasharray:0.555,0.24;stroke-dashoffset:0;stroke-width:0.15;"/>
   </g>
   <g id="line2d_107">
    <path clip-path="url(#p3ed69e6d59)" d="M 264.28634 189.477725 
L 314.412433 158.860284 
L 301.731889 138.100022 
L 251.605796 168.717462 
L 264.28634 189.477725 
" style="fill:none;stroke:#0000ff;stroke-dasharray:0.555,0.24;stroke-dashoffset:0;stroke-width:0.15;"/>
   </g>
   <g id="line2d_108">
    <path clip-path="url(#p3ed69e6d59)" d="M 259.608073 191.407903 
L 311.638642 164.15221 
L 300.350403 142.603188 
L 248.319834 169.85888 
L 259.608073 191.407903 
" style="fill:none;stroke:#0000ff;stroke-dasharray:0.555,0.24;stroke-dashoffset:0;stroke-width:0.15;"/>
   </g>
   <g id="line2d_109">
    <path clip-path="url(#p3ed69e6d59)" d="M 207.18059 166.737836 
L 210.249563 166.114451 
L 215.824683 165.113765 
L 223.050848 163.980391 
L 228.266774 163.578799 
L 230.931753 163.489159 
L 236.729001 163.387835 
L 242.49428 163.758935 
L 246.493584 164.228412 
L 249.673084 164.665411 
L 251.950893 165.005876 
L 253.610638 165.262929 
L 258.140717 165.979757 
L 261.606043 166.443127 
L 266.524003 166.881691 
L 268.86244 166.85998 
L 268.070367 166.900479 
L 268.365788 166.889031 
L 270.316605 166.804308 
L 270.178339 166.814533 
L 268.912837 166.90566 
L 264.520918 167.179134 
L 261.450814 167.191214 
L 261.489421 167.193825 
L 261.168149 167.172354 
L 263.970656 167.372697 
L 269.909255 167.519661 
L 273.575432 167.029115 
L 275.057438 166.728971 
L 274.69337 166.809968 
L 274.508639 166.85066 
L 273.790898 167.008987 
L 274.567093 166.83779 
L 273.828913 166.996156 
L 273.489561 167.070683 
L 273.059559 167.165919 
L 269.817879 167.903336 
L 266.995077 168.776115 
L 265.077098 169.538498 
L 263.844679 170.095049 
L 261.443564 171.240065 
L 258.600042 172.664279 
L 254.777014 174.579092 
L 250.942049 176.428263 
L 249.550951 177.019432 
L 250.225216 176.741735 
L 252.710507 175.699523 
L 254.209662 175.005355 
L 256.90505 173.726822 
L 259.826143 172.237953 
L 262.699299 170.686042 
L 264.917103 169.338153 
L 267.426941 167.565098 
L 267.85475 167.207198 
L 265.895034 168.875827 
L 261.483686 172.49156 
L 255.766393 176.384456 
L 252.047852 178.018909 
L 251.134642 178.330167 
L 251.184469 178.314472 
L 252.888911 177.775941 
L 257.418774 176.220797 
L 260.963386 174.873544 
L 266.030476 172.918048 
L 269.445575 171.410531 
L 269.981456 171.137581 
L 267.732683 172.294378 
L 264.167231 174.134979 
L 260.115663 176.095458 
L 256.967627 177.424941 
L 254.947544 178.197144 
L 254.108416 178.504081 
L 254.277577 178.443043 
L 256.263107 177.725025 
L 260.991368 176.006184 
L 264.663028 174.517839 
L 268.163165 172.841501 
L 268.802089 172.450223 
L 267.877213 173.031566 
L 264.27242 175.233405 
" style="fill:none;stroke:#ff0000;stroke-linecap:square;stroke-width:0.1;"/>
   </g>
   <g id="patch_6">
    <path d="M 81.914754 307.584 
L 81.914754 41.472 
" style="fill:none;stroke:#000000;stroke-linecap:square;stroke-linejoin:miter;stroke-width:0.8;"/>
   </g>
   <g id="patch_7">
    <path d="M 390.405246 307.584 
L 390.405246 41.472 
" style="fill:none;stroke:#000000;stroke-linecap:square;stroke-linejoin:miter;stroke-width:0.8;"/>
   </g>
   <g id="patch_8">
    <path d="M 81.914754 307.584 
L 390.405246 307.584 
" style="fill:none;stroke:#000000;stroke-linecap:square;stroke-linejoin:miter;stroke-width:0.8;"/>
   </g>
   <g id="patch_9">
    <path d="M 81.914754 41.472 
L 390.405246 41.472 
" style="fill:none;stroke:#000000;stroke-linecap:square;stroke-linejoin:miter;stroke-width:0.8;"/>
   </g>
   <g id="text_16">
    <!-- Case 1 -->
    <g transform="translate(215.751563 35.472)scale(0.12 -0.12)">
     <defs>
      <path d="M 64.40625 67.28125 
L 64.40625 56.890625 
Q 59.421875 61.53125 53.78125 63.8125 
Q 48.140625 66.109375 41.796875 66.109375 
Q 29.296875 66.109375 22.65625 58.46875 
Q 16.015625 50.828125 16.015625 36.375 
Q 16.015625 21.96875 22.65625 14.328125 
Q 29.296875 6.6875 41.796875 6.6875 
Q 48.140625 6.6875 53.78125 8.984375 
Q 59.421875 11.28125 64.40625 15.921875 
L 64.40625 5.609375 
Q 59.234375 2.09375 53.4375 0.328125 
Q 47.65625 -1.421875 41.21875 -1.421875 
Q 24.65625 -1.421875 15.125 8.703125 
Q 5.609375 18.84375 5.609375 36.375 
Q 5.609375 53.953125 15.125 64.078125 
Q 24.65625 74.21875 41.21875 74.21875 
Q 47.75 74.21875 53.53125 72.484375 
Q 59.328125 70.75 64.40625 67.28125 
z
" id="DejaVuSans-67"/>
      <path d="M 34.28125 27.484375 
Q 23.390625 27.484375 19.1875 25 
Q 14.984375 22.515625 14.984375 16.5 
Q 14.984375 11.71875 18.140625 8.90625 
Q 21.296875 6.109375 26.703125 6.109375 
Q 34.1875 6.109375 38.703125 11.40625 
Q 43.21875 16.703125 43.21875 25.484375 
L 43.21875 27.484375 
z
M 52.203125 31.203125 
L 52.203125 0 
L 43.21875 0 
L 43.21875 8.296875 
Q 40.140625 3.328125 35.546875 0.953125 
Q 30.953125 -1.421875 24.3125 -1.421875 
Q 15.921875 -1.421875 10.953125 3.296875 
Q 6 8.015625 6 15.921875 
Q 6 25.140625 12.171875 29.828125 
Q 18.359375 34.515625 30.609375 34.515625 
L 43.21875 34.515625 
L 43.21875 35.40625 
Q 43.21875 41.609375 39.140625 45 
Q 35.0625 48.390625 27.6875 48.390625 
Q 23 48.390625 18.546875 47.265625 
Q 14.109375 46.140625 10.015625 43.890625 
L 10.015625 52.203125 
Q 14.9375 54.109375 19.578125 55.046875 
Q 24.21875 56 28.609375 56 
Q 40.484375 56 46.34375 49.84375 
Q 52.203125 43.703125 52.203125 31.203125 
z
" id="DejaVuSans-97"/>
      <path d="M 44.28125 53.078125 
L 44.28125 44.578125 
Q 40.484375 46.53125 36.375 47.5 
Q 32.28125 48.484375 27.875 48.484375 
Q 21.1875 48.484375 17.84375 46.4375 
Q 14.5 44.390625 14.5 40.28125 
Q 14.5 37.15625 16.890625 35.375 
Q 19.28125 33.59375 26.515625 31.984375 
L 29.59375 31.296875 
Q 39.15625 29.25 43.1875 25.515625 
Q 47.21875 21.78125 47.21875 15.09375 
Q 47.21875 7.46875 41.1875 3.015625 
Q 35.15625 -1.421875 24.609375 -1.421875 
Q 20.21875 -1.421875 15.453125 -0.5625 
Q 10.6875 0.296875 5.421875 2 
L 5.421875 11.28125 
Q 10.40625 8.6875 15.234375 7.390625 
Q 20.0625 6.109375 24.8125 6.109375 
Q 31.15625 6.109375 34.5625 8.28125 
Q 37.984375 10.453125 37.984375 14.40625 
Q 37.984375 18.0625 35.515625 20.015625 
Q 33.0625 21.96875 24.703125 23.78125 
L 21.578125 24.515625 
Q 13.234375 26.265625 9.515625 29.90625 
Q 5.8125 33.546875 5.8125 39.890625 
Q 5.8125 47.609375 11.28125 51.796875 
Q 16.75 56 26.8125 56 
Q 31.78125 56 36.171875 55.265625 
Q 40.578125 54.546875 44.28125 53.078125 
z
" id="DejaVuSans-115"/>
      <path d="M 56.203125 29.59375 
L 56.203125 25.203125 
L 14.890625 25.203125 
Q 15.484375 15.921875 20.484375 11.0625 
Q 25.484375 6.203125 34.421875 6.203125 
Q 39.59375 6.203125 44.453125 7.46875 
Q 49.3125 8.734375 54.109375 11.28125 
L 54.109375 2.78125 
Q 49.265625 0.734375 44.1875 -0.34375 
Q 39.109375 -1.421875 33.890625 -1.421875 
Q 20.796875 -1.421875 13.15625 6.1875 
Q 5.515625 13.8125 5.515625 26.8125 
Q 5.515625 40.234375 12.765625 48.109375 
Q 20.015625 56 32.328125 56 
Q 43.359375 56 49.78125 48.890625 
Q 56.203125 41.796875 56.203125 29.59375 
z
M 47.21875 32.234375 
Q 47.125 39.59375 43.09375 43.984375 
Q 39.0625 48.390625 32.421875 48.390625 
Q 24.90625 48.390625 20.390625 44.140625 
Q 15.875 39.890625 15.1875 32.171875 
z
" id="DejaVuSans-101"/>
     </defs>
     <use xlink:href="#DejaVuSans-67"/>
     <use x="69.824219" xlink:href="#DejaVuSans-97"/>
     <use x="131.103516" xlink:href="#DejaVuSans-115"/>
     <use x="183.203125" xlink:href="#DejaVuSans-101"/>
     <use x="244.726562" xlink:href="#DejaVuSans-32"/>
     <use x="276.513672" xlink:href="#DejaVuSans-49"/>
    </g>
   </g>
  </g>
 </g>
 <defs>
  <clipPath id="p3ed69e6d59">
   <rect height="266.112" width="308.490492" x="81.914754" y="41.472"/>
  </clipPath>
 </defs>
</svg>
