<?xml version="1.0" encoding="utf-8" standalone="no"?>
<!DOCTYPE svg PUBLIC "-//W3C//DTD SVG 1.1//EN"
  "http://www.w3.org/Graphics/SVG/1.1/DTD/svg11.dtd">
<!-- Created with matplotlib (https://matplotlib.org/) -->
<svg height="345.6pt" version="1.1" viewBox="0 0 460.8 345.6" width="460.8pt" xmlns="http://www.w3.org/2000/svg" xmlns:xlink="http://www.w3.org/1999/xlink">
 <metadata>
  <rdf:RDF xmlns:cc="http://creativecommons.org/ns#" xmlns:dc="http://purl.org/dc/elements/1.1/" xmlns:rdf="http://www.w3.org/1999/02/22-rdf-syntax-ns#">
   <cc:Work>
    <dc:type rdf:resource="http://purl.org/dc/dcmitype/StillImage"/>
    <dc:date>2022-11-21T15:53:25.651159</dc:date>
    <dc:format>image/svg+xml</dc:format>
    <dc:creator>
     <cc:Agent>
      <dc:title>Matplotlib v3.3.4, https://matplotlib.org/</dc:title>
     </cc:Agent>
    </dc:creator>
   </cc:Work>
  </rdf:RDF>
 </metadata>
 <defs>
  <style type="text/css">*{stroke-linecap:butt;stroke-linejoin:round;}</style>
 </defs>
 <g id="figure_1">
  <g id="patch_1">
   <path d="M 0 345.6 
L 460.8 345.6 
L 460.8 0 
L 0 0 
z
" style="fill:#ffffff;"/>
  </g>
  <g id="axes_1">
   <g id="patch_2">
    <path d="M 81.914754 307.584 
L 390.405246 307.584 
L 390.405246 41.472 
L 81.914754 41.472 
z
" style="fill:#ffffff;"/>
   </g>
   <g id="matplotlib.axis_1">
    <g id="xtick_1">
     <g id="line2d_1">
      <path clip-path="url(#pd54a8ec5b4)" d="M 94.690623 307.584 
L 94.690623 41.472 
" style="fill:none;stroke:#b0b0b0;stroke-linecap:square;stroke-width:0.2;"/>
     </g>
     <g id="line2d_2">
      <defs>
       <path d="M 0 0 
L 0 3.5 
" id="m04ee8afd36" style="stroke:#000000;stroke-width:0.8;"/>
      </defs>
      <g>
       <use style="stroke:#000000;stroke-width:0.8;" x="94.690623" xlink:href="#m04ee8afd36" y="307.584"/>
      </g>
     </g>
     <g id="text_1">
      <!-- −25 -->
      <g transform="translate(84.138279 322.182437)scale(0.1 -0.1)">
       <defs>
        <path d="M 10.59375 35.5 
L 73.1875 35.5 
L 73.1875 27.203125 
L 10.59375 27.203125 
z
" id="DejaVuSans-8722"/>
        <path d="M 19.1875 8.296875 
L 53.609375 8.296875 
L 53.609375 0 
L 7.328125 0 
L 7.328125 8.296875 
Q 12.9375 14.109375 22.625 23.890625 
Q 32.328125 33.6875 34.8125 36.53125 
Q 39.546875 41.84375 41.421875 45.53125 
Q 43.3125 49.21875 43.3125 52.78125 
Q 43.3125 58.59375 39.234375 62.25 
Q 35.15625 65.921875 28.609375 65.921875 
Q 23.96875 65.921875 18.8125 64.3125 
Q 13.671875 62.703125 7.8125 59.421875 
L 7.8125 69.390625 
Q 13.765625 71.78125 18.9375 73 
Q 24.125 74.21875 28.421875 74.21875 
Q 39.75 74.21875 46.484375 68.546875 
Q 53.21875 62.890625 53.21875 53.421875 
Q 53.21875 48.921875 51.53125 44.890625 
Q 49.859375 40.875 45.40625 35.40625 
Q 44.1875 33.984375 37.640625 27.21875 
Q 31.109375 20.453125 19.1875 8.296875 
z
" id="DejaVuSans-50"/>
        <path d="M 10.796875 72.90625 
L 49.515625 72.90625 
L 49.515625 64.59375 
L 19.828125 64.59375 
L 19.828125 46.734375 
Q 21.96875 47.46875 24.109375 47.828125 
Q 26.265625 48.1875 28.421875 48.1875 
Q 40.625 48.1875 47.75 41.5 
Q 54.890625 34.8125 54.890625 23.390625 
Q 54.890625 11.625 47.5625 5.09375 
Q 40.234375 -1.421875 26.90625 -1.421875 
Q 22.3125 -1.421875 17.546875 -0.640625 
Q 12.796875 0.140625 7.71875 1.703125 
L 7.71875 11.625 
Q 12.109375 9.234375 16.796875 8.0625 
Q 21.484375 6.890625 26.703125 6.890625 
Q 35.15625 6.890625 40.078125 11.328125 
Q 45.015625 15.765625 45.015625 23.390625 
Q 45.015625 31 40.078125 35.4375 
Q 35.15625 39.890625 26.703125 39.890625 
Q 22.75 39.890625 18.8125 39.015625 
Q 14.890625 38.140625 10.796875 36.28125 
z
" id="DejaVuSans-53"/>
       </defs>
       <use xlink:href="#DejaVuSans-8722"/>
       <use x="83.789062" xlink:href="#DejaVuSans-50"/>
       <use x="147.412109" xlink:href="#DejaVuSans-53"/>
      </g>
     </g>
    </g>
    <g id="xtick_2">
     <g id="line2d_3">
      <path clip-path="url(#pd54a8ec5b4)" d="M 157.323541 307.584 
L 157.323541 41.472 
" style="fill:none;stroke:#b0b0b0;stroke-linecap:square;stroke-width:0.2;"/>
     </g>
     <g id="line2d_4">
      <g>
       <use style="stroke:#000000;stroke-width:0.8;" x="157.323541" xlink:href="#m04ee8afd36" y="307.584"/>
      </g>
     </g>
     <g id="text_2">
      <!-- −20 -->
      <g transform="translate(146.771197 322.182437)scale(0.1 -0.1)">
       <defs>
        <path d="M 31.78125 66.40625 
Q 24.171875 66.40625 20.328125 58.90625 
Q 16.5 51.421875 16.5 36.375 
Q 16.5 21.390625 20.328125 13.890625 
Q 24.171875 6.390625 31.78125 6.390625 
Q 39.453125 6.390625 43.28125 13.890625 
Q 47.125 21.390625 47.125 36.375 
Q 47.125 51.421875 43.28125 58.90625 
Q 39.453125 66.40625 31.78125 66.40625 
z
M 31.78125 74.21875 
Q 44.046875 74.21875 50.515625 64.515625 
Q 56.984375 54.828125 56.984375 36.375 
Q 56.984375 17.96875 50.515625 8.265625 
Q 44.046875 -1.421875 31.78125 -1.421875 
Q 19.53125 -1.421875 13.0625 8.265625 
Q 6.59375 17.96875 6.59375 36.375 
Q 6.59375 54.828125 13.0625 64.515625 
Q 19.53125 74.21875 31.78125 74.21875 
z
" id="DejaVuSans-48"/>
       </defs>
       <use xlink:href="#DejaVuSans-8722"/>
       <use x="83.789062" xlink:href="#DejaVuSans-50"/>
       <use x="147.412109" xlink:href="#DejaVuSans-48"/>
      </g>
     </g>
    </g>
    <g id="xtick_3">
     <g id="line2d_5">
      <path clip-path="url(#pd54a8ec5b4)" d="M 219.956459 307.584 
L 219.956459 41.472 
" style="fill:none;stroke:#b0b0b0;stroke-linecap:square;stroke-width:0.2;"/>
     </g>
     <g id="line2d_6">
      <g>
       <use style="stroke:#000000;stroke-width:0.8;" x="219.956459" xlink:href="#m04ee8afd36" y="307.584"/>
      </g>
     </g>
     <g id="text_3">
      <!-- −15 -->
      <g transform="translate(209.404115 322.182437)scale(0.1 -0.1)">
       <defs>
        <path d="M 12.40625 8.296875 
L 28.515625 8.296875 
L 28.515625 63.921875 
L 10.984375 60.40625 
L 10.984375 69.390625 
L 28.421875 72.90625 
L 38.28125 72.90625 
L 38.28125 8.296875 
L 54.390625 8.296875 
L 54.390625 0 
L 12.40625 0 
z
" id="DejaVuSans-49"/>
       </defs>
       <use xlink:href="#DejaVuSans-8722"/>
       <use x="83.789062" xlink:href="#DejaVuSans-49"/>
       <use x="147.412109" xlink:href="#DejaVuSans-53"/>
      </g>
     </g>
    </g>
    <g id="xtick_4">
     <g id="line2d_7">
      <path clip-path="url(#pd54a8ec5b4)" d="M 282.589377 307.584 
L 282.589377 41.472 
" style="fill:none;stroke:#b0b0b0;stroke-linecap:square;stroke-width:0.2;"/>
     </g>
     <g id="line2d_8">
      <g>
       <use style="stroke:#000000;stroke-width:0.8;" x="282.589377" xlink:href="#m04ee8afd36" y="307.584"/>
      </g>
     </g>
     <g id="text_4">
      <!-- −10 -->
      <g transform="translate(272.037033 322.182437)scale(0.1 -0.1)">
       <use xlink:href="#DejaVuSans-8722"/>
       <use x="83.789062" xlink:href="#DejaVuSans-49"/>
       <use x="147.412109" xlink:href="#DejaVuSans-48"/>
      </g>
     </g>
    </g>
    <g id="xtick_5">
     <g id="line2d_9">
      <path clip-path="url(#pd54a8ec5b4)" d="M 345.222295 307.584 
L 345.222295 41.472 
" style="fill:none;stroke:#b0b0b0;stroke-linecap:square;stroke-width:0.2;"/>
     </g>
     <g id="line2d_10">
      <g>
       <use style="stroke:#000000;stroke-width:0.8;" x="345.222295" xlink:href="#m04ee8afd36" y="307.584"/>
      </g>
     </g>
     <g id="text_5">
      <!-- −5 -->
      <g transform="translate(337.851201 322.182437)scale(0.1 -0.1)">
       <use xlink:href="#DejaVuSans-8722"/>
       <use x="83.789062" xlink:href="#DejaVuSans-53"/>
      </g>
     </g>
    </g>
    <g id="text_6">
     <!-- X / m -->
     <g transform="translate(217.739063 338.899937)scale(0.14 -0.14)">
      <defs>
       <path d="M 6.296875 72.90625 
L 16.890625 72.90625 
L 35.015625 45.796875 
L 53.21875 72.90625 
L 63.8125 72.90625 
L 40.375 37.890625 
L 65.375 0 
L 54.78125 0 
L 34.28125 31 
L 13.625 0 
L 2.984375 0 
L 29 38.921875 
z
" id="DejaVuSans-88"/>
       <path id="DejaVuSans-32"/>
       <path d="M 25.390625 72.90625 
L 33.6875 72.90625 
L 8.296875 -9.28125 
L 0 -9.28125 
z
" id="DejaVuSans-47"/>
       <path d="M 52 44.1875 
Q 55.375 50.25 60.0625 53.125 
Q 64.75 56 71.09375 56 
Q 79.640625 56 84.28125 50.015625 
Q 88.921875 44.046875 88.921875 33.015625 
L 88.921875 0 
L 79.890625 0 
L 79.890625 32.71875 
Q 79.890625 40.578125 77.09375 44.375 
Q 74.3125 48.1875 68.609375 48.1875 
Q 61.625 48.1875 57.5625 43.546875 
Q 53.515625 38.921875 53.515625 30.90625 
L 53.515625 0 
L 44.484375 0 
L 44.484375 32.71875 
Q 44.484375 40.625 41.703125 44.40625 
Q 38.921875 48.1875 33.109375 48.1875 
Q 26.21875 48.1875 22.15625 43.53125 
Q 18.109375 38.875 18.109375 30.90625 
L 18.109375 0 
L 9.078125 0 
L 9.078125 54.6875 
L 18.109375 54.6875 
L 18.109375 46.1875 
Q 21.1875 51.21875 25.484375 53.609375 
Q 29.78125 56 35.6875 56 
Q 41.65625 56 45.828125 52.96875 
Q 50 49.953125 52 44.1875 
z
" id="DejaVuSans-109"/>
      </defs>
      <use xlink:href="#DejaVuSans-88"/>
      <use x="68.505859" xlink:href="#DejaVuSans-32"/>
      <use x="100.292969" xlink:href="#DejaVuSans-47"/>
      <use x="133.984375" xlink:href="#DejaVuSans-32"/>
      <use x="165.771484" xlink:href="#DejaVuSans-109"/>
     </g>
    </g>
   </g>
   <g id="matplotlib.axis_2">
    <g id="ytick_1">
     <g id="line2d_11">
      <path clip-path="url(#pd54a8ec5b4)" d="M 81.914754 279.383607 
L 390.405246 279.383607 
" style="fill:none;stroke:#b0b0b0;stroke-linecap:square;stroke-width:0.2;"/>
     </g>
     <g id="line2d_12">
      <defs>
       <path d="M 0 0 
L -3.5 0 
" id="m5be5525bc6" style="stroke:#000000;stroke-width:0.8;"/>
      </defs>
      <g>
       <use style="stroke:#000000;stroke-width:0.8;" x="81.914754" xlink:href="#m5be5525bc6" y="279.383607"/>
      </g>
     </g>
     <g id="text_7">
      <!-- −22.5 -->
      <g transform="translate(44.269442 283.182825)scale(0.1 -0.1)">
       <defs>
        <path d="M 10.6875 12.40625 
L 21 12.40625 
L 21 0 
L 10.6875 0 
z
" id="DejaVuSans-46"/>
       </defs>
       <use xlink:href="#DejaVuSans-8722"/>
       <use x="83.789062" xlink:href="#DejaVuSans-50"/>
       <use x="147.412109" xlink:href="#DejaVuSans-50"/>
       <use x="211.035156" xlink:href="#DejaVuSans-46"/>
       <use x="242.822266" xlink:href="#DejaVuSans-53"/>
      </g>
     </g>
    </g>
    <g id="ytick_2">
     <g id="line2d_13">
      <path clip-path="url(#pd54a8ec5b4)" d="M 81.914754 248.067148 
L 390.405246 248.067148 
" style="fill:none;stroke:#b0b0b0;stroke-linecap:square;stroke-width:0.2;"/>
     </g>
     <g id="line2d_14">
      <g>
       <use style="stroke:#000000;stroke-width:0.8;" x="81.914754" xlink:href="#m5be5525bc6" y="248.067148"/>
      </g>
     </g>
     <g id="text_8">
      <!-- −20.0 -->
      <g transform="translate(44.269442 251.866366)scale(0.1 -0.1)">
       <use xlink:href="#DejaVuSans-8722"/>
       <use x="83.789062" xlink:href="#DejaVuSans-50"/>
       <use x="147.412109" xlink:href="#DejaVuSans-48"/>
       <use x="211.035156" xlink:href="#DejaVuSans-46"/>
       <use x="242.822266" xlink:href="#DejaVuSans-48"/>
      </g>
     </g>
    </g>
    <g id="ytick_3">
     <g id="line2d_15">
      <path clip-path="url(#pd54a8ec5b4)" d="M 81.914754 216.750689 
L 390.405246 216.750689 
" style="fill:none;stroke:#b0b0b0;stroke-linecap:square;stroke-width:0.2;"/>
     </g>
     <g id="line2d_16">
      <g>
       <use style="stroke:#000000;stroke-width:0.8;" x="81.914754" xlink:href="#m5be5525bc6" y="216.750689"/>
      </g>
     </g>
     <g id="text_9">
      <!-- −17.5 -->
      <g transform="translate(44.269442 220.549907)scale(0.1 -0.1)">
       <defs>
        <path d="M 8.203125 72.90625 
L 55.078125 72.90625 
L 55.078125 68.703125 
L 28.609375 0 
L 18.3125 0 
L 43.21875 64.59375 
L 8.203125 64.59375 
z
" id="DejaVuSans-55"/>
       </defs>
       <use xlink:href="#DejaVuSans-8722"/>
       <use x="83.789062" xlink:href="#DejaVuSans-49"/>
       <use x="147.412109" xlink:href="#DejaVuSans-55"/>
       <use x="211.035156" xlink:href="#DejaVuSans-46"/>
       <use x="242.822266" xlink:href="#DejaVuSans-53"/>
      </g>
     </g>
    </g>
    <g id="ytick_4">
     <g id="line2d_17">
      <path clip-path="url(#pd54a8ec5b4)" d="M 81.914754 185.43423 
L 390.405246 185.43423 
" style="fill:none;stroke:#b0b0b0;stroke-linecap:square;stroke-width:0.2;"/>
     </g>
     <g id="line2d_18">
      <g>
       <use style="stroke:#000000;stroke-width:0.8;" x="81.914754" xlink:href="#m5be5525bc6" y="185.43423"/>
      </g>
     </g>
     <g id="text_10">
      <!-- −15.0 -->
      <g transform="translate(44.269442 189.233448)scale(0.1 -0.1)">
       <use xlink:href="#DejaVuSans-8722"/>
       <use x="83.789062" xlink:href="#DejaVuSans-49"/>
       <use x="147.412109" xlink:href="#DejaVuSans-53"/>
       <use x="211.035156" xlink:href="#DejaVuSans-46"/>
       <use x="242.822266" xlink:href="#DejaVuSans-48"/>
      </g>
     </g>
    </g>
    <g id="ytick_5">
     <g id="line2d_19">
      <path clip-path="url(#pd54a8ec5b4)" d="M 81.914754 154.11777 
L 390.405246 154.11777 
" style="fill:none;stroke:#b0b0b0;stroke-linecap:square;stroke-width:0.2;"/>
     </g>
     <g id="line2d_20">
      <g>
       <use style="stroke:#000000;stroke-width:0.8;" x="81.914754" xlink:href="#m5be5525bc6" y="154.11777"/>
      </g>
     </g>
     <g id="text_11">
      <!-- −12.5 -->
      <g transform="translate(44.269442 157.916989)scale(0.1 -0.1)">
       <use xlink:href="#DejaVuSans-8722"/>
       <use x="83.789062" xlink:href="#DejaVuSans-49"/>
       <use x="147.412109" xlink:href="#DejaVuSans-50"/>
       <use x="211.035156" xlink:href="#DejaVuSans-46"/>
       <use x="242.822266" xlink:href="#DejaVuSans-53"/>
      </g>
     </g>
    </g>
    <g id="ytick_6">
     <g id="line2d_21">
      <path clip-path="url(#pd54a8ec5b4)" d="M 81.914754 122.801311 
L 390.405246 122.801311 
" style="fill:none;stroke:#b0b0b0;stroke-linecap:square;stroke-width:0.2;"/>
     </g>
     <g id="line2d_22">
      <g>
       <use style="stroke:#000000;stroke-width:0.8;" x="81.914754" xlink:href="#m5be5525bc6" y="122.801311"/>
      </g>
     </g>
     <g id="text_12">
      <!-- −10.0 -->
      <g transform="translate(44.269442 126.60053)scale(0.1 -0.1)">
       <use xlink:href="#DejaVuSans-8722"/>
       <use x="83.789062" xlink:href="#DejaVuSans-49"/>
       <use x="147.412109" xlink:href="#DejaVuSans-48"/>
       <use x="211.035156" xlink:href="#DejaVuSans-46"/>
       <use x="242.822266" xlink:href="#DejaVuSans-48"/>
      </g>
     </g>
    </g>
    <g id="ytick_7">
     <g id="line2d_23">
      <path clip-path="url(#pd54a8ec5b4)" d="M 81.914754 91.484852 
L 390.405246 91.484852 
" style="fill:none;stroke:#b0b0b0;stroke-linecap:square;stroke-width:0.2;"/>
     </g>
     <g id="line2d_24">
      <g>
       <use style="stroke:#000000;stroke-width:0.8;" x="81.914754" xlink:href="#m5be5525bc6" y="91.484852"/>
      </g>
     </g>
     <g id="text_13">
      <!-- −7.5 -->
      <g transform="translate(50.631942 95.284071)scale(0.1 -0.1)">
       <use xlink:href="#DejaVuSans-8722"/>
       <use x="83.789062" xlink:href="#DejaVuSans-55"/>
       <use x="147.412109" xlink:href="#DejaVuSans-46"/>
       <use x="179.199219" xlink:href="#DejaVuSans-53"/>
      </g>
     </g>
    </g>
    <g id="ytick_8">
     <g id="line2d_25">
      <path clip-path="url(#pd54a8ec5b4)" d="M 81.914754 60.168393 
L 390.405246 60.168393 
" style="fill:none;stroke:#b0b0b0;stroke-linecap:square;stroke-width:0.2;"/>
     </g>
     <g id="line2d_26">
      <g>
       <use style="stroke:#000000;stroke-width:0.8;" x="81.914754" xlink:href="#m5be5525bc6" y="60.168393"/>
      </g>
     </g>
     <g id="text_14">
      <!-- −5.0 -->
      <g transform="translate(50.631942 63.967612)scale(0.1 -0.1)">
       <use xlink:href="#DejaVuSans-8722"/>
       <use x="83.789062" xlink:href="#DejaVuSans-53"/>
       <use x="147.412109" xlink:href="#DejaVuSans-46"/>
       <use x="179.199219" xlink:href="#DejaVuSans-48"/>
      </g>
     </g>
    </g>
    <g id="text_15">
     <!-- Y / m -->
     <g transform="translate(37.357879 192.429406)rotate(-90)scale(0.14 -0.14)">
      <defs>
       <path d="M -0.203125 72.90625 
L 10.40625 72.90625 
L 30.609375 42.921875 
L 50.6875 72.90625 
L 61.28125 72.90625 
L 35.5 34.71875 
L 35.5 0 
L 25.59375 0 
L 25.59375 34.71875 
z
" id="DejaVuSans-89"/>
      </defs>
      <use xlink:href="#DejaVuSans-89"/>
      <use x="61.083984" xlink:href="#DejaVuSans-32"/>
      <use x="92.871094" xlink:href="#DejaVuSans-47"/>
      <use x="126.5625" xlink:href="#DejaVuSans-32"/>
      <use x="158.349609" xlink:href="#DejaVuSans-109"/>
     </g>
    </g>
   </g>
   <g id="patch_3">
    <path clip-path="url(#pd54a8ec5b4)" d="M 63.658803 249.579069 
L 238.188923 179.971749 
L 247.20075 202.567582 
L 72.67063 272.174902 
z
" style="opacity:0.5;"/>
   </g>
   <g id="patch_4">
    <path clip-path="url(#pd54a8ec5b4)" d="M 316.017721 148.931524 
L 490.54784 79.324204 
L 499.559668 101.920037 
L 325.029548 171.527357 
z
" style="opacity:0.5;"/>
   </g>
   <g id="patch_5">
    <path clip-path="url(#pd54a8ec5b4)" d="M 73.790297 276.45194 
L 486.434897 110.966489 
L 503.539336 137.905981 
L 82.770128 293.556379 
z
" style="opacity:0.5;"/>
   </g>
   <g id="line2d_27">
    <path clip-path="url(#pd54a8ec5b4)" d="M 198.197514 180.974228 
L 255.759176 169.282015 
L 250.91672 145.442231 
L 193.355057 157.134443 
L 198.197514 180.974228 
" style="fill:none;stroke:#008000;stroke-dasharray:1.48,0.64;stroke-dashoffset:0;stroke-width:0.4;"/>
   </g>
   <g id="line2d_28">
    <path clip-path="url(#pd54a8ec5b4)" d="M 258.836092 197.927094 
L 313.394207 176.167845 
L 304.382379 153.572013 
L 249.824264 175.331261 
L 258.836092 197.927094 
" style="fill:none;stroke:#ff0000;stroke-dasharray:1.48,0.64;stroke-dashoffset:0;stroke-width:0.4;"/>
   </g>
   <g id="line2d_29">
    <path clip-path="url(#pd54a8ec5b4)" d="M 198.197514 180.974228 
L 255.759176 169.282015 
L 250.91672 145.442231 
L 193.355057 157.134443 
L 198.197514 180.974228 
" style="fill:none;stroke:#0000ff;stroke-dasharray:0.555,0.24;stroke-dashoffset:0;stroke-width:0.15;"/>
   </g>
   <g id="line2d_30">
    <path clip-path="url(#pd54a8ec5b4)" d="M 198.197514 180.974228 
L 255.759176 169.282015 
L 250.91672 145.442231 
L 193.355057 157.134443 
L 198.197514 180.974228 
" style="fill:none;stroke:#0000ff;stroke-dasharray:0.555,0.24;stroke-dashoffset:0;stroke-width:0.15;"/>
   </g>
   <g id="line2d_31">
    <path clip-path="url(#pd54a8ec5b4)" d="M 198.544035 180.868707 
L 256.139986 169.346588 
L 251.367976 145.492602 
L 193.772025 157.014722 
L 198.544035 180.868707 
" style="fill:none;stroke:#0000ff;stroke-dasharray:0.555,0.24;stroke-dashoffset:0;stroke-width:0.15;"/>
   </g>
   <g id="line2d_32">
    <path clip-path="url(#pd54a8ec5b4)" d="M 199.215541 180.664949 
L 256.877709 169.478919 
L 252.244893 145.597509 
L 194.582726 156.78354 
L 199.215541 180.664949 
" style="fill:none;stroke:#0000ff;stroke-dasharray:0.555,0.24;stroke-dashoffset:0;stroke-width:0.15;"/>
   </g>
   <g id="line2d_33">
    <path clip-path="url(#pd54a8ec5b4)" d="M 200.192561 180.373757 
L 257.94813 169.680433 
L 253.519374 145.76034 
L 195.763806 156.453664 
L 200.192561 180.373757 
" style="fill:none;stroke:#0000ff;stroke-dasharray:0.555,0.24;stroke-dashoffset:0;stroke-width:0.15;"/>
   </g>
   <g id="line2d_34">
    <path clip-path="url(#pd54a8ec5b4)" d="M 201.457999 180.00924 
L 259.327103 169.948443 
L 255.160315 145.981328 
L 197.291211 156.042125 
L 201.457999 180.00924 
" style="fill:none;stroke:#0000ff;stroke-dasharray:0.555,0.24;stroke-dashoffset:0;stroke-width:0.15;"/>
   </g>
   <g id="line2d_35">
    <path clip-path="url(#pd54a8ec5b4)" d="M 202.997112 179.588333 
L 260.991128 170.27453 
L 257.133716 146.255682 
L 199.1397 155.569484 
L 202.997112 179.588333 
" style="fill:none;stroke:#0000ff;stroke-dasharray:0.555,0.24;stroke-dashoffset:0;stroke-width:0.15;"/>
   </g>
   <g id="line2d_36">
    <path clip-path="url(#pd54a8ec5b4)" d="M 204.797186 179.130017 
L 262.918049 170.643669 
L 259.403337 146.572285 
L 201.282473 155.058633 
L 204.797186 179.130017 
" style="fill:none;stroke:#0000ff;stroke-dasharray:0.555,0.24;stroke-dashoffset:0;stroke-width:0.15;"/>
   </g>
   <g id="line2d_37">
    <path clip-path="url(#pd54a8ec5b4)" d="M 206.847016 178.654291 
L 265.087764 171.034046 
L 261.931758 146.913012 
L 203.69101 154.533257 
L 206.847016 178.654291 
" style="fill:none;stroke:#0000ff;stroke-dasharray:0.555,0.24;stroke-dashoffset:0;stroke-width:0.15;"/>
   </g>
   <g id="line2d_38">
    <path clip-path="url(#pd54a8ec5b4)" d="M 209.136305 178.180949 
L 267.482755 171.417474 
L 264.681589 147.252661 
L 206.335139 154.016136 
L 209.136305 178.180949 
" style="fill:none;stroke:#0000ff;stroke-dasharray:0.555,0.24;stroke-dashoffset:0;stroke-width:0.15;"/>
   </g>
   <g id="line2d_39">
    <path clip-path="url(#pd54a8ec5b4)" d="M 211.655118 177.728255 
L 270.088285 171.760182 
L 267.616543 147.559455 
L 209.183377 153.527528 
L 211.655118 177.728255 
" style="fill:none;stroke:#0000ff;stroke-dasharray:0.555,0.24;stroke-dashoffset:0;stroke-width:0.15;"/>
   </g>
   <g id="line2d_40">
    <path clip-path="url(#pd54a8ec5b4)" d="M 214.393506 177.311648 
L 272.892151 172.023802 
L 270.702133 147.795956 
L 212.203487 153.083802 
L 214.393506 177.311648 
" style="fill:none;stroke:#0000ff;stroke-dasharray:0.555,0.24;stroke-dashoffset:0;stroke-width:0.15;"/>
   </g>
   <g id="line2d_41">
    <path clip-path="url(#pd54a8ec5b4)" d="M 217.341322 176.942576 
L 275.883958 172.166317 
L 273.905818 147.920252 
L 215.363183 152.696511 
L 217.341322 176.942576 
" style="fill:none;stroke:#0000ff;stroke-dasharray:0.555,0.24;stroke-dashoffset:0;stroke-width:0.15;"/>
   </g>
   <g id="line2d_42">
    <path clip-path="url(#pd54a8ec5b4)" d="M 220.488233 176.627535 
L 279.053928 172.142875 
L 277.196558 147.88726 
L 218.630862 152.37192 
L 220.488233 176.627535 
" style="fill:none;stroke:#0000ff;stroke-dasharray:0.555,0.24;stroke-dashoffset:0;stroke-width:0.15;"/>
   </g>
   <g id="line2d_43">
    <path clip-path="url(#pd54a8ec5b4)" d="M 223.823845 176.367387 
L 282.39135 171.906429 
L 280.543796 147.650064 
L 221.976291 152.111022 
L 223.823845 176.367387 
" style="fill:none;stroke:#0000ff;stroke-dasharray:0.555,0.24;stroke-dashoffset:0;stroke-width:0.15;"/>
   </g>
   <g id="line2d_44">
    <path clip-path="url(#pd54a8ec5b4)" d="M 227.337845 176.15693 
L 285.882725 171.408259 
L 283.916011 147.161265 
L 225.371131 151.909935 
L 227.337845 176.15693 
" style="fill:none;stroke:#0000ff;stroke-dasharray:0.555,0.24;stroke-dashoffset:0;stroke-width:0.15;"/>
   </g>
   <g id="line2d_45">
    <path clip-path="url(#pd54a8ec5b4)" d="M 231.020048 175.984729 
L 289.509721 170.598547 
L 287.278975 146.374417 
L 228.789302 151.760599 
L 231.020048 175.984729 
" style="fill:none;stroke:#0000ff;stroke-dasharray:0.555,0.24;stroke-dashoffset:0;stroke-width:0.15;"/>
   </g>
   <g id="line2d_46">
    <path clip-path="url(#pd54a8ec5b4)" d="M 234.860245 175.833152 
L 293.247029 169.427198 
L 290.593934 145.24568 
L 232.20715 151.651635 
L 234.860245 175.833152 
" style="fill:none;stroke:#0000ff;stroke-dasharray:0.555,0.24;stroke-dashoffset:0;stroke-width:0.15;"/>
   </g>
   <g id="line2d_47">
    <path clip-path="url(#pd54a8ec5b4)" d="M 238.847756 175.67859 
L 297.060218 167.845196 
L 293.815933 143.735876 
L 235.603471 151.56927 
L 238.847756 175.67859 
" style="fill:none;stroke:#0000ff;stroke-dasharray:0.555,0.24;stroke-dashoffset:0;stroke-width:0.15;"/>
   </g>
   <g id="line2d_48">
    <path clip-path="url(#pd54a8ec5b4)" d="M 242.970612 175.491868 
L 300.903779 165.806779 
L 296.892595 141.813132 
L 238.959427 151.498221 
L 242.970612 175.491868 
" style="fill:none;stroke:#0000ff;stroke-dasharray:0.555,0.24;stroke-dashoffset:0;stroke-width:0.15;"/>
   </g>
   <g id="line2d_49">
    <path clip-path="url(#pd54a8ec5b4)" d="M 247.214311 175.238893 
L 304.719653 163.272753 
L 299.763747 139.456294 
L 242.258405 151.422434 
L 247.214311 175.238893 
" style="fill:none;stroke:#0000ff;stroke-dasharray:0.555,0.24;stroke-dashoffset:0;stroke-width:0.15;"/>
   </g>
   <g id="line2d_50">
    <path clip-path="url(#pd54a8ec5b4)" d="M 251.560115 174.88166 
L 308.436719 160.215211 
L 302.362451 136.659151 
L 245.485847 151.3256 
L 251.560115 174.88166 
" style="fill:none;stroke:#0000ff;stroke-dasharray:0.555,0.24;stroke-dashoffset:0;stroke-width:0.15;"/>
   </g>
   <g id="line2d_51">
    <path clip-path="url(#pd54a8ec5b4)" d="M 255.982911 174.379836 
L 311.971971 156.623767 
L 304.618103 133.435293 
L 248.629043 151.191362 
L 255.982911 174.379836 
" style="fill:none;stroke:#0000ff;stroke-dasharray:0.555,0.24;stroke-dashoffset:0;stroke-width:0.15;"/>
   </g>
   <g id="line2d_52">
    <path clip-path="url(#pd54a8ec5b4)" d="M 260.448817 173.693201 
L 315.23433 152.513012 
L 306.462327 129.823 
L 251.676813 151.003188 
L 260.448817 173.693201 
" style="fill:none;stroke:#0000ff;stroke-dasharray:0.555,0.24;stroke-dashoffset:0;stroke-width:0.15;"/>
   </g>
   <g id="line2d_53">
    <path clip-path="url(#pd54a8ec5b4)" d="M 264.912893 172.785266 
L 318.132065 147.930235 
L 307.838086 125.88894 
L 254.618914 150.743971 
L 264.912893 172.785266 
" style="fill:none;stroke:#0000ff;stroke-dasharray:0.555,0.24;stroke-dashoffset:0;stroke-width:0.15;"/>
   </g>
   <g id="line2d_54">
    <path clip-path="url(#pd54a8ec5b4)" d="M 269.317749 171.628272 
L 320.584311 142.961348 
L 308.711595 121.728748 
L 257.445033 150.395671 
L 269.317749 171.628272 
" style="fill:none;stroke:#0000ff;stroke-dasharray:0.555,0.24;stroke-dashoffset:0;stroke-width:0.15;"/>
   </g>
   <g id="line2d_55">
    <path clip-path="url(#pd54a8ec5b4)" d="M 273.623153 170.208706 
L 322.523128 137.668803 
L 309.046376 117.41635 
L 260.146401 149.956253 
L 273.623153 170.208706 
" style="fill:none;stroke:#0000ff;stroke-dasharray:0.555,0.24;stroke-dashoffset:0;stroke-width:0.15;"/>
   </g>
   <g id="line2d_56">
    <path clip-path="url(#pd54a8ec5b4)" d="M 277.778964 168.521649 
L 323.899226 132.148935 
L 308.835074 113.04773 
L 262.714812 149.420444 
L 277.778964 168.521649 
" style="fill:none;stroke:#0000ff;stroke-dasharray:0.555,0.24;stroke-dashoffset:0;stroke-width:0.15;"/>
   </g>
   <g id="line2d_57">
    <path clip-path="url(#pd54a8ec5b4)" d="M 281.726435 166.576023 
L 324.695726 126.529889 
L 308.110187 108.733693 
L 265.140896 148.779827 
L 281.726435 166.576023 
" style="fill:none;stroke:#0000ff;stroke-dasharray:0.555,0.24;stroke-dashoffset:0;stroke-width:0.15;"/>
   </g>
   <g id="line2d_58">
    <path clip-path="url(#pd54a8ec5b4)" d="M 285.402456 164.39946 
L 324.940388 120.962095 
L 306.950334 104.587033 
L 267.412402 148.024398 
L 285.402456 164.39946 
" style="fill:none;stroke:#0000ff;stroke-dasharray:0.555,0.24;stroke-dashoffset:0;stroke-width:0.15;"/>
   </g>
   <g id="line2d_59">
    <path clip-path="url(#pd54a8ec5b4)" d="M 288.747116 162.040763 
L 324.710694 115.600759 
L 305.477065 100.706055 
L 269.513487 147.146059 
L 288.747116 162.040763 
" style="fill:none;stroke:#0000ff;stroke-dasharray:0.555,0.24;stroke-dashoffset:0;stroke-width:0.15;"/>
   </g>
   <g id="line2d_60">
    <path clip-path="url(#pd54a8ec5b4)" d="M 291.728668 159.564354 
L 324.096267 110.550158 
L 303.796508 97.144767 
L 271.428909 146.158963 
L 291.728668 159.564354 
" style="fill:none;stroke:#0000ff;stroke-dasharray:0.555,0.24;stroke-dashoffset:0;stroke-width:0.15;"/>
   </g>
   <g id="line2d_61">
    <path clip-path="url(#pd54a8ec5b4)" d="M 294.346671 157.037116 
L 323.169551 105.858072 
L 301.973197 93.920765 
L 273.150317 145.099809 
L 294.346671 157.037116 
" style="fill:none;stroke:#0000ff;stroke-dasharray:0.555,0.24;stroke-dashoffset:0;stroke-width:0.15;"/>
   </g>
   <g id="line2d_62">
    <path clip-path="url(#pd54a8ec5b4)" d="M 296.609545 154.523862 
L 322.007036 101.561419 
L 300.072069 91.042774 
L 274.674577 144.005216 
L 296.609545 154.523862 
" style="fill:none;stroke:#0000ff;stroke-dasharray:0.555,0.24;stroke-dashoffset:0;stroke-width:0.15;"/>
   </g>
   <g id="line2d_63">
    <path clip-path="url(#pd54a8ec5b4)" d="M 298.533164 152.085985 
L 320.68685 97.686839 
L 298.156856 88.511651 
L 276.00317 142.910796 
L 298.533164 152.085985 
" style="fill:none;stroke:#0000ff;stroke-dasharray:0.555,0.24;stroke-dashoffset:0;stroke-width:0.15;"/>
   </g>
   <g id="line2d_64">
    <path clip-path="url(#pd54a8ec5b4)" d="M 300.139207 149.780453 
L 319.286543 94.25179 
L 296.288748 86.321714 
L 277.141412 141.850377 
L 300.139207 149.780453 
" style="fill:none;stroke:#0000ff;stroke-dasharray:0.555,0.24;stroke-dashoffset:0;stroke-width:0.15;"/>
   </g>
   <g id="line2d_65">
    <path clip-path="url(#pd54a8ec5b4)" d="M 301.45334 147.659168 
L 317.881143 91.266082 
L 294.525337 84.46233 
L 278.097535 140.855416 
L 301.45334 147.659168 
" style="fill:none;stroke:#0000ff;stroke-dasharray:0.555,0.24;stroke-dashoffset:0;stroke-width:0.15;"/>
   </g>
   <g id="line2d_66">
    <path clip-path="url(#pd54a8ec5b4)" d="M 302.491501 145.776148 
L 316.57706 88.752908 
L 292.960269 82.919222 
L 278.87471 139.942462 
L 302.491501 145.776148 
" style="fill:none;stroke:#0000ff;stroke-dasharray:0.555,0.24;stroke-dashoffset:0;stroke-width:0.15;"/>
   </g>
   <g id="line2d_67">
    <path clip-path="url(#pd54a8ec5b4)" d="M 303.276881 144.177888 
L 315.463855 86.718942 
L 291.666612 81.671575 
L 279.479638 139.130522 
L 303.276881 144.177888 
" style="fill:none;stroke:#0000ff;stroke-dasharray:0.555,0.24;stroke-dashoffset:0;stroke-width:0.15;"/>
   </g>
   <g id="line2d_68">
    <path clip-path="url(#pd54a8ec5b4)" d="M 303.840674 142.897293 
L 314.594027 85.152871 
L 290.678551 80.699253 
L 279.925198 138.443675 
L 303.840674 142.897293 
" style="fill:none;stroke:#0000ff;stroke-dasharray:0.555,0.24;stroke-dashoffset:0;stroke-width:0.15;"/>
   </g>
   <g id="line2d_69">
    <path clip-path="url(#pd54a8ec5b4)" d="M 304.216316 141.953134 
L 313.984602 84.033937 
L 289.996741 79.988296 
L 280.228455 137.907493 
L 304.216316 141.953134 
" style="fill:none;stroke:#0000ff;stroke-dasharray:0.555,0.24;stroke-dashoffset:0;stroke-width:0.15;"/>
   </g>
   <g id="line2d_70">
    <path clip-path="url(#pd54a8ec5b4)" d="M 304.435008 141.351869 
L 313.624171 83.337973 
L 289.597089 79.532182 
L 280.407927 137.546078 
L 304.435008 141.351869 
" style="fill:none;stroke:#0000ff;stroke-dasharray:0.555,0.24;stroke-dashoffset:0;stroke-width:0.15;"/>
   </g>
   <g id="line2d_71">
    <path clip-path="url(#pd54a8ec5b4)" d="M 304.523138 141.09042 
L 313.481722 83.04047 
L 289.439708 79.330176 
L 280.481125 137.380126 
L 304.523138 141.09042 
" style="fill:none;stroke:#0000ff;stroke-dasharray:0.555,0.24;stroke-dashoffset:0;stroke-width:0.15;"/>
   </g>
   <g id="line2d_72">
    <path clip-path="url(#pd54a8ec5b4)" d="M 304.501408 141.158957 
L 313.514946 83.117515 
L 289.476455 79.384461 
L 280.462918 137.425903 
L 304.501408 141.158957 
" style="fill:none;stroke:#0000ff;stroke-dasharray:0.555,0.24;stroke-dashoffset:0;stroke-width:0.15;"/>
   </g>
   <g id="line2d_73">
    <path clip-path="url(#pd54a8ec5b4)" d="M 304.385082 141.543197 
L 313.677045 83.545677 
L 289.656745 79.69731 
L 280.364782 137.69483 
L 304.385082 141.543197 
" style="fill:none;stroke:#0000ff;stroke-dasharray:0.555,0.24;stroke-dashoffset:0;stroke-width:0.15;"/>
   </g>
   <g id="line2d_74">
    <path clip-path="url(#pd54a8ec5b4)" d="M 304.18479 142.226143 
L 313.921891 84.301695 
L 289.931855 80.268969 
L 280.194754 138.193417 
L 304.18479 142.226143 
" style="fill:none;stroke:#0000ff;stroke-dasharray:0.555,0.24;stroke-dashoffset:0;stroke-width:0.15;"/>
   </g>
   <g id="line2d_75">
    <path clip-path="url(#pd54a8ec5b4)" d="M 303.907473 143.189332 
L 314.20773 85.36237 
L 290.258069 81.096407 
L 279.957812 138.923369 
L 303.907473 143.189332 
" style="fill:none;stroke:#0000ff;stroke-dasharray:0.555,0.24;stroke-dashoffset:0;stroke-width:0.15;"/>
   </g>
   <g id="line2d_76">
    <path clip-path="url(#pd54a8ec5b4)" d="M 303.557222 144.413713 
L 314.499663 86.704824 
L 290.598903 82.172894 
L 279.656462 139.881783 
L 303.557222 144.413713 
" style="fill:none;stroke:#0000ff;stroke-dasharray:0.555,0.24;stroke-dashoffset:0;stroke-width:0.15;"/>
   </g>
   <g id="line2d_77">
    <path clip-path="url(#pd54a8ec5b4)" d="M 303.135896 145.880253 
L 314.771123 88.307044 
L 290.926557 83.488189 
L 279.29133 141.061398 
L 303.135896 145.880253 
" style="fill:none;stroke:#0000ff;stroke-dasharray:0.555,0.24;stroke-dashoffset:0;stroke-width:0.15;"/>
   </g>
   <g id="line2d_78">
    <path clip-path="url(#pd54a8ec5b4)" d="M 302.643493 147.570333 
L 315.004504 90.148575 
L 291.222663 85.029129 
L 278.861652 142.450887 
L 302.643493 147.570333 
" style="fill:none;stroke:#0000ff;stroke-dasharray:0.555,0.24;stroke-dashoffset:0;stroke-width:0.15;"/>
   </g>
   <g id="line2d_79">
    <path clip-path="url(#pd54a8ec5b4)" d="M 302.07829 149.465986 
L 315.191055 92.21122 
L 291.478376 86.780427 
L 278.36561 144.035193 
L 302.07829 149.465986 
" style="fill:none;stroke:#0000ff;stroke-dasharray:0.555,0.24;stroke-dashoffset:0;stroke-width:0.15;"/>
   </g>
   <g id="line2d_80">
    <path clip-path="url(#pd54a8ec5b4)" d="M 301.436821 151.549981 
L 315.330173 94.479607 
L 291.693861 88.725525 
L 277.800509 145.795899 
L 301.436821 151.549981 
" style="fill:none;stroke:#0000ff;stroke-dasharray:0.555,0.24;stroke-dashoffset:0;stroke-width:0.15;"/>
   </g>
   <g id="line2d_81">
    <path clip-path="url(#pd54a8ec5b4)" d="M 300.713739 153.80578 
L 315.428197 96.941577 
L 291.877273 90.847426 
L 277.162815 147.711629 
L 300.713739 153.80578 
" style="fill:none;stroke:#0000ff;stroke-dasharray:0.555,0.24;stroke-dashoffset:0;stroke-width:0.15;"/>
   </g>
   <g id="line2d_82">
    <path clip-path="url(#pd54a8ec5b4)" d="M 299.901637 156.217371 
L 315.496837 99.58838 
L 292.043329 93.129459 
L 276.448129 149.75845 
L 299.901637 156.217371 
" style="fill:none;stroke:#0000ff;stroke-dasharray:0.555,0.24;stroke-dashoffset:0;stroke-width:0.15;"/>
   </g>
   <g id="line2d_83">
    <path clip-path="url(#pd54a8ec5b4)" d="M 298.990863 158.768976 
L 315.551367 102.414717 
L 292.211642 95.556005 
L 275.651138 151.910265 
L 298.990863 158.768976 
" style="fill:none;stroke:#0000ff;stroke-dasharray:0.555,0.24;stroke-dashoffset:0;stroke-width:0.15;"/>
   </g>
   <g id="line2d_84">
    <path clip-path="url(#pd54a8ec5b4)" d="M 297.969383 161.444664 
L 315.60871 105.418715 
L 292.404958 98.113197 
L 274.765631 154.139146 
L 297.969383 161.444664 
" style="fill:none;stroke:#0000ff;stroke-dasharray:0.555,0.24;stroke-dashoffset:0;stroke-width:0.15;"/>
   </g>
   <g id="line2d_85">
    <path clip-path="url(#pd54a8ec5b4)" d="M 296.822704 164.227844 
L 315.68553 108.60189 
L 292.647441 100.789647 
L 273.784615 156.415601 
L 296.822704 164.227844 
" style="fill:none;stroke:#0000ff;stroke-dasharray:0.555,0.24;stroke-dashoffset:0;stroke-width:0.15;"/>
   </g>
   <g id="line2d_86">
    <path clip-path="url(#pd54a8ec5b4)" d="M 295.533896 167.100666 
L 315.796408 111.969156 
L 292.963098 103.577217 
L 272.700586 158.708728 
L 295.533896 167.100666 
" style="fill:none;stroke:#0000ff;stroke-dasharray:0.555,0.24;stroke-dashoffset:0;stroke-width:0.15;"/>
   </g>
   <g id="line2d_87">
    <path clip-path="url(#pd54a8ec5b4)" d="M 294.083721 170.043323 
L 315.952142 115.528875 
L 293.374395 106.471832 
L 271.505974 160.98628 
L 294.083721 170.043323 
" style="fill:none;stroke:#0000ff;stroke-dasharray:0.555,0.24;stroke-dashoffset:0;stroke-width:0.15;"/>
   </g>
   <g id="line2d_88">
    <path clip-path="url(#pd54a8ec5b4)" d="M 292.450928 173.033234 
L 316.15814 119.292924 
L 293.90101 109.474326 
L 270.193798 163.214636 
L 292.450928 173.033234 
" style="fill:none;stroke:#0000ff;stroke-dasharray:0.555,0.24;stroke-dashoffset:0;stroke-width:0.15;"/>
   </g>
   <g id="line2d_89">
    <path clip-path="url(#pd54a8ec5b4)" d="M 290.61275 176.044134 
L 316.412847 123.276645 
L 294.558621 112.591257 
L 268.758525 165.358746 
L 290.61275 176.044134 
" style="fill:none;stroke:#0000ff;stroke-dasharray:0.555,0.24;stroke-dashoffset:0;stroke-width:0.15;"/>
   </g>
   <g id="line2d_90">
    <path clip-path="url(#pd54a8ec5b4)" d="M 288.545727 179.045054 
L 316.706103 127.498511 
L 295.357545 115.835587 
L 267.197169 167.38213 
L 288.545727 179.045054 
" style="fill:none;stroke:#0000ff;stroke-dasharray:0.555,0.24;stroke-dashoffset:0;stroke-width:0.15;"/>
   </g>
   <g id="line2d_91">
    <path clip-path="url(#pd54a8ec5b4)" d="M 286.226958 181.99926 
L 317.017322 131.979201 
L 296.300974 119.227039 
L 265.51061 169.247099 
L 286.226958 181.99926 
" style="fill:none;stroke:#0000ff;stroke-dasharray:0.555,0.24;stroke-dashoffset:0;stroke-width:0.15;"/>
   </g>
   <g id="line2d_92">
    <path clip-path="url(#pd54a8ec5b4)" d="M 283.636022 184.863254 
L 317.313449 136.739624 
L 297.382528 122.791754 
L 263.705101 170.915384 
L 283.636022 184.863254 
" style="fill:none;stroke:#0000ff;stroke-dasharray:0.555,0.24;stroke-dashoffset:0;stroke-width:0.15;"/>
   </g>
   <g id="line2d_93">
    <path clip-path="url(#pd54a8ec5b4)" d="M 280.757797 187.586093 
L 317.546829 141.797229 
L 298.582876 126.560655 
L 261.793845 172.349518 
L 280.757797 187.586093 
" style="fill:none;stroke:#0000ff;stroke-dasharray:0.555,0.24;stroke-dashoffset:0;stroke-width:0.15;"/>
   </g>
   <g id="line2d_94">
    <path clip-path="url(#pd54a8ec5b4)" d="M 277.586463 190.109506 
L 317.653496 147.159702 
L 299.865371 130.565507 
L 259.798337 173.515311 
L 277.586463 190.109506 
" style="fill:none;stroke:#0000ff;stroke-dasharray:0.555,0.24;stroke-dashoffset:0;stroke-width:0.15;"/>
   </g>
   <g id="line2d_95">
    <path clip-path="url(#pd54a8ec5b4)" d="M 274.130806 192.369612 
L 317.553148 152.81518 
L 301.171253 134.831348 
L 257.748911 174.38578 
L 274.130806 192.369612 
" style="fill:none;stroke:#0000ff;stroke-dasharray:0.555,0.24;stroke-dashoffset:0;stroke-width:0.15;"/>
   </g>
   <g id="line2d_96">
    <path clip-path="url(#pd54a8ec5b4)" d="M 270.71828 194.227609 
L 317.03526 158.10573 
L 302.074993 138.923052 
L 255.758013 175.044932 
L 270.71828 194.227609 
" style="fill:none;stroke:#0000ff;stroke-dasharray:0.555,0.24;stroke-dashoffset:0;stroke-width:0.15;"/>
   </g>
   <g id="line2d_97">
    <path clip-path="url(#pd54a8ec5b4)" d="M 267.454457 195.696761 
L 316.197492 162.922238 
L 302.623569 142.734783 
L 253.880534 175.509307 
L 267.454457 195.696761 
" style="fill:none;stroke:#0000ff;stroke-dasharray:0.555,0.24;stroke-dashoffset:0;stroke-width:0.15;"/>
   </g>
   <g id="line2d_98">
    <path clip-path="url(#pd54a8ec5b4)" d="M 264.441068 196.808972 
L 315.154837 167.175098 
L 302.881648 146.171443 
L 252.167879 175.805317 
L 264.441068 196.808972 
" style="fill:none;stroke:#0000ff;stroke-dasharray:0.555,0.24;stroke-dashoffset:0;stroke-width:0.15;"/>
   </g>
   <g id="line2d_99">
    <path clip-path="url(#pd54a8ec5b4)" d="M 261.772571 197.609994 
L 314.031239 170.794244 
L 302.925206 149.150752 
L 250.666538 175.966502 
L 261.772571 197.609994 
" style="fill:none;stroke:#0000ff;stroke-dasharray:0.555,0.24;stroke-dashoffset:0;stroke-width:0.15;"/>
   </g>
   <g id="line2d_100">
    <path clip-path="url(#pd54a8ec5b4)" d="M 259.534184 198.153567 
L 312.951228 173.726691 
L 302.834573 151.603445 
L 249.417529 176.030321 
L 259.534184 198.153567 
" style="fill:none;stroke:#0000ff;stroke-dasharray:0.555,0.24;stroke-dashoffset:0;stroke-width:0.15;"/>
   </g>
   <g id="line2d_101">
    <path clip-path="url(#pd54a8ec5b4)" d="M 257.801456 198.494972 
L 312.032009 175.931728 
L 302.687197 153.471559 
L 248.456644 176.034803 
L 257.801456 198.494972 
" style="fill:none;stroke:#0000ff;stroke-dasharray:0.555,0.24;stroke-dashoffset:0;stroke-width:0.15;"/>
   </g>
   <g id="line2d_102">
    <path clip-path="url(#pd54a8ec5b4)" d="M 256.682079 198.701303 
L 311.360854 177.247064 
L 302.475349 154.601258 
L 247.796574 176.055497 
L 256.682079 198.701303 
" style="fill:none;stroke:#0000ff;stroke-dasharray:0.555,0.24;stroke-dashoffset:0;stroke-width:0.15;"/>
   </g>
   <g id="line2d_103">
    <path clip-path="url(#pd54a8ec5b4)" d="M 256.163926 198.803335 
L 311.014001 177.790907 
L 302.311477 155.074156 
L 247.461402 176.086584 
L 256.163926 198.803335 
" style="fill:none;stroke:#0000ff;stroke-dasharray:0.555,0.24;stroke-dashoffset:0;stroke-width:0.15;"/>
   </g>
   <g id="line2d_104">
    <path clip-path="url(#pd54a8ec5b4)" d="M 256.156162 198.805083 
L 311.008305 177.798053 
L 302.308017 155.080446 
L 247.455874 176.087475 
L 256.156162 198.805083 
" style="fill:none;stroke:#0000ff;stroke-dasharray:0.555,0.24;stroke-dashoffset:0;stroke-width:0.15;"/>
   </g>
   <g id="line2d_105">
    <path clip-path="url(#pd54a8ec5b4)" d="M 256.529184 198.707838 
L 311.303917 177.499785 
L 302.520373 154.814238 
L 247.74564 176.022291 
L 256.529184 198.707838 
" style="fill:none;stroke:#0000ff;stroke-dasharray:0.555,0.24;stroke-dashoffset:0;stroke-width:0.15;"/>
   </g>
   <g id="line2d_106">
    <path clip-path="url(#pd54a8ec5b4)" d="M 257.136839 198.527018 
L 311.818288 177.079595 
L 302.935606 154.432682 
L 248.254157 175.880105 
L 257.136839 198.527018 
" style="fill:none;stroke:#0000ff;stroke-dasharray:0.555,0.24;stroke-dashoffset:0;stroke-width:0.15;"/>
   </g>
   <g id="line2d_107">
    <path clip-path="url(#pd54a8ec5b4)" d="M 257.827135 198.298289 
L 312.436047 176.666841 
L 303.477149 154.04997 
L 248.868237 175.681418 
L 257.827135 198.298289 
" style="fill:none;stroke:#0000ff;stroke-dasharray:0.555,0.24;stroke-dashoffset:0;stroke-width:0.15;"/>
   </g>
   <g id="line2d_108">
    <path clip-path="url(#pd54a8ec5b4)" d="M 258.445911 198.075876 
L 313.015477 176.34536 
L 304.015549 153.744785 
L 249.445983 175.475301 
L 258.445911 198.075876 
" style="fill:none;stroke:#0000ff;stroke-dasharray:0.555,0.24;stroke-dashoffset:0;stroke-width:0.15;"/>
   </g>
   <g id="line2d_109">
    <path clip-path="url(#pd54a8ec5b4)" d="M 258.836092 197.927094 
L 313.394207 176.167845 
L 304.382379 153.572013 
L 249.824264 175.331261 
L 258.836092 197.927094 
" style="fill:none;stroke:#0000ff;stroke-dasharray:0.555,0.24;stroke-dashoffset:0;stroke-width:0.15;"/>
   </g>
   <g id="line2d_110">
    <path clip-path="url(#pd54a8ec5b4)" d="M 207.18059 166.737836 
L 207.18059 166.737836 
L 207.569128 166.658914 
L 208.323351 166.508031 
L 209.420905 166.295114 
L 210.839821 166.032405 
L 212.55837 165.733627 
L 214.554925 165.412982 
L 216.80786 165.084026 
L 219.295511 164.758541 
L 221.996217 164.445477 
L 224.888439 164.15008 
L 227.950911 163.873255 
L 231.162775 163.611212 
L 234.503653 163.355385 
L 237.953591 163.092611 
L 241.49284 162.805536 
L 245.101478 162.473225 
L 248.758857 162.071953 
L 252.442928 161.576203 
L 256.129505 160.959893 
L 259.791559 160.197865 
L 263.398713 159.267709 
L 266.9171 158.151906 
L 270.30986 156.840259 
L 273.53849 155.332387 
L 276.573 153.635568 
L 279.384385 151.764765 
L 281.946882 149.743854 
L 284.240813 147.605976 
L 286.255523 145.392565 
L 287.991563 143.150806 
L 289.458977 140.928703 
L 290.673895 138.771447 
L 291.657328 136.720654 
L 292.433842 134.813895 
L 293.030167 133.08451 
L 293.473783 131.561674 
L 293.792783 130.270251 
L 294.013425 129.22997 
L 294.15771 128.455173 
L 294.242054 127.955071 
L 294.277035 127.734227 
L 294.267954 127.79307 
L 294.215886 128.128355 
L 294.118918 128.733599 
L 293.973363 129.599484 
L 293.774794 130.714274 
L 293.518822 132.064233 
L 293.201576 133.634024 
L 292.819894 135.407088 
L 292.371261 137.365971 
L 291.853554 139.492583 
L 291.264655 141.76839 
L 290.602022 144.17453 
L 289.862268 146.691861 
L 289.040824 149.300926 
L 288.131716 151.981862 
L 287.127491 154.714221 
L 286.019313 157.476729 
L 284.797237 160.246973 
L 283.450674 163.001023 
L 281.969071 165.713042 
L 280.342843 168.354908 
L 278.564584 170.895966 
L 276.630612 173.303053 
L 274.542835 175.541043 
L 272.414618 177.479686 
L 270.324625 179.109638 
L 268.352051 180.435985 
L 266.573213 181.475424 
L 265.059016 182.252411 
L 263.873385 182.794584 
L 263.072464 183.127816 
L 262.67974 183.281909 
L 262.673504 183.284298 
L 262.989561 183.163255 
L 263.529165 182.954328 
L 264.166982 182.70416 
L 264.757448 182.470267 
L 265.13941 182.318164 
" style="fill:none;stroke:#ff0000;stroke-linecap:square;stroke-width:0.1;"/>
   </g>
   <g id="patch_6">
    <path d="M 81.914754 307.584 
L 81.914754 41.472 
" style="fill:none;stroke:#000000;stroke-linecap:square;stroke-linejoin:miter;stroke-width:0.8;"/>
   </g>
   <g id="patch_7">
    <path d="M 390.405246 307.584 
L 390.405246 41.472 
" style="fill:none;stroke:#000000;stroke-linecap:square;stroke-linejoin:miter;stroke-width:0.8;"/>
   </g>
   <g id="patch_8">
    <path d="M 81.914754 307.584 
L 390.405246 307.584 
" style="fill:none;stroke:#000000;stroke-linecap:square;stroke-linejoin:miter;stroke-width:0.8;"/>
   </g>
   <g id="patch_9">
    <path d="M 81.914754 41.472 
L 390.405246 41.472 
" style="fill:none;stroke:#000000;stroke-linecap:square;stroke-linejoin:miter;stroke-width:0.8;"/>
   </g>
   <g id="text_16">
    <!-- Case 1 -->
    <g transform="translate(215.751563 35.472)scale(0.12 -0.12)">
     <defs>
      <path d="M 64.40625 67.28125 
L 64.40625 56.890625 
Q 59.421875 61.53125 53.78125 63.8125 
Q 48.140625 66.109375 41.796875 66.109375 
Q 29.296875 66.109375 22.65625 58.46875 
Q 16.015625 50.828125 16.015625 36.375 
Q 16.015625 21.96875 22.65625 14.328125 
Q 29.296875 6.6875 41.796875 6.6875 
Q 48.140625 6.6875 53.78125 8.984375 
Q 59.421875 11.28125 64.40625 15.921875 
L 64.40625 5.609375 
Q 59.234375 2.09375 53.4375 0.328125 
Q 47.65625 -1.421875 41.21875 -1.421875 
Q 24.65625 -1.421875 15.125 8.703125 
Q 5.609375 18.84375 5.609375 36.375 
Q 5.609375 53.953125 15.125 64.078125 
Q 24.65625 74.21875 41.21875 74.21875 
Q 47.75 74.21875 53.53125 72.484375 
Q 59.328125 70.75 64.40625 67.28125 
z
" id="DejaVuSans-67"/>
      <path d="M 34.28125 27.484375 
Q 23.390625 27.484375 19.1875 25 
Q 14.984375 22.515625 14.984375 16.5 
Q 14.984375 11.71875 18.140625 8.90625 
Q 21.296875 6.109375 26.703125 6.109375 
Q 34.1875 6.109375 38.703125 11.40625 
Q 43.21875 16.703125 43.21875 25.484375 
L 43.21875 27.484375 
z
M 52.203125 31.203125 
L 52.203125 0 
L 43.21875 0 
L 43.21875 8.296875 
Q 40.140625 3.328125 35.546875 0.953125 
Q 30.953125 -1.421875 24.3125 -1.421875 
Q 15.921875 -1.421875 10.953125 3.296875 
Q 6 8.015625 6 15.921875 
Q 6 25.140625 12.171875 29.828125 
Q 18.359375 34.515625 30.609375 34.515625 
L 43.21875 34.515625 
L 43.21875 35.40625 
Q 43.21875 41.609375 39.140625 45 
Q 35.0625 48.390625 27.6875 48.390625 
Q 23 48.390625 18.546875 47.265625 
Q 14.109375 46.140625 10.015625 43.890625 
L 10.015625 52.203125 
Q 14.9375 54.109375 19.578125 55.046875 
Q 24.21875 56 28.609375 56 
Q 40.484375 56 46.34375 49.84375 
Q 52.203125 43.703125 52.203125 31.203125 
z
" id="DejaVuSans-97"/>
      <path d="M 44.28125 53.078125 
L 44.28125 44.578125 
Q 40.484375 46.53125 36.375 47.5 
Q 32.28125 48.484375 27.875 48.484375 
Q 21.1875 48.484375 17.84375 46.4375 
Q 14.5 44.390625 14.5 40.28125 
Q 14.5 37.15625 16.890625 35.375 
Q 19.28125 33.59375 26.515625 31.984375 
L 29.59375 31.296875 
Q 39.15625 29.25 43.1875 25.515625 
Q 47.21875 21.78125 47.21875 15.09375 
Q 47.21875 7.46875 41.1875 3.015625 
Q 35.15625 -1.421875 24.609375 -1.421875 
Q 20.21875 -1.421875 15.453125 -0.5625 
Q 10.6875 0.296875 5.421875 2 
L 5.421875 11.28125 
Q 10.40625 8.6875 15.234375 7.390625 
Q 20.0625 6.109375 24.8125 6.109375 
Q 31.15625 6.109375 34.5625 8.28125 
Q 37.984375 10.453125 37.984375 14.40625 
Q 37.984375 18.0625 35.515625 20.015625 
Q 33.0625 21.96875 24.703125 23.78125 
L 21.578125 24.515625 
Q 13.234375 26.265625 9.515625 29.90625 
Q 5.8125 33.546875 5.8125 39.890625 
Q 5.8125 47.609375 11.28125 51.796875 
Q 16.75 56 26.8125 56 
Q 31.78125 56 36.171875 55.265625 
Q 40.578125 54.546875 44.28125 53.078125 
z
" id="DejaVuSans-115"/>
      <path d="M 56.203125 29.59375 
L 56.203125 25.203125 
L 14.890625 25.203125 
Q 15.484375 15.921875 20.484375 11.0625 
Q 25.484375 6.203125 34.421875 6.203125 
Q 39.59375 6.203125 44.453125 7.46875 
Q 49.3125 8.734375 54.109375 11.28125 
L 54.109375 2.78125 
Q 49.265625 0.734375 44.1875 -0.34375 
Q 39.109375 -1.421875 33.890625 -1.421875 
Q 20.796875 -1.421875 13.15625 6.1875 
Q 5.515625 13.8125 5.515625 26.8125 
Q 5.515625 40.234375 12.765625 48.109375 
Q 20.015625 56 32.328125 56 
Q 43.359375 56 49.78125 48.890625 
Q 56.203125 41.796875 56.203125 29.59375 
z
M 47.21875 32.234375 
Q 47.125 39.59375 43.09375 43.984375 
Q 39.0625 48.390625 32.421875 48.390625 
Q 24.90625 48.390625 20.390625 44.140625 
Q 15.875 39.890625 15.1875 32.171875 
z
" id="DejaVuSans-101"/>
     </defs>
     <use xlink:href="#DejaVuSans-67"/>
     <use x="69.824219" xlink:href="#DejaVuSans-97"/>
     <use x="131.103516" xlink:href="#DejaVuSans-115"/>
     <use x="183.203125" xlink:href="#DejaVuSans-101"/>
     <use x="244.726562" xlink:href="#DejaVuSans-32"/>
     <use x="276.513672" xlink:href="#DejaVuSans-49"/>
    </g>
   </g>
  </g>
 </g>
 <defs>
  <clipPath id="pd54a8ec5b4">
   <rect height="266.112" width="308.490492" x="81.914754" y="41.472"/>
  </clipPath>
 </defs>
</svg>
