<?xml version="1.0" encoding="utf-8" standalone="no"?>
<!DOCTYPE svg PUBLIC "-//W3C//DTD SVG 1.1//EN"
  "http://www.w3.org/Graphics/SVG/1.1/DTD/svg11.dtd">
<!-- Created with matplotlib (https://matplotlib.org/) -->
<svg height="345.6pt" version="1.1" viewBox="0 0 460.8 345.6" width="460.8pt" xmlns="http://www.w3.org/2000/svg" xmlns:xlink="http://www.w3.org/1999/xlink">
 <metadata>
  <rdf:RDF xmlns:cc="http://creativecommons.org/ns#" xmlns:dc="http://purl.org/dc/elements/1.1/" xmlns:rdf="http://www.w3.org/1999/02/22-rdf-syntax-ns#">
   <cc:Work>
    <dc:type rdf:resource="http://purl.org/dc/dcmitype/StillImage"/>
    <dc:date>2022-11-21T15:53:25.980094</dc:date>
    <dc:format>image/svg+xml</dc:format>
    <dc:creator>
     <cc:Agent>
      <dc:title>Matplotlib v3.3.4, https://matplotlib.org/</dc:title>
     </cc:Agent>
    </dc:creator>
   </cc:Work>
  </rdf:RDF>
 </metadata>
 <defs>
  <style type="text/css">*{stroke-linecap:butt;stroke-linejoin:round;}</style>
 </defs>
 <g id="figure_1">
  <g id="patch_1">
   <path d="M 0 345.6 
L 460.8 345.6 
L 460.8 0 
L 0 0 
z
" style="fill:#ffffff;"/>
  </g>
  <g id="axes_1">
   <g id="patch_2">
    <path d="M 57.6 307.584 
L 414.72 307.584 
L 414.72 41.472 
L 57.6 41.472 
z
" style="fill:#ffffff;"/>
   </g>
   <g id="matplotlib.axis_1">
    <g id="xtick_1">
     <g id="line2d_1">
      <defs>
       <path d="M 0 0 
L 0 3.5 
" id="me3e71d3c35" style="stroke:#000000;stroke-width:0.8;"/>
      </defs>
      <g>
       <use style="stroke:#000000;stroke-width:0.8;" x="74.761945" xlink:href="#me3e71d3c35" y="307.584"/>
      </g>
     </g>
     <g id="text_1">
      <!-- −16 -->
      <g transform="translate(64.209602 322.182437)scale(0.1 -0.1)">
       <defs>
        <path d="M 10.59375 35.5 
L 73.1875 35.5 
L 73.1875 27.203125 
L 10.59375 27.203125 
z
" id="DejaVuSans-8722"/>
        <path d="M 12.40625 8.296875 
L 28.515625 8.296875 
L 28.515625 63.921875 
L 10.984375 60.40625 
L 10.984375 69.390625 
L 28.421875 72.90625 
L 38.28125 72.90625 
L 38.28125 8.296875 
L 54.390625 8.296875 
L 54.390625 0 
L 12.40625 0 
z
" id="DejaVuSans-49"/>
        <path d="M 33.015625 40.375 
Q 26.375 40.375 22.484375 35.828125 
Q 18.609375 31.296875 18.609375 23.390625 
Q 18.609375 15.53125 22.484375 10.953125 
Q 26.375 6.390625 33.015625 6.390625 
Q 39.65625 6.390625 43.53125 10.953125 
Q 47.40625 15.53125 47.40625 23.390625 
Q 47.40625 31.296875 43.53125 35.828125 
Q 39.65625 40.375 33.015625 40.375 
z
M 52.59375 71.296875 
L 52.59375 62.3125 
Q 48.875 64.0625 45.09375 64.984375 
Q 41.3125 65.921875 37.59375 65.921875 
Q 27.828125 65.921875 22.671875 59.328125 
Q 17.53125 52.734375 16.796875 39.40625 
Q 19.671875 43.65625 24.015625 45.921875 
Q 28.375 48.1875 33.59375 48.1875 
Q 44.578125 48.1875 50.953125 41.515625 
Q 57.328125 34.859375 57.328125 23.390625 
Q 57.328125 12.15625 50.6875 5.359375 
Q 44.046875 -1.421875 33.015625 -1.421875 
Q 20.359375 -1.421875 13.671875 8.265625 
Q 6.984375 17.96875 6.984375 36.375 
Q 6.984375 53.65625 15.1875 63.9375 
Q 23.390625 74.21875 37.203125 74.21875 
Q 40.921875 74.21875 44.703125 73.484375 
Q 48.484375 72.75 52.59375 71.296875 
z
" id="DejaVuSans-54"/>
       </defs>
       <use xlink:href="#DejaVuSans-8722"/>
       <use x="83.789062" xlink:href="#DejaVuSans-49"/>
       <use x="147.412109" xlink:href="#DejaVuSans-54"/>
      </g>
     </g>
    </g>
    <g id="xtick_2">
     <g id="line2d_2">
      <g>
       <use style="stroke:#000000;stroke-width:0.8;" x="121.455152" xlink:href="#me3e71d3c35" y="307.584"/>
      </g>
     </g>
     <g id="text_2">
      <!-- −15 -->
      <g transform="translate(110.902808 322.182437)scale(0.1 -0.1)">
       <defs>
        <path d="M 10.796875 72.90625 
L 49.515625 72.90625 
L 49.515625 64.59375 
L 19.828125 64.59375 
L 19.828125 46.734375 
Q 21.96875 47.46875 24.109375 47.828125 
Q 26.265625 48.1875 28.421875 48.1875 
Q 40.625 48.1875 47.75 41.5 
Q 54.890625 34.8125 54.890625 23.390625 
Q 54.890625 11.625 47.5625 5.09375 
Q 40.234375 -1.421875 26.90625 -1.421875 
Q 22.3125 -1.421875 17.546875 -0.640625 
Q 12.796875 0.140625 7.71875 1.703125 
L 7.71875 11.625 
Q 12.109375 9.234375 16.796875 8.0625 
Q 21.484375 6.890625 26.703125 6.890625 
Q 35.15625 6.890625 40.078125 11.328125 
Q 45.015625 15.765625 45.015625 23.390625 
Q 45.015625 31 40.078125 35.4375 
Q 35.15625 39.890625 26.703125 39.890625 
Q 22.75 39.890625 18.8125 39.015625 
Q 14.890625 38.140625 10.796875 36.28125 
z
" id="DejaVuSans-53"/>
       </defs>
       <use xlink:href="#DejaVuSans-8722"/>
       <use x="83.789062" xlink:href="#DejaVuSans-49"/>
       <use x="147.412109" xlink:href="#DejaVuSans-53"/>
      </g>
     </g>
    </g>
    <g id="xtick_3">
     <g id="line2d_3">
      <g>
       <use style="stroke:#000000;stroke-width:0.8;" x="168.148359" xlink:href="#me3e71d3c35" y="307.584"/>
      </g>
     </g>
     <g id="text_3">
      <!-- −14 -->
      <g transform="translate(157.596015 322.182437)scale(0.1 -0.1)">
       <defs>
        <path d="M 37.796875 64.3125 
L 12.890625 25.390625 
L 37.796875 25.390625 
z
M 35.203125 72.90625 
L 47.609375 72.90625 
L 47.609375 25.390625 
L 58.015625 25.390625 
L 58.015625 17.1875 
L 47.609375 17.1875 
L 47.609375 0 
L 37.796875 0 
L 37.796875 17.1875 
L 4.890625 17.1875 
L 4.890625 26.703125 
z
" id="DejaVuSans-52"/>
       </defs>
       <use xlink:href="#DejaVuSans-8722"/>
       <use x="83.789062" xlink:href="#DejaVuSans-49"/>
       <use x="147.412109" xlink:href="#DejaVuSans-52"/>
      </g>
     </g>
    </g>
    <g id="xtick_4">
     <g id="line2d_4">
      <g>
       <use style="stroke:#000000;stroke-width:0.8;" x="214.841565" xlink:href="#me3e71d3c35" y="307.584"/>
      </g>
     </g>
     <g id="text_4">
      <!-- −13 -->
      <g transform="translate(204.289222 322.182437)scale(0.1 -0.1)">
       <defs>
        <path d="M 40.578125 39.3125 
Q 47.65625 37.796875 51.625 33 
Q 55.609375 28.21875 55.609375 21.1875 
Q 55.609375 10.40625 48.1875 4.484375 
Q 40.765625 -1.421875 27.09375 -1.421875 
Q 22.515625 -1.421875 17.65625 -0.515625 
Q 12.796875 0.390625 7.625 2.203125 
L 7.625 11.71875 
Q 11.71875 9.328125 16.59375 8.109375 
Q 21.484375 6.890625 26.8125 6.890625 
Q 36.078125 6.890625 40.9375 10.546875 
Q 45.796875 14.203125 45.796875 21.1875 
Q 45.796875 27.640625 41.28125 31.265625 
Q 36.765625 34.90625 28.71875 34.90625 
L 20.21875 34.90625 
L 20.21875 43.015625 
L 29.109375 43.015625 
Q 36.375 43.015625 40.234375 45.921875 
Q 44.09375 48.828125 44.09375 54.296875 
Q 44.09375 59.90625 40.109375 62.90625 
Q 36.140625 65.921875 28.71875 65.921875 
Q 24.65625 65.921875 20.015625 65.03125 
Q 15.375 64.15625 9.8125 62.3125 
L 9.8125 71.09375 
Q 15.4375 72.65625 20.34375 73.4375 
Q 25.25 74.21875 29.59375 74.21875 
Q 40.828125 74.21875 47.359375 69.109375 
Q 53.90625 64.015625 53.90625 55.328125 
Q 53.90625 49.265625 50.4375 45.09375 
Q 46.96875 40.921875 40.578125 39.3125 
z
" id="DejaVuSans-51"/>
       </defs>
       <use xlink:href="#DejaVuSans-8722"/>
       <use x="83.789062" xlink:href="#DejaVuSans-49"/>
       <use x="147.412109" xlink:href="#DejaVuSans-51"/>
      </g>
     </g>
    </g>
    <g id="xtick_5">
     <g id="line2d_5">
      <g>
       <use style="stroke:#000000;stroke-width:0.8;" x="261.534772" xlink:href="#me3e71d3c35" y="307.584"/>
      </g>
     </g>
     <g id="text_5">
      <!-- −12 -->
      <g transform="translate(250.982428 322.182437)scale(0.1 -0.1)">
       <defs>
        <path d="M 19.1875 8.296875 
L 53.609375 8.296875 
L 53.609375 0 
L 7.328125 0 
L 7.328125 8.296875 
Q 12.9375 14.109375 22.625 23.890625 
Q 32.328125 33.6875 34.8125 36.53125 
Q 39.546875 41.84375 41.421875 45.53125 
Q 43.3125 49.21875 43.3125 52.78125 
Q 43.3125 58.59375 39.234375 62.25 
Q 35.15625 65.921875 28.609375 65.921875 
Q 23.96875 65.921875 18.8125 64.3125 
Q 13.671875 62.703125 7.8125 59.421875 
L 7.8125 69.390625 
Q 13.765625 71.78125 18.9375 73 
Q 24.125 74.21875 28.421875 74.21875 
Q 39.75 74.21875 46.484375 68.546875 
Q 53.21875 62.890625 53.21875 53.421875 
Q 53.21875 48.921875 51.53125 44.890625 
Q 49.859375 40.875 45.40625 35.40625 
Q 44.1875 33.984375 37.640625 27.21875 
Q 31.109375 20.453125 19.1875 8.296875 
z
" id="DejaVuSans-50"/>
       </defs>
       <use xlink:href="#DejaVuSans-8722"/>
       <use x="83.789062" xlink:href="#DejaVuSans-49"/>
       <use x="147.412109" xlink:href="#DejaVuSans-50"/>
      </g>
     </g>
    </g>
    <g id="xtick_6">
     <g id="line2d_6">
      <g>
       <use style="stroke:#000000;stroke-width:0.8;" x="308.227979" xlink:href="#me3e71d3c35" y="307.584"/>
      </g>
     </g>
     <g id="text_6">
      <!-- −11 -->
      <g transform="translate(297.675635 322.182437)scale(0.1 -0.1)">
       <use xlink:href="#DejaVuSans-8722"/>
       <use x="83.789062" xlink:href="#DejaVuSans-49"/>
       <use x="147.412109" xlink:href="#DejaVuSans-49"/>
      </g>
     </g>
    </g>
    <g id="xtick_7">
     <g id="line2d_7">
      <g>
       <use style="stroke:#000000;stroke-width:0.8;" x="354.921185" xlink:href="#me3e71d3c35" y="307.584"/>
      </g>
     </g>
     <g id="text_7">
      <!-- −10 -->
      <g transform="translate(344.368842 322.182437)scale(0.1 -0.1)">
       <defs>
        <path d="M 31.78125 66.40625 
Q 24.171875 66.40625 20.328125 58.90625 
Q 16.5 51.421875 16.5 36.375 
Q 16.5 21.390625 20.328125 13.890625 
Q 24.171875 6.390625 31.78125 6.390625 
Q 39.453125 6.390625 43.28125 13.890625 
Q 47.125 21.390625 47.125 36.375 
Q 47.125 51.421875 43.28125 58.90625 
Q 39.453125 66.40625 31.78125 66.40625 
z
M 31.78125 74.21875 
Q 44.046875 74.21875 50.515625 64.515625 
Q 56.984375 54.828125 56.984375 36.375 
Q 56.984375 17.96875 50.515625 8.265625 
Q 44.046875 -1.421875 31.78125 -1.421875 
Q 19.53125 -1.421875 13.0625 8.265625 
Q 6.59375 17.96875 6.59375 36.375 
Q 6.59375 54.828125 13.0625 64.515625 
Q 19.53125 74.21875 31.78125 74.21875 
z
" id="DejaVuSans-48"/>
       </defs>
       <use xlink:href="#DejaVuSans-8722"/>
       <use x="83.789062" xlink:href="#DejaVuSans-49"/>
       <use x="147.412109" xlink:href="#DejaVuSans-48"/>
      </g>
     </g>
    </g>
    <g id="xtick_8">
     <g id="line2d_8">
      <g>
       <use style="stroke:#000000;stroke-width:0.8;" x="401.614392" xlink:href="#me3e71d3c35" y="307.584"/>
      </g>
     </g>
     <g id="text_8">
      <!-- −9 -->
      <g transform="translate(394.243298 322.182437)scale(0.1 -0.1)">
       <defs>
        <path d="M 10.984375 1.515625 
L 10.984375 10.5 
Q 14.703125 8.734375 18.5 7.8125 
Q 22.3125 6.890625 25.984375 6.890625 
Q 35.75 6.890625 40.890625 13.453125 
Q 46.046875 20.015625 46.78125 33.40625 
Q 43.953125 29.203125 39.59375 26.953125 
Q 35.25 24.703125 29.984375 24.703125 
Q 19.046875 24.703125 12.671875 31.3125 
Q 6.296875 37.9375 6.296875 49.421875 
Q 6.296875 60.640625 12.9375 67.421875 
Q 19.578125 74.21875 30.609375 74.21875 
Q 43.265625 74.21875 49.921875 64.515625 
Q 56.59375 54.828125 56.59375 36.375 
Q 56.59375 19.140625 48.40625 8.859375 
Q 40.234375 -1.421875 26.421875 -1.421875 
Q 22.703125 -1.421875 18.890625 -0.6875 
Q 15.09375 0.046875 10.984375 1.515625 
z
M 30.609375 32.421875 
Q 37.25 32.421875 41.125 36.953125 
Q 45.015625 41.5 45.015625 49.421875 
Q 45.015625 57.28125 41.125 61.84375 
Q 37.25 66.40625 30.609375 66.40625 
Q 23.96875 66.40625 20.09375 61.84375 
Q 16.21875 57.28125 16.21875 49.421875 
Q 16.21875 41.5 20.09375 36.953125 
Q 23.96875 32.421875 30.609375 32.421875 
z
" id="DejaVuSans-57"/>
       </defs>
       <use xlink:href="#DejaVuSans-8722"/>
       <use x="83.789062" xlink:href="#DejaVuSans-57"/>
      </g>
     </g>
    </g>
   </g>
   <g id="matplotlib.axis_2">
    <g id="ytick_1">
     <g id="line2d_9">
      <defs>
       <path d="M 0 0 
L -3.5 0 
" id="m23d6cf3250" style="stroke:#000000;stroke-width:0.8;"/>
      </defs>
      <g>
       <use style="stroke:#000000;stroke-width:0.8;" x="57.6" xlink:href="#m23d6cf3250" y="304.850931"/>
      </g>
     </g>
     <g id="text_9">
      <!-- −15 -->
      <g transform="translate(29.495313 308.65015)scale(0.1 -0.1)">
       <use xlink:href="#DejaVuSans-8722"/>
       <use x="83.789062" xlink:href="#DejaVuSans-49"/>
       <use x="147.412109" xlink:href="#DejaVuSans-53"/>
      </g>
     </g>
    </g>
    <g id="ytick_2">
     <g id="line2d_10">
      <g>
       <use style="stroke:#000000;stroke-width:0.8;" x="57.6" xlink:href="#m23d6cf3250" y="250.297785"/>
      </g>
     </g>
     <g id="text_10">
      <!-- −14 -->
      <g transform="translate(29.495313 254.097004)scale(0.1 -0.1)">
       <use xlink:href="#DejaVuSans-8722"/>
       <use x="83.789062" xlink:href="#DejaVuSans-49"/>
       <use x="147.412109" xlink:href="#DejaVuSans-52"/>
      </g>
     </g>
    </g>
    <g id="ytick_3">
     <g id="line2d_11">
      <g>
       <use style="stroke:#000000;stroke-width:0.8;" x="57.6" xlink:href="#m23d6cf3250" y="195.744639"/>
      </g>
     </g>
     <g id="text_11">
      <!-- −13 -->
      <g transform="translate(29.495313 199.543858)scale(0.1 -0.1)">
       <use xlink:href="#DejaVuSans-8722"/>
       <use x="83.789062" xlink:href="#DejaVuSans-49"/>
       <use x="147.412109" xlink:href="#DejaVuSans-51"/>
      </g>
     </g>
    </g>
    <g id="ytick_4">
     <g id="line2d_12">
      <g>
       <use style="stroke:#000000;stroke-width:0.8;" x="57.6" xlink:href="#m23d6cf3250" y="141.191493"/>
      </g>
     </g>
     <g id="text_12">
      <!-- −12 -->
      <g transform="translate(29.495313 144.990712)scale(0.1 -0.1)">
       <use xlink:href="#DejaVuSans-8722"/>
       <use x="83.789062" xlink:href="#DejaVuSans-49"/>
       <use x="147.412109" xlink:href="#DejaVuSans-50"/>
      </g>
     </g>
    </g>
    <g id="ytick_5">
     <g id="line2d_13">
      <g>
       <use style="stroke:#000000;stroke-width:0.8;" x="57.6" xlink:href="#m23d6cf3250" y="86.638348"/>
      </g>
     </g>
     <g id="text_13">
      <!-- −11 -->
      <g transform="translate(29.495313 90.437566)scale(0.1 -0.1)">
       <use xlink:href="#DejaVuSans-8722"/>
       <use x="83.789062" xlink:href="#DejaVuSans-49"/>
       <use x="147.412109" xlink:href="#DejaVuSans-49"/>
      </g>
     </g>
    </g>
   </g>
   <g id="line2d_14">
    <defs>
     <path d="M 0 1.5 
C 0.397805 1.5 0.77937 1.341951 1.06066 1.06066 
C 1.341951 0.77937 1.5 0.397805 1.5 0 
C 1.5 -0.397805 1.341951 -0.77937 1.06066 -1.06066 
C 0.77937 -1.341951 0.397805 -1.5 0 -1.5 
C -0.397805 -1.5 -0.77937 -1.341951 -1.06066 -1.06066 
C -1.341951 -0.77937 -1.5 -0.397805 -1.5 0 
C -1.5 0.397805 -1.341951 0.77937 -1.06066 1.06066 
C -0.77937 1.341951 -0.397805 1.5 0 1.5 
z
" id="me3fddf3a2e" style="stroke:#008000;"/>
    </defs>
    <g clip-path="url(#p43b26379af)">
     <use style="fill:#008000;stroke:#008000;" x="73.832727" xlink:href="#me3fddf3a2e" y="223.428325"/>
     <use style="fill:#008000;stroke:#008000;" x="73.832727" xlink:href="#me3fddf3a2e" y="223.428325"/>
     <use style="fill:#008000;stroke:#008000;" x="75.281013" xlink:href="#me3fddf3a2e" y="223.084622"/>
     <use style="fill:#008000;stroke:#008000;" x="78.0924" xlink:href="#me3fddf3a2e" y="222.427529"/>
     <use style="fill:#008000;stroke:#008000;" x="82.183567" xlink:href="#me3fddf3a2e" y="221.500275"/>
     <use style="fill:#008000;stroke:#008000;" x="87.472618" xlink:href="#me3fddf3a2e" y="220.356179"/>
     <use style="fill:#008000;stroke:#008000;" x="93.878558" xlink:href="#me3fddf3a2e" y="219.055007"/>
     <use style="fill:#008000;stroke:#008000;" x="101.320776" xlink:href="#me3fddf3a2e" y="217.658599"/>
     <use style="fill:#008000;stroke:#008000;" x="109.718658" xlink:href="#me3fddf3a2e" y="216.226"/>
     <use style="fill:#008000;stroke:#008000;" x="118.991449" xlink:href="#me3fddf3a2e" y="214.808515"/>
     <use style="fill:#008000;stroke:#008000;" x="129.058411" xlink:href="#me3fddf3a2e" y="213.445125"/>
     <use style="fill:#008000;stroke:#008000;" x="139.839253" xlink:href="#me3fddf3a2e" y="212.158674"/>
     <use style="fill:#008000;stroke:#008000;" x="151.254704" xlink:href="#me3fddf3a2e" y="210.953104"/>
     <use style="fill:#008000;stroke:#008000;" x="163.227021" xlink:href="#me3fddf3a2e" y="209.811909"/>
     <use style="fill:#008000;stroke:#008000;" x="175.680245" xlink:href="#me3fddf3a2e" y="208.697784"/>
     <use style="fill:#008000;stroke:#008000;" x="188.539987" xlink:href="#me3fddf3a2e" y="207.553405"/>
     <use style="fill:#008000;stroke:#008000;" x="201.732642" xlink:href="#me3fddf3a2e" y="206.303199"/>
     <use style="fill:#008000;stroke:#008000;" x="215.183945" xlink:href="#me3fddf3a2e" y="204.855987"/>
     <use style="fill:#008000;stroke:#008000;" x="228.816931" xlink:href="#me3fddf3a2e" y="203.10845"/>
     <use style="fill:#008000;stroke:#008000;" x="242.549415" xlink:href="#me3fddf3a2e" y="200.949467"/>
     <use style="fill:#008000;stroke:#008000;" x="256.291237" xlink:href="#me3fddf3a2e" y="198.26544"/>
     <use style="fill:#008000;stroke:#008000;" x="269.941654" xlink:href="#me3fddf3a2e" y="194.946818"/>
     <use style="fill:#008000;stroke:#008000;" x="283.387424" xlink:href="#me3fddf3a2e" y="190.895996"/>
     <use style="fill:#008000;stroke:#008000;" x="296.502314" xlink:href="#me3fddf3a2e" y="186.036688"/>
     <use style="fill:#008000;stroke:#008000;" x="309.148926" xlink:href="#me3fddf3a2e" y="180.324476"/>
     <use style="fill:#008000;stroke:#008000;" x="321.183738" xlink:href="#me3fddf3a2e" y="173.757709"/>
     <use style="fill:#008000;stroke:#008000;" x="332.494963" xlink:href="#me3fddf3a2e" y="166.368079"/>
     <use style="fill:#008000;stroke:#008000;" x="342.974484" xlink:href="#me3fddf3a2e" y="158.220753"/>
     <use style="fill:#008000;stroke:#008000;" x="352.526265" xlink:href="#me3fddf3a2e" y="149.419704"/>
     <use style="fill:#008000;stroke:#008000;" x="361.076961" xlink:href="#me3fddf3a2e" y="140.109269"/>
     <use style="fill:#008000;stroke:#008000;" x="368.586853" xlink:href="#me3fddf3a2e" y="130.469885"/>
     <use style="fill:#008000;stroke:#008000;" x="375.057991" xlink:href="#me3fddf3a2e" y="120.707046"/>
     <use style="fill:#008000;stroke:#008000;" x="380.527821" xlink:href="#me3fddf3a2e" y="111.029809"/>
     <use style="fill:#008000;stroke:#008000;" x="385.056463" xlink:href="#me3fddf3a2e" y="101.634981"/>
     <use style="fill:#008000;stroke:#008000;" x="388.722237" xlink:href="#me3fddf3a2e" y="92.703799"/>
     <use style="fill:#008000;stroke:#008000;" x="391.616718" xlink:href="#me3fddf3a2e" y="84.399883"/>
     <use style="fill:#008000;stroke:#008000;" x="393.839537" xlink:href="#me3fddf3a2e" y="76.868426"/>
     <use style="fill:#008000;stroke:#008000;" x="395.493126" xlink:href="#me3fddf3a2e" y="70.236494"/>
     <use style="fill:#008000;stroke:#008000;" x="396.682208" xlink:href="#me3fddf3a2e" y="64.612358"/>
     <use style="fill:#008000;stroke:#008000;" x="397.504658" xlink:href="#me3fddf3a2e" y="60.081946"/>
     <use style="fill:#008000;stroke:#008000;" x="398.042486" xlink:href="#me3fddf3a2e" y="56.707712"/>
     <use style="fill:#008000;stroke:#008000;" x="398.356881" xlink:href="#me3fddf3a2e" y="54.529771"/>
     <use style="fill:#008000;stroke:#008000;" x="398.487273" xlink:href="#me3fddf3a2e" y="53.568"/>
     <use style="fill:#008000;stroke:#008000;" x="398.453423" xlink:href="#me3fddf3a2e" y="53.824259"/>
     <use style="fill:#008000;stroke:#008000;" x="398.259338" xlink:href="#me3fddf3a2e" y="55.284424"/>
     <use style="fill:#008000;stroke:#008000;" x="397.897887" xlink:href="#me3fddf3a2e" y="57.920254"/>
     <use style="fill:#008000;stroke:#008000;" x="397.355326" xlink:href="#me3fddf3a2e" y="61.691173"/>
     <use style="fill:#008000;stroke:#008000;" x="396.615154" xlink:href="#me3fddf3a2e" y="66.546076"/>
     <use style="fill:#008000;stroke:#008000;" x="395.661012" xlink:href="#me3fddf3a2e" y="72.425132"/>
     <use style="fill:#008000;stroke:#008000;" x="394.478469" xlink:href="#me3fddf3a2e" y="79.261555"/>
     <use style="fill:#008000;stroke:#008000;" x="393.055737" xlink:href="#me3fddf3a2e" y="86.983232"/>
     <use style="fill:#008000;stroke:#008000;" x="391.383445" xlink:href="#me3fddf3a2e" y="95.514147"/>
     <use style="fill:#008000;stroke:#008000;" x="389.453674" xlink:href="#me3fddf3a2e" y="104.77552"/>
     <use style="fill:#008000;stroke:#008000;" x="387.258537" xlink:href="#me3fddf3a2e" y="114.686637"/>
     <use style="fill:#008000;stroke:#008000;" x="384.788552" xlink:href="#me3fddf3a2e" y="125.165356"/>
     <use style="fill:#008000;stroke:#008000;" x="382.031099" xlink:href="#me3fddf3a2e" y="136.128305"/>
     <use style="fill:#008000;stroke:#008000;" x="378.969144" xlink:href="#me3fddf3a2e" y="147.490759"/>
     <use style="fill:#008000;stroke:#008000;" x="375.580416" xlink:href="#me3fddf3a2e" y="159.166206"/>
     <use style="fill:#008000;stroke:#008000;" x="371.837137" xlink:href="#me3fddf3a2e" y="171.065602"/>
     <use style="fill:#008000;stroke:#008000;" x="367.706372" xlink:href="#me3fddf3a2e" y="183.096299"/>
     <use style="fill:#008000;stroke:#008000;" x="363.151048" xlink:href="#me3fddf3a2e" y="195.16068"/>
     <use style="fill:#008000;stroke:#008000;" x="358.131694" xlink:href="#me3fddf3a2e" y="207.154541"/>
     <use style="fill:#008000;stroke:#008000;" x="352.608978" xlink:href="#me3fddf3a2e" y="218.965357"/>
     <use style="fill:#008000;stroke:#008000;" x="346.547165" xlink:href="#me3fddf3a2e" y="230.470659"/>
     <use style="fill:#008000;stroke:#008000;" x="339.918652" xlink:href="#me3fddf3a2e" y="241.53694"/>
     <use style="fill:#008000;stroke:#008000;" x="332.709713" xlink:href="#me3fddf3a2e" y="252.01978"/>
     <use style="fill:#008000;stroke:#008000;" x="324.927464" xlink:href="#me3fddf3a2e" y="261.766202"/>
     <use style="fill:#008000;stroke:#008000;" x="316.994473" xlink:href="#me3fddf3a2e" y="270.208972"/>
     <use style="fill:#008000;stroke:#008000;" x="309.203962" xlink:href="#me3fddf3a2e" y="277.307399"/>
     <use style="fill:#008000;stroke:#008000;" x="301.851138" xlink:href="#me3fddf3a2e" y="283.083624"/>
     <use style="fill:#008000;stroke:#008000;" x="295.220464" xlink:href="#me3fddf3a2e" y="287.610373"/>
     <use style="fill:#008000;stroke:#008000;" x="289.576251" xlink:href="#me3fddf3a2e" y="290.994145"/>
     <use style="fill:#008000;stroke:#008000;" x="285.156776" xlink:href="#me3fddf3a2e" y="293.355302"/>
     <use style="fill:#008000;stroke:#008000;" x="282.171321" xlink:href="#me3fddf3a2e" y="294.806525"/>
     <use style="fill:#008000;stroke:#008000;" x="280.707431" xlink:href="#me3fddf3a2e" y="295.477596"/>
     <use style="fill:#008000;stroke:#008000;" x="280.684186" xlink:href="#me3fddf3a2e" y="295.488"/>
     <use style="fill:#008000;stroke:#008000;" x="281.862299" xlink:href="#me3fddf3a2e" y="294.960862"/>
     <use style="fill:#008000;stroke:#008000;" x="283.873688" xlink:href="#me3fddf3a2e" y="294.050985"/>
     <use style="fill:#008000;stroke:#008000;" x="286.251169" xlink:href="#me3fddf3a2e" y="292.961508"/>
     <use style="fill:#008000;stroke:#008000;" x="288.452149" xlink:href="#me3fddf3a2e" y="291.942906"/>
     <use style="fill:#008000;stroke:#008000;" x="289.875922" xlink:href="#me3fddf3a2e" y="291.280497"/>
    </g>
   </g>
   <g id="line2d_15">
    <defs>
     <path d="M 0 1.5 
C 0.397805 1.5 0.77937 1.341951 1.06066 1.06066 
C 1.341951 0.77937 1.5 0.397805 1.5 0 
C 1.5 -0.397805 1.341951 -0.77937 1.06066 -1.06066 
C 0.77937 -1.341951 0.397805 -1.5 0 -1.5 
C -0.397805 -1.5 -0.77937 -1.341951 -1.06066 -1.06066 
C -1.341951 -0.77937 -1.5 -0.397805 -1.5 0 
C -1.5 0.397805 -1.341951 0.77937 -1.06066 1.06066 
C -0.77937 1.341951 -0.397805 1.5 0 1.5 
z
" id="mf08c09b248" style="stroke:#ff0000;"/>
    </defs>
    <g clip-path="url(#p43b26379af)">
     <use style="fill:#ff0000;stroke:#ff0000;" x="73.832727" xlink:href="#mf08c09b248" y="223.428325"/>
     <use style="fill:#ff0000;stroke:#ff0000;" x="85.272415" xlink:href="#mf08c09b248" y="220.713489"/>
     <use style="fill:#ff0000;stroke:#ff0000;" x="106.053836" xlink:href="#mf08c09b248" y="216.355514"/>
     <use style="fill:#ff0000;stroke:#ff0000;" x="132.989577" xlink:href="#mf08c09b248" y="211.419682"/>
     <use style="fill:#ff0000;stroke:#ff0000;" x="152.432093" xlink:href="#mf08c09b248" y="209.670749"/>
     <use style="fill:#ff0000;stroke:#ff0000;" x="162.365883" xlink:href="#mf08c09b248" y="209.280369"/>
     <use style="fill:#ff0000;stroke:#ff0000;" x="183.975291" xlink:href="#mf08c09b248" y="208.839103"/>
     <use style="fill:#ff0000;stroke:#ff0000;" x="205.465539" xlink:href="#mf08c09b248" y="210.455241"/>
     <use style="fill:#ff0000;stroke:#ff0000;" x="220.373061" xlink:href="#mf08c09b248" y="212.499807"/>
     <use style="fill:#ff0000;stroke:#ff0000;" x="232.22474" xlink:href="#mf08c09b248" y="214.402934"/>
     <use style="fill:#ff0000;stroke:#ff0000;" x="240.715342" xlink:href="#mf08c09b248" y="215.885655"/>
     <use style="fill:#ff0000;stroke:#ff0000;" x="246.902089" xlink:href="#mf08c09b248" y="217.005122"/>
     <use style="fill:#ff0000;stroke:#ff0000;" x="263.788089" xlink:href="#mf08c09b248" y="220.126898"/>
     <use style="fill:#ff0000;stroke:#ff0000;" x="276.705195" xlink:href="#mf08c09b248" y="222.144869"/>
     <use style="fill:#ff0000;stroke:#ff0000;" x="295.037035" xlink:href="#mf08c09b248" y="224.054814"/>
     <use style="fill:#ff0000;stroke:#ff0000;" x="303.753627" xlink:href="#mf08c09b248" y="223.960263"/>
     <use style="fill:#ff0000;stroke:#ff0000;" x="300.801151" xlink:href="#mf08c09b248" y="224.136636"/>
     <use style="fill:#ff0000;stroke:#ff0000;" x="301.902342" xlink:href="#mf08c09b248" y="224.086779"/>
     <use style="fill:#ff0000;stroke:#ff0000;" x="309.174068" xlink:href="#mf08c09b248" y="223.717812"/>
     <use style="fill:#ff0000;stroke:#ff0000;" x="308.658677" xlink:href="#mf08c09b248" y="223.762341"/>
     <use style="fill:#ff0000;stroke:#ff0000;" x="303.941481" xlink:href="#mf08c09b248" y="224.159198"/>
     <use style="fill:#ff0000;stroke:#ff0000;" x="287.570476" xlink:href="#mf08c09b248" y="225.350172"/>
     <use style="fill:#ff0000;stroke:#ff0000;" x="276.126573" xlink:href="#mf08c09b248" y="225.40278"/>
     <use style="fill:#ff0000;stroke:#ff0000;" x="276.270481" xlink:href="#mf08c09b248" y="225.414151"/>
     <use style="fill:#ff0000;stroke:#ff0000;" x="275.072933" xlink:href="#mf08c09b248" y="225.320647"/>
     <use style="fill:#ff0000;stroke:#ff0000;" x="285.519356" xlink:href="#mf08c09b248" y="226.193139"/>
     <use style="fill:#ff0000;stroke:#ff0000;" x="307.655658" xlink:href="#mf08c09b248" y="226.833165"/>
     <use style="fill:#ff0000;stroke:#ff0000;" x="321.321441" xlink:href="#mf08c09b248" y="224.696842"/>
     <use style="fill:#ff0000;stroke:#ff0000;" x="326.845663" xlink:href="#mf08c09b248" y="223.389718"/>
     <use style="fill:#ff0000;stroke:#ff0000;" x="325.488587" xlink:href="#mf08c09b248" y="223.742461"/>
     <use style="fill:#ff0000;stroke:#ff0000;" x="324.8" xlink:href="#mf08c09b248" y="223.919674"/>
     <use style="fill:#ff0000;stroke:#ff0000;" x="322.124598" xlink:href="#mf08c09b248" y="224.609186"/>
     <use style="fill:#ff0000;stroke:#ff0000;" x="325.017887" xlink:href="#mf08c09b248" y="223.863624"/>
     <use style="fill:#ff0000;stroke:#ff0000;" x="322.266298" xlink:href="#mf08c09b248" y="224.553304"/>
     <use style="fill:#ff0000;stroke:#ff0000;" x="321.001356" xlink:href="#mf08c09b248" y="224.877871"/>
     <use style="fill:#ff0000;stroke:#ff0000;" x="319.398511" xlink:href="#mf08c09b248" y="225.292622"/>
     <use style="fill:#ff0000;stroke:#ff0000;" x="307.315052" xlink:href="#mf08c09b248" y="228.504065"/>
     <use style="fill:#ff0000;stroke:#ff0000;" x="296.792977" xlink:href="#mf08c09b248" y="232.305012"/>
     <use style="fill:#ff0000;stroke:#ff0000;" x="289.643652" xlink:href="#mf08c09b248" y="235.62518"/>
     <use style="fill:#ff0000;stroke:#ff0000;" x="285.049777" xlink:href="#mf08c09b248" y="238.048953"/>
     <use style="fill:#ff0000;stroke:#ff0000;" x="276.09955" xlink:href="#mf08c09b248" y="243.035486"/>
     <use style="fill:#ff0000;stroke:#ff0000;" x="265.500239" xlink:href="#mf08c09b248" y="249.237925"/>
     <use style="fill:#ff0000;stroke:#ff0000;" x="251.24979" xlink:href="#mf08c09b248" y="257.576915"/>
     <use style="fill:#ff0000;stroke:#ff0000;" x="236.954844" xlink:href="#mf08c09b248" y="265.630036"/>
     <use style="fill:#ff0000;stroke:#ff0000;" x="231.769487" xlink:href="#mf08c09b248" y="268.204575"/>
     <use style="fill:#ff0000;stroke:#ff0000;" x="234.282827" xlink:href="#mf08c09b248" y="266.995203"/>
     <use style="fill:#ff0000;stroke:#ff0000;" x="243.546824" xlink:href="#mf08c09b248" y="262.456383"/>
     <use style="fill:#ff0000;stroke:#ff0000;" x="249.134968" xlink:href="#mf08c09b248" y="259.433289"/>
     <use style="fill:#ff0000;stroke:#ff0000;" x="259.182105" xlink:href="#mf08c09b248" y="253.865289"/>
     <use style="fill:#ff0000;stroke:#ff0000;" x="270.070563" xlink:href="#mf08c09b248" y="247.381279"/>
     <use style="fill:#ff0000;stroke:#ff0000;" x="280.780337" xlink:href="#mf08c09b248" y="240.622723"/>
     <use style="fill:#ff0000;stroke:#ff0000;" x="289.047267" xlink:href="#mf08c09b248" y="234.752681"/>
     <use style="fill:#ff0000;stroke:#ff0000;" x="298.402761" xlink:href="#mf08c09b248" y="227.031042"/>
     <use style="fill:#ff0000;stroke:#ff0000;" x="299.997433" xlink:href="#mf08c09b248" y="225.472391"/>
     <use style="fill:#ff0000;stroke:#ff0000;" x="292.692535" xlink:href="#mf08c09b248" y="232.739253"/>
     <use style="fill:#ff0000;stroke:#ff0000;" x="276.249104" xlink:href="#mf08c09b248" y="248.485735"/>
     <use style="fill:#ff0000;stroke:#ff0000;" x="254.937728" xlink:href="#mf08c09b248" y="265.439258"/>
     <use style="fill:#ff0000;stroke:#ff0000;" x="241.076758" xlink:href="#mf08c09b248" y="272.557286"/>
     <use style="fill:#ff0000;stroke:#ff0000;" x="237.67274" xlink:href="#mf08c09b248" y="273.91281"/>
     <use style="fill:#ff0000;stroke:#ff0000;" x="237.858474" xlink:href="#mf08c09b248" y="273.844457"/>
     <use style="fill:#ff0000;stroke:#ff0000;" x="244.211828" xlink:href="#mf08c09b248" y="271.499163"/>
     <use style="fill:#ff0000;stroke:#ff0000;" x="261.097026" xlink:href="#mf08c09b248" y="264.726526"/>
     <use style="fill:#ff0000;stroke:#ff0000;" x="274.309672" xlink:href="#mf08c09b248" y="258.859253"/>
     <use style="fill:#ff0000;stroke:#ff0000;" x="293.197397" xlink:href="#mf08c09b248" y="250.343085"/>
     <use style="fill:#ff0000;stroke:#ff0000;" x="305.927279" xlink:href="#mf08c09b248" y="243.777864"/>
     <use style="fill:#ff0000;stroke:#ff0000;" x="307.92479" xlink:href="#mf08c09b248" y="242.589171"/>
     <use style="fill:#ff0000;stroke:#ff0000;" x="299.542423" xlink:href="#mf08c09b248" y="247.627008"/>
     <use style="fill:#ff0000;stroke:#ff0000;" x="286.252098" xlink:href="#mf08c09b248" y="255.642808"/>
     <use style="fill:#ff0000;stroke:#ff0000;" x="271.149759" xlink:href="#mf08c09b248" y="264.180676"/>
     <use style="fill:#ff0000;stroke:#ff0000;" x="259.415362" xlink:href="#mf08c09b248" y="269.970558"/>
     <use style="fill:#ff0000;stroke:#ff0000;" x="251.885446" xlink:href="#mf08c09b248" y="273.333498"/>
     <use style="fill:#ff0000;stroke:#ff0000;" x="248.757572" xlink:href="#mf08c09b248" y="274.670205"/>
     <use style="fill:#ff0000;stroke:#ff0000;" x="249.388123" xlink:href="#mf08c09b248" y="274.404386"/>
     <use style="fill:#ff0000;stroke:#ff0000;" x="256.789245" xlink:href="#mf08c09b248" y="271.277423"/>
     <use style="fill:#ff0000;stroke:#ff0000;" x="274.413975" xlink:href="#mf08c09b248" y="263.791887"/>
     <use style="fill:#ff0000;stroke:#ff0000;" x="288.100195" xlink:href="#mf08c09b248" y="257.310161"/>
     <use style="fill:#ff0000;stroke:#ff0000;" x="301.147059" xlink:href="#mf08c09b248" y="250.009724"/>
     <use style="fill:#ff0000;stroke:#ff0000;" x="303.528665" xlink:href="#mf08c09b248" y="248.305711"/>
     <use style="fill:#ff0000;stroke:#ff0000;" x="300.081165" xlink:href="#mf08c09b248" y="250.837457"/>
     <use style="fill:#ff0000;stroke:#ff0000;" x="286.644191" xlink:href="#mf08c09b248" y="260.426441"/>
    </g>
   </g>
   <g id="patch_3">
    <path d="M 57.6 307.584 
L 57.6 41.472 
" style="fill:none;stroke:#000000;stroke-linecap:square;stroke-linejoin:miter;stroke-width:0.8;"/>
   </g>
   <g id="patch_4">
    <path d="M 414.72 307.584 
L 414.72 41.472 
" style="fill:none;stroke:#000000;stroke-linecap:square;stroke-linejoin:miter;stroke-width:0.8;"/>
   </g>
   <g id="patch_5">
    <path d="M 57.6 307.584 
L 414.72 307.584 
" style="fill:none;stroke:#000000;stroke-linecap:square;stroke-linejoin:miter;stroke-width:0.8;"/>
   </g>
   <g id="patch_6">
    <path d="M 57.6 41.472 
L 414.72 41.472 
" style="fill:none;stroke:#000000;stroke-linecap:square;stroke-linejoin:miter;stroke-width:0.8;"/>
   </g>
   <g id="legend_1">
    <g id="patch_7">
     <path d="M 64.6 78.82825 
L 171.946875 78.82825 
Q 173.946875 78.82825 173.946875 76.82825 
L 173.946875 48.472 
Q 173.946875 46.472 171.946875 46.472 
L 64.6 46.472 
Q 62.6 46.472 62.6 48.472 
L 62.6 76.82825 
Q 62.6 78.82825 64.6 78.82825 
z
" style="fill:#ffffff;opacity:0.8;stroke:#cccccc;stroke-linejoin:miter;"/>
    </g>
    <g id="line2d_16"/>
    <g id="line2d_17">
     <g>
      <use style="fill:#008000;stroke:#008000;" x="76.6" xlink:href="#me3fddf3a2e" y="54.570437"/>
     </g>
    </g>
    <g id="text_14">
     <!-- optimized path -->
     <g transform="translate(94.6 58.070437)scale(0.1 -0.1)">
      <defs>
       <path d="M 30.609375 48.390625 
Q 23.390625 48.390625 19.1875 42.75 
Q 14.984375 37.109375 14.984375 27.296875 
Q 14.984375 17.484375 19.15625 11.84375 
Q 23.34375 6.203125 30.609375 6.203125 
Q 37.796875 6.203125 41.984375 11.859375 
Q 46.1875 17.53125 46.1875 27.296875 
Q 46.1875 37.015625 41.984375 42.703125 
Q 37.796875 48.390625 30.609375 48.390625 
z
M 30.609375 56 
Q 42.328125 56 49.015625 48.375 
Q 55.71875 40.765625 55.71875 27.296875 
Q 55.71875 13.875 49.015625 6.21875 
Q 42.328125 -1.421875 30.609375 -1.421875 
Q 18.84375 -1.421875 12.171875 6.21875 
Q 5.515625 13.875 5.515625 27.296875 
Q 5.515625 40.765625 12.171875 48.375 
Q 18.84375 56 30.609375 56 
z
" id="DejaVuSans-111"/>
       <path d="M 18.109375 8.203125 
L 18.109375 -20.796875 
L 9.078125 -20.796875 
L 9.078125 54.6875 
L 18.109375 54.6875 
L 18.109375 46.390625 
Q 20.953125 51.265625 25.265625 53.625 
Q 29.59375 56 35.59375 56 
Q 45.5625 56 51.78125 48.09375 
Q 58.015625 40.1875 58.015625 27.296875 
Q 58.015625 14.40625 51.78125 6.484375 
Q 45.5625 -1.421875 35.59375 -1.421875 
Q 29.59375 -1.421875 25.265625 0.953125 
Q 20.953125 3.328125 18.109375 8.203125 
z
M 48.6875 27.296875 
Q 48.6875 37.203125 44.609375 42.84375 
Q 40.53125 48.484375 33.40625 48.484375 
Q 26.265625 48.484375 22.1875 42.84375 
Q 18.109375 37.203125 18.109375 27.296875 
Q 18.109375 17.390625 22.1875 11.75 
Q 26.265625 6.109375 33.40625 6.109375 
Q 40.53125 6.109375 44.609375 11.75 
Q 48.6875 17.390625 48.6875 27.296875 
z
" id="DejaVuSans-112"/>
       <path d="M 18.3125 70.21875 
L 18.3125 54.6875 
L 36.8125 54.6875 
L 36.8125 47.703125 
L 18.3125 47.703125 
L 18.3125 18.015625 
Q 18.3125 11.328125 20.140625 9.421875 
Q 21.96875 7.515625 27.59375 7.515625 
L 36.8125 7.515625 
L 36.8125 0 
L 27.59375 0 
Q 17.1875 0 13.234375 3.875 
Q 9.28125 7.765625 9.28125 18.015625 
L 9.28125 47.703125 
L 2.6875 47.703125 
L 2.6875 54.6875 
L 9.28125 54.6875 
L 9.28125 70.21875 
z
" id="DejaVuSans-116"/>
       <path d="M 9.421875 54.6875 
L 18.40625 54.6875 
L 18.40625 0 
L 9.421875 0 
z
M 9.421875 75.984375 
L 18.40625 75.984375 
L 18.40625 64.59375 
L 9.421875 64.59375 
z
" id="DejaVuSans-105"/>
       <path d="M 52 44.1875 
Q 55.375 50.25 60.0625 53.125 
Q 64.75 56 71.09375 56 
Q 79.640625 56 84.28125 50.015625 
Q 88.921875 44.046875 88.921875 33.015625 
L 88.921875 0 
L 79.890625 0 
L 79.890625 32.71875 
Q 79.890625 40.578125 77.09375 44.375 
Q 74.3125 48.1875 68.609375 48.1875 
Q 61.625 48.1875 57.5625 43.546875 
Q 53.515625 38.921875 53.515625 30.90625 
L 53.515625 0 
L 44.484375 0 
L 44.484375 32.71875 
Q 44.484375 40.625 41.703125 44.40625 
Q 38.921875 48.1875 33.109375 48.1875 
Q 26.21875 48.1875 22.15625 43.53125 
Q 18.109375 38.875 18.109375 30.90625 
L 18.109375 0 
L 9.078125 0 
L 9.078125 54.6875 
L 18.109375 54.6875 
L 18.109375 46.1875 
Q 21.1875 51.21875 25.484375 53.609375 
Q 29.78125 56 35.6875 56 
Q 41.65625 56 45.828125 52.96875 
Q 50 49.953125 52 44.1875 
z
" id="DejaVuSans-109"/>
       <path d="M 5.515625 54.6875 
L 48.1875 54.6875 
L 48.1875 46.484375 
L 14.40625 7.171875 
L 48.1875 7.171875 
L 48.1875 0 
L 4.296875 0 
L 4.296875 8.203125 
L 38.09375 47.515625 
L 5.515625 47.515625 
z
" id="DejaVuSans-122"/>
       <path d="M 56.203125 29.59375 
L 56.203125 25.203125 
L 14.890625 25.203125 
Q 15.484375 15.921875 20.484375 11.0625 
Q 25.484375 6.203125 34.421875 6.203125 
Q 39.59375 6.203125 44.453125 7.46875 
Q 49.3125 8.734375 54.109375 11.28125 
L 54.109375 2.78125 
Q 49.265625 0.734375 44.1875 -0.34375 
Q 39.109375 -1.421875 33.890625 -1.421875 
Q 20.796875 -1.421875 13.15625 6.1875 
Q 5.515625 13.8125 5.515625 26.8125 
Q 5.515625 40.234375 12.765625 48.109375 
Q 20.015625 56 32.328125 56 
Q 43.359375 56 49.78125 48.890625 
Q 56.203125 41.796875 56.203125 29.59375 
z
M 47.21875 32.234375 
Q 47.125 39.59375 43.09375 43.984375 
Q 39.0625 48.390625 32.421875 48.390625 
Q 24.90625 48.390625 20.390625 44.140625 
Q 15.875 39.890625 15.1875 32.171875 
z
" id="DejaVuSans-101"/>
       <path d="M 45.40625 46.390625 
L 45.40625 75.984375 
L 54.390625 75.984375 
L 54.390625 0 
L 45.40625 0 
L 45.40625 8.203125 
Q 42.578125 3.328125 38.25 0.953125 
Q 33.9375 -1.421875 27.875 -1.421875 
Q 17.96875 -1.421875 11.734375 6.484375 
Q 5.515625 14.40625 5.515625 27.296875 
Q 5.515625 40.1875 11.734375 48.09375 
Q 17.96875 56 27.875 56 
Q 33.9375 56 38.25 53.625 
Q 42.578125 51.265625 45.40625 46.390625 
z
M 14.796875 27.296875 
Q 14.796875 17.390625 18.875 11.75 
Q 22.953125 6.109375 30.078125 6.109375 
Q 37.203125 6.109375 41.296875 11.75 
Q 45.40625 17.390625 45.40625 27.296875 
Q 45.40625 37.203125 41.296875 42.84375 
Q 37.203125 48.484375 30.078125 48.484375 
Q 22.953125 48.484375 18.875 42.84375 
Q 14.796875 37.203125 14.796875 27.296875 
z
" id="DejaVuSans-100"/>
       <path id="DejaVuSans-32"/>
       <path d="M 34.28125 27.484375 
Q 23.390625 27.484375 19.1875 25 
Q 14.984375 22.515625 14.984375 16.5 
Q 14.984375 11.71875 18.140625 8.90625 
Q 21.296875 6.109375 26.703125 6.109375 
Q 34.1875 6.109375 38.703125 11.40625 
Q 43.21875 16.703125 43.21875 25.484375 
L 43.21875 27.484375 
z
M 52.203125 31.203125 
L 52.203125 0 
L 43.21875 0 
L 43.21875 8.296875 
Q 40.140625 3.328125 35.546875 0.953125 
Q 30.953125 -1.421875 24.3125 -1.421875 
Q 15.921875 -1.421875 10.953125 3.296875 
Q 6 8.015625 6 15.921875 
Q 6 25.140625 12.171875 29.828125 
Q 18.359375 34.515625 30.609375 34.515625 
L 43.21875 34.515625 
L 43.21875 35.40625 
Q 43.21875 41.609375 39.140625 45 
Q 35.0625 48.390625 27.6875 48.390625 
Q 23 48.390625 18.546875 47.265625 
Q 14.109375 46.140625 10.015625 43.890625 
L 10.015625 52.203125 
Q 14.9375 54.109375 19.578125 55.046875 
Q 24.21875 56 28.609375 56 
Q 40.484375 56 46.34375 49.84375 
Q 52.203125 43.703125 52.203125 31.203125 
z
" id="DejaVuSans-97"/>
       <path d="M 54.890625 33.015625 
L 54.890625 0 
L 45.90625 0 
L 45.90625 32.71875 
Q 45.90625 40.484375 42.875 44.328125 
Q 39.84375 48.1875 33.796875 48.1875 
Q 26.515625 48.1875 22.3125 43.546875 
Q 18.109375 38.921875 18.109375 30.90625 
L 18.109375 0 
L 9.078125 0 
L 9.078125 75.984375 
L 18.109375 75.984375 
L 18.109375 46.1875 
Q 21.34375 51.125 25.703125 53.5625 
Q 30.078125 56 35.796875 56 
Q 45.21875 56 50.046875 50.171875 
Q 54.890625 44.34375 54.890625 33.015625 
z
" id="DejaVuSans-104"/>
      </defs>
      <use xlink:href="#DejaVuSans-111"/>
      <use x="61.181641" xlink:href="#DejaVuSans-112"/>
      <use x="124.658203" xlink:href="#DejaVuSans-116"/>
      <use x="163.867188" xlink:href="#DejaVuSans-105"/>
      <use x="191.650391" xlink:href="#DejaVuSans-109"/>
      <use x="289.0625" xlink:href="#DejaVuSans-105"/>
      <use x="316.845703" xlink:href="#DejaVuSans-122"/>
      <use x="369.335938" xlink:href="#DejaVuSans-101"/>
      <use x="430.859375" xlink:href="#DejaVuSans-100"/>
      <use x="494.335938" xlink:href="#DejaVuSans-32"/>
      <use x="526.123047" xlink:href="#DejaVuSans-112"/>
      <use x="589.599609" xlink:href="#DejaVuSans-97"/>
      <use x="650.878906" xlink:href="#DejaVuSans-116"/>
      <use x="690.087891" xlink:href="#DejaVuSans-104"/>
     </g>
    </g>
    <g id="line2d_18"/>
    <g id="line2d_19">
     <g>
      <use style="fill:#ff0000;stroke:#ff0000;" x="76.6" xlink:href="#mf08c09b248" y="69.248562"/>
     </g>
    </g>
    <g id="text_15">
     <!-- init path -->
     <g transform="translate(94.6 72.748562)scale(0.1 -0.1)">
      <defs>
       <path d="M 54.890625 33.015625 
L 54.890625 0 
L 45.90625 0 
L 45.90625 32.71875 
Q 45.90625 40.484375 42.875 44.328125 
Q 39.84375 48.1875 33.796875 48.1875 
Q 26.515625 48.1875 22.3125 43.546875 
Q 18.109375 38.921875 18.109375 30.90625 
L 18.109375 0 
L 9.078125 0 
L 9.078125 54.6875 
L 18.109375 54.6875 
L 18.109375 46.1875 
Q 21.34375 51.125 25.703125 53.5625 
Q 30.078125 56 35.796875 56 
Q 45.21875 56 50.046875 50.171875 
Q 54.890625 44.34375 54.890625 33.015625 
z
" id="DejaVuSans-110"/>
      </defs>
      <use xlink:href="#DejaVuSans-105"/>
      <use x="27.783203" xlink:href="#DejaVuSans-110"/>
      <use x="91.162109" xlink:href="#DejaVuSans-105"/>
      <use x="118.945312" xlink:href="#DejaVuSans-116"/>
      <use x="158.154297" xlink:href="#DejaVuSans-32"/>
      <use x="189.941406" xlink:href="#DejaVuSans-112"/>
      <use x="253.417969" xlink:href="#DejaVuSans-97"/>
      <use x="314.697266" xlink:href="#DejaVuSans-116"/>
      <use x="353.90625" xlink:href="#DejaVuSans-104"/>
     </g>
    </g>
   </g>
  </g>
 </g>
 <defs>
  <clipPath id="p43b26379af">
   <rect height="266.112" width="357.12" x="57.6" y="41.472"/>
  </clipPath>
 </defs>
</svg>
