<?xml version="1.0" encoding="utf-8" standalone="no"?>
<!DOCTYPE svg PUBLIC "-//W3C//DTD SVG 1.1//EN"
  "http://www.w3.org/Graphics/SVG/1.1/DTD/svg11.dtd">
<!-- Created with matplotlib (https://matplotlib.org/) -->
<svg height="345.6pt" version="1.1" viewBox="0 0 460.8 345.6" width="460.8pt" xmlns="http://www.w3.org/2000/svg" xmlns:xlink="http://www.w3.org/1999/xlink">
 <metadata>
  <rdf:RDF xmlns:cc="http://creativecommons.org/ns#" xmlns:dc="http://purl.org/dc/elements/1.1/" xmlns:rdf="http://www.w3.org/1999/02/22-rdf-syntax-ns#">
   <cc:Work>
    <dc:type rdf:resource="http://purl.org/dc/dcmitype/StillImage"/>
    <dc:date>2022-11-19T15:13:34.772144</dc:date>
    <dc:format>image/svg+xml</dc:format>
    <dc:creator>
     <cc:Agent>
      <dc:title>Matplotlib v3.3.4, https://matplotlib.org/</dc:title>
     </cc:Agent>
    </dc:creator>
   </cc:Work>
  </rdf:RDF>
 </metadata>
 <defs>
  <style type="text/css">*{stroke-linecap:butt;stroke-linejoin:round;}</style>
 </defs>
 <g id="figure_1">
  <g id="patch_1">
   <path d="M 0 345.6 
L 460.8 345.6 
L 460.8 0 
L 0 0 
z
" style="fill:#ffffff;"/>
  </g>
  <g id="axes_1">
   <g id="patch_2">
    <path d="M 57.6 94.167446 
L 414.72 94.167446 
L 414.72 41.472 
L 57.6 41.472 
z
" style="fill:#ffffff;"/>
   </g>
   <g id="matplotlib.axis_1">
    <g id="xtick_1">
     <g id="line2d_1">
      <defs>
       <path d="M 0 0 
L 0 3.5 
" id="m95161fc58a" style="stroke:#000000;stroke-width:0.8;"/>
      </defs>
      <g>
       <use style="stroke:#000000;stroke-width:0.8;" x="73.832727" xlink:href="#m95161fc58a" y="94.167446"/>
      </g>
     </g>
     <g id="text_1">
      <!-- 0 -->
      <g transform="translate(70.651477 108.765883)scale(0.1 -0.1)">
       <defs>
        <path d="M 31.78125 66.40625 
Q 24.171875 66.40625 20.328125 58.90625 
Q 16.5 51.421875 16.5 36.375 
Q 16.5 21.390625 20.328125 13.890625 
Q 24.171875 6.390625 31.78125 6.390625 
Q 39.453125 6.390625 43.28125 13.890625 
Q 47.125 21.390625 47.125 36.375 
Q 47.125 51.421875 43.28125 58.90625 
Q 39.453125 66.40625 31.78125 66.40625 
z
M 31.78125 74.21875 
Q 44.046875 74.21875 50.515625 64.515625 
Q 56.984375 54.828125 56.984375 36.375 
Q 56.984375 17.96875 50.515625 8.265625 
Q 44.046875 -1.421875 31.78125 -1.421875 
Q 19.53125 -1.421875 13.0625 8.265625 
Q 6.59375 17.96875 6.59375 36.375 
Q 6.59375 54.828125 13.0625 64.515625 
Q 19.53125 74.21875 31.78125 74.21875 
z
" id="DejaVuSans-48"/>
       </defs>
       <use xlink:href="#DejaVuSans-48"/>
      </g>
     </g>
    </g>
    <g id="xtick_2">
     <g id="line2d_2">
      <g>
       <use style="stroke:#000000;stroke-width:0.8;" x="138.248312" xlink:href="#m95161fc58a" y="94.167446"/>
      </g>
     </g>
     <g id="text_2">
      <!-- 10 -->
      <g transform="translate(131.885812 108.765883)scale(0.1 -0.1)">
       <defs>
        <path d="M 12.40625 8.296875 
L 28.515625 8.296875 
L 28.515625 63.921875 
L 10.984375 60.40625 
L 10.984375 69.390625 
L 28.421875 72.90625 
L 38.28125 72.90625 
L 38.28125 8.296875 
L 54.390625 8.296875 
L 54.390625 0 
L 12.40625 0 
z
" id="DejaVuSans-49"/>
       </defs>
       <use xlink:href="#DejaVuSans-49"/>
       <use x="63.623047" xlink:href="#DejaVuSans-48"/>
      </g>
     </g>
    </g>
    <g id="xtick_3">
     <g id="line2d_3">
      <g>
       <use style="stroke:#000000;stroke-width:0.8;" x="202.663896" xlink:href="#m95161fc58a" y="94.167446"/>
      </g>
     </g>
     <g id="text_3">
      <!-- 20 -->
      <g transform="translate(196.301396 108.765883)scale(0.1 -0.1)">
       <defs>
        <path d="M 19.1875 8.296875 
L 53.609375 8.296875 
L 53.609375 0 
L 7.328125 0 
L 7.328125 8.296875 
Q 12.9375 14.109375 22.625 23.890625 
Q 32.328125 33.6875 34.8125 36.53125 
Q 39.546875 41.84375 41.421875 45.53125 
Q 43.3125 49.21875 43.3125 52.78125 
Q 43.3125 58.59375 39.234375 62.25 
Q 35.15625 65.921875 28.609375 65.921875 
Q 23.96875 65.921875 18.8125 64.3125 
Q 13.671875 62.703125 7.8125 59.421875 
L 7.8125 69.390625 
Q 13.765625 71.78125 18.9375 73 
Q 24.125 74.21875 28.421875 74.21875 
Q 39.75 74.21875 46.484375 68.546875 
Q 53.21875 62.890625 53.21875 53.421875 
Q 53.21875 48.921875 51.53125 44.890625 
Q 49.859375 40.875 45.40625 35.40625 
Q 44.1875 33.984375 37.640625 27.21875 
Q 31.109375 20.453125 19.1875 8.296875 
z
" id="DejaVuSans-50"/>
       </defs>
       <use xlink:href="#DejaVuSans-50"/>
       <use x="63.623047" xlink:href="#DejaVuSans-48"/>
      </g>
     </g>
    </g>
    <g id="xtick_4">
     <g id="line2d_4">
      <g>
       <use style="stroke:#000000;stroke-width:0.8;" x="267.079481" xlink:href="#m95161fc58a" y="94.167446"/>
      </g>
     </g>
     <g id="text_4">
      <!-- 30 -->
      <g transform="translate(260.716981 108.765883)scale(0.1 -0.1)">
       <defs>
        <path d="M 40.578125 39.3125 
Q 47.65625 37.796875 51.625 33 
Q 55.609375 28.21875 55.609375 21.1875 
Q 55.609375 10.40625 48.1875 4.484375 
Q 40.765625 -1.421875 27.09375 -1.421875 
Q 22.515625 -1.421875 17.65625 -0.515625 
Q 12.796875 0.390625 7.625 2.203125 
L 7.625 11.71875 
Q 11.71875 9.328125 16.59375 8.109375 
Q 21.484375 6.890625 26.8125 6.890625 
Q 36.078125 6.890625 40.9375 10.546875 
Q 45.796875 14.203125 45.796875 21.1875 
Q 45.796875 27.640625 41.28125 31.265625 
Q 36.765625 34.90625 28.71875 34.90625 
L 20.21875 34.90625 
L 20.21875 43.015625 
L 29.109375 43.015625 
Q 36.375 43.015625 40.234375 45.921875 
Q 44.09375 48.828125 44.09375 54.296875 
Q 44.09375 59.90625 40.109375 62.90625 
Q 36.140625 65.921875 28.71875 65.921875 
Q 24.65625 65.921875 20.015625 65.03125 
Q 15.375 64.15625 9.8125 62.3125 
L 9.8125 71.09375 
Q 15.4375 72.65625 20.34375 73.4375 
Q 25.25 74.21875 29.59375 74.21875 
Q 40.828125 74.21875 47.359375 69.109375 
Q 53.90625 64.015625 53.90625 55.328125 
Q 53.90625 49.265625 50.4375 45.09375 
Q 46.96875 40.921875 40.578125 39.3125 
z
" id="DejaVuSans-51"/>
       </defs>
       <use xlink:href="#DejaVuSans-51"/>
       <use x="63.623047" xlink:href="#DejaVuSans-48"/>
      </g>
     </g>
    </g>
    <g id="xtick_5">
     <g id="line2d_5">
      <g>
       <use style="stroke:#000000;stroke-width:0.8;" x="331.495065" xlink:href="#m95161fc58a" y="94.167446"/>
      </g>
     </g>
     <g id="text_5">
      <!-- 40 -->
      <g transform="translate(325.132565 108.765883)scale(0.1 -0.1)">
       <defs>
        <path d="M 37.796875 64.3125 
L 12.890625 25.390625 
L 37.796875 25.390625 
z
M 35.203125 72.90625 
L 47.609375 72.90625 
L 47.609375 25.390625 
L 58.015625 25.390625 
L 58.015625 17.1875 
L 47.609375 17.1875 
L 47.609375 0 
L 37.796875 0 
L 37.796875 17.1875 
L 4.890625 17.1875 
L 4.890625 26.703125 
z
" id="DejaVuSans-52"/>
       </defs>
       <use xlink:href="#DejaVuSans-52"/>
       <use x="63.623047" xlink:href="#DejaVuSans-48"/>
      </g>
     </g>
    </g>
    <g id="xtick_6">
     <g id="line2d_6">
      <g>
       <use style="stroke:#000000;stroke-width:0.8;" x="395.910649" xlink:href="#m95161fc58a" y="94.167446"/>
      </g>
     </g>
     <g id="text_6">
      <!-- 50 -->
      <g transform="translate(389.548149 108.765883)scale(0.1 -0.1)">
       <defs>
        <path d="M 10.796875 72.90625 
L 49.515625 72.90625 
L 49.515625 64.59375 
L 19.828125 64.59375 
L 19.828125 46.734375 
Q 21.96875 47.46875 24.109375 47.828125 
Q 26.265625 48.1875 28.421875 48.1875 
Q 40.625 48.1875 47.75 41.5 
Q 54.890625 34.8125 54.890625 23.390625 
Q 54.890625 11.625 47.5625 5.09375 
Q 40.234375 -1.421875 26.90625 -1.421875 
Q 22.3125 -1.421875 17.546875 -0.640625 
Q 12.796875 0.140625 7.71875 1.703125 
L 7.71875 11.625 
Q 12.109375 9.234375 16.796875 8.0625 
Q 21.484375 6.890625 26.703125 6.890625 
Q 35.15625 6.890625 40.078125 11.328125 
Q 45.015625 15.765625 45.015625 23.390625 
Q 45.015625 31 40.078125 35.4375 
Q 35.15625 39.890625 26.703125 39.890625 
Q 22.75 39.890625 18.8125 39.015625 
Q 14.890625 38.140625 10.796875 36.28125 
z
" id="DejaVuSans-53"/>
       </defs>
       <use xlink:href="#DejaVuSans-53"/>
       <use x="63.623047" xlink:href="#DejaVuSans-48"/>
      </g>
     </g>
    </g>
   </g>
   <g id="matplotlib.axis_2">
    <g id="ytick_1">
     <g id="line2d_7">
      <defs>
       <path d="M 0 0 
L -3.5 0 
" id="m61de4c6805" style="stroke:#000000;stroke-width:0.8;"/>
      </defs>
      <g>
       <use style="stroke:#000000;stroke-width:0.8;" x="57.6" xlink:href="#m61de4c6805" y="75.138418"/>
      </g>
     </g>
     <g id="text_7">
      <!-- −0.5 -->
      <g transform="translate(26.317187 78.937637)scale(0.1 -0.1)">
       <defs>
        <path d="M 10.59375 35.5 
L 73.1875 35.5 
L 73.1875 27.203125 
L 10.59375 27.203125 
z
" id="DejaVuSans-8722"/>
        <path d="M 10.6875 12.40625 
L 21 12.40625 
L 21 0 
L 10.6875 0 
z
" id="DejaVuSans-46"/>
       </defs>
       <use xlink:href="#DejaVuSans-8722"/>
       <use x="83.789062" xlink:href="#DejaVuSans-48"/>
       <use x="147.412109" xlink:href="#DejaVuSans-46"/>
       <use x="179.199219" xlink:href="#DejaVuSans-53"/>
      </g>
     </g>
    </g>
    <g id="ytick_2">
     <g id="line2d_8">
      <g>
       <use style="stroke:#000000;stroke-width:0.8;" x="57.6" xlink:href="#m61de4c6805" y="56.033995"/>
      </g>
     </g>
     <g id="text_8">
      <!-- 0.0 -->
      <g transform="translate(34.696875 59.833214)scale(0.1 -0.1)">
       <use xlink:href="#DejaVuSans-48"/>
       <use x="63.623047" xlink:href="#DejaVuSans-46"/>
       <use x="95.410156" xlink:href="#DejaVuSans-48"/>
      </g>
     </g>
    </g>
   </g>
   <g id="line2d_9">
    <path clip-path="url(#pc3687b5e52)" d="M 73.832727 56.033995 
L 78.985974 65.474595 
L 82.850909 72.447434 
L 85.427532 76.753707 
L 88.004156 80.630347 
L 90.580779 83.973982 
L 93.157403 86.718323 
L 94.445714 87.856552 
L 95.734026 88.839068 
L 97.022338 89.668848 
L 98.310649 90.350625 
L 99.598961 90.890433 
L 100.887273 91.295152 
L 102.175584 91.572102 
L 103.463896 91.7287 
L 106.040519 91.709488 
L 108.617143 91.290483 
L 111.193766 90.51577 
L 113.77039 89.419255 
L 116.347013 88.024411 
L 118.923636 86.344212 
L 121.50026 84.380778 
L 124.076883 82.124438 
L 126.653506 79.552007 
L 127.941818 78.135688 
L 130.518442 62.85215 
L 131.806753 56.033996 
L 134.383377 56.033993 
L 135.671688 54.802613 
L 136.96 52.818981 
L 138.248312 51.535761 
L 139.536623 51.647072 
L 140.824935 53.042338 
L 142.113247 54.932227 
L 143.401558 56.033992 
L 144.68987 56.033996 
L 145.978182 57.226726 
L 147.266494 59.969851 
L 148.554805 61.861693 
L 149.843117 62.560823 
L 151.131429 61.941914 
L 152.41974 60.11747 
L 153.708052 57.416365 
L 154.996364 56.033996 
L 158.861299 56.033987 
L 160.14961 54.888533 
L 161.437922 53.049412 
L 162.726234 51.529482 
L 164.014545 50.90559 
L 165.302857 51.309398 
L 166.591169 52.533798 
L 167.879481 54.14244 
L 169.167792 55.540307 
L 170.456104 56.033993 
L 171.744416 56.033996 
L 173.032727 56.919775 
L 175.609351 61.623677 
L 176.897662 62.746585 
L 178.185974 62.371228 
L 179.474286 60.587652 
L 180.762597 57.820672 
L 182.050909 56.033997 
L 185.915844 56.033994 
L 187.204156 55.201804 
L 189.780779 51.781864 
L 191.069091 50.867189 
L 192.357403 50.92945 
L 193.645714 51.867462 
L 196.222338 54.938598 
L 197.510649 56.033344 
L 200.087273 56.034 
L 201.375584 57.388549 
L 203.952208 62.099939 
L 205.240519 63.09634 
L 206.528831 62.610688 
L 207.817143 60.757131 
L 209.105455 57.968842 
L 210.393766 56.033998 
L 227.141818 56.033985 
L 228.43013 55.133916 
L 231.006753 52.433986 
L 232.295065 51.639594 
L 233.583377 51.454841 
L 234.871688 51.795598 
L 236.16 52.496701 
L 240.024935 55.187348 
L 241.313247 55.810514 
L 242.601558 56.033994 
L 252.908052 56.033989 
L 254.196364 56.300641 
L 255.484675 58.032117 
L 258.061299 63.131533 
L 259.34961 64.542033 
L 260.637922 64.535578 
L 261.926234 63.114425 
L 263.214545 60.599822 
L 264.502857 57.558654 
L 265.791169 56.033996 
L 268.367792 56.033992 
L 269.656104 54.880984 
L 272.232727 50.808392 
L 273.521039 49.409048 
L 274.809351 48.840491 
L 276.097662 49.071289 
L 277.385974 49.962115 
L 278.674286 51.352706 
L 281.250909 55.007972 
L 282.539221 56.916523 
L 283.827532 59.619966 
L 285.115844 62.634998 
L 286.404156 65.200109 
L 287.692468 66.448906 
L 288.980779 66.104374 
L 290.269091 64.244063 
L 291.557403 61.281925 
L 292.845714 57.875304 
L 294.134026 56.033997 
L 295.422338 56.03397 
L 296.710649 54.196382 
L 299.287273 49.272807 
L 300.575584 47.695905 
L 301.863896 47.013453 
L 303.152208 47.169435 
L 304.440519 48.091148 
L 305.728831 49.753116 
L 307.017143 52.122275 
L 309.593766 58.209148 
L 312.17039 65.05263 
L 313.458701 67.563288 
L 314.747013 68.529674 
L 316.035325 67.739879 
L 317.323636 65.368757 
L 319.90026 58.201642 
L 321.188571 56.033993 
L 322.476883 53.334165 
L 323.765195 50.069201 
L 325.053506 47.299267 
L 326.341818 45.459517 
L 327.63013 44.600642 
L 328.918442 44.734853 
L 330.206753 46.049183 
L 331.495065 48.72877 
L 334.071688 56.033991 
L 335.36 59.246349 
L 336.648312 62.864952 
L 337.936623 66.107127 
L 339.224935 68.456031 
L 340.513247 69.418427 
L 341.801558 68.565481 
L 343.08987 66.084827 
L 345.666494 58.651155 
L 346.954805 56.033995 
L 348.243117 53.851727 
L 350.81974 47.976524 
L 352.108052 45.789606 
L 353.396364 44.387967 
L 354.684675 43.867248 
L 355.972987 44.54558 
L 357.261299 46.736389 
L 358.54961 49.961174 
L 359.837922 53.516589 
L 361.126234 56.033992 
L 362.414545 57.204337 
L 363.702857 59.611877 
L 364.991169 62.262097 
L 366.279481 64.553593 
L 367.567792 66.270736 
L 368.856104 67.357229 
L 370.144416 67.633901 
L 371.432727 66.702896 
L 372.721039 64.42967 
L 375.297662 58.029675 
L 376.585974 56.034002 
L 384.315844 56.033994 
L 385.604156 55.570265 
L 386.892468 54.343329 
L 389.469091 51.554169 
L 390.757403 50.630825 
L 392.045714 50.208047 
L 393.334026 50.311811 
L 394.622338 50.9412 
L 395.910649 52.098144 
L 397.198961 53.792285 
L 398.487273 56.033995 
L 398.487273 56.033995 
" style="fill:none;stroke:#1f77b4;stroke-linecap:square;stroke-width:1.5;"/>
   </g>
   <g id="patch_3">
    <path d="M 57.6 94.167446 
L 57.6 41.472 
" style="fill:none;stroke:#000000;stroke-linecap:square;stroke-linejoin:miter;stroke-width:0.8;"/>
   </g>
   <g id="patch_4">
    <path d="M 414.72 94.167446 
L 414.72 41.472 
" style="fill:none;stroke:#000000;stroke-linecap:square;stroke-linejoin:miter;stroke-width:0.8;"/>
   </g>
   <g id="patch_5">
    <path d="M 57.6 94.167446 
L 414.72 94.167446 
" style="fill:none;stroke:#000000;stroke-linecap:square;stroke-linejoin:miter;stroke-width:0.8;"/>
   </g>
   <g id="patch_6">
    <path d="M 57.6 41.472 
L 414.72 41.472 
" style="fill:none;stroke:#000000;stroke-linecap:square;stroke-linejoin:miter;stroke-width:0.8;"/>
   </g>
   <g id="legend_1">
    <g id="patch_7">
     <path d="M 362.535625 89.167446 
L 407.72 89.167446 
Q 409.72 89.167446 409.72 87.167446 
L 409.72 73.489321 
Q 409.72 71.489321 407.72 71.489321 
L 362.535625 71.489321 
Q 360.535625 71.489321 360.535625 73.489321 
L 360.535625 87.167446 
Q 360.535625 89.167446 362.535625 89.167446 
z
" style="fill:#ffffff;opacity:0.8;stroke:#cccccc;stroke-linejoin:miter;"/>
    </g>
    <g id="line2d_10">
     <path d="M 364.535625 79.587758 
L 384.535625 79.587758 
" style="fill:none;stroke:#1f77b4;stroke-linecap:square;stroke-width:1.5;"/>
    </g>
    <g id="line2d_11"/>
    <g id="text_9">
     <!-- v-t -->
     <g transform="translate(392.535625 83.087758)scale(0.1 -0.1)">
      <defs>
       <path d="M 2.984375 54.6875 
L 12.5 54.6875 
L 29.59375 8.796875 
L 46.6875 54.6875 
L 56.203125 54.6875 
L 35.6875 0 
L 23.484375 0 
z
" id="DejaVuSans-118"/>
       <path d="M 4.890625 31.390625 
L 31.203125 31.390625 
L 31.203125 23.390625 
L 4.890625 23.390625 
z
" id="DejaVuSans-45"/>
       <path d="M 18.3125 70.21875 
L 18.3125 54.6875 
L 36.8125 54.6875 
L 36.8125 47.703125 
L 18.3125 47.703125 
L 18.3125 18.015625 
Q 18.3125 11.328125 20.140625 9.421875 
Q 21.96875 7.515625 27.59375 7.515625 
L 36.8125 7.515625 
L 36.8125 0 
L 27.59375 0 
Q 17.1875 0 13.234375 3.875 
Q 9.28125 7.765625 9.28125 18.015625 
L 9.28125 47.703125 
L 2.6875 47.703125 
L 2.6875 54.6875 
L 9.28125 54.6875 
L 9.28125 70.21875 
z
" id="DejaVuSans-116"/>
      </defs>
      <use xlink:href="#DejaVuSans-118"/>
      <use x="56.554688" xlink:href="#DejaVuSans-45"/>
      <use x="92.638672" xlink:href="#DejaVuSans-116"/>
     </g>
    </g>
   </g>
  </g>
  <g id="axes_2">
   <g id="patch_8">
    <path d="M 57.6 165.306297 
L 414.72 165.306297 
L 414.72 112.610851 
L 57.6 112.610851 
z
" style="fill:#ffffff;"/>
   </g>
   <g id="matplotlib.axis_3">
    <g id="xtick_7">
     <g id="line2d_12">
      <g>
       <use style="stroke:#000000;stroke-width:0.8;" x="73.832727" xlink:href="#m95161fc58a" y="165.306297"/>
      </g>
     </g>
     <g id="text_10">
      <!-- 0 -->
      <g transform="translate(70.651477 179.904735)scale(0.1 -0.1)">
       <use xlink:href="#DejaVuSans-48"/>
      </g>
     </g>
    </g>
    <g id="xtick_8">
     <g id="line2d_13">
      <g>
       <use style="stroke:#000000;stroke-width:0.8;" x="138.504947" xlink:href="#m95161fc58a" y="165.306297"/>
      </g>
     </g>
     <g id="text_11">
      <!-- 10 -->
      <g transform="translate(132.142447 179.904735)scale(0.1 -0.1)">
       <use xlink:href="#DejaVuSans-49"/>
       <use x="63.623047" xlink:href="#DejaVuSans-48"/>
      </g>
     </g>
    </g>
    <g id="xtick_9">
     <g id="line2d_14">
      <g>
       <use style="stroke:#000000;stroke-width:0.8;" x="203.177168" xlink:href="#m95161fc58a" y="165.306297"/>
      </g>
     </g>
     <g id="text_12">
      <!-- 20 -->
      <g transform="translate(196.814668 179.904735)scale(0.1 -0.1)">
       <use xlink:href="#DejaVuSans-50"/>
       <use x="63.623047" xlink:href="#DejaVuSans-48"/>
      </g>
     </g>
    </g>
    <g id="xtick_10">
     <g id="line2d_15">
      <g>
       <use style="stroke:#000000;stroke-width:0.8;" x="267.849388" xlink:href="#m95161fc58a" y="165.306297"/>
      </g>
     </g>
     <g id="text_13">
      <!-- 30 -->
      <g transform="translate(261.486888 179.904735)scale(0.1 -0.1)">
       <use xlink:href="#DejaVuSans-51"/>
       <use x="63.623047" xlink:href="#DejaVuSans-48"/>
      </g>
     </g>
    </g>
    <g id="xtick_11">
     <g id="line2d_16">
      <g>
       <use style="stroke:#000000;stroke-width:0.8;" x="332.521608" xlink:href="#m95161fc58a" y="165.306297"/>
      </g>
     </g>
     <g id="text_14">
      <!-- 40 -->
      <g transform="translate(326.159108 179.904735)scale(0.1 -0.1)">
       <use xlink:href="#DejaVuSans-52"/>
       <use x="63.623047" xlink:href="#DejaVuSans-48"/>
      </g>
     </g>
    </g>
    <g id="xtick_12">
     <g id="line2d_17">
      <g>
       <use style="stroke:#000000;stroke-width:0.8;" x="397.193828" xlink:href="#m95161fc58a" y="165.306297"/>
      </g>
     </g>
     <g id="text_15">
      <!-- 50 -->
      <g transform="translate(390.831328 179.904735)scale(0.1 -0.1)">
       <use xlink:href="#DejaVuSans-53"/>
       <use x="63.623047" xlink:href="#DejaVuSans-48"/>
      </g>
     </g>
    </g>
   </g>
   <g id="matplotlib.axis_4">
    <g id="ytick_3">
     <g id="line2d_18">
      <g>
       <use style="stroke:#000000;stroke-width:0.8;" x="57.6" xlink:href="#m61de4c6805" y="147.321759"/>
      </g>
     </g>
     <g id="text_16">
      <!-- 0 -->
      <g transform="translate(44.2375 151.120977)scale(0.1 -0.1)">
       <use xlink:href="#DejaVuSans-48"/>
      </g>
     </g>
    </g>
    <g id="ytick_4">
     <g id="line2d_19">
      <g>
       <use style="stroke:#000000;stroke-width:0.8;" x="57.6" xlink:href="#m61de4c6805" y="115.006099"/>
      </g>
     </g>
     <g id="text_17">
      <!-- 1 -->
      <g transform="translate(44.2375 118.805318)scale(0.1 -0.1)">
       <use xlink:href="#DejaVuSans-49"/>
      </g>
     </g>
    </g>
   </g>
   <g id="line2d_20">
    <path clip-path="url(#p3705f8cb34)" d="M 73.832727 157.105814 
L 76.419616 157.397385 
L 79.006505 157.335919 
L 81.593394 156.938447 
L 84.180283 156.232285 
L 86.767171 155.260883 
L 90.647505 153.451819 
L 98.408171 149.604509 
L 102.288504 147.983983 
L 106.168837 146.634513 
L 110.049171 145.505662 
L 116.516393 143.918301 
L 124.277059 142.05831 
L 126.863948 141.332401 
L 128.157392 115.006099 
L 129.450837 115.006099 
L 130.744281 118.489016 
L 132.037725 147.321752 
L 133.33117 147.321753 
L 134.624614 142.114476 
L 135.918059 138.933337 
L 137.211503 141.895252 
L 139.798392 153.222089 
L 141.091836 155.313756 
L 142.385281 151.980925 
L 143.678725 147.321774 
L 144.97217 152.365597 
L 146.265614 158.921938 
L 147.559058 155.322016 
L 148.852503 150.278253 
L 151.439392 139.606513 
L 152.732836 135.899274 
L 155.319725 147.321743 
L 157.906614 147.321715 
L 159.200058 142.477839 
L 160.493502 139.54445 
L 161.786947 140.894249 
L 163.080391 144.683431 
L 164.373836 149.029389 
L 165.66728 152.499529 
L 166.960724 154.124414 
L 168.254169 153.233085 
L 169.547613 149.409467 
L 170.841058 147.321771 
L 172.134502 151.067556 
L 173.427946 157.258601 
L 174.721391 157.276871 
L 176.014835 152.07033 
L 178.601724 139.779341 
L 179.895168 135.620697 
L 181.188613 139.766236 
L 182.482057 147.321741 
L 185.068946 147.321747 
L 186.36239 143.802578 
L 187.655835 139.884662 
L 188.949279 140.296548 
L 190.242724 143.453763 
L 191.536168 147.585051 
L 192.829612 151.28844 
L 194.123057 153.632396 
L 195.416501 153.998398 
L 196.709946 151.951242 
L 198.00339 147.324512 
L 199.296834 147.321779 
L 200.590279 153.049904 
L 201.883723 157.747302 
L 203.177168 156.81983 
L 204.470612 151.535361 
L 207.057501 139.4834 
L 208.350945 135.530591 
L 209.64439 139.139653 
L 210.937834 147.321735 
L 226.459167 147.321701 
L 227.752611 143.51553 
L 229.046056 141.367675 
L 230.3395 141.858326 
L 231.632945 143.962417 
L 232.926389 146.540471 
L 234.219833 148.76276 
L 235.513278 150.286597 
L 236.806722 151.103787 
L 238.100167 151.304598 
L 239.393611 150.935151 
L 240.687055 149.957015 
L 241.9805 148.266812 
L 243.273944 147.321823 
L 252.328055 147.321783 
L 253.621499 148.449383 
L 254.914944 154.643857 
L 256.208388 158.274216 
L 257.501833 157.93381 
L 258.795277 153.286508 
L 261.382166 141.31196 
L 262.67561 136.687957 
L 263.969055 134.461208 
L 266.555943 147.321753 
L 267.849388 147.321745 
L 269.142832 142.445899 
L 270.436277 138.628622 
L 271.729721 138.792641 
L 273.023166 141.404183 
L 275.610054 148.297761 
L 276.903499 151.0889 
L 278.196943 153.202318 
L 279.490388 154.662341 
L 280.783832 155.438633 
L 282.077276 155.392679 
L 283.370721 158.754128 
L 284.664165 160.071783 
L 285.95761 158.169149 
L 287.251054 152.602697 
L 289.837943 139.454839 
L 291.131387 134.795412 
L 292.424832 132.915775 
L 293.718276 139.535203 
L 295.01172 147.321642 
L 296.305165 139.550934 
L 297.598609 136.395309 
L 298.892054 137.427299 
L 300.185498 140.653326 
L 302.772387 147.981378 
L 305.359276 154.34992 
L 306.65272 157.340501 
L 307.946164 159.689897 
L 309.239609 160.693908 
L 310.533053 162.168685 
L 311.826498 161.41468 
L 313.119942 157.938876 
L 314.413386 151.408432 
L 315.706831 143.981859 
L 317.000275 137.294712 
L 318.29372 132.814994 
L 319.587164 131.520086 
L 320.880608 138.155166 
L 323.467497 133.514813 
L 324.760942 135.60821 
L 327.34783 143.689731 
L 328.641275 147.889312 
L 329.934719 152.879825 
L 331.228164 158.653245 
L 332.521608 162.624925 
L 333.815053 162.91105 
L 335.108497 160.90624 
L 336.401941 162.624176 
L 337.695386 161.032332 
L 338.98883 157.254851 
L 340.282275 151.391557 
L 341.575719 143.714803 
L 342.869163 136.831523 
L 344.162608 132.247621 
L 345.456052 130.960239 
L 346.749497 136.254264 
L 348.042941 138.093339 
L 349.336385 134.525992 
L 350.62983 135.272356 
L 351.923274 138.073675 
L 353.216719 141.394483 
L 354.510163 145.119728 
L 355.803607 150.190304 
L 357.097052 156.586292 
L 358.390496 160.958793 
L 359.683941 162.356966 
L 360.977385 157.967401 
L 362.270829 152.270935 
L 363.564274 157.50281 
L 364.857718 158.52906 
L 366.151163 157.012083 
L 367.444607 154.583244 
L 368.738051 151.916343 
L 370.031496 148.491755 
L 371.32494 143.384705 
L 372.618385 137.708696 
L 373.911829 134.135775 
L 375.205273 133.443321 
L 376.498718 138.882418 
L 377.792162 147.321706 
L 384.259384 147.321737 
L 385.552829 145.360731 
L 386.846273 142.133268 
L 388.139717 141.09977 
L 389.433162 141.748894 
L 390.726606 143.417105 
L 393.313495 147.760557 
L 398.487273 156.801547 
L 398.487273 156.801547 
" style="fill:none;stroke:#1f77b4;stroke-linecap:square;stroke-width:1.5;"/>
   </g>
   <g id="patch_9">
    <path d="M 57.6 165.306297 
L 57.6 112.610851 
" style="fill:none;stroke:#000000;stroke-linecap:square;stroke-linejoin:miter;stroke-width:0.8;"/>
   </g>
   <g id="patch_10">
    <path d="M 414.72 165.306297 
L 414.72 112.610851 
" style="fill:none;stroke:#000000;stroke-linecap:square;stroke-linejoin:miter;stroke-width:0.8;"/>
   </g>
   <g id="patch_11">
    <path d="M 57.6 165.306297 
L 414.72 165.306297 
" style="fill:none;stroke:#000000;stroke-linecap:square;stroke-linejoin:miter;stroke-width:0.8;"/>
   </g>
   <g id="patch_12">
    <path d="M 57.6 112.610851 
L 414.72 112.610851 
" style="fill:none;stroke:#000000;stroke-linecap:square;stroke-linejoin:miter;stroke-width:0.8;"/>
   </g>
   <g id="legend_2">
    <g id="patch_13">
     <path d="M 64.6 135.288976 
L 110.25625 135.288976 
Q 112.25625 135.288976 112.25625 133.288976 
L 112.25625 119.610851 
Q 112.25625 117.610851 110.25625 117.610851 
L 64.6 117.610851 
Q 62.6 117.610851 62.6 119.610851 
L 62.6 133.288976 
Q 62.6 135.288976 64.6 135.288976 
z
" style="fill:#ffffff;opacity:0.8;stroke:#cccccc;stroke-linejoin:miter;"/>
    </g>
    <g id="line2d_21">
     <path d="M 66.6 125.709289 
L 86.6 125.709289 
" style="fill:none;stroke:#1f77b4;stroke-linecap:square;stroke-width:1.5;"/>
    </g>
    <g id="line2d_22"/>
    <g id="text_18">
     <!-- a-t -->
     <g transform="translate(94.6 129.209289)scale(0.1 -0.1)">
      <defs>
       <path d="M 34.28125 27.484375 
Q 23.390625 27.484375 19.1875 25 
Q 14.984375 22.515625 14.984375 16.5 
Q 14.984375 11.71875 18.140625 8.90625 
Q 21.296875 6.109375 26.703125 6.109375 
Q 34.1875 6.109375 38.703125 11.40625 
Q 43.21875 16.703125 43.21875 25.484375 
L 43.21875 27.484375 
z
M 52.203125 31.203125 
L 52.203125 0 
L 43.21875 0 
L 43.21875 8.296875 
Q 40.140625 3.328125 35.546875 0.953125 
Q 30.953125 -1.421875 24.3125 -1.421875 
Q 15.921875 -1.421875 10.953125 3.296875 
Q 6 8.015625 6 15.921875 
Q 6 25.140625 12.171875 29.828125 
Q 18.359375 34.515625 30.609375 34.515625 
L 43.21875 34.515625 
L 43.21875 35.40625 
Q 43.21875 41.609375 39.140625 45 
Q 35.0625 48.390625 27.6875 48.390625 
Q 23 48.390625 18.546875 47.265625 
Q 14.109375 46.140625 10.015625 43.890625 
L 10.015625 52.203125 
Q 14.9375 54.109375 19.578125 55.046875 
Q 24.21875 56 28.609375 56 
Q 40.484375 56 46.34375 49.84375 
Q 52.203125 43.703125 52.203125 31.203125 
z
" id="DejaVuSans-97"/>
      </defs>
      <use xlink:href="#DejaVuSans-97"/>
      <use x="61.279297" xlink:href="#DejaVuSans-45"/>
      <use x="97.363281" xlink:href="#DejaVuSans-116"/>
     </g>
    </g>
   </g>
  </g>
  <g id="axes_3">
   <g id="patch_14">
    <path d="M 57.6 236.445149 
L 414.72 236.445149 
L 414.72 183.749703 
L 57.6 183.749703 
z
" style="fill:#ffffff;"/>
   </g>
   <g id="matplotlib.axis_5">
    <g id="xtick_13">
     <g id="line2d_23">
      <g>
       <use style="stroke:#000000;stroke-width:0.8;" x="73.832727" xlink:href="#m95161fc58a" y="236.445149"/>
      </g>
     </g>
     <g id="text_19">
      <!-- 0 -->
      <g transform="translate(70.651477 251.043586)scale(0.1 -0.1)">
       <use xlink:href="#DejaVuSans-48"/>
      </g>
     </g>
    </g>
    <g id="xtick_14">
     <g id="line2d_24">
      <g>
       <use style="stroke:#000000;stroke-width:0.8;" x="138.248312" xlink:href="#m95161fc58a" y="236.445149"/>
      </g>
     </g>
     <g id="text_20">
      <!-- 10 -->
      <g transform="translate(131.885812 251.043586)scale(0.1 -0.1)">
       <use xlink:href="#DejaVuSans-49"/>
       <use x="63.623047" xlink:href="#DejaVuSans-48"/>
      </g>
     </g>
    </g>
    <g id="xtick_15">
     <g id="line2d_25">
      <g>
       <use style="stroke:#000000;stroke-width:0.8;" x="202.663896" xlink:href="#m95161fc58a" y="236.445149"/>
      </g>
     </g>
     <g id="text_21">
      <!-- 20 -->
      <g transform="translate(196.301396 251.043586)scale(0.1 -0.1)">
       <use xlink:href="#DejaVuSans-50"/>
       <use x="63.623047" xlink:href="#DejaVuSans-48"/>
      </g>
     </g>
    </g>
    <g id="xtick_16">
     <g id="line2d_26">
      <g>
       <use style="stroke:#000000;stroke-width:0.8;" x="267.079481" xlink:href="#m95161fc58a" y="236.445149"/>
      </g>
     </g>
     <g id="text_22">
      <!-- 30 -->
      <g transform="translate(260.716981 251.043586)scale(0.1 -0.1)">
       <use xlink:href="#DejaVuSans-51"/>
       <use x="63.623047" xlink:href="#DejaVuSans-48"/>
      </g>
     </g>
    </g>
    <g id="xtick_17">
     <g id="line2d_27">
      <g>
       <use style="stroke:#000000;stroke-width:0.8;" x="331.495065" xlink:href="#m95161fc58a" y="236.445149"/>
      </g>
     </g>
     <g id="text_23">
      <!-- 40 -->
      <g transform="translate(325.132565 251.043586)scale(0.1 -0.1)">
       <use xlink:href="#DejaVuSans-52"/>
       <use x="63.623047" xlink:href="#DejaVuSans-48"/>
      </g>
     </g>
    </g>
    <g id="xtick_18">
     <g id="line2d_28">
      <g>
       <use style="stroke:#000000;stroke-width:0.8;" x="395.910649" xlink:href="#m95161fc58a" y="236.445149"/>
      </g>
     </g>
     <g id="text_24">
      <!-- 50 -->
      <g transform="translate(389.548149 251.043586)scale(0.1 -0.1)">
       <use xlink:href="#DejaVuSans-53"/>
       <use x="63.623047" xlink:href="#DejaVuSans-48"/>
      </g>
     </g>
    </g>
   </g>
   <g id="matplotlib.axis_6">
    <g id="ytick_5">
     <g id="line2d_29">
      <g>
       <use style="stroke:#000000;stroke-width:0.8;" x="57.6" xlink:href="#m61de4c6805" y="225.207778"/>
      </g>
     </g>
     <g id="text_25">
      <!-- −0.5 -->
      <g transform="translate(26.317187 229.006997)scale(0.1 -0.1)">
       <use xlink:href="#DejaVuSans-8722"/>
       <use x="83.789062" xlink:href="#DejaVuSans-48"/>
       <use x="147.412109" xlink:href="#DejaVuSans-46"/>
       <use x="179.199219" xlink:href="#DejaVuSans-53"/>
      </g>
     </g>
    </g>
    <g id="ytick_6">
     <g id="line2d_30">
      <g>
       <use style="stroke:#000000;stroke-width:0.8;" x="57.6" xlink:href="#m61de4c6805" y="207.523532"/>
      </g>
     </g>
     <g id="text_26">
      <!-- 0.0 -->
      <g transform="translate(34.696875 211.322751)scale(0.1 -0.1)">
       <use xlink:href="#DejaVuSans-48"/>
       <use x="63.623047" xlink:href="#DejaVuSans-46"/>
       <use x="95.410156" xlink:href="#DejaVuSans-48"/>
      </g>
     </g>
    </g>
    <g id="ytick_7">
     <g id="line2d_31">
      <g>
       <use style="stroke:#000000;stroke-width:0.8;" x="57.6" xlink:href="#m61de4c6805" y="189.839287"/>
      </g>
     </g>
     <g id="text_27">
      <!-- 0.5 -->
      <g transform="translate(34.696875 193.638506)scale(0.1 -0.1)">
       <use xlink:href="#DejaVuSans-48"/>
       <use x="63.623047" xlink:href="#DejaVuSans-46"/>
       <use x="95.410156" xlink:href="#DejaVuSans-53"/>
      </g>
     </g>
    </g>
   </g>
   <g id="line2d_32">
    <path clip-path="url(#p106db44a54)" d="M 73.832727 209.291957 
L 78.985974 200.330742 
L 81.562597 196.236118 
L 84.139221 192.621415 
L 85.427532 191.049023 
L 86.715844 189.662412 
L 88.004156 188.482206 
L 89.292468 187.526981 
L 90.580779 186.812235 
L 91.869091 186.349387 
L 93.157403 186.14495 
L 94.445714 186.200063 
L 95.734026 186.510463 
L 97.022338 187.066937 
L 98.310649 187.856154 
L 99.598961 188.861736 
L 100.887273 190.06538 
L 103.463896 192.990045 
L 106.040519 196.479686 
L 108.617143 200.398356 
L 112.482078 206.832606 
L 117.635325 215.978337 
L 125.365195 229.734233 
L 127.941818 234.049901 
L 130.518442 234.049901 
L 135.671688 221.054003 
L 136.96 218.348986 
L 138.248312 216.936924 
L 139.536623 217.193537 
L 140.824935 218.990164 
L 142.113247 221.825323 
L 145.978182 231.531095 
L 147.266494 234.049899 
L 152.41974 234.049901 
L 153.708052 232.392499 
L 160.14961 218.24227 
L 161.437922 215.789408 
L 162.726234 214.225047 
L 164.014545 213.847967 
L 165.302857 214.651404 
L 166.591169 216.409961 
L 167.879481 218.812766 
L 171.744416 227.218941 
L 174.321039 232.629606 
L 175.609351 234.049901 
L 179.474286 234.049901 
L 180.762597 232.31344 
L 188.492468 215.544236 
L 189.780779 213.723512 
L 191.069091 213.000473 
L 192.357403 213.437802 
L 193.645714 214.865035 
L 194.934026 217.003741 
L 197.510649 222.302808 
L 201.375584 230.512209 
L 202.663896 232.903185 
L 203.952208 234.049901 
L 207.817143 234.049901 
L 209.105455 232.475477 
L 229.718442 189.106999 
L 231.006753 187.286355 
L 232.295065 186.444666 
L 233.583377 186.671857 
L 234.871688 187.826382 
L 236.16 189.658502 
L 237.448312 191.927498 
L 240.024935 197.112737 
L 256.772987 232.371096 
L 258.061299 234.049899 
L 263.214545 234.0499 
L 264.502857 232.002706 
L 269.656104 220.516236 
L 270.944416 217.968737 
L 272.232727 216.214649 
L 273.521039 215.550049 
L 274.809351 215.987319 
L 276.097662 217.311495 
L 277.385974 219.208738 
L 282.539221 228.111022 
L 285.115844 232.502352 
L 286.404156 234.049899 
L 291.557403 234.049901 
L 292.845714 232.116492 
L 296.710649 223.386637 
L 297.998961 221.009789 
L 299.287273 219.712148 
L 300.575584 219.72448 
L 301.863896 220.903935 
L 303.152208 222.83958 
L 304.440519 225.008767 
L 305.728831 226.934888 
L 307.017143 228.34646 
L 310.882078 231.189788 
L 313.458701 234.049898 
L 318.611948 234.049901 
L 319.90026 232.424884 
L 322.476883 226.855586 
L 323.765195 224.935175 
L 325.053506 224.54889 
L 326.341818 225.831515 
L 327.63013 228.374541 
L 328.918442 231.33149 
L 330.206753 233.563414 
L 331.495065 234.049901 
L 332.783377 233.814352 
L 335.36 231.188214 
L 336.648312 230.656575 
L 337.936623 231.32654 
L 339.224935 232.877039 
L 340.513247 234.049901 
L 344.378182 234.049901 
L 345.666494 232.818099 
L 348.243117 227.842234 
L 349.531429 226.05064 
L 350.81974 225.615851 
L 352.108052 226.766753 
L 353.396364 229.19846 
L 354.684675 232.073047 
L 355.972987 234.0499 
L 358.54961 234.049901 
L 359.837922 232.707522 
L 362.414545 228.176655 
L 363.702857 226.286394 
L 364.991169 225.37141 
L 366.279481 225.817176 
L 367.567792 227.604813 
L 370.144416 232.868149 
L 371.432727 234.049901 
L 374.009351 234.0499 
L 375.297662 232.44955 
L 386.892468 211.352602 
L 388.180779 209.383553 
L 389.469091 207.908539 
L 390.757403 207.017812 
L 392.045714 206.666307 
L 393.334026 206.703891 
L 397.198961 207.394695 
L 398.487273 207.523532 
L 398.487273 207.523532 
" style="fill:none;stroke:#1f77b4;stroke-linecap:square;stroke-width:1.5;"/>
   </g>
   <g id="patch_15">
    <path d="M 57.6 236.445149 
L 57.6 183.749703 
" style="fill:none;stroke:#000000;stroke-linecap:square;stroke-linejoin:miter;stroke-width:0.8;"/>
   </g>
   <g id="patch_16">
    <path d="M 414.72 236.445149 
L 414.72 183.749703 
" style="fill:none;stroke:#000000;stroke-linecap:square;stroke-linejoin:miter;stroke-width:0.8;"/>
   </g>
   <g id="patch_17">
    <path d="M 57.6 236.445149 
L 414.72 236.445149 
" style="fill:none;stroke:#000000;stroke-linecap:square;stroke-linejoin:miter;stroke-width:0.8;"/>
   </g>
   <g id="patch_18">
    <path d="M 57.6 183.749703 
L 414.72 183.749703 
" style="fill:none;stroke:#000000;stroke-linecap:square;stroke-linejoin:miter;stroke-width:0.8;"/>
   </g>
   <g id="legend_3">
    <g id="patch_19">
     <path d="M 343.2825 206.427828 
L 407.72 206.427828 
Q 409.72 206.427828 409.72 204.427828 
L 409.72 190.749703 
Q 409.72 188.749703 407.72 188.749703 
L 343.2825 188.749703 
Q 341.2825 188.749703 341.2825 190.749703 
L 341.2825 204.427828 
Q 341.2825 206.427828 343.2825 206.427828 
z
" style="fill:#ffffff;opacity:0.8;stroke:#cccccc;stroke-linejoin:miter;"/>
    </g>
    <g id="line2d_33">
     <path d="M 345.2825 196.84814 
L 365.2825 196.84814 
" style="fill:none;stroke:#1f77b4;stroke-linecap:square;stroke-width:1.5;"/>
    </g>
    <g id="line2d_34"/>
    <g id="text_28">
     <!-- steer-t -->
     <g transform="translate(373.2825 200.34814)scale(0.1 -0.1)">
      <defs>
       <path d="M 44.28125 53.078125 
L 44.28125 44.578125 
Q 40.484375 46.53125 36.375 47.5 
Q 32.28125 48.484375 27.875 48.484375 
Q 21.1875 48.484375 17.84375 46.4375 
Q 14.5 44.390625 14.5 40.28125 
Q 14.5 37.15625 16.890625 35.375 
Q 19.28125 33.59375 26.515625 31.984375 
L 29.59375 31.296875 
Q 39.15625 29.25 43.1875 25.515625 
Q 47.21875 21.78125 47.21875 15.09375 
Q 47.21875 7.46875 41.1875 3.015625 
Q 35.15625 -1.421875 24.609375 -1.421875 
Q 20.21875 -1.421875 15.453125 -0.5625 
Q 10.6875 0.296875 5.421875 2 
L 5.421875 11.28125 
Q 10.40625 8.6875 15.234375 7.390625 
Q 20.0625 6.109375 24.8125 6.109375 
Q 31.15625 6.109375 34.5625 8.28125 
Q 37.984375 10.453125 37.984375 14.40625 
Q 37.984375 18.0625 35.515625 20.015625 
Q 33.0625 21.96875 24.703125 23.78125 
L 21.578125 24.515625 
Q 13.234375 26.265625 9.515625 29.90625 
Q 5.8125 33.546875 5.8125 39.890625 
Q 5.8125 47.609375 11.28125 51.796875 
Q 16.75 56 26.8125 56 
Q 31.78125 56 36.171875 55.265625 
Q 40.578125 54.546875 44.28125 53.078125 
z
" id="DejaVuSans-115"/>
       <path d="M 56.203125 29.59375 
L 56.203125 25.203125 
L 14.890625 25.203125 
Q 15.484375 15.921875 20.484375 11.0625 
Q 25.484375 6.203125 34.421875 6.203125 
Q 39.59375 6.203125 44.453125 7.46875 
Q 49.3125 8.734375 54.109375 11.28125 
L 54.109375 2.78125 
Q 49.265625 0.734375 44.1875 -0.34375 
Q 39.109375 -1.421875 33.890625 -1.421875 
Q 20.796875 -1.421875 13.15625 6.1875 
Q 5.515625 13.8125 5.515625 26.8125 
Q 5.515625 40.234375 12.765625 48.109375 
Q 20.015625 56 32.328125 56 
Q 43.359375 56 49.78125 48.890625 
Q 56.203125 41.796875 56.203125 29.59375 
z
M 47.21875 32.234375 
Q 47.125 39.59375 43.09375 43.984375 
Q 39.0625 48.390625 32.421875 48.390625 
Q 24.90625 48.390625 20.390625 44.140625 
Q 15.875 39.890625 15.1875 32.171875 
z
" id="DejaVuSans-101"/>
       <path d="M 41.109375 46.296875 
Q 39.59375 47.171875 37.8125 47.578125 
Q 36.03125 48 33.890625 48 
Q 26.265625 48 22.1875 43.046875 
Q 18.109375 38.09375 18.109375 28.8125 
L 18.109375 0 
L 9.078125 0 
L 9.078125 54.6875 
L 18.109375 54.6875 
L 18.109375 46.1875 
Q 20.953125 51.171875 25.484375 53.578125 
Q 30.03125 56 36.53125 56 
Q 37.453125 56 38.578125 55.875 
Q 39.703125 55.765625 41.0625 55.515625 
z
" id="DejaVuSans-114"/>
      </defs>
      <use xlink:href="#DejaVuSans-115"/>
      <use x="52.099609" xlink:href="#DejaVuSans-116"/>
      <use x="91.308594" xlink:href="#DejaVuSans-101"/>
      <use x="152.832031" xlink:href="#DejaVuSans-101"/>
      <use x="214.355469" xlink:href="#DejaVuSans-114"/>
      <use x="249.09375" xlink:href="#DejaVuSans-45"/>
      <use x="285.177734" xlink:href="#DejaVuSans-116"/>
     </g>
    </g>
   </g>
  </g>
  <g id="axes_4">
   <g id="patch_20">
    <path d="M 57.6 307.584 
L 414.72 307.584 
L 414.72 254.888554 
L 57.6 254.888554 
z
" style="fill:#ffffff;"/>
   </g>
   <g id="matplotlib.axis_7">
    <g id="xtick_19">
     <g id="line2d_35">
      <g>
       <use style="stroke:#000000;stroke-width:0.8;" x="73.832727" xlink:href="#m95161fc58a" y="307.584"/>
      </g>
     </g>
     <g id="text_29">
      <!-- 0 -->
      <g transform="translate(70.651477 322.182437)scale(0.1 -0.1)">
       <use xlink:href="#DejaVuSans-48"/>
      </g>
     </g>
    </g>
    <g id="xtick_20">
     <g id="line2d_36">
      <g>
       <use style="stroke:#000000;stroke-width:0.8;" x="138.504947" xlink:href="#m95161fc58a" y="307.584"/>
      </g>
     </g>
     <g id="text_30">
      <!-- 10 -->
      <g transform="translate(132.142447 322.182437)scale(0.1 -0.1)">
       <use xlink:href="#DejaVuSans-49"/>
       <use x="63.623047" xlink:href="#DejaVuSans-48"/>
      </g>
     </g>
    </g>
    <g id="xtick_21">
     <g id="line2d_37">
      <g>
       <use style="stroke:#000000;stroke-width:0.8;" x="203.177168" xlink:href="#m95161fc58a" y="307.584"/>
      </g>
     </g>
     <g id="text_31">
      <!-- 20 -->
      <g transform="translate(196.814668 322.182437)scale(0.1 -0.1)">
       <use xlink:href="#DejaVuSans-50"/>
       <use x="63.623047" xlink:href="#DejaVuSans-48"/>
      </g>
     </g>
    </g>
    <g id="xtick_22">
     <g id="line2d_38">
      <g>
       <use style="stroke:#000000;stroke-width:0.8;" x="267.849388" xlink:href="#m95161fc58a" y="307.584"/>
      </g>
     </g>
     <g id="text_32">
      <!-- 30 -->
      <g transform="translate(261.486888 322.182437)scale(0.1 -0.1)">
       <use xlink:href="#DejaVuSans-51"/>
       <use x="63.623047" xlink:href="#DejaVuSans-48"/>
      </g>
     </g>
    </g>
    <g id="xtick_23">
     <g id="line2d_39">
      <g>
       <use style="stroke:#000000;stroke-width:0.8;" x="332.521608" xlink:href="#m95161fc58a" y="307.584"/>
      </g>
     </g>
     <g id="text_33">
      <!-- 40 -->
      <g transform="translate(326.159108 322.182437)scale(0.1 -0.1)">
       <use xlink:href="#DejaVuSans-52"/>
       <use x="63.623047" xlink:href="#DejaVuSans-48"/>
      </g>
     </g>
    </g>
    <g id="xtick_24">
     <g id="line2d_40">
      <g>
       <use style="stroke:#000000;stroke-width:0.8;" x="397.193828" xlink:href="#m95161fc58a" y="307.584"/>
      </g>
     </g>
     <g id="text_34">
      <!-- 50 -->
      <g transform="translate(390.831328 322.182437)scale(0.1 -0.1)">
       <use xlink:href="#DejaVuSans-53"/>
       <use x="63.623047" xlink:href="#DejaVuSans-48"/>
      </g>
     </g>
    </g>
   </g>
   <g id="matplotlib.axis_8">
    <g id="ytick_8">
     <g id="line2d_41">
      <g>
       <use style="stroke:#000000;stroke-width:0.8;" x="57.6" xlink:href="#m61de4c6805" y="307.416884"/>
      </g>
     </g>
     <g id="text_35">
      <!-- −0.5 -->
      <g transform="translate(26.317187 311.216103)scale(0.1 -0.1)">
       <use xlink:href="#DejaVuSans-8722"/>
       <use x="83.789062" xlink:href="#DejaVuSans-48"/>
       <use x="147.412109" xlink:href="#DejaVuSans-46"/>
       <use x="179.199219" xlink:href="#DejaVuSans-53"/>
      </g>
     </g>
    </g>
    <g id="ytick_9">
     <g id="line2d_42">
      <g>
       <use style="stroke:#000000;stroke-width:0.8;" x="57.6" xlink:href="#m61de4c6805" y="281.28695"/>
      </g>
     </g>
     <g id="text_36">
      <!-- 0.0 -->
      <g transform="translate(34.696875 285.086169)scale(0.1 -0.1)">
       <use xlink:href="#DejaVuSans-48"/>
       <use x="63.623047" xlink:href="#DejaVuSans-46"/>
       <use x="95.410156" xlink:href="#DejaVuSans-48"/>
      </g>
     </g>
    </g>
    <g id="ytick_10">
     <g id="line2d_43">
      <g>
       <use style="stroke:#000000;stroke-width:0.8;" x="57.6" xlink:href="#m61de4c6805" y="255.157016"/>
      </g>
     </g>
     <g id="text_37">
      <!-- 0.5 -->
      <g transform="translate(34.696875 258.956235)scale(0.1 -0.1)">
       <use xlink:href="#DejaVuSans-48"/>
       <use x="63.623047" xlink:href="#DejaVuSans-46"/>
       <use x="95.410156" xlink:href="#DejaVuSans-53"/>
      </g>
     </g>
    </g>
   </g>
   <g id="line2d_44">
    <path clip-path="url(#p394051339f)" d="M 73.832727 264.387769 
L 75.126172 264.525395 
L 76.419616 264.803602 
L 77.71306 265.226354 
L 79.006505 265.798389 
L 80.299949 266.524789 
L 81.593394 267.410316 
L 82.886838 268.458466 
L 84.180283 269.670258 
L 86.767171 272.567691 
L 89.35406 276.006473 
L 97.114727 287.117619 
L 99.701615 290.179368 
L 102.288504 292.680229 
L 104.875393 294.633183 
L 107.462282 296.101513 
L 110.049171 297.160629 
L 112.636059 297.877238 
L 115.222948 298.301168 
L 117.809837 298.463643 
L 120.396726 298.377978 
L 122.983615 298.040956 
L 125.570503 297.434954 
L 126.863948 297.022728 
L 128.157392 281.28695 
L 129.450837 281.286949 
L 130.744281 257.283805 
L 134.624614 257.283817 
L 135.918059 261.302524 
L 137.211503 270.854753 
L 139.798392 294.560269 
L 141.091836 302.232861 
L 142.385281 305.188743 
L 144.97217 305.188751 
L 146.265614 299.895659 
L 147.559058 281.286965 
L 151.439392 281.286948 
L 152.732836 269.042208 
L 154.02628 260.378807 
L 159.200058 260.378837 
L 160.493502 263.16542 
L 161.786947 269.729589 
L 164.373836 287.222677 
L 165.66728 294.279013 
L 166.960724 299.038667 
L 168.254169 301.536378 
L 169.547613 302.214277 
L 172.134502 302.21428 
L 173.427946 300.333141 
L 174.721391 291.779966 
L 176.014835 281.286953 
L 178.601724 281.286947 
L 179.895168 268.458127 
L 181.188613 260.311605 
L 186.36239 260.311608 
L 187.655835 262.27426 
L 188.949279 267.835595 
L 192.829612 291.831226 
L 194.123057 297.087524 
L 195.416501 300.220027 
L 196.709946 301.502919 
L 200.590279 301.503726 
L 201.883723 298.951272 
L 204.470612 281.286952 
L 207.057501 281.286948 
L 208.350945 269.65524 
L 209.64439 261.145538 
L 227.752611 261.145559 
L 229.046056 263.005531 
L 230.3395 267.836185 
L 231.632945 275.068624 
L 232.926389 282.965417 
L 234.219833 289.816483 
L 235.513278 294.822495 
L 236.806722 298.050097 
L 238.100167 299.940466 
L 239.393611 300.941525 
L 240.687055 301.380851 
L 243.273944 301.489984 
L 253.621499 301.489991 
L 254.914944 301.317542 
L 256.208388 299.617835 
L 257.501833 293.689796 
L 258.795277 281.286969 
L 262.67561 281.286943 
L 263.969055 266.162455 
L 265.262499 260.071687 
L 269.142832 260.071697 
L 270.436277 262.466251 
L 271.729721 268.3279 
L 274.31661 284.517461 
L 275.610054 291.069846 
L 276.903499 295.30362 
L 278.196943 297.3641 
L 279.490388 297.933667 
L 282.077276 297.765085 
L 283.370721 297.819011 
L 284.664165 297.197655 
L 285.95761 292.72009 
L 287.251054 281.286966 
L 291.131387 281.286946 
L 292.424832 267.003094 
L 293.718276 259.788462 
L 296.305165 259.788521 
L 297.598609 263.727001 
L 298.892054 271.700089 
L 300.185498 281.378058 
L 301.478942 290.000664 
L 302.772387 295.587324 
L 304.065831 297.312713 
L 305.359276 295.51697 
L 306.65272 291.715517 
L 307.946164 288.289455 
L 309.239609 287.330835 
L 310.533053 289.246821 
L 311.826498 292.273779 
L 313.119942 291.430367 
L 314.413386 281.286971 
L 318.29372 281.286948 
L 319.587164 269.281465 
L 320.880608 260.7142 
L 322.174053 260.714207 
L 323.467497 267.099125 
L 324.760942 278.43311 
L 326.054386 290.762869 
L 327.34783 300.074607 
L 328.641275 303.132632 
L 329.934719 297.776212 
L 331.228164 284.88107 
L 332.521608 279.546735 
L 333.815053 271.586114 
L 335.108497 271.586107 
L 336.401941 277.359243 
L 337.695386 286.236596 
L 338.98883 292.741902 
L 340.282275 289.951951 
L 341.575719 281.286953 
L 344.162608 281.286948 
L 346.749497 262.906317 
L 348.042941 262.906318 
L 349.336385 268.050812 
L 350.62983 278.074769 
L 351.923274 289.789708 
L 353.216719 299.252192 
L 354.510163 302.524151 
L 355.803607 295.891763 
L 357.097052 281.286961 
L 358.390496 281.286946 
L 359.683941 271.369577 
L 360.977385 264.550124 
L 362.270829 264.550117 
L 363.564274 267.321872 
L 364.857718 274.527125 
L 367.444607 294.493853 
L 368.738051 300.962952 
L 370.031496 300.496022 
L 371.32494 290.017628 
L 372.618385 281.286951 
L 373.911829 281.286941 
L 375.205273 269.463701 
L 376.498718 263.897007 
L 385.552829 263.897005 
L 386.846273 264.544096 
L 388.139717 266.73979 
L 389.433162 270.389674 
L 392.020051 278.690063 
L 393.313495 281.564615 
L 394.60694 283.015588 
L 395.900384 283.219939 
L 398.487273 282.238789 
L 398.487273 282.238789 
" style="fill:none;stroke:#1f77b4;stroke-linecap:square;stroke-width:1.5;"/>
   </g>
   <g id="patch_21">
    <path d="M 57.6 307.584 
L 57.6 254.888554 
" style="fill:none;stroke:#000000;stroke-linecap:square;stroke-linejoin:miter;stroke-width:0.8;"/>
   </g>
   <g id="patch_22">
    <path d="M 414.72 307.584 
L 414.72 254.888554 
" style="fill:none;stroke:#000000;stroke-linecap:square;stroke-linejoin:miter;stroke-width:0.8;"/>
   </g>
   <g id="patch_23">
    <path d="M 57.6 307.584 
L 414.72 307.584 
" style="fill:none;stroke:#000000;stroke-linecap:square;stroke-linejoin:miter;stroke-width:0.8;"/>
   </g>
   <g id="patch_24">
    <path d="M 57.6 254.888554 
L 414.72 254.888554 
" style="fill:none;stroke:#000000;stroke-linecap:square;stroke-linejoin:miter;stroke-width:0.8;"/>
   </g>
   <g id="legend_4">
    <g id="patch_25">
     <path d="M 319.362188 302.584 
L 407.72 302.584 
Q 409.72 302.584 409.72 300.584 
L 409.72 286.905875 
Q 409.72 284.905875 407.72 284.905875 
L 319.362188 284.905875 
Q 317.362188 284.905875 317.362188 286.905875 
L 317.362188 300.584 
Q 317.362188 302.584 319.362188 302.584 
z
" style="fill:#ffffff;opacity:0.8;stroke:#cccccc;stroke-linejoin:miter;"/>
    </g>
    <g id="line2d_45">
     <path d="M 321.362188 293.004312 
L 341.362188 293.004312 
" style="fill:none;stroke:#1f77b4;stroke-linecap:square;stroke-width:1.5;"/>
    </g>
    <g id="line2d_46"/>
    <g id="text_38">
     <!-- steer-rate-t -->
     <g transform="translate(349.362188 296.504312)scale(0.1 -0.1)">
      <use xlink:href="#DejaVuSans-115"/>
      <use x="52.099609" xlink:href="#DejaVuSans-116"/>
      <use x="91.308594" xlink:href="#DejaVuSans-101"/>
      <use x="152.832031" xlink:href="#DejaVuSans-101"/>
      <use x="214.355469" xlink:href="#DejaVuSans-114"/>
      <use x="249.09375" xlink:href="#DejaVuSans-45"/>
      <use x="285.177734" xlink:href="#DejaVuSans-114"/>
      <use x="326.291016" xlink:href="#DejaVuSans-97"/>
      <use x="387.570312" xlink:href="#DejaVuSans-116"/>
      <use x="426.779297" xlink:href="#DejaVuSans-101"/>
      <use x="488.302734" xlink:href="#DejaVuSans-45"/>
      <use x="524.386719" xlink:href="#DejaVuSans-116"/>
     </g>
    </g>
   </g>
  </g>
 </g>
 <defs>
  <clipPath id="pc3687b5e52">
   <rect height="52.695446" width="357.12" x="57.6" y="41.472"/>
  </clipPath>
  <clipPath id="p3705f8cb34">
   <rect height="52.695446" width="357.12" x="57.6" y="112.610851"/>
  </clipPath>
  <clipPath id="p106db44a54">
   <rect height="52.695446" width="357.12" x="57.6" y="183.749703"/>
  </clipPath>
  <clipPath id="p394051339f">
   <rect height="52.695446" width="357.12" x="57.6" y="254.888554"/>
  </clipPath>
 </defs>
</svg>
