<?xml version="1.0" encoding="utf-8" standalone="no"?>
<!DOCTYPE svg PUBLIC "-//W3C//DTD SVG 1.1//EN"
  "http://www.w3.org/Graphics/SVG/1.1/DTD/svg11.dtd">
<!-- Created with matplotlib (https://matplotlib.org/) -->
<svg height="345.6pt" version="1.1" viewBox="0 0 460.8 345.6" width="460.8pt" xmlns="http://www.w3.org/2000/svg" xmlns:xlink="http://www.w3.org/1999/xlink">
 <metadata>
  <rdf:RDF xmlns:cc="http://creativecommons.org/ns#" xmlns:dc="http://purl.org/dc/elements/1.1/" xmlns:rdf="http://www.w3.org/1999/02/22-rdf-syntax-ns#">
   <cc:Work>
    <dc:type rdf:resource="http://purl.org/dc/dcmitype/StillImage"/>
    <dc:date>2022-11-19T15:13:34.498950</dc:date>
    <dc:format>image/svg+xml</dc:format>
    <dc:creator>
     <cc:Agent>
      <dc:title>Matplotlib v3.3.4, https://matplotlib.org/</dc:title>
     </cc:Agent>
    </dc:creator>
   </cc:Work>
  </rdf:RDF>
 </metadata>
 <defs>
  <style type="text/css">*{stroke-linecap:butt;stroke-linejoin:round;}</style>
 </defs>
 <g id="figure_1">
  <g id="patch_1">
   <path d="M 0 345.6 
L 460.8 345.6 
L 460.8 0 
L 0 0 
z
" style="fill:#ffffff;"/>
  </g>
  <g id="axes_1">
   <g id="patch_2">
    <path d="M 93.458149 307.584 
L 378.861851 307.584 
L 378.861851 41.472 
L 93.458149 41.472 
z
" style="fill:#ffffff;"/>
   </g>
   <g id="matplotlib.axis_1">
    <g id="xtick_1">
     <g id="line2d_1">
      <path clip-path="url(#p76b7ddc83b)" d="M 108.494328 307.584 
L 108.494328 41.472 
" style="fill:none;stroke:#b0b0b0;stroke-linecap:square;stroke-width:0.2;"/>
     </g>
     <g id="line2d_2">
      <defs>
       <path d="M 0 0 
L 0 3.5 
" id="m8cb1b0219b" style="stroke:#000000;stroke-width:0.8;"/>
      </defs>
      <g>
       <use style="stroke:#000000;stroke-width:0.8;" x="108.494328" xlink:href="#m8cb1b0219b" y="307.584"/>
      </g>
     </g>
     <g id="text_1">
      <!-- −25 -->
      <g transform="translate(97.941985 322.182437)scale(0.1 -0.1)">
       <defs>
        <path d="M 10.59375 35.5 
L 73.1875 35.5 
L 73.1875 27.203125 
L 10.59375 27.203125 
z
" id="DejaVuSans-8722"/>
        <path d="M 19.1875 8.296875 
L 53.609375 8.296875 
L 53.609375 0 
L 7.328125 0 
L 7.328125 8.296875 
Q 12.9375 14.109375 22.625 23.890625 
Q 32.328125 33.6875 34.8125 36.53125 
Q 39.546875 41.84375 41.421875 45.53125 
Q 43.3125 49.21875 43.3125 52.78125 
Q 43.3125 58.59375 39.234375 62.25 
Q 35.15625 65.921875 28.609375 65.921875 
Q 23.96875 65.921875 18.8125 64.3125 
Q 13.671875 62.703125 7.8125 59.421875 
L 7.8125 69.390625 
Q 13.765625 71.78125 18.9375 73 
Q 24.125 74.21875 28.421875 74.21875 
Q 39.75 74.21875 46.484375 68.546875 
Q 53.21875 62.890625 53.21875 53.421875 
Q 53.21875 48.921875 51.53125 44.890625 
Q 49.859375 40.875 45.40625 35.40625 
Q 44.1875 33.984375 37.640625 27.21875 
Q 31.109375 20.453125 19.1875 8.296875 
z
" id="DejaVuSans-50"/>
        <path d="M 10.796875 72.90625 
L 49.515625 72.90625 
L 49.515625 64.59375 
L 19.828125 64.59375 
L 19.828125 46.734375 
Q 21.96875 47.46875 24.109375 47.828125 
Q 26.265625 48.1875 28.421875 48.1875 
Q 40.625 48.1875 47.75 41.5 
Q 54.890625 34.8125 54.890625 23.390625 
Q 54.890625 11.625 47.5625 5.09375 
Q 40.234375 -1.421875 26.90625 -1.421875 
Q 22.3125 -1.421875 17.546875 -0.640625 
Q 12.796875 0.140625 7.71875 1.703125 
L 7.71875 11.625 
Q 12.109375 9.234375 16.796875 8.0625 
Q 21.484375 6.890625 26.703125 6.890625 
Q 35.15625 6.890625 40.078125 11.328125 
Q 45.015625 15.765625 45.015625 23.390625 
Q 45.015625 31 40.078125 35.4375 
Q 35.15625 39.890625 26.703125 39.890625 
Q 22.75 39.890625 18.8125 39.015625 
Q 14.890625 38.140625 10.796875 36.28125 
z
" id="DejaVuSans-53"/>
       </defs>
       <use xlink:href="#DejaVuSans-8722"/>
       <use x="83.789062" xlink:href="#DejaVuSans-50"/>
       <use x="147.412109" xlink:href="#DejaVuSans-53"/>
      </g>
     </g>
    </g>
    <g id="xtick_2">
     <g id="line2d_3">
      <path clip-path="url(#p76b7ddc83b)" d="M 165.518328 307.584 
L 165.518328 41.472 
" style="fill:none;stroke:#b0b0b0;stroke-linecap:square;stroke-width:0.2;"/>
     </g>
     <g id="line2d_4">
      <g>
       <use style="stroke:#000000;stroke-width:0.8;" x="165.518328" xlink:href="#m8cb1b0219b" y="307.584"/>
      </g>
     </g>
     <g id="text_2">
      <!-- −20 -->
      <g transform="translate(154.965985 322.182437)scale(0.1 -0.1)">
       <defs>
        <path d="M 31.78125 66.40625 
Q 24.171875 66.40625 20.328125 58.90625 
Q 16.5 51.421875 16.5 36.375 
Q 16.5 21.390625 20.328125 13.890625 
Q 24.171875 6.390625 31.78125 6.390625 
Q 39.453125 6.390625 43.28125 13.890625 
Q 47.125 21.390625 47.125 36.375 
Q 47.125 51.421875 43.28125 58.90625 
Q 39.453125 66.40625 31.78125 66.40625 
z
M 31.78125 74.21875 
Q 44.046875 74.21875 50.515625 64.515625 
Q 56.984375 54.828125 56.984375 36.375 
Q 56.984375 17.96875 50.515625 8.265625 
Q 44.046875 -1.421875 31.78125 -1.421875 
Q 19.53125 -1.421875 13.0625 8.265625 
Q 6.59375 17.96875 6.59375 36.375 
Q 6.59375 54.828125 13.0625 64.515625 
Q 19.53125 74.21875 31.78125 74.21875 
z
" id="DejaVuSans-48"/>
       </defs>
       <use xlink:href="#DejaVuSans-8722"/>
       <use x="83.789062" xlink:href="#DejaVuSans-50"/>
       <use x="147.412109" xlink:href="#DejaVuSans-48"/>
      </g>
     </g>
    </g>
    <g id="xtick_3">
     <g id="line2d_5">
      <path clip-path="url(#p76b7ddc83b)" d="M 222.542328 307.584 
L 222.542328 41.472 
" style="fill:none;stroke:#b0b0b0;stroke-linecap:square;stroke-width:0.2;"/>
     </g>
     <g id="line2d_6">
      <g>
       <use style="stroke:#000000;stroke-width:0.8;" x="222.542328" xlink:href="#m8cb1b0219b" y="307.584"/>
      </g>
     </g>
     <g id="text_3">
      <!-- −15 -->
      <g transform="translate(211.989985 322.182437)scale(0.1 -0.1)">
       <defs>
        <path d="M 12.40625 8.296875 
L 28.515625 8.296875 
L 28.515625 63.921875 
L 10.984375 60.40625 
L 10.984375 69.390625 
L 28.421875 72.90625 
L 38.28125 72.90625 
L 38.28125 8.296875 
L 54.390625 8.296875 
L 54.390625 0 
L 12.40625 0 
z
" id="DejaVuSans-49"/>
       </defs>
       <use xlink:href="#DejaVuSans-8722"/>
       <use x="83.789062" xlink:href="#DejaVuSans-49"/>
       <use x="147.412109" xlink:href="#DejaVuSans-53"/>
      </g>
     </g>
    </g>
    <g id="xtick_4">
     <g id="line2d_7">
      <path clip-path="url(#p76b7ddc83b)" d="M 279.566328 307.584 
L 279.566328 41.472 
" style="fill:none;stroke:#b0b0b0;stroke-linecap:square;stroke-width:0.2;"/>
     </g>
     <g id="line2d_8">
      <g>
       <use style="stroke:#000000;stroke-width:0.8;" x="279.566328" xlink:href="#m8cb1b0219b" y="307.584"/>
      </g>
     </g>
     <g id="text_4">
      <!-- −10 -->
      <g transform="translate(269.013985 322.182437)scale(0.1 -0.1)">
       <use xlink:href="#DejaVuSans-8722"/>
       <use x="83.789062" xlink:href="#DejaVuSans-49"/>
       <use x="147.412109" xlink:href="#DejaVuSans-48"/>
      </g>
     </g>
    </g>
    <g id="xtick_5">
     <g id="line2d_9">
      <path clip-path="url(#p76b7ddc83b)" d="M 336.590328 307.584 
L 336.590328 41.472 
" style="fill:none;stroke:#b0b0b0;stroke-linecap:square;stroke-width:0.2;"/>
     </g>
     <g id="line2d_10">
      <g>
       <use style="stroke:#000000;stroke-width:0.8;" x="336.590328" xlink:href="#m8cb1b0219b" y="307.584"/>
      </g>
     </g>
     <g id="text_5">
      <!-- −5 -->
      <g transform="translate(329.219235 322.182437)scale(0.1 -0.1)">
       <use xlink:href="#DejaVuSans-8722"/>
       <use x="83.789062" xlink:href="#DejaVuSans-53"/>
      </g>
     </g>
    </g>
    <g id="text_6">
     <!-- X / m -->
     <g transform="translate(217.739063 338.899937)scale(0.14 -0.14)">
      <defs>
       <path d="M 6.296875 72.90625 
L 16.890625 72.90625 
L 35.015625 45.796875 
L 53.21875 72.90625 
L 63.8125 72.90625 
L 40.375 37.890625 
L 65.375 0 
L 54.78125 0 
L 34.28125 31 
L 13.625 0 
L 2.984375 0 
L 29 38.921875 
z
" id="DejaVuSans-88"/>
       <path id="DejaVuSans-32"/>
       <path d="M 25.390625 72.90625 
L 33.6875 72.90625 
L 8.296875 -9.28125 
L 0 -9.28125 
z
" id="DejaVuSans-47"/>
       <path d="M 52 44.1875 
Q 55.375 50.25 60.0625 53.125 
Q 64.75 56 71.09375 56 
Q 79.640625 56 84.28125 50.015625 
Q 88.921875 44.046875 88.921875 33.015625 
L 88.921875 0 
L 79.890625 0 
L 79.890625 32.71875 
Q 79.890625 40.578125 77.09375 44.375 
Q 74.3125 48.1875 68.609375 48.1875 
Q 61.625 48.1875 57.5625 43.546875 
Q 53.515625 38.921875 53.515625 30.90625 
L 53.515625 0 
L 44.484375 0 
L 44.484375 32.71875 
Q 44.484375 40.625 41.703125 44.40625 
Q 38.921875 48.1875 33.109375 48.1875 
Q 26.21875 48.1875 22.15625 43.53125 
Q 18.109375 38.875 18.109375 30.90625 
L 18.109375 0 
L 9.078125 0 
L 9.078125 54.6875 
L 18.109375 54.6875 
L 18.109375 46.1875 
Q 21.1875 51.21875 25.484375 53.609375 
Q 29.78125 56 35.6875 56 
Q 41.65625 56 45.828125 52.96875 
Q 50 49.953125 52 44.1875 
z
" id="DejaVuSans-109"/>
      </defs>
      <use xlink:href="#DejaVuSans-88"/>
      <use x="68.505859" xlink:href="#DejaVuSans-32"/>
      <use x="100.292969" xlink:href="#DejaVuSans-47"/>
      <use x="133.984375" xlink:href="#DejaVuSans-32"/>
      <use x="165.771484" xlink:href="#DejaVuSans-109"/>
     </g>
    </g>
   </g>
   <g id="matplotlib.axis_2">
    <g id="ytick_1">
     <g id="line2d_11">
      <path clip-path="url(#p76b7ddc83b)" d="M 93.458149 281.767164 
L 378.861851 281.767164 
" style="fill:none;stroke:#b0b0b0;stroke-linecap:square;stroke-width:0.2;"/>
     </g>
     <g id="line2d_12">
      <defs>
       <path d="M 0 0 
L -3.5 0 
" id="m4a5f65ca46" style="stroke:#000000;stroke-width:0.8;"/>
      </defs>
      <g>
       <use style="stroke:#000000;stroke-width:0.8;" x="93.458149" xlink:href="#m4a5f65ca46" y="281.767164"/>
      </g>
     </g>
     <g id="text_7">
      <!-- −10 -->
      <g transform="translate(65.353462 285.566383)scale(0.1 -0.1)">
       <use xlink:href="#DejaVuSans-8722"/>
       <use x="83.789062" xlink:href="#DejaVuSans-49"/>
       <use x="147.412109" xlink:href="#DejaVuSans-48"/>
      </g>
     </g>
    </g>
    <g id="ytick_2">
     <g id="line2d_13">
      <path clip-path="url(#p76b7ddc83b)" d="M 93.458149 224.743164 
L 378.861851 224.743164 
" style="fill:none;stroke:#b0b0b0;stroke-linecap:square;stroke-width:0.2;"/>
     </g>
     <g id="line2d_14">
      <g>
       <use style="stroke:#000000;stroke-width:0.8;" x="93.458149" xlink:href="#m4a5f65ca46" y="224.743164"/>
      </g>
     </g>
     <g id="text_8">
      <!-- −5 -->
      <g transform="translate(71.715962 228.542383)scale(0.1 -0.1)">
       <use xlink:href="#DejaVuSans-8722"/>
       <use x="83.789062" xlink:href="#DejaVuSans-53"/>
      </g>
     </g>
    </g>
    <g id="ytick_3">
     <g id="line2d_15">
      <path clip-path="url(#p76b7ddc83b)" d="M 93.458149 167.719164 
L 378.861851 167.719164 
" style="fill:none;stroke:#b0b0b0;stroke-linecap:square;stroke-width:0.2;"/>
     </g>
     <g id="line2d_16">
      <g>
       <use style="stroke:#000000;stroke-width:0.8;" x="93.458149" xlink:href="#m4a5f65ca46" y="167.719164"/>
      </g>
     </g>
     <g id="text_9">
      <!-- 0 -->
      <g transform="translate(80.095649 171.518383)scale(0.1 -0.1)">
       <use xlink:href="#DejaVuSans-48"/>
      </g>
     </g>
    </g>
    <g id="ytick_4">
     <g id="line2d_17">
      <path clip-path="url(#p76b7ddc83b)" d="M 93.458149 110.695164 
L 378.861851 110.695164 
" style="fill:none;stroke:#b0b0b0;stroke-linecap:square;stroke-width:0.2;"/>
     </g>
     <g id="line2d_18">
      <g>
       <use style="stroke:#000000;stroke-width:0.8;" x="93.458149" xlink:href="#m4a5f65ca46" y="110.695164"/>
      </g>
     </g>
     <g id="text_10">
      <!-- 5 -->
      <g transform="translate(80.095649 114.494383)scale(0.1 -0.1)">
       <use xlink:href="#DejaVuSans-53"/>
      </g>
     </g>
    </g>
    <g id="ytick_5">
     <g id="line2d_19">
      <path clip-path="url(#p76b7ddc83b)" d="M 93.458149 53.671164 
L 378.861851 53.671164 
" style="fill:none;stroke:#b0b0b0;stroke-linecap:square;stroke-width:0.2;"/>
     </g>
     <g id="line2d_20">
      <g>
       <use style="stroke:#000000;stroke-width:0.8;" x="93.458149" xlink:href="#m4a5f65ca46" y="53.671164"/>
      </g>
     </g>
     <g id="text_11">
      <!-- 10 -->
      <g transform="translate(73.733149 57.470383)scale(0.1 -0.1)">
       <use xlink:href="#DejaVuSans-49"/>
       <use x="63.623047" xlink:href="#DejaVuSans-48"/>
      </g>
     </g>
    </g>
    <g id="text_12">
     <!-- Y / m -->
     <g transform="translate(58.441899 192.429406)rotate(-90)scale(0.14 -0.14)">
      <defs>
       <path d="M -0.203125 72.90625 
L 10.40625 72.90625 
L 30.609375 42.921875 
L 50.6875 72.90625 
L 61.28125 72.90625 
L 35.5 34.71875 
L 35.5 0 
L 25.59375 0 
L 25.59375 34.71875 
z
" id="DejaVuSans-89"/>
      </defs>
      <use xlink:href="#DejaVuSans-89"/>
      <use x="61.083984" xlink:href="#DejaVuSans-32"/>
      <use x="92.871094" xlink:href="#DejaVuSans-47"/>
      <use x="126.5625" xlink:href="#DejaVuSans-32"/>
      <use x="158.349609" xlink:href="#DejaVuSans-109"/>
     </g>
    </g>
   </g>
   <g id="patch_3">
    <path clip-path="url(#p76b7ddc83b)" d="M 108.087514 348.698636 
L 191.557252 199.372041 
L 210.890069 210.178589 
L 127.420331 359.505185 
z
" style="opacity:0.5;"/>
   </g>
   <g id="patch_4">
    <path clip-path="url(#p76b7ddc83b)" d="M 220.432217 147.714994 
L 303.901955 -1.611601 
L 323.234771 9.194947 
L 239.765033 158.521543 
z
" style="opacity:0.5;"/>
   </g>
   <g id="patch_5">
    <path clip-path="url(#p76b7ddc83b)" d="M 232.728851 122.578438 
L 181.525725 211.510183 
L 179.729124 210.611883 
L 243.508457 101.468377 
z
" style="opacity:0.5;"/>
   </g>
   <g id="line2d_21">
    <path clip-path="url(#p76b7ddc83b)" d="M 268.642768 170.360131 
L 296.821977 124.909794 
L 277.998229 113.23907 
L 249.81902 158.689407 
L 268.642768 170.360131 
" style="fill:none;stroke:#008000;stroke-dasharray:1.48,0.64;stroke-dashoffset:0;stroke-width:0.4;"/>
   </g>
   <g id="line2d_22">
    <path clip-path="url(#p76b7ddc83b)" d="M 212.002998 208.187568 
L 238.095638 161.508074 
L 218.762822 150.701526 
L 192.670182 197.381019 
L 212.002998 208.187568 
" style="fill:none;stroke:#ff0000;stroke-dasharray:1.48,0.64;stroke-dashoffset:0;stroke-width:0.4;"/>
   </g>
   <g id="line2d_23">
    <path clip-path="url(#p76b7ddc83b)" d="M 268.642768 170.360131 
L 296.821977 124.909794 
L 277.998229 113.23907 
L 249.81902 158.689407 
L 268.642768 170.360131 
" style="fill:none;stroke:#0000ff;stroke-dasharray:0.555,0.24;stroke-dashoffset:0;stroke-width:0.15;"/>
   </g>
   <g id="line2d_24">
    <path clip-path="url(#p76b7ddc83b)" d="M 267.809335 171.574298 
L 296.273279 126.301736 
L 277.523159 114.513086 
L 249.059214 159.785648 
L 267.809335 171.574298 
" style="fill:none;stroke:#0000ff;stroke-dasharray:0.555,0.24;stroke-dashoffset:0;stroke-width:0.15;"/>
   </g>
   <g id="line2d_25">
    <path clip-path="url(#p76b7ddc83b)" d="M 264.204854 175.849822 
L 295.406833 132.418986 
L 277.419483 119.496349 
L 246.217504 162.927185 
L 264.204854 175.849822 
" style="fill:none;stroke:#0000ff;stroke-dasharray:0.555,0.24;stroke-dashoffset:0;stroke-width:0.15;"/>
   </g>
   <g id="line2d_26">
    <path clip-path="url(#p76b7ddc83b)" d="M 256.935017 182.171135 
L 294.441134 144.051689 
L 278.653554 128.518126 
L 241.147437 166.637572 
L 256.935017 182.171135 
" style="fill:none;stroke:#0000ff;stroke-dasharray:0.555,0.24;stroke-dashoffset:0;stroke-width:0.15;"/>
   </g>
   <g id="line2d_27">
    <path clip-path="url(#p76b7ddc83b)" d="M 246.460434 188.293972 
L 290.879266 158.515315 
L 278.546113 140.118776 
L 234.127282 169.897433 
L 246.460434 188.293972 
" style="fill:none;stroke:#0000ff;stroke-dasharray:0.555,0.24;stroke-dashoffset:0;stroke-width:0.15;"/>
   </g>
   <g id="line2d_28">
    <path clip-path="url(#p76b7ddc83b)" d="M 234.917763 192.923736 
L 283.521976 170.620564 
L 274.284876 150.490604 
L 225.680663 172.793776 
L 234.917763 192.923736 
" style="fill:none;stroke:#0000ff;stroke-dasharray:0.555,0.24;stroke-dashoffset:0;stroke-width:0.15;"/>
   </g>
   <g id="line2d_29">
    <path clip-path="url(#p76b7ddc83b)" d="M 224.272438 196.59758 
L 274.264048 177.60706 
L 266.398919 156.902494 
L 216.407309 175.893014 
L 224.272438 196.59758 
" style="fill:none;stroke:#0000ff;stroke-dasharray:0.555,0.24;stroke-dashoffset:0;stroke-width:0.15;"/>
   </g>
   <g id="line2d_30">
    <path clip-path="url(#p76b7ddc83b)" d="M 215.646863 200.294373 
L 264.987759 179.67213 
L 256.446834 159.237064 
L 207.105938 179.859308 
L 215.646863 200.294373 
" style="fill:none;stroke:#0000ff;stroke-dasharray:0.555,0.24;stroke-dashoffset:0;stroke-width:0.15;"/>
   </g>
   <g id="line2d_31">
    <path clip-path="url(#p76b7ddc83b)" d="M 209.794423 204.427666 
L 256.242286 177.924892 
L 245.265875 158.688008 
L 198.818013 185.190782 
L 209.794423 204.427666 
" style="fill:none;stroke:#0000ff;stroke-dasharray:0.555,0.24;stroke-dashoffset:0;stroke-width:0.15;"/>
   </g>
   <g id="line2d_32">
    <path clip-path="url(#p76b7ddc83b)" d="M 207.386639 207.766626 
L 249.499843 174.807878 
L 235.849622 157.36624 
L 193.736418 190.324987 
L 207.386639 207.766626 
" style="fill:none;stroke:#0000ff;stroke-dasharray:0.555,0.24;stroke-dashoffset:0;stroke-width:0.15;"/>
   </g>
   <g id="line2d_33">
    <path clip-path="url(#p76b7ddc83b)" d="M 207.552695 207.598821 
L 249.758857 174.759198 
L 236.157973 157.27906 
L 193.95181 190.118683 
L 207.552695 207.598821 
" style="fill:none;stroke:#0000ff;stroke-dasharray:0.555,0.24;stroke-dashoffset:0;stroke-width:0.15;"/>
   </g>
   <g id="line2d_34">
    <path clip-path="url(#p76b7ddc83b)" d="M 208.053249 207.1126 
L 250.499745 174.584213 
L 237.027762 157.004538 
L 194.581266 189.532925 
L 208.053249 207.1126 
" style="fill:none;stroke:#0000ff;stroke-dasharray:0.555,0.24;stroke-dashoffset:0;stroke-width:0.15;"/>
   </g>
   <g id="line2d_35">
    <path clip-path="url(#p76b7ddc83b)" d="M 207.691748 207.799486 
L 249.137725 174.005522 
L 235.14159 156.840223 
L 193.695613 190.634187 
L 207.691748 207.799486 
" style="fill:none;stroke:#0000ff;stroke-dasharray:0.555,0.24;stroke-dashoffset:0;stroke-width:0.15;"/>
   </g>
   <g id="line2d_36">
    <path clip-path="url(#p76b7ddc83b)" d="M 207.467561 208.252435 
L 248.243567 173.653037 
L 233.913852 156.765213 
L 193.137846 191.364612 
L 207.467561 208.252435 
" style="fill:none;stroke:#0000ff;stroke-dasharray:0.555,0.24;stroke-dashoffset:0;stroke-width:0.15;"/>
   </g>
   <g id="line2d_37">
    <path clip-path="url(#p76b7ddc83b)" d="M 207.805755 207.916035 
L 248.706493 173.464176 
L 234.437884 156.524693 
L 193.537146 190.976553 
L 207.805755 207.916035 
" style="fill:none;stroke:#0000ff;stroke-dasharray:0.555,0.24;stroke-dashoffset:0;stroke-width:0.15;"/>
   </g>
   <g id="line2d_38">
    <path clip-path="url(#p76b7ddc83b)" d="M 208.422071 207.305372 
L 249.555181 173.131285 
L 235.401613 156.095563 
L 194.268503 190.269651 
L 208.422071 207.305372 
" style="fill:none;stroke:#0000ff;stroke-dasharray:0.555,0.24;stroke-dashoffset:0;stroke-width:0.15;"/>
   </g>
   <g id="line2d_39">
    <path clip-path="url(#p76b7ddc83b)" d="M 208.22484 207.692999 
L 248.80045 172.858808 
L 234.373494 156.053981 
L 193.797883 190.888171 
L 208.22484 207.692999 
" style="fill:none;stroke:#0000ff;stroke-dasharray:0.555,0.24;stroke-dashoffset:0;stroke-width:0.15;"/>
   </g>
   <g id="line2d_40">
    <path clip-path="url(#p76b7ddc83b)" d="M 207.868383 208.476484 
L 247.255376 172.303763 
L 232.274053 155.991214 
L 192.887059 192.163936 
L 207.868383 208.476484 
" style="fill:none;stroke:#0000ff;stroke-dasharray:0.555,0.24;stroke-dashoffset:0;stroke-width:0.15;"/>
   </g>
   <g id="line2d_41">
    <path clip-path="url(#p76b7ddc83b)" d="M 207.994452 208.337796 
L 247.439201 172.228064 
L 232.483965 155.891595 
L 193.039216 192.001328 
L 207.994452 208.337796 
" style="fill:none;stroke:#0000ff;stroke-dasharray:0.555,0.24;stroke-dashoffset:0;stroke-width:0.15;"/>
   </g>
   <g id="line2d_42">
    <path clip-path="url(#p76b7ddc83b)" d="M 208.821972 207.476167 
L 248.53786 171.664867 
L 233.706223 155.216103 
L 193.990335 191.027403 
L 208.821972 207.476167 
" style="fill:none;stroke:#0000ff;stroke-dasharray:0.555,0.24;stroke-dashoffset:0;stroke-width:0.15;"/>
   </g>
   <g id="line2d_43">
    <path clip-path="url(#p76b7ddc83b)" d="M 208.828838 207.486989 
L 248.501764 171.628101 
L 233.650418 155.19713 
L 193.977492 191.056018 
L 208.828838 207.486989 
" style="fill:none;stroke:#0000ff;stroke-dasharray:0.555,0.24;stroke-dashoffset:0;stroke-width:0.15;"/>
   </g>
   <g id="line2d_44">
    <path clip-path="url(#p76b7ddc83b)" d="M 208.347194 208.644282 
L 246.224599 170.893744 
L 230.589806 155.206407 
L 192.712401 192.956946 
L 208.347194 208.644282 
" style="fill:none;stroke:#0000ff;stroke-dasharray:0.555,0.24;stroke-dashoffset:0;stroke-width:0.15;"/>
   </g>
   <g id="line2d_45">
    <path clip-path="url(#p76b7ddc83b)" d="M 208.312586 208.724783 
L 246.073515 170.857735 
L 230.390468 155.218639 
L 192.62954 193.085686 
L 208.312586 208.724783 
" style="fill:none;stroke:#0000ff;stroke-dasharray:0.555,0.24;stroke-dashoffset:0;stroke-width:0.15;"/>
   </g>
   <g id="line2d_46">
    <path clip-path="url(#p76b7ddc83b)" d="M 208.312586 208.724782 
L 246.073515 170.857735 
L 230.390469 155.218639 
L 192.62954 193.085686 
L 208.312586 208.724782 
" style="fill:none;stroke:#0000ff;stroke-dasharray:0.555,0.24;stroke-dashoffset:0;stroke-width:0.15;"/>
   </g>
   <g id="line2d_47">
    <path clip-path="url(#p76b7ddc83b)" d="M 208.312587 208.724782 
L 246.073515 170.857735 
L 230.390469 155.218638 
L 192.62954 193.085686 
L 208.312587 208.724782 
" style="fill:none;stroke:#0000ff;stroke-dasharray:0.555,0.24;stroke-dashoffset:0;stroke-width:0.15;"/>
   </g>
   <g id="line2d_48">
    <path clip-path="url(#p76b7ddc83b)" d="M 209.263087 208.043594 
L 246.300808 169.468885 
L 230.324676 154.129313 
L 193.286954 192.704022 
L 209.263087 208.043594 
" style="fill:none;stroke:#0000ff;stroke-dasharray:0.555,0.24;stroke-dashoffset:0;stroke-width:0.15;"/>
   </g>
   <g id="line2d_49">
    <path clip-path="url(#p76b7ddc83b)" d="M 209.9896 207.472968 
L 246.537041 168.43343 
L 230.368394 153.296912 
L 193.820953 192.33645 
L 209.9896 207.472968 
" style="fill:none;stroke:#0000ff;stroke-dasharray:0.555,0.24;stroke-dashoffset:0;stroke-width:0.15;"/>
   </g>
   <g id="line2d_50">
    <path clip-path="url(#p76b7ddc83b)" d="M 210.000129 207.463151 
L 246.543967 168.42024 
L 230.373923 153.285215 
L 193.830086 192.328126 
L 210.000129 207.463151 
" style="fill:none;stroke:#0000ff;stroke-dasharray:0.555,0.24;stroke-dashoffset:0;stroke-width:0.15;"/>
   </g>
   <g id="line2d_51">
    <path clip-path="url(#p76b7ddc83b)" d="M 210.00013 207.46315 
L 246.543968 168.420239 
L 230.373925 153.285214 
L 193.830087 192.328125 
L 210.00013 207.46315 
" style="fill:none;stroke:#0000ff;stroke-dasharray:0.555,0.24;stroke-dashoffset:0;stroke-width:0.15;"/>
   </g>
   <g id="line2d_52">
    <path clip-path="url(#p76b7ddc83b)" d="M 209.669205 208.410902 
L 244.724144 168.025852 
L 227.998239 153.50747 
L 192.943301 193.892521 
L 209.669205 208.410902 
" style="fill:none;stroke:#0000ff;stroke-dasharray:0.555,0.24;stroke-dashoffset:0;stroke-width:0.15;"/>
   </g>
   <g id="line2d_53">
    <path clip-path="url(#p76b7ddc83b)" d="M 209.404357 209.335054 
L 242.922606 167.665786 
L 225.664829 153.783841 
L 192.146579 195.453109 
L 209.404357 209.335054 
" style="fill:none;stroke:#0000ff;stroke-dasharray:0.555,0.24;stroke-dashoffset:0;stroke-width:0.15;"/>
   </g>
   <g id="line2d_54">
    <path clip-path="url(#p76b7ddc83b)" d="M 209.686258 208.899661 
L 243.416764 167.402023 
L 226.230069 153.43217 
L 192.499563 194.929808 
L 209.686258 208.899661 
" style="fill:none;stroke:#0000ff;stroke-dasharray:0.555,0.24;stroke-dashoffset:0;stroke-width:0.15;"/>
   </g>
   <g id="line2d_55">
    <path clip-path="url(#p76b7ddc83b)" d="M 210.618218 207.476803 
L 245.063496 166.570522 
L 228.121717 152.304638 
L 193.67644 193.21092 
L 210.618218 207.476803 
" style="fill:none;stroke:#0000ff;stroke-dasharray:0.555,0.24;stroke-dashoffset:0;stroke-width:0.15;"/>
   </g>
   <g id="line2d_56">
    <path clip-path="url(#p76b7ddc83b)" d="M 210.54142 207.778683 
L 244.457579 166.432641 
L 227.333669 152.385897 
L 193.41751 193.731939 
L 210.54142 207.778683 
" style="fill:none;stroke:#0000ff;stroke-dasharray:0.555,0.24;stroke-dashoffset:0;stroke-width:0.15;"/>
   </g>
   <g id="line2d_57">
    <path clip-path="url(#p76b7ddc83b)" d="M 210.105446 209.634418 
L 240.824836 165.86091 
L 222.695564 153.138142 
L 191.976174 196.911651 
L 210.105446 209.634418 
" style="fill:none;stroke:#0000ff;stroke-dasharray:0.555,0.24;stroke-dashoffset:0;stroke-width:0.15;"/>
   </g>
   <g id="line2d_58">
    <path clip-path="url(#p76b7ddc83b)" d="M 210.224916 209.424387 
L 241.035947 165.715333 
L 222.93337 152.954612 
L 192.122339 196.663666 
L 210.224916 209.424387 
" style="fill:none;stroke:#0000ff;stroke-dasharray:0.555,0.24;stroke-dashoffset:0;stroke-width:0.15;"/>
   </g>
   <g id="line2d_59">
    <path clip-path="url(#p76b7ddc83b)" d="M 211.165186 207.531732 
L 243.380464 164.847112 
L 225.702167 151.504806 
L 193.486889 194.189427 
L 211.165186 207.531732 
" style="fill:none;stroke:#0000ff;stroke-dasharray:0.555,0.24;stroke-dashoffset:0;stroke-width:0.15;"/>
   </g>
   <g id="line2d_60">
    <path clip-path="url(#p76b7ddc83b)" d="M 211.252864 207.376616 
L 243.550986 164.754647 
L 225.898636 151.378031 
L 193.600515 194 
L 211.252864 207.376616 
" style="fill:none;stroke:#0000ff;stroke-dasharray:0.555,0.24;stroke-dashoffset:0;stroke-width:0.15;"/>
   </g>
   <g id="line2d_61">
    <path clip-path="url(#p76b7ddc83b)" d="M 210.793787 209.727685 
L 238.993749 164.290221 
L 220.175332 152.610902 
L 191.975371 198.048366 
L 210.793787 209.727685 
" style="fill:none;stroke:#0000ff;stroke-dasharray:0.555,0.24;stroke-dashoffset:0;stroke-width:0.15;"/>
   </g>
   <g id="line2d_62">
    <path clip-path="url(#p76b7ddc83b)" d="M 210.877767 209.677161 
L 238.865108 164.108425 
L 219.992323 152.517165 
L 192.004982 198.085901 
L 210.877767 209.677161 
" style="fill:none;stroke:#0000ff;stroke-dasharray:0.555,0.24;stroke-dashoffset:0;stroke-width:0.15;"/>
   </g>
   <g id="line2d_63">
    <path clip-path="url(#p76b7ddc83b)" d="M 211.550209 207.299244 
L 242.562231 163.732565 
L 224.518621 150.888601 
L 193.506599 194.45528 
L 211.550209 207.299244 
" style="fill:none;stroke:#0000ff;stroke-dasharray:0.555,0.24;stroke-dashoffset:0;stroke-width:0.15;"/>
   </g>
   <g id="line2d_64">
    <path clip-path="url(#p76b7ddc83b)" d="M 211.509573 207.262043 
L 242.718145 163.835945 
L 224.732757 150.910578 
L 193.524185 194.336676 
L 211.509573 207.262043 
" style="fill:none;stroke:#0000ff;stroke-dasharray:0.555,0.24;stroke-dashoffset:0;stroke-width:0.15;"/>
   </g>
   <g id="line2d_65">
    <path clip-path="url(#p76b7ddc83b)" d="M 211.040643 209.822916 
L 237.855761 163.554671 
L 218.693268 152.4489 
L 191.87815 198.717145 
L 211.040643 209.822916 
" style="fill:none;stroke:#0000ff;stroke-dasharray:0.555,0.24;stroke-dashoffset:0;stroke-width:0.15;"/>
   </g>
   <g id="line2d_66">
    <path clip-path="url(#p76b7ddc83b)" d="M 211.092708 209.877809 
L 237.570258 163.415562 
L 218.327417 152.449599 
L 191.849867 198.911845 
L 211.092708 209.877809 
" style="fill:none;stroke:#0000ff;stroke-dasharray:0.555,0.24;stroke-dashoffset:0;stroke-width:0.15;"/>
   </g>
   <g id="line2d_67">
    <path clip-path="url(#p76b7ddc83b)" d="M 211.645268 207.423859 
L 241.498197 163.054911 
L 223.122318 150.690997 
L 193.269389 195.059946 
L 211.645268 207.423859 
" style="fill:none;stroke:#0000ff;stroke-dasharray:0.555,0.24;stroke-dashoffset:0;stroke-width:0.15;"/>
   </g>
   <g id="line2d_68">
    <path clip-path="url(#p76b7ddc83b)" d="M 211.767457 206.689933 
L 242.911067 163.217223 
L 224.906374 150.31876 
L 193.762765 193.791471 
L 211.767457 206.689933 
" style="fill:none;stroke:#0000ff;stroke-dasharray:0.555,0.24;stroke-dashoffset:0;stroke-width:0.15;"/>
   </g>
   <g id="line2d_69">
    <path clip-path="url(#p76b7ddc83b)" d="M 211.125292 208.497024 
L 240.170379 163.595087 
L 221.573757 151.56575 
L 192.52867 196.467687 
L 211.125292 208.497024 
" style="fill:none;stroke:#0000ff;stroke-dasharray:0.555,0.24;stroke-dashoffset:0;stroke-width:0.15;"/>
   </g>
   <g id="line2d_70">
    <path clip-path="url(#p76b7ddc83b)" d="M 210.894639 210.168084 
L 236.98728 163.48859 
L 217.654463 152.682041 
L 191.561823 199.361535 
L 210.894639 210.168084 
" style="fill:none;stroke:#0000ff;stroke-dasharray:0.555,0.24;stroke-dashoffset:0;stroke-width:0.15;"/>
   </g>
   <g id="line2d_71">
    <path clip-path="url(#p76b7ddc83b)" d="M 210.894639 210.168084 
L 236.98728 163.48859 
L 217.654463 152.682041 
L 191.561823 199.361535 
L 210.894639 210.168084 
" style="fill:none;stroke:#0000ff;stroke-dasharray:0.555,0.24;stroke-dashoffset:0;stroke-width:0.15;"/>
   </g>
   <g id="line2d_72">
    <path clip-path="url(#p76b7ddc83b)" d="M 211.037783 209.894723 
L 237.168019 163.236264 
L 217.843914 152.414145 
L 191.713678 199.072604 
L 211.037783 209.894723 
" style="fill:none;stroke:#0000ff;stroke-dasharray:0.555,0.24;stroke-dashoffset:0;stroke-width:0.15;"/>
   </g>
   <g id="line2d_73">
    <path clip-path="url(#p76b7ddc83b)" d="M 211.821831 208.509835 
L 237.91833 161.832499 
L 218.586407 151.024352 
L 192.489908 197.701688 
L 211.821831 208.509835 
" style="fill:none;stroke:#0000ff;stroke-dasharray:0.555,0.24;stroke-dashoffset:0;stroke-width:0.15;"/>
   </g>
   <g id="line2d_74">
    <path clip-path="url(#p76b7ddc83b)" d="M 264.813851 155.52 
L 264.073644 156.710425 
L 261.393017 160.783844 
L 256.472061 166.852004 
L 249.094262 173.195858 
L 239.928839 178.439978 
L 230.244374 182.482833 
L 221.15198 185.991094 
L 213.50862 189.558408 
L 208.905134 192.515912 
L 209.114276 192.352459 
L 209.726896 191.878132 
L 208.905093 192.521466 
L 208.381379 192.953577 
L 208.774838 192.620579 
L 209.494713 192.01683 
L 209.050334 192.389121 
L 208.181201 193.153552 
L 208.331757 193.015384 
L 209.274795 192.156733 
L 209.263294 192.167024 
L 208.034193 193.321354 
L 207.952382 193.402891 
L 207.952382 193.402891 
L 207.952382 193.402891 
L 208.613055 192.731261 
L 209.146175 192.170068 
L 209.155292 192.160329 
L 209.155293 192.160329 
L 208.251452 193.150493 
L 207.416213 194.13843 
L 207.775709 193.693087 
L 208.97174 192.239375 
L 208.699045 192.563698 
L 207.127036 194.600484 
L 207.27801 194.384246 
L 208.708633 192.403763 
L 208.825699 192.243905 
L 206.971647 194.885807 
L 206.986318 194.853304 
L 208.672607 192.245689 
L 208.700023 192.195639 
L 206.772095 195.103214 
L 206.717106 195.189575 
L 208.371888 192.451382 
L 208.935385 191.627747 
L 207.581488 193.586237 
L 206.39779 195.516516 
L 206.39779 195.516515 
L 206.552738 195.239537 
L 207.326193 193.857896 
" style="fill:none;stroke:#ff0000;stroke-linecap:square;stroke-width:0.1;"/>
   </g>
   <g id="patch_6">
    <path d="M 93.458149 307.584 
L 93.458149 41.472 
" style="fill:none;stroke:#000000;stroke-linecap:square;stroke-linejoin:miter;stroke-width:0.8;"/>
   </g>
   <g id="patch_7">
    <path d="M 378.861851 307.584 
L 378.861851 41.472 
" style="fill:none;stroke:#000000;stroke-linecap:square;stroke-linejoin:miter;stroke-width:0.8;"/>
   </g>
   <g id="patch_8">
    <path d="M 93.458149 307.584 
L 378.861851 307.584 
" style="fill:none;stroke:#000000;stroke-linecap:square;stroke-linejoin:miter;stroke-width:0.8;"/>
   </g>
   <g id="patch_9">
    <path d="M 93.458149 41.472 
L 378.861851 41.472 
" style="fill:none;stroke:#000000;stroke-linecap:square;stroke-linejoin:miter;stroke-width:0.8;"/>
   </g>
   <g id="text_13">
    <!-- Case 7 -->
    <g transform="translate(215.751563 35.472)scale(0.12 -0.12)">
     <defs>
      <path d="M 64.40625 67.28125 
L 64.40625 56.890625 
Q 59.421875 61.53125 53.78125 63.8125 
Q 48.140625 66.109375 41.796875 66.109375 
Q 29.296875 66.109375 22.65625 58.46875 
Q 16.015625 50.828125 16.015625 36.375 
Q 16.015625 21.96875 22.65625 14.328125 
Q 29.296875 6.6875 41.796875 6.6875 
Q 48.140625 6.6875 53.78125 8.984375 
Q 59.421875 11.28125 64.40625 15.921875 
L 64.40625 5.609375 
Q 59.234375 2.09375 53.4375 0.328125 
Q 47.65625 -1.421875 41.21875 -1.421875 
Q 24.65625 -1.421875 15.125 8.703125 
Q 5.609375 18.84375 5.609375 36.375 
Q 5.609375 53.953125 15.125 64.078125 
Q 24.65625 74.21875 41.21875 74.21875 
Q 47.75 74.21875 53.53125 72.484375 
Q 59.328125 70.75 64.40625 67.28125 
z
" id="DejaVuSans-67"/>
      <path d="M 34.28125 27.484375 
Q 23.390625 27.484375 19.1875 25 
Q 14.984375 22.515625 14.984375 16.5 
Q 14.984375 11.71875 18.140625 8.90625 
Q 21.296875 6.109375 26.703125 6.109375 
Q 34.1875 6.109375 38.703125 11.40625 
Q 43.21875 16.703125 43.21875 25.484375 
L 43.21875 27.484375 
z
M 52.203125 31.203125 
L 52.203125 0 
L 43.21875 0 
L 43.21875 8.296875 
Q 40.140625 3.328125 35.546875 0.953125 
Q 30.953125 -1.421875 24.3125 -1.421875 
Q 15.921875 -1.421875 10.953125 3.296875 
Q 6 8.015625 6 15.921875 
Q 6 25.140625 12.171875 29.828125 
Q 18.359375 34.515625 30.609375 34.515625 
L 43.21875 34.515625 
L 43.21875 35.40625 
Q 43.21875 41.609375 39.140625 45 
Q 35.0625 48.390625 27.6875 48.390625 
Q 23 48.390625 18.546875 47.265625 
Q 14.109375 46.140625 10.015625 43.890625 
L 10.015625 52.203125 
Q 14.9375 54.109375 19.578125 55.046875 
Q 24.21875 56 28.609375 56 
Q 40.484375 56 46.34375 49.84375 
Q 52.203125 43.703125 52.203125 31.203125 
z
" id="DejaVuSans-97"/>
      <path d="M 44.28125 53.078125 
L 44.28125 44.578125 
Q 40.484375 46.53125 36.375 47.5 
Q 32.28125 48.484375 27.875 48.484375 
Q 21.1875 48.484375 17.84375 46.4375 
Q 14.5 44.390625 14.5 40.28125 
Q 14.5 37.15625 16.890625 35.375 
Q 19.28125 33.59375 26.515625 31.984375 
L 29.59375 31.296875 
Q 39.15625 29.25 43.1875 25.515625 
Q 47.21875 21.78125 47.21875 15.09375 
Q 47.21875 7.46875 41.1875 3.015625 
Q 35.15625 -1.421875 24.609375 -1.421875 
Q 20.21875 -1.421875 15.453125 -0.5625 
Q 10.6875 0.296875 5.421875 2 
L 5.421875 11.28125 
Q 10.40625 8.6875 15.234375 7.390625 
Q 20.0625 6.109375 24.8125 6.109375 
Q 31.15625 6.109375 34.5625 8.28125 
Q 37.984375 10.453125 37.984375 14.40625 
Q 37.984375 18.0625 35.515625 20.015625 
Q 33.0625 21.96875 24.703125 23.78125 
L 21.578125 24.515625 
Q 13.234375 26.265625 9.515625 29.90625 
Q 5.8125 33.546875 5.8125 39.890625 
Q 5.8125 47.609375 11.28125 51.796875 
Q 16.75 56 26.8125 56 
Q 31.78125 56 36.171875 55.265625 
Q 40.578125 54.546875 44.28125 53.078125 
z
" id="DejaVuSans-115"/>
      <path d="M 56.203125 29.59375 
L 56.203125 25.203125 
L 14.890625 25.203125 
Q 15.484375 15.921875 20.484375 11.0625 
Q 25.484375 6.203125 34.421875 6.203125 
Q 39.59375 6.203125 44.453125 7.46875 
Q 49.3125 8.734375 54.109375 11.28125 
L 54.109375 2.78125 
Q 49.265625 0.734375 44.1875 -0.34375 
Q 39.109375 -1.421875 33.890625 -1.421875 
Q 20.796875 -1.421875 13.15625 6.1875 
Q 5.515625 13.8125 5.515625 26.8125 
Q 5.515625 40.234375 12.765625 48.109375 
Q 20.015625 56 32.328125 56 
Q 43.359375 56 49.78125 48.890625 
Q 56.203125 41.796875 56.203125 29.59375 
z
M 47.21875 32.234375 
Q 47.125 39.59375 43.09375 43.984375 
Q 39.0625 48.390625 32.421875 48.390625 
Q 24.90625 48.390625 20.390625 44.140625 
Q 15.875 39.890625 15.1875 32.171875 
z
" id="DejaVuSans-101"/>
      <path d="M 8.203125 72.90625 
L 55.078125 72.90625 
L 55.078125 68.703125 
L 28.609375 0 
L 18.3125 0 
L 43.21875 64.59375 
L 8.203125 64.59375 
z
" id="DejaVuSans-55"/>
     </defs>
     <use xlink:href="#DejaVuSans-67"/>
     <use x="69.824219" xlink:href="#DejaVuSans-97"/>
     <use x="131.103516" xlink:href="#DejaVuSans-115"/>
     <use x="183.203125" xlink:href="#DejaVuSans-101"/>
     <use x="244.726562" xlink:href="#DejaVuSans-32"/>
     <use x="276.513672" xlink:href="#DejaVuSans-55"/>
    </g>
   </g>
  </g>
 </g>
 <defs>
  <clipPath id="p76b7ddc83b">
   <rect height="266.112" width="285.403701" x="93.458149" y="41.472"/>
  </clipPath>
 </defs>
</svg>
